G04 #@! TF.FileFunction,Legend,Bot*
%FSLAX46Y46*%
G04 Gerber Fmt 4.6, Leading zero omitted, Abs format (unit mm)*
G04 Created by KiCad (PCBNEW 4.0.7) date 05/28/18 17:48:26*
%MOMM*%
%LPD*%
G01*
G04 APERTURE LIST*
%ADD10C,0.100000*%
%ADD11C,0.120000*%
%ADD12C,0.150000*%
G04 APERTURE END LIST*
D10*
D11*
X147757000Y-132586000D02*
X146827000Y-132586000D01*
X144597000Y-132586000D02*
X145527000Y-132586000D01*
X144597000Y-132586000D02*
X144597000Y-130426000D01*
X147757000Y-132586000D02*
X147757000Y-131126000D01*
X169460000Y-122370000D02*
X169460000Y-123300000D01*
X169460000Y-125530000D02*
X169460000Y-124600000D01*
X169460000Y-125530000D02*
X167300000Y-125530000D01*
X169460000Y-122370000D02*
X168000000Y-122370000D01*
X148600000Y-139950000D02*
X148600000Y-138450000D01*
X148600000Y-138450000D02*
X149550000Y-138450000D01*
X149550000Y-138450000D02*
X149550000Y-133325000D01*
X159000000Y-139950000D02*
X159000000Y-138450000D01*
X159000000Y-138450000D02*
X158050000Y-138450000D01*
X158050000Y-138450000D02*
X158050000Y-137350000D01*
X174500000Y-121710000D02*
X172700000Y-121710000D01*
X172700000Y-118490000D02*
X175150000Y-118490000D01*
X162301000Y-78848000D02*
X162301000Y-77588000D01*
X162301000Y-72028000D02*
X162301000Y-73288000D01*
X166061000Y-78848000D02*
X162301000Y-78848000D01*
X168311000Y-72028000D02*
X162301000Y-72028000D01*
X169806000Y-140155000D02*
X169806000Y-138655000D01*
X169806000Y-138655000D02*
X170756000Y-138655000D01*
X170756000Y-138655000D02*
X170756000Y-133530000D01*
X180206000Y-140155000D02*
X180206000Y-138655000D01*
X180206000Y-138655000D02*
X179256000Y-138655000D01*
X179256000Y-138655000D02*
X179256000Y-137555000D01*
X185090000Y-76190000D02*
X186350000Y-76190000D01*
X191910000Y-76190000D02*
X190650000Y-76190000D01*
X185090000Y-79950000D02*
X185090000Y-76190000D01*
X191910000Y-82200000D02*
X191910000Y-76190000D01*
X136600000Y-86650000D02*
X135900000Y-86650000D01*
X135900000Y-87850000D02*
X136600000Y-87850000D01*
X142906000Y-91659000D02*
X143606000Y-91659000D01*
X143606000Y-90459000D02*
X142906000Y-90459000D01*
X162850000Y-133150000D02*
X162150000Y-133150000D01*
X162150000Y-134350000D02*
X162850000Y-134350000D01*
X189714000Y-71928000D02*
X189014000Y-71928000D01*
X189014000Y-73128000D02*
X189714000Y-73128000D01*
X175291000Y-116805000D02*
X175991000Y-116805000D01*
X175991000Y-115605000D02*
X175291000Y-115605000D01*
X135036000Y-73818000D02*
X135036000Y-74518000D01*
X136236000Y-74518000D02*
X136236000Y-73818000D01*
X138592000Y-73818000D02*
X138592000Y-74518000D01*
X139792000Y-74518000D02*
X139792000Y-73818000D01*
X151392000Y-94787000D02*
X152392000Y-94787000D01*
X152392000Y-93427000D02*
X151392000Y-93427000D01*
X152392000Y-96538500D02*
X151392000Y-96538500D01*
X151392000Y-97898500D02*
X152392000Y-97898500D01*
X151392000Y-96374500D02*
X152392000Y-96374500D01*
X152392000Y-95014500D02*
X151392000Y-95014500D01*
X170160000Y-127200000D02*
X170160000Y-126200000D01*
X168800000Y-126200000D02*
X168800000Y-127200000D01*
X185502000Y-64143000D02*
X185502000Y-65143000D01*
X186862000Y-65143000D02*
X186862000Y-64143000D01*
X177500000Y-106470000D02*
X176500000Y-106470000D01*
X176500000Y-107830000D02*
X177500000Y-107830000D01*
X189240000Y-64990000D02*
X189240000Y-63990000D01*
X187880000Y-63990000D02*
X187880000Y-64990000D01*
X134755000Y-90088000D02*
X135755000Y-90088000D01*
X135755000Y-88728000D02*
X134755000Y-88728000D01*
X165170000Y-123400000D02*
X165170000Y-124400000D01*
X166530000Y-124400000D02*
X166530000Y-123400000D01*
X145250000Y-95410000D02*
X145950000Y-95410000D01*
X145950000Y-94210000D02*
X145250000Y-94210000D01*
X136998000Y-84982800D02*
X136998000Y-84282800D01*
X135798000Y-84282800D02*
X135798000Y-84982800D01*
X185639000Y-94457000D02*
X185639000Y-93757000D01*
X184439000Y-93757000D02*
X184439000Y-94457000D01*
D12*
X180125000Y-84425000D02*
X180175000Y-84425000D01*
X180125000Y-88575000D02*
X180270000Y-88575000D01*
X185275000Y-88575000D02*
X185130000Y-88575000D01*
X185275000Y-84425000D02*
X185130000Y-84425000D01*
X180125000Y-84425000D02*
X180125000Y-88575000D01*
X185275000Y-84425000D02*
X185275000Y-88575000D01*
X180175000Y-84425000D02*
X180175000Y-83025000D01*
D11*
X158361000Y-81108000D02*
X157361000Y-81108000D01*
X157361000Y-82468000D02*
X158361000Y-82468000D01*
X158361000Y-82759000D02*
X157361000Y-82759000D01*
X157361000Y-84119000D02*
X158361000Y-84119000D01*
D12*
X149167838Y-132500619D02*
X149263076Y-132453000D01*
X149358314Y-132357762D01*
X149501171Y-132214905D01*
X149596410Y-132167286D01*
X149691648Y-132167286D01*
X149644029Y-132405381D02*
X149739267Y-132357762D01*
X149834505Y-132262524D01*
X149882124Y-132072048D01*
X149882124Y-131738714D01*
X149834505Y-131548238D01*
X149739267Y-131453000D01*
X149644029Y-131405381D01*
X149453552Y-131405381D01*
X149358314Y-131453000D01*
X149263076Y-131548238D01*
X149215457Y-131738714D01*
X149215457Y-132072048D01*
X149263076Y-132262524D01*
X149358314Y-132357762D01*
X149453552Y-132405381D01*
X149644029Y-132405381D01*
X148263076Y-132405381D02*
X148834505Y-132405381D01*
X148548791Y-132405381D02*
X148548791Y-131405381D01*
X148644029Y-131548238D01*
X148739267Y-131643476D01*
X148834505Y-131691095D01*
X166647619Y-123954762D02*
X166600000Y-123859524D01*
X166504762Y-123764286D01*
X166361905Y-123621429D01*
X166314286Y-123526190D01*
X166314286Y-123430952D01*
X166552381Y-123478571D02*
X166504762Y-123383333D01*
X166409524Y-123288095D01*
X166219048Y-123240476D01*
X165885714Y-123240476D01*
X165695238Y-123288095D01*
X165600000Y-123383333D01*
X165552381Y-123478571D01*
X165552381Y-123669048D01*
X165600000Y-123764286D01*
X165695238Y-123859524D01*
X165885714Y-123907143D01*
X166219048Y-123907143D01*
X166409524Y-123859524D01*
X166504762Y-123764286D01*
X166552381Y-123669048D01*
X166552381Y-123478571D01*
X165552381Y-124240476D02*
X165552381Y-124859524D01*
X165933333Y-124526190D01*
X165933333Y-124669048D01*
X165980952Y-124764286D01*
X166028571Y-124811905D01*
X166123810Y-124859524D01*
X166361905Y-124859524D01*
X166457143Y-124811905D01*
X166504762Y-124764286D01*
X166552381Y-124669048D01*
X166552381Y-124383333D01*
X166504762Y-124288095D01*
X166457143Y-124240476D01*
X154361905Y-150552381D02*
X154361905Y-151361905D01*
X154314286Y-151457143D01*
X154266667Y-151504762D01*
X154171429Y-151552381D01*
X153980952Y-151552381D01*
X153885714Y-151504762D01*
X153838095Y-151457143D01*
X153790476Y-151361905D01*
X153790476Y-150552381D01*
X153409524Y-150552381D02*
X152790476Y-150552381D01*
X153123810Y-150933333D01*
X152980952Y-150933333D01*
X152885714Y-150980952D01*
X152838095Y-151028571D01*
X152790476Y-151123810D01*
X152790476Y-151361905D01*
X152838095Y-151457143D01*
X152885714Y-151504762D01*
X152980952Y-151552381D01*
X153266667Y-151552381D01*
X153361905Y-151504762D01*
X153409524Y-151457143D01*
X174561905Y-117252381D02*
X174561905Y-118061905D01*
X174514286Y-118157143D01*
X174466667Y-118204762D01*
X174371429Y-118252381D01*
X174180952Y-118252381D01*
X174085714Y-118204762D01*
X174038095Y-118157143D01*
X173990476Y-118061905D01*
X173990476Y-117252381D01*
X173085714Y-117252381D02*
X173276191Y-117252381D01*
X173371429Y-117300000D01*
X173419048Y-117347619D01*
X173514286Y-117490476D01*
X173561905Y-117680952D01*
X173561905Y-118061905D01*
X173514286Y-118157143D01*
X173466667Y-118204762D01*
X173371429Y-118252381D01*
X173180952Y-118252381D01*
X173085714Y-118204762D01*
X173038095Y-118157143D01*
X172990476Y-118061905D01*
X172990476Y-117823810D01*
X173038095Y-117728571D01*
X173085714Y-117680952D01*
X173180952Y-117633333D01*
X173371429Y-117633333D01*
X173466667Y-117680952D01*
X173514286Y-117728571D01*
X173561905Y-117823810D01*
X158292705Y-74128381D02*
X158292705Y-74937905D01*
X158245086Y-75033143D01*
X158197467Y-75080762D01*
X158102229Y-75128381D01*
X157911752Y-75128381D01*
X157816514Y-75080762D01*
X157768895Y-75033143D01*
X157721276Y-74937905D01*
X157721276Y-74128381D01*
X157197467Y-75128381D02*
X157006991Y-75128381D01*
X156911752Y-75080762D01*
X156864133Y-75033143D01*
X156768895Y-74890286D01*
X156721276Y-74699810D01*
X156721276Y-74318857D01*
X156768895Y-74223619D01*
X156816514Y-74176000D01*
X156911752Y-74128381D01*
X157102229Y-74128381D01*
X157197467Y-74176000D01*
X157245086Y-74223619D01*
X157292705Y-74318857D01*
X157292705Y-74556952D01*
X157245086Y-74652190D01*
X157197467Y-74699810D01*
X157102229Y-74747429D01*
X156911752Y-74747429D01*
X156816514Y-74699810D01*
X156768895Y-74652190D01*
X156721276Y-74556952D01*
X177367905Y-150557381D02*
X177367905Y-151366905D01*
X177320286Y-151462143D01*
X177272667Y-151509762D01*
X177177429Y-151557381D01*
X176986952Y-151557381D01*
X176891714Y-151509762D01*
X176844095Y-151462143D01*
X176796476Y-151366905D01*
X176796476Y-150557381D01*
X176177429Y-150985952D02*
X176272667Y-150938333D01*
X176320286Y-150890714D01*
X176367905Y-150795476D01*
X176367905Y-150747857D01*
X176320286Y-150652619D01*
X176272667Y-150605000D01*
X176177429Y-150557381D01*
X175986952Y-150557381D01*
X175891714Y-150605000D01*
X175844095Y-150652619D01*
X175796476Y-150747857D01*
X175796476Y-150795476D01*
X175844095Y-150890714D01*
X175891714Y-150938333D01*
X175986952Y-150985952D01*
X176177429Y-150985952D01*
X176272667Y-151033571D01*
X176320286Y-151081190D01*
X176367905Y-151176429D01*
X176367905Y-151366905D01*
X176320286Y-151462143D01*
X176272667Y-151509762D01*
X176177429Y-151557381D01*
X175986952Y-151557381D01*
X175891714Y-151509762D01*
X175844095Y-151462143D01*
X175796476Y-151366905D01*
X175796476Y-151176429D01*
X175844095Y-151081190D01*
X175891714Y-151033571D01*
X175986952Y-150985952D01*
X184929781Y-70740505D02*
X185739305Y-70740505D01*
X185834543Y-70788124D01*
X185882162Y-70835743D01*
X185929781Y-70930981D01*
X185929781Y-71121458D01*
X185882162Y-71216696D01*
X185834543Y-71264315D01*
X185739305Y-71311934D01*
X184929781Y-71311934D01*
X185929781Y-72311934D02*
X185929781Y-71740505D01*
X185929781Y-72026219D02*
X184929781Y-72026219D01*
X185072638Y-71930981D01*
X185167876Y-71835743D01*
X185215495Y-71740505D01*
X185263114Y-73169077D02*
X185929781Y-73169077D01*
X184882162Y-72930981D02*
X185596448Y-72692886D01*
X185596448Y-73311934D01*
X133368666Y-87734143D02*
X133416285Y-87781762D01*
X133559142Y-87829381D01*
X133654380Y-87829381D01*
X133797238Y-87781762D01*
X133892476Y-87686524D01*
X133940095Y-87591286D01*
X133987714Y-87400810D01*
X133987714Y-87257952D01*
X133940095Y-87067476D01*
X133892476Y-86972238D01*
X133797238Y-86877000D01*
X133654380Y-86829381D01*
X133559142Y-86829381D01*
X133416285Y-86877000D01*
X133368666Y-86924619D01*
X132511523Y-87162714D02*
X132511523Y-87829381D01*
X132749619Y-86781762D02*
X132987714Y-87496048D01*
X132368666Y-87496048D01*
X143898857Y-92816143D02*
X143946476Y-92863762D01*
X144089333Y-92911381D01*
X144184571Y-92911381D01*
X144327429Y-92863762D01*
X144422667Y-92768524D01*
X144470286Y-92673286D01*
X144517905Y-92482810D01*
X144517905Y-92339952D01*
X144470286Y-92149476D01*
X144422667Y-92054238D01*
X144327429Y-91959000D01*
X144184571Y-91911381D01*
X144089333Y-91911381D01*
X143946476Y-91959000D01*
X143898857Y-92006619D01*
X142946476Y-92911381D02*
X143517905Y-92911381D01*
X143232191Y-92911381D02*
X143232191Y-91911381D01*
X143327429Y-92054238D01*
X143422667Y-92149476D01*
X143517905Y-92197095D01*
X142327429Y-91911381D02*
X142232190Y-91911381D01*
X142136952Y-91959000D01*
X142089333Y-92006619D01*
X142041714Y-92101857D01*
X141994095Y-92292333D01*
X141994095Y-92530429D01*
X142041714Y-92720905D01*
X142089333Y-92816143D01*
X142136952Y-92863762D01*
X142232190Y-92911381D01*
X142327429Y-92911381D01*
X142422667Y-92863762D01*
X142470286Y-92816143D01*
X142517905Y-92720905D01*
X142565524Y-92530429D01*
X142565524Y-92292333D01*
X142517905Y-92101857D01*
X142470286Y-92006619D01*
X142422667Y-91959000D01*
X142327429Y-91911381D01*
X159842857Y-134107143D02*
X159890476Y-134154762D01*
X160033333Y-134202381D01*
X160128571Y-134202381D01*
X160271429Y-134154762D01*
X160366667Y-134059524D01*
X160414286Y-133964286D01*
X160461905Y-133773810D01*
X160461905Y-133630952D01*
X160414286Y-133440476D01*
X160366667Y-133345238D01*
X160271429Y-133250000D01*
X160128571Y-133202381D01*
X160033333Y-133202381D01*
X159890476Y-133250000D01*
X159842857Y-133297619D01*
X158890476Y-134202381D02*
X159461905Y-134202381D01*
X159176191Y-134202381D02*
X159176191Y-133202381D01*
X159271429Y-133345238D01*
X159366667Y-133440476D01*
X159461905Y-133488095D01*
X158557143Y-133202381D02*
X157938095Y-133202381D01*
X158271429Y-133583333D01*
X158128571Y-133583333D01*
X158033333Y-133630952D01*
X157985714Y-133678571D01*
X157938095Y-133773810D01*
X157938095Y-134011905D01*
X157985714Y-134107143D01*
X158033333Y-134154762D01*
X158128571Y-134202381D01*
X158414286Y-134202381D01*
X158509524Y-134154762D01*
X158557143Y-134107143D01*
X192642143Y-71859743D02*
X192689762Y-71812124D01*
X192737381Y-71669267D01*
X192737381Y-71574029D01*
X192689762Y-71431171D01*
X192594524Y-71335933D01*
X192499286Y-71288314D01*
X192308810Y-71240695D01*
X192165952Y-71240695D01*
X191975476Y-71288314D01*
X191880238Y-71335933D01*
X191785000Y-71431171D01*
X191737381Y-71574029D01*
X191737381Y-71669267D01*
X191785000Y-71812124D01*
X191832619Y-71859743D01*
X191832619Y-72240695D02*
X191785000Y-72288314D01*
X191737381Y-72383552D01*
X191737381Y-72621648D01*
X191785000Y-72716886D01*
X191832619Y-72764505D01*
X191927857Y-72812124D01*
X192023095Y-72812124D01*
X192165952Y-72764505D01*
X192737381Y-72193076D01*
X192737381Y-72812124D01*
X191832619Y-73193076D02*
X191785000Y-73240695D01*
X191737381Y-73335933D01*
X191737381Y-73574029D01*
X191785000Y-73669267D01*
X191832619Y-73716886D01*
X191927857Y-73764505D01*
X192023095Y-73764505D01*
X192165952Y-73716886D01*
X192737381Y-73145457D01*
X192737381Y-73764505D01*
X176283857Y-115062143D02*
X176331476Y-115109762D01*
X176474333Y-115157381D01*
X176569571Y-115157381D01*
X176712429Y-115109762D01*
X176807667Y-115014524D01*
X176855286Y-114919286D01*
X176902905Y-114728810D01*
X176902905Y-114585952D01*
X176855286Y-114395476D01*
X176807667Y-114300238D01*
X176712429Y-114205000D01*
X176569571Y-114157381D01*
X176474333Y-114157381D01*
X176331476Y-114205000D01*
X176283857Y-114252619D01*
X175902905Y-114252619D02*
X175855286Y-114205000D01*
X175760048Y-114157381D01*
X175521952Y-114157381D01*
X175426714Y-114205000D01*
X175379095Y-114252619D01*
X175331476Y-114347857D01*
X175331476Y-114443095D01*
X175379095Y-114585952D01*
X175950524Y-115157381D01*
X175331476Y-115157381D01*
X174426714Y-114157381D02*
X174902905Y-114157381D01*
X174950524Y-114633571D01*
X174902905Y-114585952D01*
X174807667Y-114538333D01*
X174569571Y-114538333D01*
X174474333Y-114585952D01*
X174426714Y-114633571D01*
X174379095Y-114728810D01*
X174379095Y-114966905D01*
X174426714Y-115062143D01*
X174474333Y-115109762D01*
X174569571Y-115157381D01*
X174807667Y-115157381D01*
X174902905Y-115109762D01*
X174950524Y-115062143D01*
X135893143Y-70225143D02*
X135940762Y-70177524D01*
X135988381Y-70034667D01*
X135988381Y-69939429D01*
X135940762Y-69796571D01*
X135845524Y-69701333D01*
X135750286Y-69653714D01*
X135559810Y-69606095D01*
X135416952Y-69606095D01*
X135226476Y-69653714D01*
X135131238Y-69701333D01*
X135036000Y-69796571D01*
X134988381Y-69939429D01*
X134988381Y-70034667D01*
X135036000Y-70177524D01*
X135083619Y-70225143D01*
X135321714Y-71082286D02*
X135988381Y-71082286D01*
X134940762Y-70844190D02*
X135655048Y-70606095D01*
X135655048Y-71225143D01*
X135083619Y-71558476D02*
X135036000Y-71606095D01*
X134988381Y-71701333D01*
X134988381Y-71939429D01*
X135036000Y-72034667D01*
X135083619Y-72082286D01*
X135178857Y-72129905D01*
X135274095Y-72129905D01*
X135416952Y-72082286D01*
X135988381Y-71510857D01*
X135988381Y-72129905D01*
X139541143Y-70210143D02*
X139588762Y-70162524D01*
X139636381Y-70019667D01*
X139636381Y-69924429D01*
X139588762Y-69781571D01*
X139493524Y-69686333D01*
X139398286Y-69638714D01*
X139207810Y-69591095D01*
X139064952Y-69591095D01*
X138874476Y-69638714D01*
X138779238Y-69686333D01*
X138684000Y-69781571D01*
X138636381Y-69924429D01*
X138636381Y-70019667D01*
X138684000Y-70162524D01*
X138731619Y-70210143D01*
X138969714Y-71067286D02*
X139636381Y-71067286D01*
X138588762Y-70829190D02*
X139303048Y-70591095D01*
X139303048Y-71210143D01*
X138636381Y-71495857D02*
X138636381Y-72114905D01*
X139017333Y-71781571D01*
X139017333Y-71924429D01*
X139064952Y-72019667D01*
X139112571Y-72067286D01*
X139207810Y-72114905D01*
X139445905Y-72114905D01*
X139541143Y-72067286D01*
X139588762Y-72019667D01*
X139636381Y-71924429D01*
X139636381Y-71638714D01*
X139588762Y-71543476D01*
X139541143Y-71495857D01*
X156167057Y-94711781D02*
X156500391Y-94235590D01*
X156738486Y-94711781D02*
X156738486Y-93711781D01*
X156357533Y-93711781D01*
X156262295Y-93759400D01*
X156214676Y-93807019D01*
X156167057Y-93902257D01*
X156167057Y-94045114D01*
X156214676Y-94140352D01*
X156262295Y-94187971D01*
X156357533Y-94235590D01*
X156738486Y-94235590D01*
X155833724Y-93711781D02*
X155214676Y-93711781D01*
X155548010Y-94092733D01*
X155405152Y-94092733D01*
X155309914Y-94140352D01*
X155262295Y-94187971D01*
X155214676Y-94283210D01*
X155214676Y-94521305D01*
X155262295Y-94616543D01*
X155309914Y-94664162D01*
X155405152Y-94711781D01*
X155690867Y-94711781D01*
X155786105Y-94664162D01*
X155833724Y-94616543D01*
X154262295Y-94711781D02*
X154833724Y-94711781D01*
X154548010Y-94711781D02*
X154548010Y-93711781D01*
X154643248Y-93854638D01*
X154738486Y-93949876D01*
X154833724Y-93997495D01*
X156370257Y-97823281D02*
X156703591Y-97347090D01*
X156941686Y-97823281D02*
X156941686Y-96823281D01*
X156560733Y-96823281D01*
X156465495Y-96870900D01*
X156417876Y-96918519D01*
X156370257Y-97013757D01*
X156370257Y-97156614D01*
X156417876Y-97251852D01*
X156465495Y-97299471D01*
X156560733Y-97347090D01*
X156941686Y-97347090D01*
X156036924Y-96823281D02*
X155417876Y-96823281D01*
X155751210Y-97204233D01*
X155608352Y-97204233D01*
X155513114Y-97251852D01*
X155465495Y-97299471D01*
X155417876Y-97394710D01*
X155417876Y-97632805D01*
X155465495Y-97728043D01*
X155513114Y-97775662D01*
X155608352Y-97823281D01*
X155894067Y-97823281D01*
X155989305Y-97775662D01*
X156036924Y-97728043D01*
X155036924Y-96918519D02*
X154989305Y-96870900D01*
X154894067Y-96823281D01*
X154655971Y-96823281D01*
X154560733Y-96870900D01*
X154513114Y-96918519D01*
X154465495Y-97013757D01*
X154465495Y-97108995D01*
X154513114Y-97251852D01*
X155084543Y-97823281D01*
X154465495Y-97823281D01*
X156192457Y-96172281D02*
X156525791Y-95696090D01*
X156763886Y-96172281D02*
X156763886Y-95172281D01*
X156382933Y-95172281D01*
X156287695Y-95219900D01*
X156240076Y-95267519D01*
X156192457Y-95362757D01*
X156192457Y-95505614D01*
X156240076Y-95600852D01*
X156287695Y-95648471D01*
X156382933Y-95696090D01*
X156763886Y-95696090D01*
X155859124Y-95172281D02*
X155240076Y-95172281D01*
X155573410Y-95553233D01*
X155430552Y-95553233D01*
X155335314Y-95600852D01*
X155287695Y-95648471D01*
X155240076Y-95743710D01*
X155240076Y-95981805D01*
X155287695Y-96077043D01*
X155335314Y-96124662D01*
X155430552Y-96172281D01*
X155716267Y-96172281D01*
X155811505Y-96124662D01*
X155859124Y-96077043D01*
X154906743Y-95172281D02*
X154287695Y-95172281D01*
X154621029Y-95553233D01*
X154478171Y-95553233D01*
X154382933Y-95600852D01*
X154335314Y-95648471D01*
X154287695Y-95743710D01*
X154287695Y-95981805D01*
X154335314Y-96077043D01*
X154382933Y-96124662D01*
X154478171Y-96172281D01*
X154763886Y-96172281D01*
X154859124Y-96124662D01*
X154906743Y-96077043D01*
X168535381Y-125930143D02*
X168059190Y-125596809D01*
X168535381Y-125358714D02*
X167535381Y-125358714D01*
X167535381Y-125739667D01*
X167583000Y-125834905D01*
X167630619Y-125882524D01*
X167725857Y-125930143D01*
X167868714Y-125930143D01*
X167963952Y-125882524D01*
X168011571Y-125834905D01*
X168059190Y-125739667D01*
X168059190Y-125358714D01*
X167535381Y-126263476D02*
X167535381Y-126882524D01*
X167916333Y-126549190D01*
X167916333Y-126692048D01*
X167963952Y-126787286D01*
X168011571Y-126834905D01*
X168106810Y-126882524D01*
X168344905Y-126882524D01*
X168440143Y-126834905D01*
X168487762Y-126787286D01*
X168535381Y-126692048D01*
X168535381Y-126406333D01*
X168487762Y-126311095D01*
X168440143Y-126263476D01*
X167868714Y-127739667D02*
X168535381Y-127739667D01*
X167487762Y-127501571D02*
X168202048Y-127263476D01*
X168202048Y-127882524D01*
X184843657Y-67648081D02*
X185176991Y-67171890D01*
X185415086Y-67648081D02*
X185415086Y-66648081D01*
X185034133Y-66648081D01*
X184938895Y-66695700D01*
X184891276Y-66743319D01*
X184843657Y-66838557D01*
X184843657Y-66981414D01*
X184891276Y-67076652D01*
X184938895Y-67124271D01*
X185034133Y-67171890D01*
X185415086Y-67171890D01*
X184510324Y-66648081D02*
X183891276Y-66648081D01*
X184224610Y-67029033D01*
X184081752Y-67029033D01*
X183986514Y-67076652D01*
X183938895Y-67124271D01*
X183891276Y-67219510D01*
X183891276Y-67457605D01*
X183938895Y-67552843D01*
X183986514Y-67600462D01*
X184081752Y-67648081D01*
X184367467Y-67648081D01*
X184462705Y-67600462D01*
X184510324Y-67552843D01*
X182986514Y-66648081D02*
X183462705Y-66648081D01*
X183510324Y-67124271D01*
X183462705Y-67076652D01*
X183367467Y-67029033D01*
X183129371Y-67029033D01*
X183034133Y-67076652D01*
X182986514Y-67124271D01*
X182938895Y-67219510D01*
X182938895Y-67457605D01*
X182986514Y-67552843D01*
X183034133Y-67600462D01*
X183129371Y-67648081D01*
X183367467Y-67648081D01*
X183462705Y-67600462D01*
X183510324Y-67552843D01*
X174042857Y-107702381D02*
X174376191Y-107226190D01*
X174614286Y-107702381D02*
X174614286Y-106702381D01*
X174233333Y-106702381D01*
X174138095Y-106750000D01*
X174090476Y-106797619D01*
X174042857Y-106892857D01*
X174042857Y-107035714D01*
X174090476Y-107130952D01*
X174138095Y-107178571D01*
X174233333Y-107226190D01*
X174614286Y-107226190D01*
X173709524Y-106702381D02*
X173090476Y-106702381D01*
X173423810Y-107083333D01*
X173280952Y-107083333D01*
X173185714Y-107130952D01*
X173138095Y-107178571D01*
X173090476Y-107273810D01*
X173090476Y-107511905D01*
X173138095Y-107607143D01*
X173185714Y-107654762D01*
X173280952Y-107702381D01*
X173566667Y-107702381D01*
X173661905Y-107654762D01*
X173709524Y-107607143D01*
X172614286Y-107702381D02*
X172423810Y-107702381D01*
X172328571Y-107654762D01*
X172280952Y-107607143D01*
X172185714Y-107464286D01*
X172138095Y-107273810D01*
X172138095Y-106892857D01*
X172185714Y-106797619D01*
X172233333Y-106750000D01*
X172328571Y-106702381D01*
X172519048Y-106702381D01*
X172614286Y-106750000D01*
X172661905Y-106797619D01*
X172709524Y-106892857D01*
X172709524Y-107130952D01*
X172661905Y-107226190D01*
X172614286Y-107273810D01*
X172519048Y-107321429D01*
X172328571Y-107321429D01*
X172233333Y-107273810D01*
X172185714Y-107226190D01*
X172138095Y-107130952D01*
X189317157Y-62262681D02*
X189650491Y-61786490D01*
X189888586Y-62262681D02*
X189888586Y-61262681D01*
X189507633Y-61262681D01*
X189412395Y-61310300D01*
X189364776Y-61357919D01*
X189317157Y-61453157D01*
X189317157Y-61596014D01*
X189364776Y-61691252D01*
X189412395Y-61738871D01*
X189507633Y-61786490D01*
X189888586Y-61786490D01*
X188460014Y-61596014D02*
X188460014Y-62262681D01*
X188698110Y-61215062D02*
X188936205Y-61929348D01*
X188317157Y-61929348D01*
X187745729Y-61262681D02*
X187650490Y-61262681D01*
X187555252Y-61310300D01*
X187507633Y-61357919D01*
X187460014Y-61453157D01*
X187412395Y-61643633D01*
X187412395Y-61881729D01*
X187460014Y-62072205D01*
X187507633Y-62167443D01*
X187555252Y-62215062D01*
X187650490Y-62262681D01*
X187745729Y-62262681D01*
X187840967Y-62215062D01*
X187888586Y-62167443D01*
X187936205Y-62072205D01*
X187983824Y-61881729D01*
X187983824Y-61643633D01*
X187936205Y-61453157D01*
X187888586Y-61357919D01*
X187840967Y-61310300D01*
X187745729Y-61262681D01*
X135897857Y-91511381D02*
X136231191Y-91035190D01*
X136469286Y-91511381D02*
X136469286Y-90511381D01*
X136088333Y-90511381D01*
X135993095Y-90559000D01*
X135945476Y-90606619D01*
X135897857Y-90701857D01*
X135897857Y-90844714D01*
X135945476Y-90939952D01*
X135993095Y-90987571D01*
X136088333Y-91035190D01*
X136469286Y-91035190D01*
X135040714Y-90844714D02*
X135040714Y-91511381D01*
X135278810Y-90463762D02*
X135516905Y-91178048D01*
X134897857Y-91178048D01*
X133993095Y-91511381D02*
X134564524Y-91511381D01*
X134278810Y-91511381D02*
X134278810Y-90511381D01*
X134374048Y-90654238D01*
X134469286Y-90749476D01*
X134564524Y-90797095D01*
X166102381Y-126457143D02*
X165626190Y-126123809D01*
X166102381Y-125885714D02*
X165102381Y-125885714D01*
X165102381Y-126266667D01*
X165150000Y-126361905D01*
X165197619Y-126409524D01*
X165292857Y-126457143D01*
X165435714Y-126457143D01*
X165530952Y-126409524D01*
X165578571Y-126361905D01*
X165626190Y-126266667D01*
X165626190Y-125885714D01*
X165435714Y-127314286D02*
X166102381Y-127314286D01*
X165054762Y-127076190D02*
X165769048Y-126838095D01*
X165769048Y-127457143D01*
X165102381Y-127742857D02*
X165102381Y-128361905D01*
X165483333Y-128028571D01*
X165483333Y-128171429D01*
X165530952Y-128266667D01*
X165578571Y-128314286D01*
X165673810Y-128361905D01*
X165911905Y-128361905D01*
X166007143Y-128314286D01*
X166054762Y-128266667D01*
X166102381Y-128171429D01*
X166102381Y-127885714D01*
X166054762Y-127790476D01*
X166007143Y-127742857D01*
X146242857Y-96467143D02*
X146290476Y-96514762D01*
X146433333Y-96562381D01*
X146528571Y-96562381D01*
X146671429Y-96514762D01*
X146766667Y-96419524D01*
X146814286Y-96324286D01*
X146861905Y-96133810D01*
X146861905Y-95990952D01*
X146814286Y-95800476D01*
X146766667Y-95705238D01*
X146671429Y-95610000D01*
X146528571Y-95562381D01*
X146433333Y-95562381D01*
X146290476Y-95610000D01*
X146242857Y-95657619D01*
X145909524Y-95562381D02*
X145290476Y-95562381D01*
X145623810Y-95943333D01*
X145480952Y-95943333D01*
X145385714Y-95990952D01*
X145338095Y-96038571D01*
X145290476Y-96133810D01*
X145290476Y-96371905D01*
X145338095Y-96467143D01*
X145385714Y-96514762D01*
X145480952Y-96562381D01*
X145766667Y-96562381D01*
X145861905Y-96514762D01*
X145909524Y-96467143D01*
X144719048Y-95990952D02*
X144814286Y-95943333D01*
X144861905Y-95895714D01*
X144909524Y-95800476D01*
X144909524Y-95752857D01*
X144861905Y-95657619D01*
X144814286Y-95610000D01*
X144719048Y-95562381D01*
X144528571Y-95562381D01*
X144433333Y-95610000D01*
X144385714Y-95657619D01*
X144338095Y-95752857D01*
X144338095Y-95800476D01*
X144385714Y-95895714D01*
X144433333Y-95943333D01*
X144528571Y-95990952D01*
X144719048Y-95990952D01*
X144814286Y-96038571D01*
X144861905Y-96086190D01*
X144909524Y-96181429D01*
X144909524Y-96371905D01*
X144861905Y-96467143D01*
X144814286Y-96514762D01*
X144719048Y-96562381D01*
X144528571Y-96562381D01*
X144433333Y-96514762D01*
X144385714Y-96467143D01*
X144338095Y-96371905D01*
X144338095Y-96181429D01*
X144385714Y-96086190D01*
X144433333Y-96038571D01*
X144528571Y-95990952D01*
X137955143Y-83989943D02*
X138002762Y-83942324D01*
X138050381Y-83799467D01*
X138050381Y-83704229D01*
X138002762Y-83561371D01*
X137907524Y-83466133D01*
X137812286Y-83418514D01*
X137621810Y-83370895D01*
X137478952Y-83370895D01*
X137288476Y-83418514D01*
X137193238Y-83466133D01*
X137098000Y-83561371D01*
X137050381Y-83704229D01*
X137050381Y-83799467D01*
X137098000Y-83942324D01*
X137145619Y-83989943D01*
X137050381Y-84323276D02*
X137050381Y-84942324D01*
X137431333Y-84608990D01*
X137431333Y-84751848D01*
X137478952Y-84847086D01*
X137526571Y-84894705D01*
X137621810Y-84942324D01*
X137859905Y-84942324D01*
X137955143Y-84894705D01*
X138002762Y-84847086D01*
X138050381Y-84751848D01*
X138050381Y-84466133D01*
X138002762Y-84370895D01*
X137955143Y-84323276D01*
X138050381Y-85418514D02*
X138050381Y-85608990D01*
X138002762Y-85704229D01*
X137955143Y-85751848D01*
X137812286Y-85847086D01*
X137621810Y-85894705D01*
X137240857Y-85894705D01*
X137145619Y-85847086D01*
X137098000Y-85799467D01*
X137050381Y-85704229D01*
X137050381Y-85513752D01*
X137098000Y-85418514D01*
X137145619Y-85370895D01*
X137240857Y-85323276D01*
X137478952Y-85323276D01*
X137574190Y-85370895D01*
X137621810Y-85418514D01*
X137669429Y-85513752D01*
X137669429Y-85704229D01*
X137621810Y-85799467D01*
X137574190Y-85847086D01*
X137478952Y-85894705D01*
X185596143Y-90264143D02*
X185643762Y-90216524D01*
X185691381Y-90073667D01*
X185691381Y-89978429D01*
X185643762Y-89835571D01*
X185548524Y-89740333D01*
X185453286Y-89692714D01*
X185262810Y-89645095D01*
X185119952Y-89645095D01*
X184929476Y-89692714D01*
X184834238Y-89740333D01*
X184739000Y-89835571D01*
X184691381Y-89978429D01*
X184691381Y-90073667D01*
X184739000Y-90216524D01*
X184786619Y-90264143D01*
X184691381Y-90597476D02*
X184691381Y-91216524D01*
X185072333Y-90883190D01*
X185072333Y-91026048D01*
X185119952Y-91121286D01*
X185167571Y-91168905D01*
X185262810Y-91216524D01*
X185500905Y-91216524D01*
X185596143Y-91168905D01*
X185643762Y-91121286D01*
X185691381Y-91026048D01*
X185691381Y-90740333D01*
X185643762Y-90645095D01*
X185596143Y-90597476D01*
X184786619Y-91597476D02*
X184739000Y-91645095D01*
X184691381Y-91740333D01*
X184691381Y-91978429D01*
X184739000Y-92073667D01*
X184786619Y-92121286D01*
X184881857Y-92168905D01*
X184977095Y-92168905D01*
X185119952Y-92121286D01*
X185691381Y-91549857D01*
X185691381Y-92168905D01*
X178652381Y-85738095D02*
X179461905Y-85738095D01*
X179557143Y-85785714D01*
X179604762Y-85833333D01*
X179652381Y-85928571D01*
X179652381Y-86119048D01*
X179604762Y-86214286D01*
X179557143Y-86261905D01*
X179461905Y-86309524D01*
X178652381Y-86309524D01*
X178985714Y-87214286D02*
X179652381Y-87214286D01*
X178604762Y-86976190D02*
X179319048Y-86738095D01*
X179319048Y-87357143D01*
X162103857Y-82240381D02*
X162437191Y-81764190D01*
X162675286Y-82240381D02*
X162675286Y-81240381D01*
X162294333Y-81240381D01*
X162199095Y-81288000D01*
X162151476Y-81335619D01*
X162103857Y-81430857D01*
X162103857Y-81573714D01*
X162151476Y-81668952D01*
X162199095Y-81716571D01*
X162294333Y-81764190D01*
X162675286Y-81764190D01*
X161199095Y-81240381D02*
X161675286Y-81240381D01*
X161722905Y-81716571D01*
X161675286Y-81668952D01*
X161580048Y-81621333D01*
X161341952Y-81621333D01*
X161246714Y-81668952D01*
X161199095Y-81716571D01*
X161151476Y-81811810D01*
X161151476Y-82049905D01*
X161199095Y-82145143D01*
X161246714Y-82192762D01*
X161341952Y-82240381D01*
X161580048Y-82240381D01*
X161675286Y-82192762D01*
X161722905Y-82145143D01*
X160246714Y-81240381D02*
X160722905Y-81240381D01*
X160770524Y-81716571D01*
X160722905Y-81668952D01*
X160627667Y-81621333D01*
X160389571Y-81621333D01*
X160294333Y-81668952D01*
X160246714Y-81716571D01*
X160199095Y-81811810D01*
X160199095Y-82049905D01*
X160246714Y-82145143D01*
X160294333Y-82192762D01*
X160389571Y-82240381D01*
X160627667Y-82240381D01*
X160722905Y-82192762D01*
X160770524Y-82145143D01*
X162103857Y-83891381D02*
X162437191Y-83415190D01*
X162675286Y-83891381D02*
X162675286Y-82891381D01*
X162294333Y-82891381D01*
X162199095Y-82939000D01*
X162151476Y-82986619D01*
X162103857Y-83081857D01*
X162103857Y-83224714D01*
X162151476Y-83319952D01*
X162199095Y-83367571D01*
X162294333Y-83415190D01*
X162675286Y-83415190D01*
X161199095Y-82891381D02*
X161675286Y-82891381D01*
X161722905Y-83367571D01*
X161675286Y-83319952D01*
X161580048Y-83272333D01*
X161341952Y-83272333D01*
X161246714Y-83319952D01*
X161199095Y-83367571D01*
X161151476Y-83462810D01*
X161151476Y-83700905D01*
X161199095Y-83796143D01*
X161246714Y-83843762D01*
X161341952Y-83891381D01*
X161580048Y-83891381D01*
X161675286Y-83843762D01*
X161722905Y-83796143D01*
X160294333Y-82891381D02*
X160484810Y-82891381D01*
X160580048Y-82939000D01*
X160627667Y-82986619D01*
X160722905Y-83129476D01*
X160770524Y-83319952D01*
X160770524Y-83700905D01*
X160722905Y-83796143D01*
X160675286Y-83843762D01*
X160580048Y-83891381D01*
X160389571Y-83891381D01*
X160294333Y-83843762D01*
X160246714Y-83796143D01*
X160199095Y-83700905D01*
X160199095Y-83462810D01*
X160246714Y-83367571D01*
X160294333Y-83319952D01*
X160389571Y-83272333D01*
X160580048Y-83272333D01*
X160675286Y-83319952D01*
X160722905Y-83367571D01*
X160770524Y-83462810D01*
M02*
