G04 #@! TF.FileFunction,Soldermask,Bot*
%FSLAX46Y46*%
G04 Gerber Fmt 4.6, Leading zero omitted, Abs format (unit mm)*
G04 Created by KiCad (PCBNEW 4.0.7) date 05/26/18 19:20:07*
%MOMM*%
%LPD*%
G01*
G04 APERTURE LIST*
%ADD10C,0.100000*%
%ADD11R,3.900000X3.900000*%
%ADD12R,1.200000X1.300000*%
%ADD13R,1.300000X1.200000*%
%ADD14R,1.500000X5.000000*%
%ADD15R,11.200000X9.800000*%
%ADD16R,2.000000X2.000000*%
%ADD17C,2.000000*%
%ADD18R,1.460000X1.050000*%
%ADD19R,2.100000X2.100000*%
%ADD20O,2.100000X2.100000*%
%ADD21R,2.400000X4.200000*%
%ADD22R,2.400000X1.900000*%
%ADD23R,4.200000X2.400000*%
%ADD24R,1.900000X2.400000*%
%ADD25R,1.600000X1.150000*%
%ADD26R,1.150000X1.600000*%
%ADD27C,3.000000*%
%ADD28O,1.650000X1.350000*%
%ADD29O,1.400000X1.950000*%
%ADD30R,1.600000X1.300000*%
%ADD31R,1.300000X1.600000*%
%ADD32C,1.900000*%
%ADD33C,3.400000*%
%ADD34R,1.000000X1.950000*%
%ADD35C,2.900000*%
G04 APERTURE END LIST*
D10*
D11*
X181356000Y-127381000D03*
X187356000Y-127381000D03*
X184356000Y-122681000D03*
D12*
X145227000Y-130826000D03*
X147127000Y-130826000D03*
X146177000Y-132826000D03*
D13*
X167700000Y-124900000D03*
X167700000Y-123000000D03*
X169700000Y-123950000D03*
D14*
X150400000Y-135625000D03*
X152100000Y-135625000D03*
X153800000Y-135625000D03*
X155500000Y-135625000D03*
X157200000Y-135625000D03*
D15*
X153800000Y-144775000D03*
D16*
X144151000Y-147872000D03*
D17*
X144151000Y-145372000D03*
D16*
X161036000Y-136144000D03*
D17*
X161036000Y-138644000D03*
D16*
X185900000Y-116500000D03*
D17*
X185900000Y-114000000D03*
D18*
X174700000Y-119150000D03*
X174700000Y-120100000D03*
X174700000Y-121050000D03*
X172500000Y-121050000D03*
X172500000Y-119150000D03*
D19*
X159519000Y-64654000D03*
D20*
X162059000Y-64654000D03*
X164599000Y-64654000D03*
X167139000Y-64654000D03*
D21*
X161061000Y-75438000D03*
D22*
X167361000Y-75438000D03*
X167361000Y-77738000D03*
X167361000Y-73138000D03*
D19*
X189738000Y-84328000D03*
D20*
X189738000Y-86868000D03*
D14*
X171606000Y-135830000D03*
X173306000Y-135830000D03*
X175006000Y-135830000D03*
X176706000Y-135830000D03*
X178406000Y-135830000D03*
D15*
X175006000Y-144980000D03*
D23*
X188500000Y-74950000D03*
D24*
X188500000Y-81250000D03*
X186200000Y-81250000D03*
X190800000Y-81250000D03*
D19*
X177680000Y-64654000D03*
D20*
X175140000Y-64654000D03*
X172600000Y-64654000D03*
D25*
X137200000Y-87250000D03*
X135300000Y-87250000D03*
X142306000Y-91059000D03*
X144206000Y-91059000D03*
X163450000Y-133750000D03*
X161550000Y-133750000D03*
D16*
X183642000Y-136906000D03*
D17*
X186142000Y-136906000D03*
D16*
X165354000Y-137414000D03*
D17*
X167854000Y-137414000D03*
D25*
X190314000Y-72528000D03*
X188414000Y-72528000D03*
X174691000Y-116205000D03*
X176591000Y-116205000D03*
D26*
X135636000Y-73218000D03*
X135636000Y-75118000D03*
X139192000Y-73218000D03*
X139192000Y-75118000D03*
D19*
X165300000Y-130500000D03*
D20*
X162760000Y-130500000D03*
X160220000Y-130500000D03*
D27*
X164719000Y-146050000D03*
X167719000Y-146050000D03*
D28*
X190079000Y-66628000D03*
X185079000Y-66628000D03*
D29*
X191079000Y-63928000D03*
X184079000Y-63928000D03*
D30*
X152992000Y-94107000D03*
X150792000Y-94107000D03*
X150792000Y-97218500D03*
X152992000Y-97218500D03*
X152992000Y-95694500D03*
X150792000Y-95694500D03*
D31*
X169480000Y-125600000D03*
X169480000Y-127800000D03*
X186182000Y-65743000D03*
X186182000Y-63543000D03*
D30*
X175900000Y-107150000D03*
X178100000Y-107150000D03*
D31*
X188560000Y-63390000D03*
X188560000Y-65590000D03*
D30*
X136355000Y-89408000D03*
X134155000Y-89408000D03*
D31*
X165850000Y-125000000D03*
X165850000Y-122800000D03*
D32*
X135636000Y-77533500D03*
X139436000Y-77533500D03*
D25*
X144650000Y-94810000D03*
X146550000Y-94810000D03*
D26*
X136398000Y-85582800D03*
X136398000Y-83682800D03*
X185039000Y-95057000D03*
X185039000Y-93157000D03*
D19*
X117700000Y-99100000D03*
D20*
X117700000Y-96560000D03*
D32*
X125710000Y-136000000D03*
X123170000Y-136000000D03*
X121140000Y-136000000D03*
X118600000Y-136000000D03*
D33*
X128760000Y-138670000D03*
X115040000Y-138670000D03*
D19*
X117600000Y-78100000D03*
D20*
X117600000Y-80640000D03*
X117600000Y-83180000D03*
X117600000Y-85720000D03*
X117600000Y-88260000D03*
D19*
X189611000Y-99441000D03*
D20*
X189611000Y-101981000D03*
D19*
X117700000Y-92500000D03*
D34*
X180795000Y-83800000D03*
X182065000Y-83800000D03*
X183335000Y-83800000D03*
X184605000Y-83800000D03*
X184605000Y-89200000D03*
X183335000Y-89200000D03*
X182065000Y-89200000D03*
X180795000Y-89200000D03*
D19*
X186300000Y-142500000D03*
D20*
X188840000Y-142500000D03*
X186300000Y-145040000D03*
X188840000Y-145040000D03*
X186300000Y-147580000D03*
X188840000Y-147580000D03*
D30*
X156761000Y-81788000D03*
X158961000Y-81788000D03*
X156761000Y-83439000D03*
X158961000Y-83439000D03*
D35*
X176236000Y-93305000D03*
X171196000Y-95805000D03*
X171196000Y-90805000D03*
D19*
X132207000Y-63500000D03*
D20*
X129667000Y-63500000D03*
X127127000Y-63500000D03*
X124587000Y-63500000D03*
X122047000Y-63500000D03*
D16*
X188940000Y-94160000D03*
D17*
X188940000Y-91660000D03*
M02*
