M48
;DRILL file {KiCad 4.0.5} date 06/08/18 20:03:27
;FORMAT={-:-/ absolute / metric / decimal}
FMAT,2
METRIC,TZ
T1C0.150
T2C0.300
T3C0.500
T4C0.550
T5C0.800
T6C1.000
T7C1.200
T8C1.300
T9C2.300
%
G90
G05
M71
T1
X116.675Y-127.75
X117.25Y-127.8
X118.1Y-127.975
X118.575Y-128.45
X119.45Y-127.25
X119.45Y-128.525
X120.25Y-127.25
X120.575Y-128.55
X121.25Y-127.275
X121.6Y-128.575
X122.174Y-77.089
X122.2Y-127.275
X122.555Y-91.313
X122.75Y-128.6
X123.4Y-77.4
X123.4Y-91.3
X123.625Y-127.25
X123.9Y-128.6
X123.952Y-77.47
X124.079Y-91.186
X124.714Y-90.678
X124.8Y-127.225
X124.841Y-76.581
X124.95Y-128.6
X125.095Y-90.17
X125.222Y-77.216
X126.Y-128.6
X126.225Y-127.25
X126.4Y-126.375
X127.225Y-128.625
X127.375Y-125.325
X128.15Y-125.425
X128.27Y-90.043
X128.397Y-96.012
X128.675Y-128.55
X129.032Y-79.756
X129.1Y-125.75
X129.54Y-84.328
X129.725Y-128.55
X129.794Y-81.534
X129.925Y-126.625
X130.15Y-125.725
X130.875Y-128.525
X130.925Y-125.725
X131.025Y-127.25
X131.55Y-127.2
X131.775Y-128.5
X132.475Y-128.55
X133.025Y-129.025
X133.45Y-123.075
X133.575Y-129.6
X133.95Y-122.325
X134.1Y-123.125
X134.375Y-130.075
X134.4Y-122.8
X134.4Y-127.95
X134.45Y-128.575
X134.6Y-121.675
X134.625Y-125.3
X134.8Y-124.6
X134.975Y-127.05
X135.Y-124.05
X135.05Y-122.775
X135.2Y-130.075
X135.3Y-125.75
X135.35Y-121.
X135.382Y-93.37
X135.525Y-128.8
X135.6Y-124.025
X135.85Y-125.8
X135.975Y-122.8
X136.05Y-121.7
X136.05Y-122.3
X136.075Y-127.1
X136.125Y-128.775
X136.15Y-130.125
X136.175Y-121.175
X136.3Y-124.1
X136.347Y-83.718
X136.398Y-89.408
X137.363Y-88.24
X139.243Y-91.999
X139.573Y-90.932
X139.649Y-94.386
X140.144Y-87.185
X140.208Y-93.878
X140.525Y-80.328
X140.919Y-96.164
X140.97Y-93.853
X141.478Y-96.418
X142.367Y-93.091
X142.558Y-83.502
X142.748Y-82.296
X144.6Y-65.1
X144.628Y-94.742
X145.288Y-64.77
X145.542Y-65.786
X145.669Y-98.552
X148.209Y-78.74
X148.209Y-92.837
X148.336Y-66.04
X148.488Y-92.304
X148.7Y-80.3
X148.78Y-78.232
X148.844Y-69.723
X149.098Y-91.643
X149.1Y-69.1
X149.161Y-95.25
X149.225Y-99.314
X149.479Y-96.203
X149.606Y-90.805
X149.708Y-94.361
X150.Y-81.3
X150.52Y-80.264
X150.749Y-85.725
X150.812Y-76.2
X152.4Y-81.153
X153.035Y-80.645
X153.035Y-83.185
X153.162Y-81.788
X153.3Y-69.1
X153.45Y-87.35
X153.8Y-144.775
X154.051Y-95.758
X154.051Y-97.346
X154.114Y-93.916
X155.321Y-82.423
X155.6Y-135.8
X159.519Y-64.654
X160.934Y-71.526
X162.001Y-71.12
X162.052Y-99.949
X163.55Y-97.35
X165.3Y-74.25
X167.64Y-69.977
X168.974Y-102.933
X169.037Y-105.029
X169.545Y-105.41
X173.228Y-80.01
X173.25Y-66.95
X174.65Y-72.6
X174.65Y-74.25
X174.95Y-72.1
X175.9Y-74.45
X176.65Y-72.605
X177.2Y-72.1
X177.419Y-67.691
X178.65Y-72.105
X178.65Y-73.105
X179.3Y-86.7
X180.Y-73.1
X180.213Y-65.913
X181.45Y-87.35
X183.335Y-83.8
X186.182Y-63.5
X187.579Y-66.421
X188.722Y-64.643
T2
X128.575Y-127.125
X129.5Y-87.2
X130.493Y-104.521
X130.683Y-102.425
X131.318Y-104.394
X131.445Y-102.425
X132.207Y-104.457
X132.398Y-102.425
X133.096Y-104.584
X133.15Y-124.05
X133.286Y-101.981
X133.825Y-127.4
X134.54Y-81.16
X135.07Y-88.41
X136.3Y-88.3
X138.12Y-114.92
X138.768Y-111.34
X139.86Y-107.7
X140.725Y-122.5
X140.78Y-83.84
X141.097Y-97.917
X141.25Y-124.65
X141.5Y-127.2
X142.425Y-122.425
X143.55Y-124.65
X143.6Y-127.075
X143.875Y-122.475
X143.89Y-132.6
X144.65Y-72.32
X145.475Y-122.5
X145.65Y-81.9
X145.71Y-95.55
X145.85Y-124.65
X145.85Y-127.075
X146.55Y-83.5
X147.066Y-98.044
X147.15Y-122.525
X147.5Y-69.4
X147.975Y-124.675
X148.25Y-127.025
X148.26Y-98.11
X149.35Y-122.475
X150.241Y-117.03
X150.275Y-124.675
X150.45Y-91.11
X150.45Y-127.
X150.495Y-137.541
X150.685Y-114.808
X150.79Y-104.93
X151.194Y-116.967
X151.475Y-122.475
X151.701Y-114.998
X151.75Y-71.38
X151.892Y-67.31
X151.9Y-108.175
X152.05Y-137.02
X152.1Y-135.625
X152.273Y-116.967
X152.654Y-114.998
X152.81Y-91.62
X152.85Y-124.65
X152.9Y-127.
X153.352Y-117.03
X153.65Y-122.475
X153.733Y-114.998
X154.368Y-116.967
X155.125Y-124.65
X155.32Y-91.11
X155.4Y-97.2
X155.4Y-126.95
X155.81Y-129.44
X156.18Y-80.48
X156.7Y-122.45
X156.718Y-67.31
X157.2Y-135.625
X157.45Y-124.575
X157.95Y-126.575
X158.06Y-103.15
X159.175Y-122.4
X159.36Y-121.05
X160.65Y-126.475
X160.7Y-124.5
X161.036Y-100.076
X161.061Y-75.438
X161.33Y-85.94
X161.925Y-122.05
X162.15Y-119.65
X162.4Y-78.36
X163.05Y-116.4
X163.225Y-126.45
X164.Y-123.95
X165.05Y-123.9
X165.24Y-88.37
X165.608Y-80.01
X166.8Y-123.975
X167.259Y-77.724
X167.386Y-75.311
X167.386Y-82.804
X167.386Y-84.836
X167.405Y-90.535
X168.275Y-123.952
X168.275Y-126.111
X170.05Y-82.804
X170.375Y-131.15
X172.33Y-71.64
X172.466Y-126.365
X173.418Y-101.917
X173.482Y-122.682
X173.546Y-112.966
X173.736Y-104.013
X174.625Y-101.917
X174.689Y-104.013
X174.815Y-112.966
X175.196Y-110.744
X175.225Y-130.85
X175.5Y-82.56
X175.577Y-101.917
X175.641Y-104.013
X175.768Y-118.491
X176.022Y-112.966
X176.339Y-110.744
X176.594Y-101.854
X176.594Y-104.076
X177.122Y-106.997
X177.228Y-113.093
X177.43Y-82.7
X177.609Y-110.744
X177.736Y-101.854
X177.8Y-104.076
X178.435Y-113.157
X178.879Y-110.744
X178.943Y-146.812
X179.006Y-101.854
X179.07Y-104.14
X179.324Y-84.836
X179.578Y-109.22
X179.832Y-113.157
X180.086Y-104.331
X180.213Y-101.663
X180.276Y-110.744
X180.795Y-90.65
X180.975Y-96.52
X181.229Y-113.157
X181.483Y-110.744
X181.673Y-104.521
X181.75Y-91.62
X182.054Y-101.536
X182.118Y-83.82
X182.816Y-110.744
X182.816Y-113.157
X184.277Y-110.68
X184.468Y-113.157
X184.72Y-83.92
X185.102Y-98.234
X185.483Y-110.49
X185.801Y-113.157
X188.51Y-63.32
T5
X135.636Y-77.533
X139.436Y-77.533
X144.151Y-145.372
X144.151Y-147.872
X161.036Y-136.144
X161.036Y-138.644
X165.354Y-137.414
X167.854Y-137.414
X179.07Y-116.118
X179.07Y-118.618
X183.642Y-136.906
X186.142Y-136.906
X188.94Y-91.66
X188.94Y-94.16
T6
X112.75Y-92.75
X112.776Y-77.978
X112.776Y-80.518
X112.776Y-83.058
X112.776Y-85.598
X112.776Y-88.138
X118.35Y-139.28
X120.89Y-139.28
X122.047Y-64.389
X122.92Y-139.28
X124.587Y-64.389
X125.46Y-139.28
X127.127Y-64.389
X129.667Y-64.389
X132.207Y-64.389
X141.2Y-132.87
X141.2Y-140.47
X159.519Y-64.654
X160.22Y-130.5
X162.059Y-64.654
X162.76Y-130.5
X164.599Y-64.654
X165.3Y-130.5
X167.139Y-64.654
X172.6Y-64.654
X175.14Y-64.654
X177.68Y-64.654
X186.3Y-142.5
X186.3Y-145.04
X186.3Y-147.58
X188.43Y-98.15
X188.84Y-142.5
X188.84Y-145.04
X188.84Y-147.58
X190.97Y-98.15
X191.25Y-84.5
X191.25Y-87.04
T7
X171.196Y-90.805
X171.196Y-95.805
X176.236Y-93.305
T8
X164.719Y-146.05
X167.719Y-146.05
T9
X114.79Y-141.95
X128.51Y-141.95
T3
X184.079Y-63.603G85X184.079Y-64.253
G05
X191.079Y-63.603G85X191.079Y-64.253
G05
T4
X185.229Y-66.628G85X184.929Y-66.628
G05
X190.229Y-66.628G85X189.929Y-66.628
G05
T6
X181.356Y-128.381G85X181.356Y-126.381
G05
X185.356Y-122.681G85X183.356Y-122.681
G05
X187.356Y-128.381G85X187.356Y-126.381
G05
T0
M30
