G04 #@! TF.FileFunction,Legend,Top*
%FSLAX46Y46*%
G04 Gerber Fmt 4.6, Leading zero omitted, Abs format (unit mm)*
G04 Created by KiCad (PCBNEW 4.0.5) date 06/13/18 16:42:59*
%MOMM*%
%LPD*%
G01*
G04 APERTURE LIST*
%ADD10C,0.100000*%
%ADD11C,0.162500*%
%ADD12C,0.250000*%
%ADD13C,0.120000*%
%ADD14C,0.150000*%
G04 APERTURE END LIST*
D10*
D11*
X191968381Y-77895047D02*
X190968381Y-77895047D01*
X191682667Y-77678380D01*
X190968381Y-77461714D01*
X191968381Y-77461714D01*
X191968381Y-76873619D02*
X191444571Y-76873619D01*
X191349333Y-76904571D01*
X191301714Y-76966476D01*
X191301714Y-77090285D01*
X191349333Y-77152190D01*
X191920762Y-76873619D02*
X191968381Y-76935523D01*
X191968381Y-77090285D01*
X191920762Y-77152190D01*
X191825524Y-77183142D01*
X191730286Y-77183142D01*
X191635048Y-77152190D01*
X191587429Y-77090285D01*
X191587429Y-76935523D01*
X191539810Y-76873619D01*
X191968381Y-76285524D02*
X190968381Y-76285524D01*
X191920762Y-76285524D02*
X191968381Y-76347428D01*
X191968381Y-76471238D01*
X191920762Y-76533143D01*
X191873143Y-76564095D01*
X191777905Y-76595047D01*
X191492190Y-76595047D01*
X191396952Y-76564095D01*
X191349333Y-76533143D01*
X191301714Y-76471238D01*
X191301714Y-76347428D01*
X191349333Y-76285524D01*
X191920762Y-75728381D02*
X191968381Y-75790286D01*
X191968381Y-75914095D01*
X191920762Y-75976000D01*
X191825524Y-76006952D01*
X191444571Y-76006952D01*
X191349333Y-75976000D01*
X191301714Y-75914095D01*
X191301714Y-75790286D01*
X191349333Y-75728381D01*
X191444571Y-75697429D01*
X191539810Y-75697429D01*
X191635048Y-76006952D01*
X191968381Y-74923619D02*
X190968381Y-74923619D01*
X191301714Y-74614095D02*
X191968381Y-74614095D01*
X191396952Y-74614095D02*
X191349333Y-74583143D01*
X191301714Y-74521238D01*
X191301714Y-74428381D01*
X191349333Y-74366476D01*
X191444571Y-74335524D01*
X191968381Y-74335524D01*
X191968381Y-73530762D02*
X190968381Y-73530762D01*
X191301714Y-73221238D02*
X191968381Y-73221238D01*
X191396952Y-73221238D02*
X191349333Y-73190286D01*
X191301714Y-73128381D01*
X191301714Y-73035524D01*
X191349333Y-72973619D01*
X191444571Y-72942667D01*
X191968381Y-72942667D01*
X191968381Y-72354572D02*
X190968381Y-72354572D01*
X191920762Y-72354572D02*
X191968381Y-72416476D01*
X191968381Y-72540286D01*
X191920762Y-72602191D01*
X191873143Y-72633143D01*
X191777905Y-72664095D01*
X191492190Y-72664095D01*
X191396952Y-72633143D01*
X191349333Y-72602191D01*
X191301714Y-72540286D01*
X191301714Y-72416476D01*
X191349333Y-72354572D01*
X191968381Y-72045048D02*
X191301714Y-72045048D01*
X190968381Y-72045048D02*
X191016000Y-72076000D01*
X191063619Y-72045048D01*
X191016000Y-72014096D01*
X190968381Y-72045048D01*
X191063619Y-72045048D01*
X191968381Y-71456953D02*
X191444571Y-71456953D01*
X191349333Y-71487905D01*
X191301714Y-71549810D01*
X191301714Y-71673619D01*
X191349333Y-71735524D01*
X191920762Y-71456953D02*
X191968381Y-71518857D01*
X191968381Y-71673619D01*
X191920762Y-71735524D01*
X191825524Y-71766476D01*
X191730286Y-71766476D01*
X191635048Y-71735524D01*
X191587429Y-71673619D01*
X191587429Y-71518857D01*
X191539810Y-71456953D01*
D12*
X187900571Y-79318857D02*
X189400571Y-78818857D01*
X187900571Y-78318857D01*
X189400571Y-77818857D02*
X187900571Y-77818857D01*
X189400571Y-77104571D02*
X187900571Y-77104571D01*
X188972000Y-76604571D01*
X187900571Y-76104571D01*
X189400571Y-76104571D01*
X189543429Y-75747428D02*
X189543429Y-74604571D01*
X188400571Y-74390285D02*
X189400571Y-74033142D01*
X188400571Y-73676000D01*
X188043429Y-73176000D02*
X187972000Y-73104571D01*
X187900571Y-72961714D01*
X187900571Y-72604571D01*
X187972000Y-72461714D01*
X188043429Y-72390285D01*
X188186286Y-72318857D01*
X188329143Y-72318857D01*
X188543429Y-72390285D01*
X189400571Y-73247428D01*
X189400571Y-72318857D01*
X189257714Y-71676000D02*
X189329143Y-71604572D01*
X189400571Y-71676000D01*
X189329143Y-71747429D01*
X189257714Y-71676000D01*
X189400571Y-71676000D01*
X188400571Y-70318857D02*
X189400571Y-70318857D01*
X187829143Y-70676000D02*
X188900571Y-71033143D01*
X188900571Y-70104571D01*
D11*
X112626857Y-75730855D02*
X113826857Y-75480855D01*
X112626857Y-75230855D01*
X113769714Y-74695141D02*
X113826857Y-74766570D01*
X113826857Y-74909427D01*
X113769714Y-74980856D01*
X113655429Y-75016570D01*
X113198286Y-75016570D01*
X113084000Y-74980856D01*
X113026857Y-74909427D01*
X113026857Y-74766570D01*
X113084000Y-74695141D01*
X113198286Y-74659427D01*
X113312571Y-74659427D01*
X113426857Y-75016570D01*
X113769714Y-74016570D02*
X113826857Y-74087999D01*
X113826857Y-74230856D01*
X113769714Y-74302284D01*
X113712571Y-74337999D01*
X113598286Y-74373713D01*
X113255429Y-74373713D01*
X113141143Y-74337999D01*
X113084000Y-74302284D01*
X113026857Y-74230856D01*
X113026857Y-74087999D01*
X113084000Y-74016570D01*
X113826857Y-73695142D02*
X113026857Y-73695142D01*
X113141143Y-73695142D02*
X113084000Y-73659427D01*
X113026857Y-73587999D01*
X113026857Y-73480856D01*
X113084000Y-73409427D01*
X113198286Y-73373713D01*
X113826857Y-73373713D01*
X113198286Y-73373713D02*
X113084000Y-73337999D01*
X113026857Y-73266570D01*
X113026857Y-73159427D01*
X113084000Y-73087999D01*
X113198286Y-73052284D01*
X113826857Y-73052284D01*
X113826857Y-72587999D02*
X113769714Y-72659427D01*
X113712571Y-72695142D01*
X113598286Y-72730856D01*
X113255429Y-72730856D01*
X113141143Y-72695142D01*
X113084000Y-72659427D01*
X113026857Y-72587999D01*
X113026857Y-72480856D01*
X113084000Y-72409427D01*
X113141143Y-72373713D01*
X113255429Y-72337999D01*
X113598286Y-72337999D01*
X113712571Y-72373713D01*
X113769714Y-72409427D01*
X113826857Y-72480856D01*
X113826857Y-72587999D01*
X113769714Y-71695142D02*
X113826857Y-71766571D01*
X113826857Y-71909428D01*
X113769714Y-71980856D01*
X113712571Y-72016571D01*
X113598286Y-72052285D01*
X113255429Y-72052285D01*
X113141143Y-72016571D01*
X113084000Y-71980856D01*
X113026857Y-71909428D01*
X113026857Y-71766571D01*
X113084000Y-71695142D01*
X113826857Y-71266571D02*
X113769714Y-71337999D01*
X113712571Y-71373714D01*
X113598286Y-71409428D01*
X113255429Y-71409428D01*
X113141143Y-71373714D01*
X113084000Y-71337999D01*
X113026857Y-71266571D01*
X113026857Y-71159428D01*
X113084000Y-71087999D01*
X113141143Y-71052285D01*
X113255429Y-71016571D01*
X113598286Y-71016571D01*
X113712571Y-71052285D01*
X113769714Y-71087999D01*
X113826857Y-71159428D01*
X113826857Y-71266571D01*
X113026857Y-70695143D02*
X113826857Y-70695143D01*
X113141143Y-70695143D02*
X113084000Y-70659428D01*
X113026857Y-70588000D01*
X113026857Y-70480857D01*
X113084000Y-70409428D01*
X113198286Y-70373714D01*
X113826857Y-70373714D01*
X112626857Y-69552285D02*
X112626857Y-69123714D01*
X113826857Y-69338000D02*
X112626857Y-69338000D01*
X113769714Y-68587999D02*
X113826857Y-68659428D01*
X113826857Y-68802285D01*
X113769714Y-68873714D01*
X113655429Y-68909428D01*
X113198286Y-68909428D01*
X113084000Y-68873714D01*
X113026857Y-68802285D01*
X113026857Y-68659428D01*
X113084000Y-68587999D01*
X113198286Y-68552285D01*
X113312571Y-68552285D01*
X113426857Y-68909428D01*
X113769714Y-67909428D02*
X113826857Y-67980857D01*
X113826857Y-68123714D01*
X113769714Y-68195142D01*
X113712571Y-68230857D01*
X113598286Y-68266571D01*
X113255429Y-68266571D01*
X113141143Y-68230857D01*
X113084000Y-68195142D01*
X113026857Y-68123714D01*
X113026857Y-67980857D01*
X113084000Y-67909428D01*
X113826857Y-67588000D02*
X112626857Y-67588000D01*
X113826857Y-67266571D02*
X113198286Y-67266571D01*
X113084000Y-67302285D01*
X113026857Y-67373714D01*
X113026857Y-67480857D01*
X113084000Y-67552285D01*
X113141143Y-67588000D01*
X113026857Y-66909429D02*
X113826857Y-66909429D01*
X113141143Y-66909429D02*
X113084000Y-66873714D01*
X113026857Y-66802286D01*
X113026857Y-66695143D01*
X113084000Y-66623714D01*
X113198286Y-66588000D01*
X113826857Y-66588000D01*
X113826857Y-66123715D02*
X113769714Y-66195143D01*
X113712571Y-66230858D01*
X113598286Y-66266572D01*
X113255429Y-66266572D01*
X113141143Y-66230858D01*
X113084000Y-66195143D01*
X113026857Y-66123715D01*
X113026857Y-66016572D01*
X113084000Y-65945143D01*
X113141143Y-65909429D01*
X113255429Y-65873715D01*
X113598286Y-65873715D01*
X113712571Y-65909429D01*
X113769714Y-65945143D01*
X113826857Y-66016572D01*
X113826857Y-66123715D01*
X113826857Y-65445144D02*
X113769714Y-65516572D01*
X113655429Y-65552287D01*
X112626857Y-65552287D01*
X113826857Y-65052287D02*
X113769714Y-65123715D01*
X113712571Y-65159430D01*
X113598286Y-65195144D01*
X113255429Y-65195144D01*
X113141143Y-65159430D01*
X113084000Y-65123715D01*
X113026857Y-65052287D01*
X113026857Y-64945144D01*
X113084000Y-64873715D01*
X113141143Y-64838001D01*
X113255429Y-64802287D01*
X113598286Y-64802287D01*
X113712571Y-64838001D01*
X113769714Y-64873715D01*
X113826857Y-64945144D01*
X113826857Y-65052287D01*
X113026857Y-64159430D02*
X113998286Y-64159430D01*
X114112571Y-64195144D01*
X114169714Y-64230859D01*
X114226857Y-64302287D01*
X114226857Y-64409430D01*
X114169714Y-64480859D01*
X113769714Y-64159430D02*
X113826857Y-64230859D01*
X113826857Y-64373716D01*
X113769714Y-64445144D01*
X113712571Y-64480859D01*
X113598286Y-64516573D01*
X113255429Y-64516573D01*
X113141143Y-64480859D01*
X113084000Y-64445144D01*
X113026857Y-64373716D01*
X113026857Y-64230859D01*
X113084000Y-64159430D01*
X113826857Y-63802288D02*
X113026857Y-63802288D01*
X112626857Y-63802288D02*
X112684000Y-63838002D01*
X112741143Y-63802288D01*
X112684000Y-63766573D01*
X112626857Y-63802288D01*
X112741143Y-63802288D01*
X113769714Y-63159430D02*
X113826857Y-63230859D01*
X113826857Y-63373716D01*
X113769714Y-63445145D01*
X113655429Y-63480859D01*
X113198286Y-63480859D01*
X113084000Y-63445145D01*
X113026857Y-63373716D01*
X113026857Y-63230859D01*
X113084000Y-63159430D01*
X113198286Y-63123716D01*
X113312571Y-63123716D01*
X113426857Y-63480859D01*
X113769714Y-62838002D02*
X113826857Y-62766573D01*
X113826857Y-62623716D01*
X113769714Y-62552288D01*
X113655429Y-62516573D01*
X113598286Y-62516573D01*
X113484000Y-62552288D01*
X113426857Y-62623716D01*
X113426857Y-62730859D01*
X113369714Y-62802288D01*
X113255429Y-62838002D01*
X113198286Y-62838002D01*
X113084000Y-62802288D01*
X113026857Y-62730859D01*
X113026857Y-62623716D01*
X113084000Y-62552288D01*
D13*
X131540000Y-124250000D02*
X131540000Y-126050000D01*
X134760000Y-126050000D02*
X134760000Y-123600000D01*
X162960000Y-96080000D02*
X162960000Y-95150000D01*
X162960000Y-92920000D02*
X162960000Y-93850000D01*
X162960000Y-92920000D02*
X160800000Y-92920000D01*
X162960000Y-96080000D02*
X161500000Y-96080000D01*
X138715000Y-106207000D02*
X139415000Y-106207000D01*
X139415000Y-107407000D02*
X138715000Y-107407000D01*
D14*
X144700000Y-78881445D02*
X143992893Y-79588552D01*
X152018555Y-86200000D02*
X151258415Y-86960140D01*
X144700000Y-93518555D02*
X145460140Y-92758415D01*
X137381445Y-86200000D02*
X138141585Y-85439860D01*
X144700000Y-78881445D02*
X145460140Y-79641585D01*
X137381445Y-86200000D02*
X138141585Y-86960140D01*
X144700000Y-93518555D02*
X143939860Y-92758415D01*
X152018555Y-86200000D02*
X151258415Y-85439860D01*
X143992893Y-79588552D02*
X143268109Y-78863767D01*
X160500000Y-105600000D02*
X160500000Y-105700000D01*
X160600000Y-105000000D02*
X160500000Y-105000000D01*
X160500000Y-105000000D02*
X160500000Y-105600000D01*
X160600000Y-113000000D02*
X160500000Y-113000000D01*
X160500000Y-113000000D02*
X160500000Y-105800000D01*
X160500000Y-105800000D02*
X160500000Y-105700000D01*
X166700000Y-105000000D02*
X166700000Y-113000000D01*
X166700000Y-113000000D02*
X166500000Y-113000000D01*
X166600000Y-105000000D02*
X166700000Y-105000000D01*
X170600000Y-117400000D02*
X156600000Y-117400000D01*
X156600000Y-117400000D02*
X156600000Y-100700000D01*
X170600000Y-100700000D02*
X170600000Y-117400000D01*
X156700000Y-100700000D02*
X170600000Y-100700000D01*
X160600000Y-113000000D02*
X166600000Y-113000000D01*
X166600000Y-105000000D02*
X160600000Y-105000000D01*
D10*
X115931500Y-117699500D02*
X118916000Y-117699500D01*
X118916000Y-117699500D02*
X121011500Y-117699500D01*
X121011500Y-117699500D02*
X121837000Y-117699500D01*
X121837000Y-117699500D02*
X122980000Y-117699500D01*
X122980000Y-117699500D02*
X124377000Y-117699500D01*
X124377000Y-117699500D02*
X125456500Y-117699500D01*
X125456500Y-117699500D02*
X127615500Y-117699500D01*
X127615500Y-117699500D02*
X129901500Y-117699500D01*
X129901500Y-117699500D02*
X130092000Y-117699500D01*
X115931500Y-118144000D02*
X115931500Y-133828500D01*
X115931500Y-133828500D02*
X130092000Y-133828500D01*
X130092000Y-133828500D02*
X130092000Y-125764000D01*
X130092000Y-125764000D02*
X130092000Y-117699500D01*
X115931500Y-117699500D02*
X115931500Y-118525000D01*
D13*
X148630000Y-142910000D02*
X148630000Y-144310000D01*
X148630000Y-144310000D02*
X151430000Y-144310000D01*
X148630000Y-142910000D02*
X151430000Y-142910000D01*
X174944000Y-126470000D02*
X173544000Y-126470000D01*
X173544000Y-126470000D02*
X173544000Y-129270000D01*
X174944000Y-126470000D02*
X174944000Y-129270000D01*
X157418000Y-92815000D02*
X156018000Y-92815000D01*
X156018000Y-92815000D02*
X156018000Y-95615000D01*
X157418000Y-92815000D02*
X157418000Y-95615000D01*
X186356000Y-122781000D02*
X195156000Y-122781000D01*
X195156000Y-122781000D02*
X195156000Y-131981000D01*
X180456000Y-125481000D02*
X180456000Y-122781000D01*
X180456000Y-122781000D02*
X182356000Y-122781000D01*
X195156000Y-131981000D02*
X180456000Y-131981000D01*
X180456000Y-131981000D02*
X180456000Y-129381000D01*
X150028500Y-92962500D02*
X150028500Y-94362500D01*
X150028500Y-94362500D02*
X152828500Y-94362500D01*
X150028500Y-92962500D02*
X152828500Y-92962500D01*
X151060000Y-96560000D02*
X151060000Y-97960000D01*
X151060000Y-97960000D02*
X153860000Y-97960000D01*
X151060000Y-96560000D02*
X153860000Y-96560000D01*
X150028500Y-94804000D02*
X150028500Y-96204000D01*
X150028500Y-96204000D02*
X152828500Y-96204000D01*
X150028500Y-94804000D02*
X152828500Y-94804000D01*
X169988000Y-130070000D02*
X171388000Y-130070000D01*
X171388000Y-130070000D02*
X171388000Y-127270000D01*
X169988000Y-130070000D02*
X169988000Y-127270000D01*
X149260000Y-107580000D02*
X149260000Y-106650000D01*
X149260000Y-104420000D02*
X149260000Y-105350000D01*
X149260000Y-104420000D02*
X147100000Y-104420000D01*
X149260000Y-107580000D02*
X147800000Y-107580000D01*
X142971277Y-144316278D02*
G75*
G03X142971000Y-148927580I1179723J-2305722D01*
G01*
X145330723Y-144316278D02*
G75*
G02X145331000Y-148927580I-1179723J-2305722D01*
G01*
X145330723Y-144316278D02*
G75*
G03X142971000Y-144316420I-1179723J-2305722D01*
G01*
X141601000Y-146622000D02*
X146701000Y-146622000D01*
X141601000Y-146582000D02*
X146701000Y-146582000D01*
X141602000Y-146542000D02*
X146700000Y-146542000D01*
X141603000Y-146502000D02*
X146699000Y-146502000D01*
X141605000Y-146462000D02*
X146697000Y-146462000D01*
X141608000Y-146422000D02*
X146694000Y-146422000D01*
X141612000Y-146382000D02*
X146690000Y-146382000D01*
X141616000Y-146342000D02*
X143171000Y-146342000D01*
X145131000Y-146342000D02*
X146686000Y-146342000D01*
X141620000Y-146302000D02*
X143171000Y-146302000D01*
X145131000Y-146302000D02*
X146682000Y-146302000D01*
X141626000Y-146262000D02*
X143171000Y-146262000D01*
X145131000Y-146262000D02*
X146676000Y-146262000D01*
X141632000Y-146222000D02*
X143171000Y-146222000D01*
X145131000Y-146222000D02*
X146670000Y-146222000D01*
X141638000Y-146182000D02*
X143171000Y-146182000D01*
X145131000Y-146182000D02*
X146664000Y-146182000D01*
X141645000Y-146142000D02*
X143171000Y-146142000D01*
X145131000Y-146142000D02*
X146657000Y-146142000D01*
X141653000Y-146102000D02*
X143171000Y-146102000D01*
X145131000Y-146102000D02*
X146649000Y-146102000D01*
X141662000Y-146062000D02*
X143171000Y-146062000D01*
X145131000Y-146062000D02*
X146640000Y-146062000D01*
X141671000Y-146022000D02*
X143171000Y-146022000D01*
X145131000Y-146022000D02*
X146631000Y-146022000D01*
X141681000Y-145982000D02*
X143171000Y-145982000D01*
X145131000Y-145982000D02*
X146621000Y-145982000D01*
X141691000Y-145942000D02*
X143171000Y-145942000D01*
X145131000Y-145942000D02*
X146611000Y-145942000D01*
X141703000Y-145901000D02*
X143171000Y-145901000D01*
X145131000Y-145901000D02*
X146599000Y-145901000D01*
X141715000Y-145861000D02*
X143171000Y-145861000D01*
X145131000Y-145861000D02*
X146587000Y-145861000D01*
X141727000Y-145821000D02*
X143171000Y-145821000D01*
X145131000Y-145821000D02*
X146575000Y-145821000D01*
X141741000Y-145781000D02*
X143171000Y-145781000D01*
X145131000Y-145781000D02*
X146561000Y-145781000D01*
X141755000Y-145741000D02*
X143171000Y-145741000D01*
X145131000Y-145741000D02*
X146547000Y-145741000D01*
X141769000Y-145701000D02*
X143171000Y-145701000D01*
X145131000Y-145701000D02*
X146533000Y-145701000D01*
X141785000Y-145661000D02*
X143171000Y-145661000D01*
X145131000Y-145661000D02*
X146517000Y-145661000D01*
X141801000Y-145621000D02*
X143171000Y-145621000D01*
X145131000Y-145621000D02*
X146501000Y-145621000D01*
X141818000Y-145581000D02*
X143171000Y-145581000D01*
X145131000Y-145581000D02*
X146484000Y-145581000D01*
X141836000Y-145541000D02*
X143171000Y-145541000D01*
X145131000Y-145541000D02*
X146466000Y-145541000D01*
X141855000Y-145501000D02*
X143171000Y-145501000D01*
X145131000Y-145501000D02*
X146447000Y-145501000D01*
X141875000Y-145461000D02*
X143171000Y-145461000D01*
X145131000Y-145461000D02*
X146427000Y-145461000D01*
X141895000Y-145421000D02*
X143171000Y-145421000D01*
X145131000Y-145421000D02*
X146407000Y-145421000D01*
X141917000Y-145381000D02*
X143171000Y-145381000D01*
X145131000Y-145381000D02*
X146385000Y-145381000D01*
X141939000Y-145341000D02*
X143171000Y-145341000D01*
X145131000Y-145341000D02*
X146363000Y-145341000D01*
X141962000Y-145301000D02*
X143171000Y-145301000D01*
X145131000Y-145301000D02*
X146340000Y-145301000D01*
X141986000Y-145261000D02*
X143171000Y-145261000D01*
X145131000Y-145261000D02*
X146316000Y-145261000D01*
X142011000Y-145221000D02*
X143171000Y-145221000D01*
X145131000Y-145221000D02*
X146291000Y-145221000D01*
X142038000Y-145181000D02*
X143171000Y-145181000D01*
X145131000Y-145181000D02*
X146264000Y-145181000D01*
X142065000Y-145141000D02*
X143171000Y-145141000D01*
X145131000Y-145141000D02*
X146237000Y-145141000D01*
X142093000Y-145101000D02*
X143171000Y-145101000D01*
X145131000Y-145101000D02*
X146209000Y-145101000D01*
X142123000Y-145061000D02*
X143171000Y-145061000D01*
X145131000Y-145061000D02*
X146179000Y-145061000D01*
X142154000Y-145021000D02*
X143171000Y-145021000D01*
X145131000Y-145021000D02*
X146148000Y-145021000D01*
X142186000Y-144981000D02*
X143171000Y-144981000D01*
X145131000Y-144981000D02*
X146116000Y-144981000D01*
X142219000Y-144941000D02*
X143171000Y-144941000D01*
X145131000Y-144941000D02*
X146083000Y-144941000D01*
X142254000Y-144901000D02*
X143171000Y-144901000D01*
X145131000Y-144901000D02*
X146048000Y-144901000D01*
X142290000Y-144861000D02*
X143171000Y-144861000D01*
X145131000Y-144861000D02*
X146012000Y-144861000D01*
X142328000Y-144821000D02*
X143171000Y-144821000D01*
X145131000Y-144821000D02*
X145974000Y-144821000D01*
X142368000Y-144781000D02*
X143171000Y-144781000D01*
X145131000Y-144781000D02*
X145934000Y-144781000D01*
X142409000Y-144741000D02*
X143171000Y-144741000D01*
X145131000Y-144741000D02*
X145893000Y-144741000D01*
X142452000Y-144701000D02*
X143171000Y-144701000D01*
X145131000Y-144701000D02*
X145850000Y-144701000D01*
X142497000Y-144661000D02*
X143171000Y-144661000D01*
X145131000Y-144661000D02*
X145805000Y-144661000D01*
X142545000Y-144621000D02*
X143171000Y-144621000D01*
X145131000Y-144621000D02*
X145757000Y-144621000D01*
X142595000Y-144581000D02*
X143171000Y-144581000D01*
X145131000Y-144581000D02*
X145707000Y-144581000D01*
X142647000Y-144541000D02*
X143171000Y-144541000D01*
X145131000Y-144541000D02*
X145655000Y-144541000D01*
X142703000Y-144501000D02*
X143171000Y-144501000D01*
X145131000Y-144501000D02*
X145599000Y-144501000D01*
X142761000Y-144461000D02*
X143171000Y-144461000D01*
X145131000Y-144461000D02*
X145541000Y-144461000D01*
X142824000Y-144421000D02*
X143171000Y-144421000D01*
X145131000Y-144421000D02*
X145478000Y-144421000D01*
X142890000Y-144381000D02*
X145412000Y-144381000D01*
X142962000Y-144341000D02*
X145340000Y-144341000D01*
X143039000Y-144301000D02*
X145263000Y-144301000D01*
X143123000Y-144261000D02*
X145179000Y-144261000D01*
X143217000Y-144221000D02*
X145085000Y-144221000D01*
X143322000Y-144181000D02*
X144980000Y-144181000D01*
X143444000Y-144141000D02*
X144858000Y-144141000D01*
X143592000Y-144101000D02*
X144710000Y-144101000D01*
X143797000Y-144061000D02*
X144505000Y-144061000D01*
X144151000Y-150072000D02*
X144151000Y-148872000D01*
X143501000Y-149472000D02*
X144801000Y-149472000D01*
X162215723Y-139699722D02*
G75*
G03X162216000Y-135088420I-1179723J2305722D01*
G01*
X159856277Y-139699722D02*
G75*
G02X159856000Y-135088420I1179723J2305722D01*
G01*
X159856277Y-139699722D02*
G75*
G03X162216000Y-139699580I1179723J2305722D01*
G01*
X163586000Y-137394000D02*
X158486000Y-137394000D01*
X163586000Y-137434000D02*
X158486000Y-137434000D01*
X163585000Y-137474000D02*
X158487000Y-137474000D01*
X163584000Y-137514000D02*
X158488000Y-137514000D01*
X163582000Y-137554000D02*
X158490000Y-137554000D01*
X163579000Y-137594000D02*
X158493000Y-137594000D01*
X163575000Y-137634000D02*
X158497000Y-137634000D01*
X163571000Y-137674000D02*
X162016000Y-137674000D01*
X160056000Y-137674000D02*
X158501000Y-137674000D01*
X163567000Y-137714000D02*
X162016000Y-137714000D01*
X160056000Y-137714000D02*
X158505000Y-137714000D01*
X163561000Y-137754000D02*
X162016000Y-137754000D01*
X160056000Y-137754000D02*
X158511000Y-137754000D01*
X163555000Y-137794000D02*
X162016000Y-137794000D01*
X160056000Y-137794000D02*
X158517000Y-137794000D01*
X163549000Y-137834000D02*
X162016000Y-137834000D01*
X160056000Y-137834000D02*
X158523000Y-137834000D01*
X163542000Y-137874000D02*
X162016000Y-137874000D01*
X160056000Y-137874000D02*
X158530000Y-137874000D01*
X163534000Y-137914000D02*
X162016000Y-137914000D01*
X160056000Y-137914000D02*
X158538000Y-137914000D01*
X163525000Y-137954000D02*
X162016000Y-137954000D01*
X160056000Y-137954000D02*
X158547000Y-137954000D01*
X163516000Y-137994000D02*
X162016000Y-137994000D01*
X160056000Y-137994000D02*
X158556000Y-137994000D01*
X163506000Y-138034000D02*
X162016000Y-138034000D01*
X160056000Y-138034000D02*
X158566000Y-138034000D01*
X163496000Y-138074000D02*
X162016000Y-138074000D01*
X160056000Y-138074000D02*
X158576000Y-138074000D01*
X163484000Y-138115000D02*
X162016000Y-138115000D01*
X160056000Y-138115000D02*
X158588000Y-138115000D01*
X163472000Y-138155000D02*
X162016000Y-138155000D01*
X160056000Y-138155000D02*
X158600000Y-138155000D01*
X163460000Y-138195000D02*
X162016000Y-138195000D01*
X160056000Y-138195000D02*
X158612000Y-138195000D01*
X163446000Y-138235000D02*
X162016000Y-138235000D01*
X160056000Y-138235000D02*
X158626000Y-138235000D01*
X163432000Y-138275000D02*
X162016000Y-138275000D01*
X160056000Y-138275000D02*
X158640000Y-138275000D01*
X163418000Y-138315000D02*
X162016000Y-138315000D01*
X160056000Y-138315000D02*
X158654000Y-138315000D01*
X163402000Y-138355000D02*
X162016000Y-138355000D01*
X160056000Y-138355000D02*
X158670000Y-138355000D01*
X163386000Y-138395000D02*
X162016000Y-138395000D01*
X160056000Y-138395000D02*
X158686000Y-138395000D01*
X163369000Y-138435000D02*
X162016000Y-138435000D01*
X160056000Y-138435000D02*
X158703000Y-138435000D01*
X163351000Y-138475000D02*
X162016000Y-138475000D01*
X160056000Y-138475000D02*
X158721000Y-138475000D01*
X163332000Y-138515000D02*
X162016000Y-138515000D01*
X160056000Y-138515000D02*
X158740000Y-138515000D01*
X163312000Y-138555000D02*
X162016000Y-138555000D01*
X160056000Y-138555000D02*
X158760000Y-138555000D01*
X163292000Y-138595000D02*
X162016000Y-138595000D01*
X160056000Y-138595000D02*
X158780000Y-138595000D01*
X163270000Y-138635000D02*
X162016000Y-138635000D01*
X160056000Y-138635000D02*
X158802000Y-138635000D01*
X163248000Y-138675000D02*
X162016000Y-138675000D01*
X160056000Y-138675000D02*
X158824000Y-138675000D01*
X163225000Y-138715000D02*
X162016000Y-138715000D01*
X160056000Y-138715000D02*
X158847000Y-138715000D01*
X163201000Y-138755000D02*
X162016000Y-138755000D01*
X160056000Y-138755000D02*
X158871000Y-138755000D01*
X163176000Y-138795000D02*
X162016000Y-138795000D01*
X160056000Y-138795000D02*
X158896000Y-138795000D01*
X163149000Y-138835000D02*
X162016000Y-138835000D01*
X160056000Y-138835000D02*
X158923000Y-138835000D01*
X163122000Y-138875000D02*
X162016000Y-138875000D01*
X160056000Y-138875000D02*
X158950000Y-138875000D01*
X163094000Y-138915000D02*
X162016000Y-138915000D01*
X160056000Y-138915000D02*
X158978000Y-138915000D01*
X163064000Y-138955000D02*
X162016000Y-138955000D01*
X160056000Y-138955000D02*
X159008000Y-138955000D01*
X163033000Y-138995000D02*
X162016000Y-138995000D01*
X160056000Y-138995000D02*
X159039000Y-138995000D01*
X163001000Y-139035000D02*
X162016000Y-139035000D01*
X160056000Y-139035000D02*
X159071000Y-139035000D01*
X162968000Y-139075000D02*
X162016000Y-139075000D01*
X160056000Y-139075000D02*
X159104000Y-139075000D01*
X162933000Y-139115000D02*
X162016000Y-139115000D01*
X160056000Y-139115000D02*
X159139000Y-139115000D01*
X162897000Y-139155000D02*
X162016000Y-139155000D01*
X160056000Y-139155000D02*
X159175000Y-139155000D01*
X162859000Y-139195000D02*
X162016000Y-139195000D01*
X160056000Y-139195000D02*
X159213000Y-139195000D01*
X162819000Y-139235000D02*
X162016000Y-139235000D01*
X160056000Y-139235000D02*
X159253000Y-139235000D01*
X162778000Y-139275000D02*
X162016000Y-139275000D01*
X160056000Y-139275000D02*
X159294000Y-139275000D01*
X162735000Y-139315000D02*
X162016000Y-139315000D01*
X160056000Y-139315000D02*
X159337000Y-139315000D01*
X162690000Y-139355000D02*
X162016000Y-139355000D01*
X160056000Y-139355000D02*
X159382000Y-139355000D01*
X162642000Y-139395000D02*
X162016000Y-139395000D01*
X160056000Y-139395000D02*
X159430000Y-139395000D01*
X162592000Y-139435000D02*
X162016000Y-139435000D01*
X160056000Y-139435000D02*
X159480000Y-139435000D01*
X162540000Y-139475000D02*
X162016000Y-139475000D01*
X160056000Y-139475000D02*
X159532000Y-139475000D01*
X162484000Y-139515000D02*
X162016000Y-139515000D01*
X160056000Y-139515000D02*
X159588000Y-139515000D01*
X162426000Y-139555000D02*
X162016000Y-139555000D01*
X160056000Y-139555000D02*
X159646000Y-139555000D01*
X162363000Y-139595000D02*
X162016000Y-139595000D01*
X160056000Y-139595000D02*
X159709000Y-139595000D01*
X162297000Y-139635000D02*
X159775000Y-139635000D01*
X162225000Y-139675000D02*
X159847000Y-139675000D01*
X162148000Y-139715000D02*
X159924000Y-139715000D01*
X162064000Y-139755000D02*
X160008000Y-139755000D01*
X161970000Y-139795000D02*
X160102000Y-139795000D01*
X161865000Y-139835000D02*
X160207000Y-139835000D01*
X161743000Y-139875000D02*
X160329000Y-139875000D01*
X161595000Y-139915000D02*
X160477000Y-139915000D01*
X161390000Y-139955000D02*
X160682000Y-139955000D01*
X161036000Y-133944000D02*
X161036000Y-135144000D01*
X161686000Y-134544000D02*
X160386000Y-134544000D01*
D14*
X150670800Y-64028000D02*
X150670800Y-64553000D01*
X146370800Y-68328000D02*
X146370800Y-67803000D01*
X150670800Y-68328000D02*
X150670800Y-67803000D01*
X146370800Y-64028000D02*
X146895800Y-64028000D01*
X146370800Y-68328000D02*
X146895800Y-68328000D01*
X150670800Y-68328000D02*
X150145800Y-68328000D01*
X150670800Y-64028000D02*
X150145800Y-64028000D01*
D13*
X177890277Y-115062278D02*
G75*
G03X177890000Y-119673580I1179723J-2305722D01*
G01*
X180249723Y-115062278D02*
G75*
G02X180250000Y-119673580I-1179723J-2305722D01*
G01*
X180249723Y-115062278D02*
G75*
G03X177890000Y-115062420I-1179723J-2305722D01*
G01*
X176520000Y-117368000D02*
X181620000Y-117368000D01*
X176520000Y-117328000D02*
X181620000Y-117328000D01*
X176521000Y-117288000D02*
X181619000Y-117288000D01*
X176522000Y-117248000D02*
X181618000Y-117248000D01*
X176524000Y-117208000D02*
X181616000Y-117208000D01*
X176527000Y-117168000D02*
X181613000Y-117168000D01*
X176531000Y-117128000D02*
X181609000Y-117128000D01*
X176535000Y-117088000D02*
X178090000Y-117088000D01*
X180050000Y-117088000D02*
X181605000Y-117088000D01*
X176539000Y-117048000D02*
X178090000Y-117048000D01*
X180050000Y-117048000D02*
X181601000Y-117048000D01*
X176545000Y-117008000D02*
X178090000Y-117008000D01*
X180050000Y-117008000D02*
X181595000Y-117008000D01*
X176551000Y-116968000D02*
X178090000Y-116968000D01*
X180050000Y-116968000D02*
X181589000Y-116968000D01*
X176557000Y-116928000D02*
X178090000Y-116928000D01*
X180050000Y-116928000D02*
X181583000Y-116928000D01*
X176564000Y-116888000D02*
X178090000Y-116888000D01*
X180050000Y-116888000D02*
X181576000Y-116888000D01*
X176572000Y-116848000D02*
X178090000Y-116848000D01*
X180050000Y-116848000D02*
X181568000Y-116848000D01*
X176581000Y-116808000D02*
X178090000Y-116808000D01*
X180050000Y-116808000D02*
X181559000Y-116808000D01*
X176590000Y-116768000D02*
X178090000Y-116768000D01*
X180050000Y-116768000D02*
X181550000Y-116768000D01*
X176600000Y-116728000D02*
X178090000Y-116728000D01*
X180050000Y-116728000D02*
X181540000Y-116728000D01*
X176610000Y-116688000D02*
X178090000Y-116688000D01*
X180050000Y-116688000D02*
X181530000Y-116688000D01*
X176622000Y-116647000D02*
X178090000Y-116647000D01*
X180050000Y-116647000D02*
X181518000Y-116647000D01*
X176634000Y-116607000D02*
X178090000Y-116607000D01*
X180050000Y-116607000D02*
X181506000Y-116607000D01*
X176646000Y-116567000D02*
X178090000Y-116567000D01*
X180050000Y-116567000D02*
X181494000Y-116567000D01*
X176660000Y-116527000D02*
X178090000Y-116527000D01*
X180050000Y-116527000D02*
X181480000Y-116527000D01*
X176674000Y-116487000D02*
X178090000Y-116487000D01*
X180050000Y-116487000D02*
X181466000Y-116487000D01*
X176688000Y-116447000D02*
X178090000Y-116447000D01*
X180050000Y-116447000D02*
X181452000Y-116447000D01*
X176704000Y-116407000D02*
X178090000Y-116407000D01*
X180050000Y-116407000D02*
X181436000Y-116407000D01*
X176720000Y-116367000D02*
X178090000Y-116367000D01*
X180050000Y-116367000D02*
X181420000Y-116367000D01*
X176737000Y-116327000D02*
X178090000Y-116327000D01*
X180050000Y-116327000D02*
X181403000Y-116327000D01*
X176755000Y-116287000D02*
X178090000Y-116287000D01*
X180050000Y-116287000D02*
X181385000Y-116287000D01*
X176774000Y-116247000D02*
X178090000Y-116247000D01*
X180050000Y-116247000D02*
X181366000Y-116247000D01*
X176794000Y-116207000D02*
X178090000Y-116207000D01*
X180050000Y-116207000D02*
X181346000Y-116207000D01*
X176814000Y-116167000D02*
X178090000Y-116167000D01*
X180050000Y-116167000D02*
X181326000Y-116167000D01*
X176836000Y-116127000D02*
X178090000Y-116127000D01*
X180050000Y-116127000D02*
X181304000Y-116127000D01*
X176858000Y-116087000D02*
X178090000Y-116087000D01*
X180050000Y-116087000D02*
X181282000Y-116087000D01*
X176881000Y-116047000D02*
X178090000Y-116047000D01*
X180050000Y-116047000D02*
X181259000Y-116047000D01*
X176905000Y-116007000D02*
X178090000Y-116007000D01*
X180050000Y-116007000D02*
X181235000Y-116007000D01*
X176930000Y-115967000D02*
X178090000Y-115967000D01*
X180050000Y-115967000D02*
X181210000Y-115967000D01*
X176957000Y-115927000D02*
X178090000Y-115927000D01*
X180050000Y-115927000D02*
X181183000Y-115927000D01*
X176984000Y-115887000D02*
X178090000Y-115887000D01*
X180050000Y-115887000D02*
X181156000Y-115887000D01*
X177012000Y-115847000D02*
X178090000Y-115847000D01*
X180050000Y-115847000D02*
X181128000Y-115847000D01*
X177042000Y-115807000D02*
X178090000Y-115807000D01*
X180050000Y-115807000D02*
X181098000Y-115807000D01*
X177073000Y-115767000D02*
X178090000Y-115767000D01*
X180050000Y-115767000D02*
X181067000Y-115767000D01*
X177105000Y-115727000D02*
X178090000Y-115727000D01*
X180050000Y-115727000D02*
X181035000Y-115727000D01*
X177138000Y-115687000D02*
X178090000Y-115687000D01*
X180050000Y-115687000D02*
X181002000Y-115687000D01*
X177173000Y-115647000D02*
X178090000Y-115647000D01*
X180050000Y-115647000D02*
X180967000Y-115647000D01*
X177209000Y-115607000D02*
X178090000Y-115607000D01*
X180050000Y-115607000D02*
X180931000Y-115607000D01*
X177247000Y-115567000D02*
X178090000Y-115567000D01*
X180050000Y-115567000D02*
X180893000Y-115567000D01*
X177287000Y-115527000D02*
X178090000Y-115527000D01*
X180050000Y-115527000D02*
X180853000Y-115527000D01*
X177328000Y-115487000D02*
X178090000Y-115487000D01*
X180050000Y-115487000D02*
X180812000Y-115487000D01*
X177371000Y-115447000D02*
X178090000Y-115447000D01*
X180050000Y-115447000D02*
X180769000Y-115447000D01*
X177416000Y-115407000D02*
X178090000Y-115407000D01*
X180050000Y-115407000D02*
X180724000Y-115407000D01*
X177464000Y-115367000D02*
X178090000Y-115367000D01*
X180050000Y-115367000D02*
X180676000Y-115367000D01*
X177514000Y-115327000D02*
X178090000Y-115327000D01*
X180050000Y-115327000D02*
X180626000Y-115327000D01*
X177566000Y-115287000D02*
X178090000Y-115287000D01*
X180050000Y-115287000D02*
X180574000Y-115287000D01*
X177622000Y-115247000D02*
X178090000Y-115247000D01*
X180050000Y-115247000D02*
X180518000Y-115247000D01*
X177680000Y-115207000D02*
X178090000Y-115207000D01*
X180050000Y-115207000D02*
X180460000Y-115207000D01*
X177743000Y-115167000D02*
X178090000Y-115167000D01*
X180050000Y-115167000D02*
X180397000Y-115167000D01*
X177809000Y-115127000D02*
X180331000Y-115127000D01*
X177881000Y-115087000D02*
X180259000Y-115087000D01*
X177958000Y-115047000D02*
X180182000Y-115047000D01*
X178042000Y-115007000D02*
X180098000Y-115007000D01*
X178136000Y-114967000D02*
X180004000Y-114967000D01*
X178241000Y-114927000D02*
X179899000Y-114927000D01*
X178363000Y-114887000D02*
X179777000Y-114887000D01*
X178511000Y-114847000D02*
X179629000Y-114847000D01*
X178716000Y-114807000D02*
X179424000Y-114807000D01*
X179070000Y-120818000D02*
X179070000Y-119618000D01*
X178420000Y-120218000D02*
X179720000Y-120218000D01*
X168469000Y-65984000D02*
X168469000Y-63324000D01*
X160789000Y-65984000D02*
X168469000Y-65984000D01*
X160789000Y-63324000D02*
X168469000Y-63324000D01*
X160789000Y-65984000D02*
X160789000Y-63324000D01*
X159519000Y-65984000D02*
X158189000Y-65984000D01*
X158189000Y-65984000D02*
X158189000Y-64654000D01*
X189920000Y-88370000D02*
X192580000Y-88370000D01*
X189920000Y-85770000D02*
X189920000Y-88370000D01*
X192580000Y-85770000D02*
X192580000Y-88370000D01*
X189920000Y-85770000D02*
X192580000Y-85770000D01*
X189920000Y-84500000D02*
X189920000Y-83170000D01*
X189920000Y-83170000D02*
X191250000Y-83170000D01*
X171270000Y-63324000D02*
X171270000Y-65984000D01*
X176410000Y-63324000D02*
X171270000Y-63324000D01*
X176410000Y-65984000D02*
X171270000Y-65984000D01*
X176410000Y-63324000D02*
X176410000Y-65984000D01*
X177680000Y-63324000D02*
X179010000Y-63324000D01*
X179010000Y-63324000D02*
X179010000Y-64654000D01*
X145250000Y-71020000D02*
X145250000Y-71720000D01*
X144050000Y-71720000D02*
X144050000Y-71020000D01*
X146920000Y-71030000D02*
X146920000Y-71730000D01*
X145720000Y-71730000D02*
X145720000Y-71030000D01*
X157300000Y-86950000D02*
X158000000Y-86950000D01*
X158000000Y-88150000D02*
X157300000Y-88150000D01*
X146040000Y-74810000D02*
X146740000Y-74810000D01*
X146740000Y-76010000D02*
X146040000Y-76010000D01*
X153650000Y-65200000D02*
X154350000Y-65200000D01*
X154350000Y-66400000D02*
X153650000Y-66400000D01*
X154535000Y-67895600D02*
X153835000Y-67895600D01*
X153835000Y-66695600D02*
X154535000Y-66695600D01*
X142108000Y-67756000D02*
X141408000Y-67756000D01*
X141408000Y-66556000D02*
X142108000Y-66556000D01*
X154408000Y-64746000D02*
X153708000Y-64746000D01*
X153708000Y-63546000D02*
X154408000Y-63546000D01*
X165930400Y-82197600D02*
X166630400Y-82197600D01*
X166630400Y-83397600D02*
X165930400Y-83397600D01*
X137775000Y-128800000D02*
X138475000Y-128800000D01*
X138475000Y-130000000D02*
X137775000Y-130000000D01*
X137725000Y-125800000D02*
X138425000Y-125800000D01*
X138425000Y-127000000D02*
X137725000Y-127000000D01*
X187197722Y-135726277D02*
G75*
G03X182586420Y-135726000I-2305722J-1179723D01*
G01*
X187197722Y-138085723D02*
G75*
G02X182586420Y-138086000I-2305722J1179723D01*
G01*
X187197722Y-138085723D02*
G75*
G03X187197580Y-135726000I-2305722J1179723D01*
G01*
X184892000Y-134356000D02*
X184892000Y-139456000D01*
X184932000Y-134356000D02*
X184932000Y-139456000D01*
X184972000Y-134357000D02*
X184972000Y-139455000D01*
X185012000Y-134358000D02*
X185012000Y-139454000D01*
X185052000Y-134360000D02*
X185052000Y-139452000D01*
X185092000Y-134363000D02*
X185092000Y-139449000D01*
X185132000Y-134367000D02*
X185132000Y-139445000D01*
X185172000Y-134371000D02*
X185172000Y-135926000D01*
X185172000Y-137886000D02*
X185172000Y-139441000D01*
X185212000Y-134375000D02*
X185212000Y-135926000D01*
X185212000Y-137886000D02*
X185212000Y-139437000D01*
X185252000Y-134381000D02*
X185252000Y-135926000D01*
X185252000Y-137886000D02*
X185252000Y-139431000D01*
X185292000Y-134387000D02*
X185292000Y-135926000D01*
X185292000Y-137886000D02*
X185292000Y-139425000D01*
X185332000Y-134393000D02*
X185332000Y-135926000D01*
X185332000Y-137886000D02*
X185332000Y-139419000D01*
X185372000Y-134400000D02*
X185372000Y-135926000D01*
X185372000Y-137886000D02*
X185372000Y-139412000D01*
X185412000Y-134408000D02*
X185412000Y-135926000D01*
X185412000Y-137886000D02*
X185412000Y-139404000D01*
X185452000Y-134417000D02*
X185452000Y-135926000D01*
X185452000Y-137886000D02*
X185452000Y-139395000D01*
X185492000Y-134426000D02*
X185492000Y-135926000D01*
X185492000Y-137886000D02*
X185492000Y-139386000D01*
X185532000Y-134436000D02*
X185532000Y-135926000D01*
X185532000Y-137886000D02*
X185532000Y-139376000D01*
X185572000Y-134446000D02*
X185572000Y-135926000D01*
X185572000Y-137886000D02*
X185572000Y-139366000D01*
X185613000Y-134458000D02*
X185613000Y-135926000D01*
X185613000Y-137886000D02*
X185613000Y-139354000D01*
X185653000Y-134470000D02*
X185653000Y-135926000D01*
X185653000Y-137886000D02*
X185653000Y-139342000D01*
X185693000Y-134482000D02*
X185693000Y-135926000D01*
X185693000Y-137886000D02*
X185693000Y-139330000D01*
X185733000Y-134496000D02*
X185733000Y-135926000D01*
X185733000Y-137886000D02*
X185733000Y-139316000D01*
X185773000Y-134510000D02*
X185773000Y-135926000D01*
X185773000Y-137886000D02*
X185773000Y-139302000D01*
X185813000Y-134524000D02*
X185813000Y-135926000D01*
X185813000Y-137886000D02*
X185813000Y-139288000D01*
X185853000Y-134540000D02*
X185853000Y-135926000D01*
X185853000Y-137886000D02*
X185853000Y-139272000D01*
X185893000Y-134556000D02*
X185893000Y-135926000D01*
X185893000Y-137886000D02*
X185893000Y-139256000D01*
X185933000Y-134573000D02*
X185933000Y-135926000D01*
X185933000Y-137886000D02*
X185933000Y-139239000D01*
X185973000Y-134591000D02*
X185973000Y-135926000D01*
X185973000Y-137886000D02*
X185973000Y-139221000D01*
X186013000Y-134610000D02*
X186013000Y-135926000D01*
X186013000Y-137886000D02*
X186013000Y-139202000D01*
X186053000Y-134630000D02*
X186053000Y-135926000D01*
X186053000Y-137886000D02*
X186053000Y-139182000D01*
X186093000Y-134650000D02*
X186093000Y-135926000D01*
X186093000Y-137886000D02*
X186093000Y-139162000D01*
X186133000Y-134672000D02*
X186133000Y-135926000D01*
X186133000Y-137886000D02*
X186133000Y-139140000D01*
X186173000Y-134694000D02*
X186173000Y-135926000D01*
X186173000Y-137886000D02*
X186173000Y-139118000D01*
X186213000Y-134717000D02*
X186213000Y-135926000D01*
X186213000Y-137886000D02*
X186213000Y-139095000D01*
X186253000Y-134741000D02*
X186253000Y-135926000D01*
X186253000Y-137886000D02*
X186253000Y-139071000D01*
X186293000Y-134766000D02*
X186293000Y-135926000D01*
X186293000Y-137886000D02*
X186293000Y-139046000D01*
X186333000Y-134793000D02*
X186333000Y-135926000D01*
X186333000Y-137886000D02*
X186333000Y-139019000D01*
X186373000Y-134820000D02*
X186373000Y-135926000D01*
X186373000Y-137886000D02*
X186373000Y-138992000D01*
X186413000Y-134848000D02*
X186413000Y-135926000D01*
X186413000Y-137886000D02*
X186413000Y-138964000D01*
X186453000Y-134878000D02*
X186453000Y-135926000D01*
X186453000Y-137886000D02*
X186453000Y-138934000D01*
X186493000Y-134909000D02*
X186493000Y-135926000D01*
X186493000Y-137886000D02*
X186493000Y-138903000D01*
X186533000Y-134941000D02*
X186533000Y-135926000D01*
X186533000Y-137886000D02*
X186533000Y-138871000D01*
X186573000Y-134974000D02*
X186573000Y-135926000D01*
X186573000Y-137886000D02*
X186573000Y-138838000D01*
X186613000Y-135009000D02*
X186613000Y-135926000D01*
X186613000Y-137886000D02*
X186613000Y-138803000D01*
X186653000Y-135045000D02*
X186653000Y-135926000D01*
X186653000Y-137886000D02*
X186653000Y-138767000D01*
X186693000Y-135083000D02*
X186693000Y-135926000D01*
X186693000Y-137886000D02*
X186693000Y-138729000D01*
X186733000Y-135123000D02*
X186733000Y-135926000D01*
X186733000Y-137886000D02*
X186733000Y-138689000D01*
X186773000Y-135164000D02*
X186773000Y-135926000D01*
X186773000Y-137886000D02*
X186773000Y-138648000D01*
X186813000Y-135207000D02*
X186813000Y-135926000D01*
X186813000Y-137886000D02*
X186813000Y-138605000D01*
X186853000Y-135252000D02*
X186853000Y-135926000D01*
X186853000Y-137886000D02*
X186853000Y-138560000D01*
X186893000Y-135300000D02*
X186893000Y-135926000D01*
X186893000Y-137886000D02*
X186893000Y-138512000D01*
X186933000Y-135350000D02*
X186933000Y-135926000D01*
X186933000Y-137886000D02*
X186933000Y-138462000D01*
X186973000Y-135402000D02*
X186973000Y-135926000D01*
X186973000Y-137886000D02*
X186973000Y-138410000D01*
X187013000Y-135458000D02*
X187013000Y-135926000D01*
X187013000Y-137886000D02*
X187013000Y-138354000D01*
X187053000Y-135516000D02*
X187053000Y-135926000D01*
X187053000Y-137886000D02*
X187053000Y-138296000D01*
X187093000Y-135579000D02*
X187093000Y-135926000D01*
X187093000Y-137886000D02*
X187093000Y-138233000D01*
X187133000Y-135645000D02*
X187133000Y-138167000D01*
X187173000Y-135717000D02*
X187173000Y-138095000D01*
X187213000Y-135794000D02*
X187213000Y-138018000D01*
X187253000Y-135878000D02*
X187253000Y-137934000D01*
X187293000Y-135972000D02*
X187293000Y-137840000D01*
X187333000Y-136077000D02*
X187333000Y-137735000D01*
X187373000Y-136199000D02*
X187373000Y-137613000D01*
X187413000Y-136347000D02*
X187413000Y-137465000D01*
X187453000Y-136552000D02*
X187453000Y-137260000D01*
X181442000Y-136906000D02*
X182642000Y-136906000D01*
X182042000Y-136256000D02*
X182042000Y-137556000D01*
X137725000Y-122800000D02*
X138425000Y-122800000D01*
X138425000Y-124000000D02*
X137725000Y-124000000D01*
X168909722Y-136234277D02*
G75*
G03X164298420Y-136234000I-2305722J-1179723D01*
G01*
X168909722Y-138593723D02*
G75*
G02X164298420Y-138594000I-2305722J1179723D01*
G01*
X168909722Y-138593723D02*
G75*
G03X168909580Y-136234000I-2305722J1179723D01*
G01*
X166604000Y-134864000D02*
X166604000Y-139964000D01*
X166644000Y-134864000D02*
X166644000Y-139964000D01*
X166684000Y-134865000D02*
X166684000Y-139963000D01*
X166724000Y-134866000D02*
X166724000Y-139962000D01*
X166764000Y-134868000D02*
X166764000Y-139960000D01*
X166804000Y-134871000D02*
X166804000Y-139957000D01*
X166844000Y-134875000D02*
X166844000Y-139953000D01*
X166884000Y-134879000D02*
X166884000Y-136434000D01*
X166884000Y-138394000D02*
X166884000Y-139949000D01*
X166924000Y-134883000D02*
X166924000Y-136434000D01*
X166924000Y-138394000D02*
X166924000Y-139945000D01*
X166964000Y-134889000D02*
X166964000Y-136434000D01*
X166964000Y-138394000D02*
X166964000Y-139939000D01*
X167004000Y-134895000D02*
X167004000Y-136434000D01*
X167004000Y-138394000D02*
X167004000Y-139933000D01*
X167044000Y-134901000D02*
X167044000Y-136434000D01*
X167044000Y-138394000D02*
X167044000Y-139927000D01*
X167084000Y-134908000D02*
X167084000Y-136434000D01*
X167084000Y-138394000D02*
X167084000Y-139920000D01*
X167124000Y-134916000D02*
X167124000Y-136434000D01*
X167124000Y-138394000D02*
X167124000Y-139912000D01*
X167164000Y-134925000D02*
X167164000Y-136434000D01*
X167164000Y-138394000D02*
X167164000Y-139903000D01*
X167204000Y-134934000D02*
X167204000Y-136434000D01*
X167204000Y-138394000D02*
X167204000Y-139894000D01*
X167244000Y-134944000D02*
X167244000Y-136434000D01*
X167244000Y-138394000D02*
X167244000Y-139884000D01*
X167284000Y-134954000D02*
X167284000Y-136434000D01*
X167284000Y-138394000D02*
X167284000Y-139874000D01*
X167325000Y-134966000D02*
X167325000Y-136434000D01*
X167325000Y-138394000D02*
X167325000Y-139862000D01*
X167365000Y-134978000D02*
X167365000Y-136434000D01*
X167365000Y-138394000D02*
X167365000Y-139850000D01*
X167405000Y-134990000D02*
X167405000Y-136434000D01*
X167405000Y-138394000D02*
X167405000Y-139838000D01*
X167445000Y-135004000D02*
X167445000Y-136434000D01*
X167445000Y-138394000D02*
X167445000Y-139824000D01*
X167485000Y-135018000D02*
X167485000Y-136434000D01*
X167485000Y-138394000D02*
X167485000Y-139810000D01*
X167525000Y-135032000D02*
X167525000Y-136434000D01*
X167525000Y-138394000D02*
X167525000Y-139796000D01*
X167565000Y-135048000D02*
X167565000Y-136434000D01*
X167565000Y-138394000D02*
X167565000Y-139780000D01*
X167605000Y-135064000D02*
X167605000Y-136434000D01*
X167605000Y-138394000D02*
X167605000Y-139764000D01*
X167645000Y-135081000D02*
X167645000Y-136434000D01*
X167645000Y-138394000D02*
X167645000Y-139747000D01*
X167685000Y-135099000D02*
X167685000Y-136434000D01*
X167685000Y-138394000D02*
X167685000Y-139729000D01*
X167725000Y-135118000D02*
X167725000Y-136434000D01*
X167725000Y-138394000D02*
X167725000Y-139710000D01*
X167765000Y-135138000D02*
X167765000Y-136434000D01*
X167765000Y-138394000D02*
X167765000Y-139690000D01*
X167805000Y-135158000D02*
X167805000Y-136434000D01*
X167805000Y-138394000D02*
X167805000Y-139670000D01*
X167845000Y-135180000D02*
X167845000Y-136434000D01*
X167845000Y-138394000D02*
X167845000Y-139648000D01*
X167885000Y-135202000D02*
X167885000Y-136434000D01*
X167885000Y-138394000D02*
X167885000Y-139626000D01*
X167925000Y-135225000D02*
X167925000Y-136434000D01*
X167925000Y-138394000D02*
X167925000Y-139603000D01*
X167965000Y-135249000D02*
X167965000Y-136434000D01*
X167965000Y-138394000D02*
X167965000Y-139579000D01*
X168005000Y-135274000D02*
X168005000Y-136434000D01*
X168005000Y-138394000D02*
X168005000Y-139554000D01*
X168045000Y-135301000D02*
X168045000Y-136434000D01*
X168045000Y-138394000D02*
X168045000Y-139527000D01*
X168085000Y-135328000D02*
X168085000Y-136434000D01*
X168085000Y-138394000D02*
X168085000Y-139500000D01*
X168125000Y-135356000D02*
X168125000Y-136434000D01*
X168125000Y-138394000D02*
X168125000Y-139472000D01*
X168165000Y-135386000D02*
X168165000Y-136434000D01*
X168165000Y-138394000D02*
X168165000Y-139442000D01*
X168205000Y-135417000D02*
X168205000Y-136434000D01*
X168205000Y-138394000D02*
X168205000Y-139411000D01*
X168245000Y-135449000D02*
X168245000Y-136434000D01*
X168245000Y-138394000D02*
X168245000Y-139379000D01*
X168285000Y-135482000D02*
X168285000Y-136434000D01*
X168285000Y-138394000D02*
X168285000Y-139346000D01*
X168325000Y-135517000D02*
X168325000Y-136434000D01*
X168325000Y-138394000D02*
X168325000Y-139311000D01*
X168365000Y-135553000D02*
X168365000Y-136434000D01*
X168365000Y-138394000D02*
X168365000Y-139275000D01*
X168405000Y-135591000D02*
X168405000Y-136434000D01*
X168405000Y-138394000D02*
X168405000Y-139237000D01*
X168445000Y-135631000D02*
X168445000Y-136434000D01*
X168445000Y-138394000D02*
X168445000Y-139197000D01*
X168485000Y-135672000D02*
X168485000Y-136434000D01*
X168485000Y-138394000D02*
X168485000Y-139156000D01*
X168525000Y-135715000D02*
X168525000Y-136434000D01*
X168525000Y-138394000D02*
X168525000Y-139113000D01*
X168565000Y-135760000D02*
X168565000Y-136434000D01*
X168565000Y-138394000D02*
X168565000Y-139068000D01*
X168605000Y-135808000D02*
X168605000Y-136434000D01*
X168605000Y-138394000D02*
X168605000Y-139020000D01*
X168645000Y-135858000D02*
X168645000Y-136434000D01*
X168645000Y-138394000D02*
X168645000Y-138970000D01*
X168685000Y-135910000D02*
X168685000Y-136434000D01*
X168685000Y-138394000D02*
X168685000Y-138918000D01*
X168725000Y-135966000D02*
X168725000Y-136434000D01*
X168725000Y-138394000D02*
X168725000Y-138862000D01*
X168765000Y-136024000D02*
X168765000Y-136434000D01*
X168765000Y-138394000D02*
X168765000Y-138804000D01*
X168805000Y-136087000D02*
X168805000Y-136434000D01*
X168805000Y-138394000D02*
X168805000Y-138741000D01*
X168845000Y-136153000D02*
X168845000Y-138675000D01*
X168885000Y-136225000D02*
X168885000Y-138603000D01*
X168925000Y-136302000D02*
X168925000Y-138526000D01*
X168965000Y-136386000D02*
X168965000Y-138442000D01*
X169005000Y-136480000D02*
X169005000Y-138348000D01*
X169045000Y-136585000D02*
X169045000Y-138243000D01*
X169085000Y-136707000D02*
X169085000Y-138121000D01*
X169125000Y-136855000D02*
X169125000Y-137973000D01*
X169165000Y-137060000D02*
X169165000Y-137768000D01*
X163154000Y-137414000D02*
X164354000Y-137414000D01*
X163754000Y-136764000D02*
X163754000Y-138064000D01*
X137825000Y-119625000D02*
X138525000Y-119625000D01*
X138525000Y-120825000D02*
X137825000Y-120825000D01*
X183490000Y-85370000D02*
X184190000Y-85370000D01*
X184190000Y-86570000D02*
X183490000Y-86570000D01*
X138550000Y-119000000D02*
X137850000Y-119000000D01*
X137850000Y-117800000D02*
X138550000Y-117800000D01*
X171923000Y-123602000D02*
X171923000Y-124302000D01*
X170723000Y-124302000D02*
X170723000Y-123602000D01*
X170650000Y-81900000D02*
X169950000Y-81900000D01*
X169950000Y-80700000D02*
X170650000Y-80700000D01*
X142150000Y-69400000D02*
X141450000Y-69400000D01*
X141450000Y-68200000D02*
X142150000Y-68200000D01*
X172121000Y-145304000D02*
X172121000Y-147304000D01*
X172121000Y-147304000D02*
X176021000Y-147304000D01*
X172121000Y-145304000D02*
X176021000Y-145304000D01*
X158890000Y-129170000D02*
X158890000Y-131830000D01*
X164030000Y-129170000D02*
X158890000Y-129170000D01*
X164030000Y-131830000D02*
X158890000Y-131830000D01*
X164030000Y-129170000D02*
X164030000Y-131830000D01*
X165300000Y-129170000D02*
X166630000Y-129170000D01*
X166630000Y-129170000D02*
X166630000Y-130500000D01*
X169809000Y-146050000D02*
G75*
G03X169809000Y-146050000I-3590000J0D01*
G01*
X191929000Y-61248000D02*
X183229000Y-61248000D01*
X191929000Y-67658000D02*
X183229000Y-67658000D01*
X183229000Y-67658000D02*
X183229000Y-61248000D01*
X183229000Y-62478000D02*
X191929000Y-62478000D01*
X191929000Y-61248000D02*
X191929000Y-67658000D01*
X142200000Y-64580000D02*
X141200000Y-64580000D01*
X141200000Y-63220000D02*
X142200000Y-63220000D01*
X142258000Y-66312000D02*
X141258000Y-66312000D01*
X141258000Y-64952000D02*
X142258000Y-64952000D01*
X137725000Y-121270000D02*
X138725000Y-121270000D01*
X138725000Y-122630000D02*
X137725000Y-122630000D01*
X137725000Y-124220000D02*
X138725000Y-124220000D01*
X138725000Y-125580000D02*
X137725000Y-125580000D01*
X137725000Y-127220000D02*
X138725000Y-127220000D01*
X138725000Y-128580000D02*
X137725000Y-128580000D01*
X158130000Y-94990000D02*
X158130000Y-93990000D01*
X159490000Y-93990000D02*
X159490000Y-94990000D01*
X168701000Y-94242000D02*
X168701000Y-95242000D01*
X167341000Y-95242000D02*
X167341000Y-94242000D01*
X167880000Y-123400000D02*
X167880000Y-124400000D01*
X166520000Y-124400000D02*
X166520000Y-123400000D01*
X168920000Y-124400000D02*
X168920000Y-123400000D01*
X170280000Y-123400000D02*
X170280000Y-124400000D01*
X151020000Y-129160000D02*
X152020000Y-129160000D01*
X152020000Y-130520000D02*
X151020000Y-130520000D01*
X151030000Y-130710000D02*
X152030000Y-130710000D01*
X152030000Y-132070000D02*
X151030000Y-132070000D01*
X151920000Y-146320000D02*
X151920000Y-147320000D01*
X150560000Y-147320000D02*
X150560000Y-146320000D01*
X166530000Y-123400000D02*
X166530000Y-124400000D01*
X165170000Y-124400000D02*
X165170000Y-123400000D01*
X176522000Y-107677500D02*
X175522000Y-107677500D01*
X175522000Y-106317500D02*
X176522000Y-106317500D01*
X171786000Y-128770000D02*
X171786000Y-127770000D01*
X173146000Y-127770000D02*
X173146000Y-128770000D01*
X168230000Y-128770000D02*
X168230000Y-127770000D01*
X169590000Y-127770000D02*
X169590000Y-128770000D01*
X178480000Y-85400000D02*
X178480000Y-86400000D01*
X177120000Y-86400000D02*
X177120000Y-85400000D01*
X150884000Y-138766000D02*
X151884000Y-138766000D01*
X151884000Y-140126000D02*
X150884000Y-140126000D01*
X178824000Y-108032000D02*
X179824000Y-108032000D01*
X179824000Y-109392000D02*
X178824000Y-109392000D01*
X146820000Y-102100000D02*
X146820000Y-101100000D01*
X148180000Y-101100000D02*
X148180000Y-102100000D01*
X166415000Y-94242000D02*
X166415000Y-95242000D01*
X165055000Y-95242000D02*
X165055000Y-94242000D01*
D14*
X170525000Y-83525000D02*
X170525000Y-83575000D01*
X174675000Y-83525000D02*
X174675000Y-83670000D01*
X174675000Y-88675000D02*
X174675000Y-88530000D01*
X170525000Y-88675000D02*
X170525000Y-88530000D01*
X170525000Y-83525000D02*
X174675000Y-83525000D01*
X170525000Y-88675000D02*
X174675000Y-88675000D01*
X170525000Y-83575000D02*
X169125000Y-83575000D01*
D13*
X135186000Y-75683500D02*
X139886000Y-75683500D01*
X135186000Y-79383500D02*
X139886000Y-79383500D01*
X135186000Y-79383500D02*
G75*
G02X135186000Y-75683500I0J1850000D01*
G01*
X139886000Y-79383500D02*
G75*
G03X139886000Y-75683500I0J1850000D01*
G01*
X142082000Y-73117000D02*
X141382000Y-73117000D01*
X141382000Y-71917000D02*
X142082000Y-71917000D01*
X166579600Y-81873600D02*
X165879600Y-81873600D01*
X165879600Y-80673600D02*
X166579600Y-80673600D01*
X136460000Y-109500000D02*
X136460000Y-110900000D01*
X136460000Y-110900000D02*
X139260000Y-110900000D01*
X136460000Y-109500000D02*
X139260000Y-109500000D01*
X129400000Y-138140000D02*
X129400000Y-140470000D01*
X114410000Y-138140000D02*
X114410000Y-140260000D01*
X129400000Y-138140000D02*
X114410000Y-138140000D01*
X129400000Y-152230000D02*
X114410000Y-152230000D01*
X129400000Y-143430000D02*
X129400000Y-152230000D01*
X114410000Y-143630000D02*
X114410000Y-152230000D01*
X111446000Y-89468000D02*
X114106000Y-89468000D01*
X111446000Y-79248000D02*
X111446000Y-89468000D01*
X114106000Y-79248000D02*
X114106000Y-89468000D01*
X111446000Y-79248000D02*
X114106000Y-79248000D01*
X111446000Y-77978000D02*
X111446000Y-76648000D01*
X111446000Y-76648000D02*
X112776000Y-76648000D01*
X193862000Y-90872000D02*
X191202000Y-90872000D01*
X193862000Y-93472000D02*
X193862000Y-90872000D01*
X191202000Y-93472000D02*
X191202000Y-90872000D01*
X193862000Y-93472000D02*
X191202000Y-93472000D01*
X193862000Y-94742000D02*
X193862000Y-96072000D01*
X193862000Y-96072000D02*
X192532000Y-96072000D01*
X111420000Y-91420000D02*
X111420000Y-94080000D01*
X111480000Y-91420000D02*
X111420000Y-91420000D01*
X111480000Y-94080000D02*
X111420000Y-94080000D01*
X111480000Y-91420000D02*
X111480000Y-94080000D01*
X112750000Y-91420000D02*
X114080000Y-91420000D01*
X114080000Y-91420000D02*
X114080000Y-92750000D01*
X139300000Y-116390000D02*
X139300000Y-115460000D01*
X139300000Y-113230000D02*
X139300000Y-114160000D01*
X139300000Y-113230000D02*
X137140000Y-113230000D01*
X139300000Y-116390000D02*
X137840000Y-116390000D01*
X138280000Y-69340000D02*
X137350000Y-69340000D01*
X135120000Y-69340000D02*
X136050000Y-69340000D01*
X135120000Y-69340000D02*
X135120000Y-71500000D01*
X138280000Y-69340000D02*
X138280000Y-70800000D01*
X121140000Y-93820000D02*
X121140000Y-94750000D01*
X121140000Y-96980000D02*
X121140000Y-96050000D01*
X121140000Y-96980000D02*
X123300000Y-96980000D01*
X121140000Y-93820000D02*
X122600000Y-93820000D01*
X133280000Y-69340000D02*
X132350000Y-69340000D01*
X130120000Y-69340000D02*
X131050000Y-69340000D01*
X130120000Y-69340000D02*
X130120000Y-71500000D01*
X133280000Y-69340000D02*
X133280000Y-70800000D01*
X128480000Y-69340000D02*
X127550000Y-69340000D01*
X125320000Y-69340000D02*
X126250000Y-69340000D01*
X125320000Y-69340000D02*
X125320000Y-71500000D01*
X128480000Y-69340000D02*
X128480000Y-70800000D01*
X123880000Y-69340000D02*
X122950000Y-69340000D01*
X120720000Y-69340000D02*
X121650000Y-69340000D01*
X120720000Y-69340000D02*
X120720000Y-71500000D01*
X123880000Y-69340000D02*
X123880000Y-70800000D01*
X183894000Y-95814000D02*
X183894000Y-94884000D01*
X183894000Y-92654000D02*
X183894000Y-93584000D01*
X183894000Y-92654000D02*
X181734000Y-92654000D01*
X183894000Y-95814000D02*
X182434000Y-95814000D01*
X137780000Y-111280000D02*
X138780000Y-111280000D01*
X138780000Y-112640000D02*
X137780000Y-112640000D01*
X134020000Y-113210000D02*
X135020000Y-113210000D01*
X135020000Y-114570000D02*
X134020000Y-114570000D01*
X136200000Y-73920000D02*
X137200000Y-73920000D01*
X137200000Y-75280000D02*
X136200000Y-75280000D01*
X126754000Y-95332000D02*
X127754000Y-95332000D01*
X127754000Y-96692000D02*
X126754000Y-96692000D01*
X131100000Y-73920000D02*
X132100000Y-73920000D01*
X132100000Y-75280000D02*
X131100000Y-75280000D01*
X126400000Y-73920000D02*
X127400000Y-73920000D01*
X127400000Y-75280000D02*
X126400000Y-75280000D01*
X126500000Y-79480000D02*
X125500000Y-79480000D01*
X125500000Y-78120000D02*
X126500000Y-78120000D01*
X130300000Y-78120000D02*
X131300000Y-78120000D01*
X131300000Y-79480000D02*
X130300000Y-79480000D01*
X126600000Y-82280000D02*
X125600000Y-82280000D01*
X125600000Y-80920000D02*
X126600000Y-80920000D01*
X130300000Y-80920000D02*
X131300000Y-80920000D01*
X131300000Y-82280000D02*
X130300000Y-82280000D01*
X121800000Y-73920000D02*
X122800000Y-73920000D01*
X122800000Y-75280000D02*
X121800000Y-75280000D01*
X126600000Y-85080000D02*
X125600000Y-85080000D01*
X125600000Y-83720000D02*
X126600000Y-83720000D01*
X130300000Y-83720000D02*
X131300000Y-83720000D01*
X131300000Y-85080000D02*
X130300000Y-85080000D01*
X126600000Y-87880000D02*
X125600000Y-87880000D01*
X125600000Y-86520000D02*
X126600000Y-86520000D01*
X130100000Y-86520000D02*
X131100000Y-86520000D01*
X131100000Y-87880000D02*
X130100000Y-87880000D01*
X126738000Y-89707000D02*
X125738000Y-89707000D01*
X125738000Y-88347000D02*
X126738000Y-88347000D01*
X130110000Y-88050000D02*
X131110000Y-88050000D01*
X131110000Y-89410000D02*
X130110000Y-89410000D01*
X184840500Y-97517500D02*
X183840500Y-97517500D01*
X183840500Y-96157500D02*
X184840500Y-96157500D01*
X126484000Y-94152000D02*
X125484000Y-94152000D01*
X125484000Y-92792000D02*
X126484000Y-92792000D01*
X131259200Y-94152000D02*
X130259200Y-94152000D01*
X130259200Y-92792000D02*
X131259200Y-92792000D01*
X179920000Y-87500000D02*
X179920000Y-86500000D01*
X181280000Y-86500000D02*
X181280000Y-87500000D01*
X184970000Y-148910000D02*
X190170000Y-148910000D01*
X184970000Y-143770000D02*
X184970000Y-148910000D01*
X190170000Y-141170000D02*
X190170000Y-148910000D01*
X184970000Y-143770000D02*
X187570000Y-143770000D01*
X187570000Y-143770000D02*
X187570000Y-141170000D01*
X187570000Y-141170000D02*
X190170000Y-141170000D01*
X184970000Y-142500000D02*
X184970000Y-141170000D01*
X184970000Y-141170000D02*
X186300000Y-141170000D01*
X118880000Y-69340000D02*
X117950000Y-69340000D01*
X115720000Y-69340000D02*
X116650000Y-69340000D01*
X115720000Y-69340000D02*
X115720000Y-71500000D01*
X118880000Y-69340000D02*
X118880000Y-70800000D01*
X134050000Y-114900000D02*
X135050000Y-114900000D01*
X135050000Y-116260000D02*
X134050000Y-116260000D01*
X134501000Y-106381000D02*
X135501000Y-106381000D01*
X135501000Y-107741000D02*
X134501000Y-107741000D01*
X113090000Y-115490000D02*
X113090000Y-114490000D01*
X114450000Y-114490000D02*
X114450000Y-115490000D01*
X117100000Y-73920000D02*
X118100000Y-73920000D01*
X118100000Y-75280000D02*
X117100000Y-75280000D01*
X170046000Y-96655000D02*
X169796000Y-96655000D01*
X169796000Y-96655000D02*
X169796000Y-96405000D01*
X169796000Y-96405000D02*
X169546000Y-96405000D01*
X169546000Y-96405000D02*
X169546000Y-95155000D01*
X169546000Y-95155000D02*
X169796000Y-95155000D01*
X169796000Y-95155000D02*
X169796000Y-91505000D01*
X169796000Y-91505000D02*
X169546000Y-91505000D01*
X169546000Y-91505000D02*
X169546000Y-90205000D01*
X169546000Y-90205000D02*
X169796000Y-90205000D01*
X169796000Y-90205000D02*
X169796000Y-89905000D01*
X169796000Y-89905000D02*
X170046000Y-89905000D01*
X177096000Y-94455000D02*
X177096000Y-95355000D01*
X177096000Y-95355000D02*
X175596000Y-96705000D01*
X175596000Y-96705000D02*
X172296000Y-96705000D01*
X172296000Y-89905000D02*
X175646000Y-89905000D01*
X175646000Y-89905000D02*
X177096000Y-91255000D01*
X177096000Y-91255000D02*
X177096000Y-92155000D01*
X139881500Y-103857500D02*
X139881500Y-105057500D01*
X138121500Y-105057500D02*
X138121500Y-103857500D01*
D14*
X128128000Y-101856000D02*
X128128000Y-116856000D01*
X117878000Y-101856000D02*
X117878000Y-116856000D01*
X117878000Y-116856000D02*
X128128000Y-116856000D01*
X128128000Y-101856000D02*
X117878000Y-101856000D01*
X136271000Y-101346000D02*
X136271000Y-105664000D01*
X136271000Y-105664000D02*
X132969000Y-105664000D01*
X132969000Y-105664000D02*
X132969000Y-101219000D01*
X132969000Y-101219000D02*
X136271000Y-101219000D01*
X136271000Y-101219000D02*
X136271000Y-101473000D01*
X136271000Y-101473000D02*
X136271000Y-101600000D01*
X190627000Y-100965000D02*
X190627000Y-105283000D01*
X190627000Y-105283000D02*
X187325000Y-105283000D01*
X187325000Y-105283000D02*
X187325000Y-100838000D01*
X187325000Y-100838000D02*
X190627000Y-100838000D01*
X190627000Y-100838000D02*
X190627000Y-101092000D01*
X190627000Y-101092000D02*
X190627000Y-101219000D01*
X191516000Y-109855000D02*
X191516000Y-114173000D01*
X191516000Y-114173000D02*
X188214000Y-114173000D01*
X188214000Y-114173000D02*
X188214000Y-109728000D01*
X188214000Y-109728000D02*
X191516000Y-109728000D01*
X191516000Y-109728000D02*
X191516000Y-109982000D01*
X191516000Y-109982000D02*
X191516000Y-110109000D01*
X147193000Y-118046500D02*
X147193000Y-113728500D01*
X147193000Y-113728500D02*
X150495000Y-113728500D01*
X150495000Y-113728500D02*
X150495000Y-118173500D01*
X150495000Y-118173500D02*
X147193000Y-118173500D01*
X147193000Y-118173500D02*
X147193000Y-117919500D01*
X147193000Y-117919500D02*
X147193000Y-117792500D01*
D13*
X120717000Y-63059000D02*
X120717000Y-65719000D01*
X130937000Y-63059000D02*
X120717000Y-63059000D01*
X130937000Y-65719000D02*
X120717000Y-65719000D01*
X130937000Y-63059000D02*
X130937000Y-65719000D01*
X132207000Y-63059000D02*
X133537000Y-63059000D01*
X133537000Y-63059000D02*
X133537000Y-64389000D01*
X186526277Y-90932278D02*
G75*
G03X186526000Y-95543580I1179723J-2305722D01*
G01*
X188885723Y-90932278D02*
G75*
G02X188886000Y-95543580I-1179723J-2305722D01*
G01*
X188885723Y-90932278D02*
G75*
G03X186526000Y-90932420I-1179723J-2305722D01*
G01*
X185156000Y-93238000D02*
X190256000Y-93238000D01*
X185156000Y-93198000D02*
X190256000Y-93198000D01*
X185157000Y-93158000D02*
X190255000Y-93158000D01*
X185158000Y-93118000D02*
X190254000Y-93118000D01*
X185160000Y-93078000D02*
X190252000Y-93078000D01*
X185163000Y-93038000D02*
X190249000Y-93038000D01*
X185167000Y-92998000D02*
X190245000Y-92998000D01*
X185171000Y-92958000D02*
X186726000Y-92958000D01*
X188686000Y-92958000D02*
X190241000Y-92958000D01*
X185175000Y-92918000D02*
X186726000Y-92918000D01*
X188686000Y-92918000D02*
X190237000Y-92918000D01*
X185181000Y-92878000D02*
X186726000Y-92878000D01*
X188686000Y-92878000D02*
X190231000Y-92878000D01*
X185187000Y-92838000D02*
X186726000Y-92838000D01*
X188686000Y-92838000D02*
X190225000Y-92838000D01*
X185193000Y-92798000D02*
X186726000Y-92798000D01*
X188686000Y-92798000D02*
X190219000Y-92798000D01*
X185200000Y-92758000D02*
X186726000Y-92758000D01*
X188686000Y-92758000D02*
X190212000Y-92758000D01*
X185208000Y-92718000D02*
X186726000Y-92718000D01*
X188686000Y-92718000D02*
X190204000Y-92718000D01*
X185217000Y-92678000D02*
X186726000Y-92678000D01*
X188686000Y-92678000D02*
X190195000Y-92678000D01*
X185226000Y-92638000D02*
X186726000Y-92638000D01*
X188686000Y-92638000D02*
X190186000Y-92638000D01*
X185236000Y-92598000D02*
X186726000Y-92598000D01*
X188686000Y-92598000D02*
X190176000Y-92598000D01*
X185246000Y-92558000D02*
X186726000Y-92558000D01*
X188686000Y-92558000D02*
X190166000Y-92558000D01*
X185258000Y-92517000D02*
X186726000Y-92517000D01*
X188686000Y-92517000D02*
X190154000Y-92517000D01*
X185270000Y-92477000D02*
X186726000Y-92477000D01*
X188686000Y-92477000D02*
X190142000Y-92477000D01*
X185282000Y-92437000D02*
X186726000Y-92437000D01*
X188686000Y-92437000D02*
X190130000Y-92437000D01*
X185296000Y-92397000D02*
X186726000Y-92397000D01*
X188686000Y-92397000D02*
X190116000Y-92397000D01*
X185310000Y-92357000D02*
X186726000Y-92357000D01*
X188686000Y-92357000D02*
X190102000Y-92357000D01*
X185324000Y-92317000D02*
X186726000Y-92317000D01*
X188686000Y-92317000D02*
X190088000Y-92317000D01*
X185340000Y-92277000D02*
X186726000Y-92277000D01*
X188686000Y-92277000D02*
X190072000Y-92277000D01*
X185356000Y-92237000D02*
X186726000Y-92237000D01*
X188686000Y-92237000D02*
X190056000Y-92237000D01*
X185373000Y-92197000D02*
X186726000Y-92197000D01*
X188686000Y-92197000D02*
X190039000Y-92197000D01*
X185391000Y-92157000D02*
X186726000Y-92157000D01*
X188686000Y-92157000D02*
X190021000Y-92157000D01*
X185410000Y-92117000D02*
X186726000Y-92117000D01*
X188686000Y-92117000D02*
X190002000Y-92117000D01*
X185430000Y-92077000D02*
X186726000Y-92077000D01*
X188686000Y-92077000D02*
X189982000Y-92077000D01*
X185450000Y-92037000D02*
X186726000Y-92037000D01*
X188686000Y-92037000D02*
X189962000Y-92037000D01*
X185472000Y-91997000D02*
X186726000Y-91997000D01*
X188686000Y-91997000D02*
X189940000Y-91997000D01*
X185494000Y-91957000D02*
X186726000Y-91957000D01*
X188686000Y-91957000D02*
X189918000Y-91957000D01*
X185517000Y-91917000D02*
X186726000Y-91917000D01*
X188686000Y-91917000D02*
X189895000Y-91917000D01*
X185541000Y-91877000D02*
X186726000Y-91877000D01*
X188686000Y-91877000D02*
X189871000Y-91877000D01*
X185566000Y-91837000D02*
X186726000Y-91837000D01*
X188686000Y-91837000D02*
X189846000Y-91837000D01*
X185593000Y-91797000D02*
X186726000Y-91797000D01*
X188686000Y-91797000D02*
X189819000Y-91797000D01*
X185620000Y-91757000D02*
X186726000Y-91757000D01*
X188686000Y-91757000D02*
X189792000Y-91757000D01*
X185648000Y-91717000D02*
X186726000Y-91717000D01*
X188686000Y-91717000D02*
X189764000Y-91717000D01*
X185678000Y-91677000D02*
X186726000Y-91677000D01*
X188686000Y-91677000D02*
X189734000Y-91677000D01*
X185709000Y-91637000D02*
X186726000Y-91637000D01*
X188686000Y-91637000D02*
X189703000Y-91637000D01*
X185741000Y-91597000D02*
X186726000Y-91597000D01*
X188686000Y-91597000D02*
X189671000Y-91597000D01*
X185774000Y-91557000D02*
X186726000Y-91557000D01*
X188686000Y-91557000D02*
X189638000Y-91557000D01*
X185809000Y-91517000D02*
X186726000Y-91517000D01*
X188686000Y-91517000D02*
X189603000Y-91517000D01*
X185845000Y-91477000D02*
X186726000Y-91477000D01*
X188686000Y-91477000D02*
X189567000Y-91477000D01*
X185883000Y-91437000D02*
X186726000Y-91437000D01*
X188686000Y-91437000D02*
X189529000Y-91437000D01*
X185923000Y-91397000D02*
X186726000Y-91397000D01*
X188686000Y-91397000D02*
X189489000Y-91397000D01*
X185964000Y-91357000D02*
X186726000Y-91357000D01*
X188686000Y-91357000D02*
X189448000Y-91357000D01*
X186007000Y-91317000D02*
X186726000Y-91317000D01*
X188686000Y-91317000D02*
X189405000Y-91317000D01*
X186052000Y-91277000D02*
X186726000Y-91277000D01*
X188686000Y-91277000D02*
X189360000Y-91277000D01*
X186100000Y-91237000D02*
X186726000Y-91237000D01*
X188686000Y-91237000D02*
X189312000Y-91237000D01*
X186150000Y-91197000D02*
X186726000Y-91197000D01*
X188686000Y-91197000D02*
X189262000Y-91197000D01*
X186202000Y-91157000D02*
X186726000Y-91157000D01*
X188686000Y-91157000D02*
X189210000Y-91157000D01*
X186258000Y-91117000D02*
X186726000Y-91117000D01*
X188686000Y-91117000D02*
X189154000Y-91117000D01*
X186316000Y-91077000D02*
X186726000Y-91077000D01*
X188686000Y-91077000D02*
X189096000Y-91077000D01*
X186379000Y-91037000D02*
X186726000Y-91037000D01*
X188686000Y-91037000D02*
X189033000Y-91037000D01*
X186445000Y-90997000D02*
X188967000Y-90997000D01*
X186517000Y-90957000D02*
X188895000Y-90957000D01*
X186594000Y-90917000D02*
X188818000Y-90917000D01*
X186678000Y-90877000D02*
X188734000Y-90877000D01*
X186772000Y-90837000D02*
X188640000Y-90837000D01*
X186877000Y-90797000D02*
X188535000Y-90797000D01*
X186999000Y-90757000D02*
X188413000Y-90757000D01*
X187147000Y-90717000D02*
X188265000Y-90717000D01*
X187352000Y-90677000D02*
X188060000Y-90677000D01*
X187706000Y-96688000D02*
X187706000Y-95488000D01*
X187056000Y-96088000D02*
X188356000Y-96088000D01*
X129000000Y-99320000D02*
X130000000Y-99320000D01*
X130000000Y-100680000D02*
X129000000Y-100680000D01*
X129000000Y-97570000D02*
X130000000Y-97570000D01*
X130000000Y-98930000D02*
X129000000Y-98930000D01*
X147300000Y-136670000D02*
G75*
G03X147300000Y-136670000I-6100000J0D01*
G01*
X174707000Y-116705000D02*
X174707000Y-115705000D01*
X176067000Y-115705000D02*
X176067000Y-116705000D01*
D14*
X180860000Y-67942000D02*
G75*
G03X182384000Y-69466000I1524000J0D01*
G01*
X182384000Y-79626000D02*
X182384000Y-67942000D01*
X182384000Y-67942000D02*
X170192000Y-67942000D01*
X170192000Y-67942000D02*
X170192000Y-79626000D01*
X170192000Y-79626000D02*
X182384000Y-79626000D01*
X131861905Y-121802381D02*
X131861905Y-122611905D01*
X131909524Y-122707143D01*
X131957143Y-122754762D01*
X132052381Y-122802381D01*
X132242858Y-122802381D01*
X132338096Y-122754762D01*
X132385715Y-122707143D01*
X132433334Y-122611905D01*
X132433334Y-121802381D01*
X133433334Y-122802381D02*
X132861905Y-122802381D01*
X133147619Y-122802381D02*
X133147619Y-121802381D01*
X133052381Y-121945238D01*
X132957143Y-122040476D01*
X132861905Y-122088095D01*
X133814286Y-121897619D02*
X133861905Y-121850000D01*
X133957143Y-121802381D01*
X134195239Y-121802381D01*
X134290477Y-121850000D01*
X134338096Y-121897619D01*
X134385715Y-121992857D01*
X134385715Y-122088095D01*
X134338096Y-122230952D01*
X133766667Y-122802381D01*
X134385715Y-122802381D01*
X161956762Y-92622619D02*
X161861524Y-92575000D01*
X161766286Y-92479762D01*
X161623429Y-92336905D01*
X161528190Y-92289286D01*
X161432952Y-92289286D01*
X161480571Y-92527381D02*
X161385333Y-92479762D01*
X161290095Y-92384524D01*
X161242476Y-92194048D01*
X161242476Y-91860714D01*
X161290095Y-91670238D01*
X161385333Y-91575000D01*
X161480571Y-91527381D01*
X161671048Y-91527381D01*
X161766286Y-91575000D01*
X161861524Y-91670238D01*
X161909143Y-91860714D01*
X161909143Y-92194048D01*
X161861524Y-92384524D01*
X161766286Y-92479762D01*
X161671048Y-92527381D01*
X161480571Y-92527381D01*
X162766286Y-91860714D02*
X162766286Y-92527381D01*
X162528190Y-91479762D02*
X162290095Y-92194048D01*
X162909143Y-92194048D01*
X138372143Y-108634143D02*
X138324524Y-108681762D01*
X138181667Y-108729381D01*
X138086429Y-108729381D01*
X137943571Y-108681762D01*
X137848333Y-108586524D01*
X137800714Y-108491286D01*
X137753095Y-108300810D01*
X137753095Y-108157952D01*
X137800714Y-107967476D01*
X137848333Y-107872238D01*
X137943571Y-107777000D01*
X138086429Y-107729381D01*
X138181667Y-107729381D01*
X138324524Y-107777000D01*
X138372143Y-107824619D01*
X138705476Y-107729381D02*
X139324524Y-107729381D01*
X138991190Y-108110333D01*
X139134048Y-108110333D01*
X139229286Y-108157952D01*
X139276905Y-108205571D01*
X139324524Y-108300810D01*
X139324524Y-108538905D01*
X139276905Y-108634143D01*
X139229286Y-108681762D01*
X139134048Y-108729381D01*
X138848333Y-108729381D01*
X138753095Y-108681762D01*
X138705476Y-108634143D01*
X139943571Y-107729381D02*
X140038810Y-107729381D01*
X140134048Y-107777000D01*
X140181667Y-107824619D01*
X140229286Y-107919857D01*
X140276905Y-108110333D01*
X140276905Y-108348429D01*
X140229286Y-108538905D01*
X140181667Y-108634143D01*
X140134048Y-108681762D01*
X140038810Y-108729381D01*
X139943571Y-108729381D01*
X139848333Y-108681762D01*
X139800714Y-108634143D01*
X139753095Y-108538905D01*
X139705476Y-108348429D01*
X139705476Y-108110333D01*
X139753095Y-107919857D01*
X139800714Y-107824619D01*
X139848333Y-107777000D01*
X139943571Y-107729381D01*
X151228677Y-79889227D02*
X150656257Y-80461647D01*
X150622585Y-80562662D01*
X150622585Y-80630005D01*
X150656257Y-80731020D01*
X150790945Y-80865708D01*
X150891960Y-80899380D01*
X150959303Y-80899380D01*
X151060318Y-80865708D01*
X151632738Y-80293288D01*
X151632738Y-81707502D02*
X151228677Y-81303440D01*
X151430707Y-81505471D02*
X152137814Y-80798364D01*
X151969455Y-80832036D01*
X151834769Y-80832036D01*
X151733753Y-80798364D01*
X162608095Y-96942381D02*
X162608095Y-97751905D01*
X162655714Y-97847143D01*
X162703333Y-97894762D01*
X162798571Y-97942381D01*
X162989048Y-97942381D01*
X163084286Y-97894762D01*
X163131905Y-97847143D01*
X163179524Y-97751905D01*
X163179524Y-96942381D01*
X163560476Y-96942381D02*
X164227143Y-96942381D01*
X163798571Y-97942381D01*
X122174095Y-134072381D02*
X122174095Y-134881905D01*
X122221714Y-134977143D01*
X122269333Y-135024762D01*
X122364571Y-135072381D01*
X122555048Y-135072381D01*
X122650286Y-135024762D01*
X122697905Y-134977143D01*
X122745524Y-134881905D01*
X122745524Y-134072381D01*
X123697905Y-134072381D02*
X123221714Y-134072381D01*
X123174095Y-134548571D01*
X123221714Y-134500952D01*
X123316952Y-134453333D01*
X123555048Y-134453333D01*
X123650286Y-134500952D01*
X123697905Y-134548571D01*
X123745524Y-134643810D01*
X123745524Y-134881905D01*
X123697905Y-134977143D01*
X123650286Y-135024762D01*
X123555048Y-135072381D01*
X123316952Y-135072381D01*
X123221714Y-135024762D01*
X123174095Y-134977143D01*
X148010714Y-142057381D02*
X148010714Y-141057381D01*
X148248809Y-141057381D01*
X148391667Y-141105000D01*
X148486905Y-141200238D01*
X148534524Y-141295476D01*
X148582143Y-141485952D01*
X148582143Y-141628810D01*
X148534524Y-141819286D01*
X148486905Y-141914524D01*
X148391667Y-142009762D01*
X148248809Y-142057381D01*
X148010714Y-142057381D01*
X149534524Y-142057381D02*
X148963095Y-142057381D01*
X149248809Y-142057381D02*
X149248809Y-141057381D01*
X149153571Y-141200238D01*
X149058333Y-141295476D01*
X148963095Y-141343095D01*
X150486905Y-142057381D02*
X149915476Y-142057381D01*
X150201190Y-142057381D02*
X150201190Y-141057381D01*
X150105952Y-141200238D01*
X150010714Y-141295476D01*
X149915476Y-141343095D01*
X174696381Y-133184286D02*
X173696381Y-133184286D01*
X173696381Y-132946191D01*
X173744000Y-132803333D01*
X173839238Y-132708095D01*
X173934476Y-132660476D01*
X174124952Y-132612857D01*
X174267810Y-132612857D01*
X174458286Y-132660476D01*
X174553524Y-132708095D01*
X174648762Y-132803333D01*
X174696381Y-132946191D01*
X174696381Y-133184286D01*
X174696381Y-131660476D02*
X174696381Y-132231905D01*
X174696381Y-131946191D02*
X173696381Y-131946191D01*
X173839238Y-132041429D01*
X173934476Y-132136667D01*
X173982095Y-132231905D01*
X173696381Y-131327143D02*
X173696381Y-130708095D01*
X174077333Y-131041429D01*
X174077333Y-130898571D01*
X174124952Y-130803333D01*
X174172571Y-130755714D01*
X174267810Y-130708095D01*
X174505905Y-130708095D01*
X174601143Y-130755714D01*
X174648762Y-130803333D01*
X174696381Y-130898571D01*
X174696381Y-131184286D01*
X174648762Y-131279524D01*
X174601143Y-131327143D01*
X157202381Y-92288095D02*
X156202381Y-92288095D01*
X156202381Y-92050000D01*
X156250000Y-91907142D01*
X156345238Y-91811904D01*
X156440476Y-91764285D01*
X156630952Y-91716666D01*
X156773810Y-91716666D01*
X156964286Y-91764285D01*
X157059524Y-91811904D01*
X157154762Y-91907142D01*
X157202381Y-92050000D01*
X157202381Y-92288095D01*
X156297619Y-91335714D02*
X156250000Y-91288095D01*
X156202381Y-91192857D01*
X156202381Y-90954761D01*
X156250000Y-90859523D01*
X156297619Y-90811904D01*
X156392857Y-90764285D01*
X156488095Y-90764285D01*
X156630952Y-90811904D01*
X157202381Y-91383333D01*
X157202381Y-90764285D01*
X187956667Y-121032381D02*
X187956667Y-121746667D01*
X187909047Y-121889524D01*
X187813809Y-121984762D01*
X187670952Y-122032381D01*
X187575714Y-122032381D01*
X188956667Y-122032381D02*
X188385238Y-122032381D01*
X188670952Y-122032381D02*
X188670952Y-121032381D01*
X188575714Y-121175238D01*
X188480476Y-121270476D01*
X188385238Y-121318095D01*
X146753414Y-94292681D02*
X146753414Y-93292681D01*
X146991509Y-93292681D01*
X147134367Y-93340300D01*
X147229605Y-93435538D01*
X147277224Y-93530776D01*
X147324843Y-93721252D01*
X147324843Y-93864110D01*
X147277224Y-94054586D01*
X147229605Y-94149824D01*
X147134367Y-94245062D01*
X146991509Y-94292681D01*
X146753414Y-94292681D01*
X148277224Y-94292681D02*
X147705795Y-94292681D01*
X147991509Y-94292681D02*
X147991509Y-93292681D01*
X147896271Y-93435538D01*
X147801033Y-93530776D01*
X147705795Y-93578395D01*
X148658176Y-93387919D02*
X148705795Y-93340300D01*
X148801033Y-93292681D01*
X149039129Y-93292681D01*
X149134367Y-93340300D01*
X149181986Y-93387919D01*
X149229605Y-93483157D01*
X149229605Y-93578395D01*
X149181986Y-93721252D01*
X148610557Y-94292681D01*
X149229605Y-94292681D01*
X147155714Y-97482381D02*
X147155714Y-96482381D01*
X147393809Y-96482381D01*
X147536667Y-96530000D01*
X147631905Y-96625238D01*
X147679524Y-96720476D01*
X147727143Y-96910952D01*
X147727143Y-97053810D01*
X147679524Y-97244286D01*
X147631905Y-97339524D01*
X147536667Y-97434762D01*
X147393809Y-97482381D01*
X147155714Y-97482381D01*
X148679524Y-97482381D02*
X148108095Y-97482381D01*
X148393809Y-97482381D02*
X148393809Y-96482381D01*
X148298571Y-96625238D01*
X148203333Y-96720476D01*
X148108095Y-96768095D01*
X149536667Y-96815714D02*
X149536667Y-97482381D01*
X149298571Y-96434762D02*
X149060476Y-97149048D01*
X149679524Y-97149048D01*
X147058214Y-95905581D02*
X147058214Y-94905581D01*
X147296309Y-94905581D01*
X147439167Y-94953200D01*
X147534405Y-95048438D01*
X147582024Y-95143676D01*
X147629643Y-95334152D01*
X147629643Y-95477010D01*
X147582024Y-95667486D01*
X147534405Y-95762724D01*
X147439167Y-95857962D01*
X147296309Y-95905581D01*
X147058214Y-95905581D01*
X148582024Y-95905581D02*
X148010595Y-95905581D01*
X148296309Y-95905581D02*
X148296309Y-94905581D01*
X148201071Y-95048438D01*
X148105833Y-95143676D01*
X148010595Y-95191295D01*
X149486786Y-94905581D02*
X149010595Y-94905581D01*
X148962976Y-95381771D01*
X149010595Y-95334152D01*
X149105833Y-95286533D01*
X149343929Y-95286533D01*
X149439167Y-95334152D01*
X149486786Y-95381771D01*
X149534405Y-95477010D01*
X149534405Y-95715105D01*
X149486786Y-95810343D01*
X149439167Y-95857962D01*
X149343929Y-95905581D01*
X149105833Y-95905581D01*
X149010595Y-95857962D01*
X148962976Y-95810343D01*
X171140381Y-132913286D02*
X170140381Y-132913286D01*
X170140381Y-132675191D01*
X170188000Y-132532333D01*
X170283238Y-132437095D01*
X170378476Y-132389476D01*
X170568952Y-132341857D01*
X170711810Y-132341857D01*
X170902286Y-132389476D01*
X170997524Y-132437095D01*
X171092762Y-132532333D01*
X171140381Y-132675191D01*
X171140381Y-132913286D01*
X171140381Y-131389476D02*
X171140381Y-131960905D01*
X171140381Y-131675191D02*
X170140381Y-131675191D01*
X170283238Y-131770429D01*
X170378476Y-131865667D01*
X170426095Y-131960905D01*
X170140381Y-130532333D02*
X170140381Y-130722810D01*
X170188000Y-130818048D01*
X170235619Y-130865667D01*
X170378476Y-130960905D01*
X170568952Y-131008524D01*
X170949905Y-131008524D01*
X171045143Y-130960905D01*
X171092762Y-130913286D01*
X171140381Y-130818048D01*
X171140381Y-130627571D01*
X171092762Y-130532333D01*
X171045143Y-130484714D01*
X170949905Y-130437095D01*
X170711810Y-130437095D01*
X170616571Y-130484714D01*
X170568952Y-130532333D01*
X170521333Y-130627571D01*
X170521333Y-130818048D01*
X170568952Y-130913286D01*
X170616571Y-130960905D01*
X170711810Y-131008524D01*
X148204762Y-109047619D02*
X148109524Y-109000000D01*
X148014286Y-108904762D01*
X147871429Y-108761905D01*
X147776190Y-108714286D01*
X147680952Y-108714286D01*
X147728571Y-108952381D02*
X147633333Y-108904762D01*
X147538095Y-108809524D01*
X147490476Y-108619048D01*
X147490476Y-108285714D01*
X147538095Y-108095238D01*
X147633333Y-108000000D01*
X147728571Y-107952381D01*
X147919048Y-107952381D01*
X148014286Y-108000000D01*
X148109524Y-108095238D01*
X148157143Y-108285714D01*
X148157143Y-108619048D01*
X148109524Y-108809524D01*
X148014286Y-108904762D01*
X147919048Y-108952381D01*
X147728571Y-108952381D01*
X148538095Y-108047619D02*
X148585714Y-108000000D01*
X148680952Y-107952381D01*
X148919048Y-107952381D01*
X149014286Y-108000000D01*
X149061905Y-108047619D01*
X149109524Y-108142857D01*
X149109524Y-108238095D01*
X149061905Y-108380952D01*
X148490476Y-108952381D01*
X149109524Y-108952381D01*
X139057143Y-147677143D02*
X139009524Y-147724762D01*
X138866667Y-147772381D01*
X138771429Y-147772381D01*
X138628571Y-147724762D01*
X138533333Y-147629524D01*
X138485714Y-147534286D01*
X138438095Y-147343810D01*
X138438095Y-147200952D01*
X138485714Y-147010476D01*
X138533333Y-146915238D01*
X138628571Y-146820000D01*
X138771429Y-146772381D01*
X138866667Y-146772381D01*
X139009524Y-146820000D01*
X139057143Y-146867619D01*
X139438095Y-146867619D02*
X139485714Y-146820000D01*
X139580952Y-146772381D01*
X139819048Y-146772381D01*
X139914286Y-146820000D01*
X139961905Y-146867619D01*
X140009524Y-146962857D01*
X140009524Y-147058095D01*
X139961905Y-147200952D01*
X139390476Y-147772381D01*
X140009524Y-147772381D01*
X140342857Y-146772381D02*
X140961905Y-146772381D01*
X140628571Y-147153333D01*
X140771429Y-147153333D01*
X140866667Y-147200952D01*
X140914286Y-147248571D01*
X140961905Y-147343810D01*
X140961905Y-147581905D01*
X140914286Y-147677143D01*
X140866667Y-147724762D01*
X140771429Y-147772381D01*
X140485714Y-147772381D01*
X140390476Y-147724762D01*
X140342857Y-147677143D01*
X159377143Y-133707143D02*
X159329524Y-133754762D01*
X159186667Y-133802381D01*
X159091429Y-133802381D01*
X158948571Y-133754762D01*
X158853333Y-133659524D01*
X158805714Y-133564286D01*
X158758095Y-133373810D01*
X158758095Y-133230952D01*
X158805714Y-133040476D01*
X158853333Y-132945238D01*
X158948571Y-132850000D01*
X159091429Y-132802381D01*
X159186667Y-132802381D01*
X159329524Y-132850000D01*
X159377143Y-132897619D01*
X160329524Y-133802381D02*
X159758095Y-133802381D01*
X160043809Y-133802381D02*
X160043809Y-132802381D01*
X159948571Y-132945238D01*
X159853333Y-133040476D01*
X159758095Y-133088095D01*
X160710476Y-132897619D02*
X160758095Y-132850000D01*
X160853333Y-132802381D01*
X161091429Y-132802381D01*
X161186667Y-132850000D01*
X161234286Y-132897619D01*
X161281905Y-132992857D01*
X161281905Y-133088095D01*
X161234286Y-133230952D01*
X160662857Y-133802381D01*
X161281905Y-133802381D01*
X147638095Y-62252381D02*
X147638095Y-63061905D01*
X147685714Y-63157143D01*
X147733333Y-63204762D01*
X147828571Y-63252381D01*
X148019048Y-63252381D01*
X148114286Y-63204762D01*
X148161905Y-63157143D01*
X148209524Y-63061905D01*
X148209524Y-62252381D01*
X148638095Y-62347619D02*
X148685714Y-62300000D01*
X148780952Y-62252381D01*
X149019048Y-62252381D01*
X149114286Y-62300000D01*
X149161905Y-62347619D01*
X149209524Y-62442857D01*
X149209524Y-62538095D01*
X149161905Y-62680952D01*
X148590476Y-63252381D01*
X149209524Y-63252381D01*
X182872143Y-117705143D02*
X182824524Y-117752762D01*
X182681667Y-117800381D01*
X182586429Y-117800381D01*
X182443571Y-117752762D01*
X182348333Y-117657524D01*
X182300714Y-117562286D01*
X182253095Y-117371810D01*
X182253095Y-117228952D01*
X182300714Y-117038476D01*
X182348333Y-116943238D01*
X182443571Y-116848000D01*
X182586429Y-116800381D01*
X182681667Y-116800381D01*
X182824524Y-116848000D01*
X182872143Y-116895619D01*
X183253095Y-116895619D02*
X183300714Y-116848000D01*
X183395952Y-116800381D01*
X183634048Y-116800381D01*
X183729286Y-116848000D01*
X183776905Y-116895619D01*
X183824524Y-116990857D01*
X183824524Y-117086095D01*
X183776905Y-117228952D01*
X183205476Y-117800381D01*
X183824524Y-117800381D01*
X184395952Y-117228952D02*
X184300714Y-117181333D01*
X184253095Y-117133714D01*
X184205476Y-117038476D01*
X184205476Y-116990857D01*
X184253095Y-116895619D01*
X184300714Y-116848000D01*
X184395952Y-116800381D01*
X184586429Y-116800381D01*
X184681667Y-116848000D01*
X184729286Y-116895619D01*
X184776905Y-116990857D01*
X184776905Y-117038476D01*
X184729286Y-117133714D01*
X184681667Y-117181333D01*
X184586429Y-117228952D01*
X184395952Y-117228952D01*
X184300714Y-117276571D01*
X184253095Y-117324190D01*
X184205476Y-117419429D01*
X184205476Y-117609905D01*
X184253095Y-117705143D01*
X184300714Y-117752762D01*
X184395952Y-117800381D01*
X184586429Y-117800381D01*
X184681667Y-117752762D01*
X184729286Y-117705143D01*
X184776905Y-117609905D01*
X184776905Y-117419429D01*
X184729286Y-117324190D01*
X184681667Y-117276571D01*
X184586429Y-117228952D01*
X164316467Y-66925781D02*
X164316467Y-67640067D01*
X164268847Y-67782924D01*
X164173609Y-67878162D01*
X164030752Y-67925781D01*
X163935514Y-67925781D01*
X165268848Y-66925781D02*
X164792657Y-66925781D01*
X164745038Y-67401971D01*
X164792657Y-67354352D01*
X164887895Y-67306733D01*
X165125991Y-67306733D01*
X165221229Y-67354352D01*
X165268848Y-67401971D01*
X165316467Y-67497210D01*
X165316467Y-67735305D01*
X165268848Y-67830543D01*
X165221229Y-67878162D01*
X165125991Y-67925781D01*
X164887895Y-67925781D01*
X164792657Y-67878162D01*
X164745038Y-67830543D01*
X190916667Y-81622381D02*
X190916667Y-82336667D01*
X190869047Y-82479524D01*
X190773809Y-82574762D01*
X190630952Y-82622381D01*
X190535714Y-82622381D01*
X191297619Y-81622381D02*
X191964286Y-81622381D01*
X191535714Y-82622381D01*
X180408981Y-65190533D02*
X181123267Y-65190533D01*
X181266124Y-65238153D01*
X181361362Y-65333391D01*
X181408981Y-65476248D01*
X181408981Y-65571486D01*
X180837552Y-64571486D02*
X180789933Y-64666724D01*
X180742314Y-64714343D01*
X180647076Y-64761962D01*
X180599457Y-64761962D01*
X180504219Y-64714343D01*
X180456600Y-64666724D01*
X180408981Y-64571486D01*
X180408981Y-64381009D01*
X180456600Y-64285771D01*
X180504219Y-64238152D01*
X180599457Y-64190533D01*
X180647076Y-64190533D01*
X180742314Y-64238152D01*
X180789933Y-64285771D01*
X180837552Y-64381009D01*
X180837552Y-64571486D01*
X180885171Y-64666724D01*
X180932790Y-64714343D01*
X181028029Y-64761962D01*
X181218505Y-64761962D01*
X181313743Y-64714343D01*
X181361362Y-64666724D01*
X181408981Y-64571486D01*
X181408981Y-64381009D01*
X181361362Y-64285771D01*
X181313743Y-64238152D01*
X181218505Y-64190533D01*
X181028029Y-64190533D01*
X180932790Y-64238152D01*
X180885171Y-64285771D01*
X180837552Y-64381009D01*
X148017143Y-71456666D02*
X148064762Y-71504285D01*
X148112381Y-71647142D01*
X148112381Y-71742380D01*
X148064762Y-71885238D01*
X147969524Y-71980476D01*
X147874286Y-72028095D01*
X147683810Y-72075714D01*
X147540952Y-72075714D01*
X147350476Y-72028095D01*
X147255238Y-71980476D01*
X147160000Y-71885238D01*
X147112381Y-71742380D01*
X147112381Y-71647142D01*
X147160000Y-71504285D01*
X147207619Y-71456666D01*
X148112381Y-70504285D02*
X148112381Y-71075714D01*
X148112381Y-70790000D02*
X147112381Y-70790000D01*
X147255238Y-70885238D01*
X147350476Y-70980476D01*
X147398095Y-71075714D01*
X149567143Y-71576666D02*
X149614762Y-71624285D01*
X149662381Y-71767142D01*
X149662381Y-71862380D01*
X149614762Y-72005238D01*
X149519524Y-72100476D01*
X149424286Y-72148095D01*
X149233810Y-72195714D01*
X149090952Y-72195714D01*
X148900476Y-72148095D01*
X148805238Y-72100476D01*
X148710000Y-72005238D01*
X148662381Y-71862380D01*
X148662381Y-71767142D01*
X148710000Y-71624285D01*
X148757619Y-71576666D01*
X148757619Y-71195714D02*
X148710000Y-71148095D01*
X148662381Y-71052857D01*
X148662381Y-70814761D01*
X148710000Y-70719523D01*
X148757619Y-70671904D01*
X148852857Y-70624285D01*
X148948095Y-70624285D01*
X149090952Y-70671904D01*
X149662381Y-71243333D01*
X149662381Y-70624285D01*
X160531334Y-87907143D02*
X160483715Y-87954762D01*
X160340858Y-88002381D01*
X160245620Y-88002381D01*
X160102762Y-87954762D01*
X160007524Y-87859524D01*
X159959905Y-87764286D01*
X159912286Y-87573810D01*
X159912286Y-87430952D01*
X159959905Y-87240476D01*
X160007524Y-87145238D01*
X160102762Y-87050000D01*
X160245620Y-87002381D01*
X160340858Y-87002381D01*
X160483715Y-87050000D01*
X160531334Y-87097619D01*
X160864667Y-87002381D02*
X161483715Y-87002381D01*
X161150381Y-87383333D01*
X161293239Y-87383333D01*
X161388477Y-87430952D01*
X161436096Y-87478571D01*
X161483715Y-87573810D01*
X161483715Y-87811905D01*
X161436096Y-87907143D01*
X161388477Y-87954762D01*
X161293239Y-88002381D01*
X161007524Y-88002381D01*
X160912286Y-87954762D01*
X160864667Y-87907143D01*
X149312334Y-75795143D02*
X149264715Y-75842762D01*
X149121858Y-75890381D01*
X149026620Y-75890381D01*
X148883762Y-75842762D01*
X148788524Y-75747524D01*
X148740905Y-75652286D01*
X148693286Y-75461810D01*
X148693286Y-75318952D01*
X148740905Y-75128476D01*
X148788524Y-75033238D01*
X148883762Y-74938000D01*
X149026620Y-74890381D01*
X149121858Y-74890381D01*
X149264715Y-74938000D01*
X149312334Y-74985619D01*
X150217096Y-74890381D02*
X149740905Y-74890381D01*
X149693286Y-75366571D01*
X149740905Y-75318952D01*
X149836143Y-75271333D01*
X150074239Y-75271333D01*
X150169477Y-75318952D01*
X150217096Y-75366571D01*
X150264715Y-75461810D01*
X150264715Y-75699905D01*
X150217096Y-75795143D01*
X150169477Y-75842762D01*
X150074239Y-75890381D01*
X149836143Y-75890381D01*
X149740905Y-75842762D01*
X149693286Y-75795143D01*
X156633334Y-64457143D02*
X156585715Y-64504762D01*
X156442858Y-64552381D01*
X156347620Y-64552381D01*
X156204762Y-64504762D01*
X156109524Y-64409524D01*
X156061905Y-64314286D01*
X156014286Y-64123810D01*
X156014286Y-63980952D01*
X156061905Y-63790476D01*
X156109524Y-63695238D01*
X156204762Y-63600000D01*
X156347620Y-63552381D01*
X156442858Y-63552381D01*
X156585715Y-63600000D01*
X156633334Y-63647619D01*
X157490477Y-63552381D02*
X157300000Y-63552381D01*
X157204762Y-63600000D01*
X157157143Y-63647619D01*
X157061905Y-63790476D01*
X157014286Y-63980952D01*
X157014286Y-64361905D01*
X157061905Y-64457143D01*
X157109524Y-64504762D01*
X157204762Y-64552381D01*
X157395239Y-64552381D01*
X157490477Y-64504762D01*
X157538096Y-64457143D01*
X157585715Y-64361905D01*
X157585715Y-64123810D01*
X157538096Y-64028571D01*
X157490477Y-63980952D01*
X157395239Y-63933333D01*
X157204762Y-63933333D01*
X157109524Y-63980952D01*
X157061905Y-64028571D01*
X157014286Y-64123810D01*
X156743334Y-67737143D02*
X156695715Y-67784762D01*
X156552858Y-67832381D01*
X156457620Y-67832381D01*
X156314762Y-67784762D01*
X156219524Y-67689524D01*
X156171905Y-67594286D01*
X156124286Y-67403810D01*
X156124286Y-67260952D01*
X156171905Y-67070476D01*
X156219524Y-66975238D01*
X156314762Y-66880000D01*
X156457620Y-66832381D01*
X156552858Y-66832381D01*
X156695715Y-66880000D01*
X156743334Y-66927619D01*
X157076667Y-66832381D02*
X157743334Y-66832381D01*
X157314762Y-67832381D01*
X144588534Y-67411543D02*
X144540915Y-67459162D01*
X144398058Y-67506781D01*
X144302820Y-67506781D01*
X144159962Y-67459162D01*
X144064724Y-67363924D01*
X144017105Y-67268686D01*
X143969486Y-67078210D01*
X143969486Y-66935352D01*
X144017105Y-66744876D01*
X144064724Y-66649638D01*
X144159962Y-66554400D01*
X144302820Y-66506781D01*
X144398058Y-66506781D01*
X144540915Y-66554400D01*
X144588534Y-66602019D01*
X145159962Y-66935352D02*
X145064724Y-66887733D01*
X145017105Y-66840114D01*
X144969486Y-66744876D01*
X144969486Y-66697257D01*
X145017105Y-66602019D01*
X145064724Y-66554400D01*
X145159962Y-66506781D01*
X145350439Y-66506781D01*
X145445677Y-66554400D01*
X145493296Y-66602019D01*
X145540915Y-66697257D01*
X145540915Y-66744876D01*
X145493296Y-66840114D01*
X145445677Y-66887733D01*
X145350439Y-66935352D01*
X145159962Y-66935352D01*
X145064724Y-66982971D01*
X145017105Y-67030590D01*
X144969486Y-67125829D01*
X144969486Y-67316305D01*
X145017105Y-67411543D01*
X145064724Y-67459162D01*
X145159962Y-67506781D01*
X145350439Y-67506781D01*
X145445677Y-67459162D01*
X145493296Y-67411543D01*
X145540915Y-67316305D01*
X145540915Y-67125829D01*
X145493296Y-67030590D01*
X145445677Y-66982971D01*
X145350439Y-66935352D01*
X156633334Y-66157143D02*
X156585715Y-66204762D01*
X156442858Y-66252381D01*
X156347620Y-66252381D01*
X156204762Y-66204762D01*
X156109524Y-66109524D01*
X156061905Y-66014286D01*
X156014286Y-65823810D01*
X156014286Y-65680952D01*
X156061905Y-65490476D01*
X156109524Y-65395238D01*
X156204762Y-65300000D01*
X156347620Y-65252381D01*
X156442858Y-65252381D01*
X156585715Y-65300000D01*
X156633334Y-65347619D01*
X157109524Y-66252381D02*
X157300000Y-66252381D01*
X157395239Y-66204762D01*
X157442858Y-66157143D01*
X157538096Y-66014286D01*
X157585715Y-65823810D01*
X157585715Y-65442857D01*
X157538096Y-65347619D01*
X157490477Y-65300000D01*
X157395239Y-65252381D01*
X157204762Y-65252381D01*
X157109524Y-65300000D01*
X157061905Y-65347619D01*
X157014286Y-65442857D01*
X157014286Y-65680952D01*
X157061905Y-65776190D01*
X157109524Y-65823810D01*
X157204762Y-65871429D01*
X157395239Y-65871429D01*
X157490477Y-65823810D01*
X157538096Y-65776190D01*
X157585715Y-65680952D01*
X162183143Y-81478343D02*
X162135524Y-81525962D01*
X161992667Y-81573581D01*
X161897429Y-81573581D01*
X161754571Y-81525962D01*
X161659333Y-81430724D01*
X161611714Y-81335486D01*
X161564095Y-81145010D01*
X161564095Y-81002152D01*
X161611714Y-80811676D01*
X161659333Y-80716438D01*
X161754571Y-80621200D01*
X161897429Y-80573581D01*
X161992667Y-80573581D01*
X162135524Y-80621200D01*
X162183143Y-80668819D01*
X163135524Y-81573581D02*
X162564095Y-81573581D01*
X162849809Y-81573581D02*
X162849809Y-80573581D01*
X162754571Y-80716438D01*
X162659333Y-80811676D01*
X162564095Y-80859295D01*
X164087905Y-81573581D02*
X163516476Y-81573581D01*
X163802190Y-81573581D02*
X163802190Y-80573581D01*
X163706952Y-80716438D01*
X163611714Y-80811676D01*
X163516476Y-80859295D01*
X140802143Y-129827143D02*
X140754524Y-129874762D01*
X140611667Y-129922381D01*
X140516429Y-129922381D01*
X140373571Y-129874762D01*
X140278333Y-129779524D01*
X140230714Y-129684286D01*
X140183095Y-129493810D01*
X140183095Y-129350952D01*
X140230714Y-129160476D01*
X140278333Y-129065238D01*
X140373571Y-128970000D01*
X140516429Y-128922381D01*
X140611667Y-128922381D01*
X140754524Y-128970000D01*
X140802143Y-129017619D01*
X141754524Y-129922381D02*
X141183095Y-129922381D01*
X141468809Y-129922381D02*
X141468809Y-128922381D01*
X141373571Y-129065238D01*
X141278333Y-129160476D01*
X141183095Y-129208095D01*
X142611667Y-129255714D02*
X142611667Y-129922381D01*
X142373571Y-128874762D02*
X142135476Y-129589048D01*
X142754524Y-129589048D01*
X140922143Y-126627143D02*
X140874524Y-126674762D01*
X140731667Y-126722381D01*
X140636429Y-126722381D01*
X140493571Y-126674762D01*
X140398333Y-126579524D01*
X140350714Y-126484286D01*
X140303095Y-126293810D01*
X140303095Y-126150952D01*
X140350714Y-125960476D01*
X140398333Y-125865238D01*
X140493571Y-125770000D01*
X140636429Y-125722381D01*
X140731667Y-125722381D01*
X140874524Y-125770000D01*
X140922143Y-125817619D01*
X141874524Y-126722381D02*
X141303095Y-126722381D01*
X141588809Y-126722381D02*
X141588809Y-125722381D01*
X141493571Y-125865238D01*
X141398333Y-125960476D01*
X141303095Y-126008095D01*
X142779286Y-125722381D02*
X142303095Y-125722381D01*
X142255476Y-126198571D01*
X142303095Y-126150952D01*
X142398333Y-126103333D01*
X142636429Y-126103333D01*
X142731667Y-126150952D01*
X142779286Y-126198571D01*
X142826905Y-126293810D01*
X142826905Y-126531905D01*
X142779286Y-126627143D01*
X142731667Y-126674762D01*
X142636429Y-126722381D01*
X142398333Y-126722381D01*
X142303095Y-126674762D01*
X142255476Y-126627143D01*
X184337143Y-133517143D02*
X184289524Y-133564762D01*
X184146667Y-133612381D01*
X184051429Y-133612381D01*
X183908571Y-133564762D01*
X183813333Y-133469524D01*
X183765714Y-133374286D01*
X183718095Y-133183810D01*
X183718095Y-133040952D01*
X183765714Y-132850476D01*
X183813333Y-132755238D01*
X183908571Y-132660000D01*
X184051429Y-132612381D01*
X184146667Y-132612381D01*
X184289524Y-132660000D01*
X184337143Y-132707619D01*
X185289524Y-133612381D02*
X184718095Y-133612381D01*
X185003809Y-133612381D02*
X185003809Y-132612381D01*
X184908571Y-132755238D01*
X184813333Y-132850476D01*
X184718095Y-132898095D01*
X185622857Y-132612381D02*
X186289524Y-132612381D01*
X185860952Y-133612381D01*
X141082143Y-122267143D02*
X141034524Y-122314762D01*
X140891667Y-122362381D01*
X140796429Y-122362381D01*
X140653571Y-122314762D01*
X140558333Y-122219524D01*
X140510714Y-122124286D01*
X140463095Y-121933810D01*
X140463095Y-121790952D01*
X140510714Y-121600476D01*
X140558333Y-121505238D01*
X140653571Y-121410000D01*
X140796429Y-121362381D01*
X140891667Y-121362381D01*
X141034524Y-121410000D01*
X141082143Y-121457619D01*
X142034524Y-122362381D02*
X141463095Y-122362381D01*
X141748809Y-122362381D02*
X141748809Y-121362381D01*
X141653571Y-121505238D01*
X141558333Y-121600476D01*
X141463095Y-121648095D01*
X142605952Y-121790952D02*
X142510714Y-121743333D01*
X142463095Y-121695714D01*
X142415476Y-121600476D01*
X142415476Y-121552857D01*
X142463095Y-121457619D01*
X142510714Y-121410000D01*
X142605952Y-121362381D01*
X142796429Y-121362381D01*
X142891667Y-121410000D01*
X142939286Y-121457619D01*
X142986905Y-121552857D01*
X142986905Y-121600476D01*
X142939286Y-121695714D01*
X142891667Y-121743333D01*
X142796429Y-121790952D01*
X142605952Y-121790952D01*
X142510714Y-121838571D01*
X142463095Y-121886190D01*
X142415476Y-121981429D01*
X142415476Y-122171905D01*
X142463095Y-122267143D01*
X142510714Y-122314762D01*
X142605952Y-122362381D01*
X142796429Y-122362381D01*
X142891667Y-122314762D01*
X142939286Y-122267143D01*
X142986905Y-122171905D01*
X142986905Y-121981429D01*
X142939286Y-121886190D01*
X142891667Y-121838571D01*
X142796429Y-121790952D01*
X165727143Y-134215143D02*
X165679524Y-134262762D01*
X165536667Y-134310381D01*
X165441429Y-134310381D01*
X165298571Y-134262762D01*
X165203333Y-134167524D01*
X165155714Y-134072286D01*
X165108095Y-133881810D01*
X165108095Y-133738952D01*
X165155714Y-133548476D01*
X165203333Y-133453238D01*
X165298571Y-133358000D01*
X165441429Y-133310381D01*
X165536667Y-133310381D01*
X165679524Y-133358000D01*
X165727143Y-133405619D01*
X166679524Y-134310381D02*
X166108095Y-134310381D01*
X166393809Y-134310381D02*
X166393809Y-133310381D01*
X166298571Y-133453238D01*
X166203333Y-133548476D01*
X166108095Y-133596095D01*
X167155714Y-134310381D02*
X167346190Y-134310381D01*
X167441429Y-134262762D01*
X167489048Y-134215143D01*
X167584286Y-134072286D01*
X167631905Y-133881810D01*
X167631905Y-133500857D01*
X167584286Y-133405619D01*
X167536667Y-133358000D01*
X167441429Y-133310381D01*
X167250952Y-133310381D01*
X167155714Y-133358000D01*
X167108095Y-133405619D01*
X167060476Y-133500857D01*
X167060476Y-133738952D01*
X167108095Y-133834190D01*
X167155714Y-133881810D01*
X167250952Y-133929429D01*
X167441429Y-133929429D01*
X167536667Y-133881810D01*
X167584286Y-133834190D01*
X167631905Y-133738952D01*
X140982143Y-120562143D02*
X140934524Y-120609762D01*
X140791667Y-120657381D01*
X140696429Y-120657381D01*
X140553571Y-120609762D01*
X140458333Y-120514524D01*
X140410714Y-120419286D01*
X140363095Y-120228810D01*
X140363095Y-120085952D01*
X140410714Y-119895476D01*
X140458333Y-119800238D01*
X140553571Y-119705000D01*
X140696429Y-119657381D01*
X140791667Y-119657381D01*
X140934524Y-119705000D01*
X140982143Y-119752619D01*
X141363095Y-119752619D02*
X141410714Y-119705000D01*
X141505952Y-119657381D01*
X141744048Y-119657381D01*
X141839286Y-119705000D01*
X141886905Y-119752619D01*
X141934524Y-119847857D01*
X141934524Y-119943095D01*
X141886905Y-120085952D01*
X141315476Y-120657381D01*
X141934524Y-120657381D01*
X142553571Y-119657381D02*
X142648810Y-119657381D01*
X142744048Y-119705000D01*
X142791667Y-119752619D01*
X142839286Y-119847857D01*
X142886905Y-120038333D01*
X142886905Y-120276429D01*
X142839286Y-120466905D01*
X142791667Y-120562143D01*
X142744048Y-120609762D01*
X142648810Y-120657381D01*
X142553571Y-120657381D01*
X142458333Y-120609762D01*
X142410714Y-120562143D01*
X142363095Y-120466905D01*
X142315476Y-120276429D01*
X142315476Y-120038333D01*
X142363095Y-119847857D01*
X142410714Y-119752619D01*
X142458333Y-119705000D01*
X142553571Y-119657381D01*
X183197143Y-85077143D02*
X183149524Y-85124762D01*
X183006667Y-85172381D01*
X182911429Y-85172381D01*
X182768571Y-85124762D01*
X182673333Y-85029524D01*
X182625714Y-84934286D01*
X182578095Y-84743810D01*
X182578095Y-84600952D01*
X182625714Y-84410476D01*
X182673333Y-84315238D01*
X182768571Y-84220000D01*
X182911429Y-84172381D01*
X183006667Y-84172381D01*
X183149524Y-84220000D01*
X183197143Y-84267619D01*
X183578095Y-84267619D02*
X183625714Y-84220000D01*
X183720952Y-84172381D01*
X183959048Y-84172381D01*
X184054286Y-84220000D01*
X184101905Y-84267619D01*
X184149524Y-84362857D01*
X184149524Y-84458095D01*
X184101905Y-84600952D01*
X183530476Y-85172381D01*
X184149524Y-85172381D01*
X185101905Y-85172381D02*
X184530476Y-85172381D01*
X184816190Y-85172381D02*
X184816190Y-84172381D01*
X184720952Y-84315238D01*
X184625714Y-84410476D01*
X184530476Y-84458095D01*
X140937143Y-118637143D02*
X140889524Y-118684762D01*
X140746667Y-118732381D01*
X140651429Y-118732381D01*
X140508571Y-118684762D01*
X140413333Y-118589524D01*
X140365714Y-118494286D01*
X140318095Y-118303810D01*
X140318095Y-118160952D01*
X140365714Y-117970476D01*
X140413333Y-117875238D01*
X140508571Y-117780000D01*
X140651429Y-117732381D01*
X140746667Y-117732381D01*
X140889524Y-117780000D01*
X140937143Y-117827619D01*
X141318095Y-117827619D02*
X141365714Y-117780000D01*
X141460952Y-117732381D01*
X141699048Y-117732381D01*
X141794286Y-117780000D01*
X141841905Y-117827619D01*
X141889524Y-117922857D01*
X141889524Y-118018095D01*
X141841905Y-118160952D01*
X141270476Y-118732381D01*
X141889524Y-118732381D01*
X142746667Y-117732381D02*
X142556190Y-117732381D01*
X142460952Y-117780000D01*
X142413333Y-117827619D01*
X142318095Y-117970476D01*
X142270476Y-118160952D01*
X142270476Y-118541905D01*
X142318095Y-118637143D01*
X142365714Y-118684762D01*
X142460952Y-118732381D01*
X142651429Y-118732381D01*
X142746667Y-118684762D01*
X142794286Y-118637143D01*
X142841905Y-118541905D01*
X142841905Y-118303810D01*
X142794286Y-118208571D01*
X142746667Y-118160952D01*
X142651429Y-118113333D01*
X142460952Y-118113333D01*
X142365714Y-118160952D01*
X142318095Y-118208571D01*
X142270476Y-118303810D01*
X172950143Y-124594857D02*
X172997762Y-124642476D01*
X173045381Y-124785333D01*
X173045381Y-124880571D01*
X172997762Y-125023429D01*
X172902524Y-125118667D01*
X172807286Y-125166286D01*
X172616810Y-125213905D01*
X172473952Y-125213905D01*
X172283476Y-125166286D01*
X172188238Y-125118667D01*
X172093000Y-125023429D01*
X172045381Y-124880571D01*
X172045381Y-124785333D01*
X172093000Y-124642476D01*
X172140619Y-124594857D01*
X172140619Y-124213905D02*
X172093000Y-124166286D01*
X172045381Y-124071048D01*
X172045381Y-123832952D01*
X172093000Y-123737714D01*
X172140619Y-123690095D01*
X172235857Y-123642476D01*
X172331095Y-123642476D01*
X172473952Y-123690095D01*
X173045381Y-124261524D01*
X173045381Y-123642476D01*
X173045381Y-123166286D02*
X173045381Y-122975810D01*
X172997762Y-122880571D01*
X172950143Y-122832952D01*
X172807286Y-122737714D01*
X172616810Y-122690095D01*
X172235857Y-122690095D01*
X172140619Y-122737714D01*
X172093000Y-122785333D01*
X172045381Y-122880571D01*
X172045381Y-123071048D01*
X172093000Y-123166286D01*
X172140619Y-123213905D01*
X172235857Y-123261524D01*
X172473952Y-123261524D01*
X172569190Y-123213905D01*
X172616810Y-123166286D01*
X172664429Y-123071048D01*
X172664429Y-122880571D01*
X172616810Y-122785333D01*
X172569190Y-122737714D01*
X172473952Y-122690095D01*
X172907143Y-81697143D02*
X172859524Y-81744762D01*
X172716667Y-81792381D01*
X172621429Y-81792381D01*
X172478571Y-81744762D01*
X172383333Y-81649524D01*
X172335714Y-81554286D01*
X172288095Y-81363810D01*
X172288095Y-81220952D01*
X172335714Y-81030476D01*
X172383333Y-80935238D01*
X172478571Y-80840000D01*
X172621429Y-80792381D01*
X172716667Y-80792381D01*
X172859524Y-80840000D01*
X172907143Y-80887619D01*
X173240476Y-80792381D02*
X173859524Y-80792381D01*
X173526190Y-81173333D01*
X173669048Y-81173333D01*
X173764286Y-81220952D01*
X173811905Y-81268571D01*
X173859524Y-81363810D01*
X173859524Y-81601905D01*
X173811905Y-81697143D01*
X173764286Y-81744762D01*
X173669048Y-81792381D01*
X173383333Y-81792381D01*
X173288095Y-81744762D01*
X173240476Y-81697143D01*
X174716667Y-81125714D02*
X174716667Y-81792381D01*
X174478571Y-80744762D02*
X174240476Y-81459048D01*
X174859524Y-81459048D01*
X139588562Y-69711076D02*
X139636181Y-69806314D01*
X139636181Y-69996791D01*
X139588562Y-70092029D01*
X139540943Y-70139648D01*
X139445705Y-70187267D01*
X139159990Y-70187267D01*
X139064752Y-70139648D01*
X139017133Y-70092029D01*
X138969514Y-69996791D01*
X138969514Y-69806314D01*
X139017133Y-69711076D01*
X139636181Y-69234886D02*
X139636181Y-69044410D01*
X139588562Y-68949171D01*
X139540943Y-68901552D01*
X139398086Y-68806314D01*
X139207610Y-68758695D01*
X138826657Y-68758695D01*
X138731419Y-68806314D01*
X138683800Y-68853933D01*
X138636181Y-68949171D01*
X138636181Y-69139648D01*
X138683800Y-69234886D01*
X138731419Y-69282505D01*
X138826657Y-69330124D01*
X139064752Y-69330124D01*
X139159990Y-69282505D01*
X139207610Y-69234886D01*
X139255229Y-69139648D01*
X139255229Y-68949171D01*
X139207610Y-68853933D01*
X139159990Y-68806314D01*
X139064752Y-68758695D01*
X139636181Y-68282505D02*
X139636181Y-68092029D01*
X139588562Y-67996790D01*
X139540943Y-67949171D01*
X139398086Y-67853933D01*
X139207610Y-67806314D01*
X138826657Y-67806314D01*
X138731419Y-67853933D01*
X138683800Y-67901552D01*
X138636181Y-67996790D01*
X138636181Y-68187267D01*
X138683800Y-68282505D01*
X138731419Y-68330124D01*
X138826657Y-68377743D01*
X139064752Y-68377743D01*
X139159990Y-68330124D01*
X139207610Y-68282505D01*
X139255229Y-68187267D01*
X139255229Y-67996790D01*
X139207610Y-67901552D01*
X139159990Y-67853933D01*
X139064752Y-67806314D01*
X139636181Y-67330124D02*
X139636181Y-67139648D01*
X139588562Y-67044409D01*
X139540943Y-66996790D01*
X139398086Y-66901552D01*
X139207610Y-66853933D01*
X138826657Y-66853933D01*
X138731419Y-66901552D01*
X138683800Y-66949171D01*
X138636181Y-67044409D01*
X138636181Y-67234886D01*
X138683800Y-67330124D01*
X138731419Y-67377743D01*
X138826657Y-67425362D01*
X139064752Y-67425362D01*
X139159990Y-67377743D01*
X139207610Y-67330124D01*
X139255229Y-67234886D01*
X139255229Y-67044409D01*
X139207610Y-66949171D01*
X139159990Y-66901552D01*
X139064752Y-66853933D01*
X173581905Y-144752381D02*
X173581905Y-143752381D01*
X173820000Y-143752381D01*
X173962858Y-143800000D01*
X174058096Y-143895238D01*
X174105715Y-143990476D01*
X174153334Y-144180952D01*
X174153334Y-144323810D01*
X174105715Y-144514286D01*
X174058096Y-144609524D01*
X173962858Y-144704762D01*
X173820000Y-144752381D01*
X173581905Y-144752381D01*
X174486667Y-143752381D02*
X175105715Y-143752381D01*
X174772381Y-144133333D01*
X174915239Y-144133333D01*
X175010477Y-144180952D01*
X175058096Y-144228571D01*
X175105715Y-144323810D01*
X175105715Y-144561905D01*
X175058096Y-144657143D01*
X175010477Y-144704762D01*
X174915239Y-144752381D01*
X174629524Y-144752381D01*
X174534286Y-144704762D01*
X174486667Y-144657143D01*
X157186381Y-130889333D02*
X157900667Y-130889333D01*
X158043524Y-130936953D01*
X158138762Y-131032191D01*
X158186381Y-131175048D01*
X158186381Y-131270286D01*
X157281619Y-130460762D02*
X157234000Y-130413143D01*
X157186381Y-130317905D01*
X157186381Y-130079809D01*
X157234000Y-129984571D01*
X157281619Y-129936952D01*
X157376857Y-129889333D01*
X157472095Y-129889333D01*
X157614952Y-129936952D01*
X158186381Y-130508381D01*
X158186381Y-129889333D01*
X163028334Y-142057381D02*
X162552143Y-142057381D01*
X162552143Y-141057381D01*
X163885477Y-142057381D02*
X163314048Y-142057381D01*
X163599762Y-142057381D02*
X163599762Y-141057381D01*
X163504524Y-141200238D01*
X163409286Y-141295476D01*
X163314048Y-141343095D01*
X186967905Y-69032381D02*
X186967905Y-68032381D01*
X187348858Y-68032381D01*
X187444096Y-68080000D01*
X187491715Y-68127619D01*
X187539334Y-68222857D01*
X187539334Y-68365714D01*
X187491715Y-68460952D01*
X187444096Y-68508571D01*
X187348858Y-68556190D01*
X186967905Y-68556190D01*
X188491715Y-69032381D02*
X187920286Y-69032381D01*
X188206000Y-69032381D02*
X188206000Y-68032381D01*
X188110762Y-68175238D01*
X188015524Y-68270476D01*
X187920286Y-68318095D01*
X138688534Y-64250781D02*
X138355200Y-63774590D01*
X138117105Y-64250781D02*
X138117105Y-63250781D01*
X138498058Y-63250781D01*
X138593296Y-63298400D01*
X138640915Y-63346019D01*
X138688534Y-63441257D01*
X138688534Y-63584114D01*
X138640915Y-63679352D01*
X138593296Y-63726971D01*
X138498058Y-63774590D01*
X138117105Y-63774590D01*
X139640915Y-64250781D02*
X139069486Y-64250781D01*
X139355200Y-64250781D02*
X139355200Y-63250781D01*
X139259962Y-63393638D01*
X139164724Y-63488876D01*
X139069486Y-63536495D01*
X138644934Y-65881181D02*
X138311600Y-65404990D01*
X138073505Y-65881181D02*
X138073505Y-64881181D01*
X138454458Y-64881181D01*
X138549696Y-64928800D01*
X138597315Y-64976419D01*
X138644934Y-65071657D01*
X138644934Y-65214514D01*
X138597315Y-65309752D01*
X138549696Y-65357371D01*
X138454458Y-65404990D01*
X138073505Y-65404990D01*
X139025886Y-64976419D02*
X139073505Y-64928800D01*
X139168743Y-64881181D01*
X139406839Y-64881181D01*
X139502077Y-64928800D01*
X139549696Y-64976419D01*
X139597315Y-65071657D01*
X139597315Y-65166895D01*
X139549696Y-65309752D01*
X138978267Y-65881181D01*
X139597315Y-65881181D01*
X141358334Y-123932381D02*
X141025000Y-123456190D01*
X140786905Y-123932381D02*
X140786905Y-122932381D01*
X141167858Y-122932381D01*
X141263096Y-122980000D01*
X141310715Y-123027619D01*
X141358334Y-123122857D01*
X141358334Y-123265714D01*
X141310715Y-123360952D01*
X141263096Y-123408571D01*
X141167858Y-123456190D01*
X140786905Y-123456190D01*
X141691667Y-122932381D02*
X142310715Y-122932381D01*
X141977381Y-123313333D01*
X142120239Y-123313333D01*
X142215477Y-123360952D01*
X142263096Y-123408571D01*
X142310715Y-123503810D01*
X142310715Y-123741905D01*
X142263096Y-123837143D01*
X142215477Y-123884762D01*
X142120239Y-123932381D01*
X141834524Y-123932381D01*
X141739286Y-123884762D01*
X141691667Y-123837143D01*
X141238334Y-125272381D02*
X140905000Y-124796190D01*
X140666905Y-125272381D02*
X140666905Y-124272381D01*
X141047858Y-124272381D01*
X141143096Y-124320000D01*
X141190715Y-124367619D01*
X141238334Y-124462857D01*
X141238334Y-124605714D01*
X141190715Y-124700952D01*
X141143096Y-124748571D01*
X141047858Y-124796190D01*
X140666905Y-124796190D01*
X142095477Y-124605714D02*
X142095477Y-125272381D01*
X141857381Y-124224762D02*
X141619286Y-124939048D01*
X142238334Y-124939048D01*
X141378334Y-128452381D02*
X141045000Y-127976190D01*
X140806905Y-128452381D02*
X140806905Y-127452381D01*
X141187858Y-127452381D01*
X141283096Y-127500000D01*
X141330715Y-127547619D01*
X141378334Y-127642857D01*
X141378334Y-127785714D01*
X141330715Y-127880952D01*
X141283096Y-127928571D01*
X141187858Y-127976190D01*
X140806905Y-127976190D01*
X142283096Y-127452381D02*
X141806905Y-127452381D01*
X141759286Y-127928571D01*
X141806905Y-127880952D01*
X141902143Y-127833333D01*
X142140239Y-127833333D01*
X142235477Y-127880952D01*
X142283096Y-127928571D01*
X142330715Y-128023810D01*
X142330715Y-128261905D01*
X142283096Y-128357143D01*
X142235477Y-128404762D01*
X142140239Y-128452381D01*
X141902143Y-128452381D01*
X141806905Y-128404762D01*
X141759286Y-128357143D01*
X159292381Y-91646666D02*
X158816190Y-91980000D01*
X159292381Y-92218095D02*
X158292381Y-92218095D01*
X158292381Y-91837142D01*
X158340000Y-91741904D01*
X158387619Y-91694285D01*
X158482857Y-91646666D01*
X158625714Y-91646666D01*
X158720952Y-91694285D01*
X158768571Y-91741904D01*
X158816190Y-91837142D01*
X158816190Y-92218095D01*
X158292381Y-90789523D02*
X158292381Y-90980000D01*
X158340000Y-91075238D01*
X158387619Y-91122857D01*
X158530476Y-91218095D01*
X158720952Y-91265714D01*
X159101905Y-91265714D01*
X159197143Y-91218095D01*
X159244762Y-91170476D01*
X159292381Y-91075238D01*
X159292381Y-90884761D01*
X159244762Y-90789523D01*
X159197143Y-90741904D01*
X159101905Y-90694285D01*
X158863810Y-90694285D01*
X158768571Y-90741904D01*
X158720952Y-90789523D01*
X158673333Y-90884761D01*
X158673333Y-91075238D01*
X158720952Y-91170476D01*
X158768571Y-91218095D01*
X158863810Y-91265714D01*
X168600381Y-91860666D02*
X168124190Y-92194000D01*
X168600381Y-92432095D02*
X167600381Y-92432095D01*
X167600381Y-92051142D01*
X167648000Y-91955904D01*
X167695619Y-91908285D01*
X167790857Y-91860666D01*
X167933714Y-91860666D01*
X168028952Y-91908285D01*
X168076571Y-91955904D01*
X168124190Y-92051142D01*
X168124190Y-92432095D01*
X168028952Y-91289238D02*
X167981333Y-91384476D01*
X167933714Y-91432095D01*
X167838476Y-91479714D01*
X167790857Y-91479714D01*
X167695619Y-91432095D01*
X167648000Y-91384476D01*
X167600381Y-91289238D01*
X167600381Y-91098761D01*
X167648000Y-91003523D01*
X167695619Y-90955904D01*
X167790857Y-90908285D01*
X167838476Y-90908285D01*
X167933714Y-90955904D01*
X167981333Y-91003523D01*
X168028952Y-91098761D01*
X168028952Y-91289238D01*
X168076571Y-91384476D01*
X168124190Y-91432095D01*
X168219429Y-91479714D01*
X168409905Y-91479714D01*
X168505143Y-91432095D01*
X168552762Y-91384476D01*
X168600381Y-91289238D01*
X168600381Y-91098761D01*
X168552762Y-91003523D01*
X168505143Y-90955904D01*
X168409905Y-90908285D01*
X168219429Y-90908285D01*
X168124190Y-90955904D01*
X168076571Y-91003523D01*
X168028952Y-91098761D01*
X163102381Y-124176666D02*
X162626190Y-124510000D01*
X163102381Y-124748095D02*
X162102381Y-124748095D01*
X162102381Y-124367142D01*
X162150000Y-124271904D01*
X162197619Y-124224285D01*
X162292857Y-124176666D01*
X162435714Y-124176666D01*
X162530952Y-124224285D01*
X162578571Y-124271904D01*
X162626190Y-124367142D01*
X162626190Y-124748095D01*
X163102381Y-123700476D02*
X163102381Y-123510000D01*
X163054762Y-123414761D01*
X163007143Y-123367142D01*
X162864286Y-123271904D01*
X162673810Y-123224285D01*
X162292857Y-123224285D01*
X162197619Y-123271904D01*
X162150000Y-123319523D01*
X162102381Y-123414761D01*
X162102381Y-123605238D01*
X162150000Y-123700476D01*
X162197619Y-123748095D01*
X162292857Y-123795714D01*
X162530952Y-123795714D01*
X162626190Y-123748095D01*
X162673810Y-123700476D01*
X162721429Y-123605238D01*
X162721429Y-123414761D01*
X162673810Y-123319523D01*
X162626190Y-123271904D01*
X162530952Y-123224285D01*
X164452381Y-124572857D02*
X163976190Y-124906191D01*
X164452381Y-125144286D02*
X163452381Y-125144286D01*
X163452381Y-124763333D01*
X163500000Y-124668095D01*
X163547619Y-124620476D01*
X163642857Y-124572857D01*
X163785714Y-124572857D01*
X163880952Y-124620476D01*
X163928571Y-124668095D01*
X163976190Y-124763333D01*
X163976190Y-125144286D01*
X164452381Y-123620476D02*
X164452381Y-124191905D01*
X164452381Y-123906191D02*
X163452381Y-123906191D01*
X163595238Y-124001429D01*
X163690476Y-124096667D01*
X163738095Y-124191905D01*
X163452381Y-123001429D02*
X163452381Y-122906190D01*
X163500000Y-122810952D01*
X163547619Y-122763333D01*
X163642857Y-122715714D01*
X163833333Y-122668095D01*
X164071429Y-122668095D01*
X164261905Y-122715714D01*
X164357143Y-122763333D01*
X164404762Y-122810952D01*
X164452381Y-122906190D01*
X164452381Y-123001429D01*
X164404762Y-123096667D01*
X164357143Y-123144286D01*
X164261905Y-123191905D01*
X164071429Y-123239524D01*
X163833333Y-123239524D01*
X163642857Y-123191905D01*
X163547619Y-123144286D01*
X163500000Y-123096667D01*
X163452381Y-123001429D01*
X147407143Y-130292381D02*
X147073809Y-129816190D01*
X146835714Y-130292381D02*
X146835714Y-129292381D01*
X147216667Y-129292381D01*
X147311905Y-129340000D01*
X147359524Y-129387619D01*
X147407143Y-129482857D01*
X147407143Y-129625714D01*
X147359524Y-129720952D01*
X147311905Y-129768571D01*
X147216667Y-129816190D01*
X146835714Y-129816190D01*
X148359524Y-130292381D02*
X147788095Y-130292381D01*
X148073809Y-130292381D02*
X148073809Y-129292381D01*
X147978571Y-129435238D01*
X147883333Y-129530476D01*
X147788095Y-129578095D01*
X149311905Y-130292381D02*
X148740476Y-130292381D01*
X149026190Y-130292381D02*
X149026190Y-129292381D01*
X148930952Y-129435238D01*
X148835714Y-129530476D01*
X148740476Y-129578095D01*
X147327143Y-132002381D02*
X146993809Y-131526190D01*
X146755714Y-132002381D02*
X146755714Y-131002381D01*
X147136667Y-131002381D01*
X147231905Y-131050000D01*
X147279524Y-131097619D01*
X147327143Y-131192857D01*
X147327143Y-131335714D01*
X147279524Y-131430952D01*
X147231905Y-131478571D01*
X147136667Y-131526190D01*
X146755714Y-131526190D01*
X148279524Y-132002381D02*
X147708095Y-132002381D01*
X147993809Y-132002381D02*
X147993809Y-131002381D01*
X147898571Y-131145238D01*
X147803333Y-131240476D01*
X147708095Y-131288095D01*
X148660476Y-131097619D02*
X148708095Y-131050000D01*
X148803333Y-131002381D01*
X149041429Y-131002381D01*
X149136667Y-131050000D01*
X149184286Y-131097619D01*
X149231905Y-131192857D01*
X149231905Y-131288095D01*
X149184286Y-131430952D01*
X148612857Y-132002381D01*
X149231905Y-132002381D01*
X153487381Y-147327857D02*
X153011190Y-147661191D01*
X153487381Y-147899286D02*
X152487381Y-147899286D01*
X152487381Y-147518333D01*
X152535000Y-147423095D01*
X152582619Y-147375476D01*
X152677857Y-147327857D01*
X152820714Y-147327857D01*
X152915952Y-147375476D01*
X152963571Y-147423095D01*
X153011190Y-147518333D01*
X153011190Y-147899286D01*
X153487381Y-146375476D02*
X153487381Y-146946905D01*
X153487381Y-146661191D02*
X152487381Y-146661191D01*
X152630238Y-146756429D01*
X152725476Y-146851667D01*
X152773095Y-146946905D01*
X152487381Y-146042143D02*
X152487381Y-145423095D01*
X152868333Y-145756429D01*
X152868333Y-145613571D01*
X152915952Y-145518333D01*
X152963571Y-145470714D01*
X153058810Y-145423095D01*
X153296905Y-145423095D01*
X153392143Y-145470714D01*
X153439762Y-145518333D01*
X153487381Y-145613571D01*
X153487381Y-145899286D01*
X153439762Y-145994524D01*
X153392143Y-146042143D01*
X161712381Y-124562857D02*
X161236190Y-124896191D01*
X161712381Y-125134286D02*
X160712381Y-125134286D01*
X160712381Y-124753333D01*
X160760000Y-124658095D01*
X160807619Y-124610476D01*
X160902857Y-124562857D01*
X161045714Y-124562857D01*
X161140952Y-124610476D01*
X161188571Y-124658095D01*
X161236190Y-124753333D01*
X161236190Y-125134286D01*
X161712381Y-123610476D02*
X161712381Y-124181905D01*
X161712381Y-123896191D02*
X160712381Y-123896191D01*
X160855238Y-123991429D01*
X160950476Y-124086667D01*
X160998095Y-124181905D01*
X161045714Y-122753333D02*
X161712381Y-122753333D01*
X160664762Y-122991429D02*
X161379048Y-123229524D01*
X161379048Y-122610476D01*
X179316143Y-107386381D02*
X178982809Y-106910190D01*
X178744714Y-107386381D02*
X178744714Y-106386381D01*
X179125667Y-106386381D01*
X179220905Y-106434000D01*
X179268524Y-106481619D01*
X179316143Y-106576857D01*
X179316143Y-106719714D01*
X179268524Y-106814952D01*
X179220905Y-106862571D01*
X179125667Y-106910190D01*
X178744714Y-106910190D01*
X179697095Y-106481619D02*
X179744714Y-106434000D01*
X179839952Y-106386381D01*
X180078048Y-106386381D01*
X180173286Y-106434000D01*
X180220905Y-106481619D01*
X180268524Y-106576857D01*
X180268524Y-106672095D01*
X180220905Y-106814952D01*
X179649476Y-107386381D01*
X180268524Y-107386381D01*
X180887571Y-106386381D02*
X180982810Y-106386381D01*
X181078048Y-106434000D01*
X181125667Y-106481619D01*
X181173286Y-106576857D01*
X181220905Y-106767333D01*
X181220905Y-107005429D01*
X181173286Y-107195905D01*
X181125667Y-107291143D01*
X181078048Y-107338762D01*
X180982810Y-107386381D01*
X180887571Y-107386381D01*
X180792333Y-107338762D01*
X180744714Y-107291143D01*
X180697095Y-107195905D01*
X180649476Y-107005429D01*
X180649476Y-106767333D01*
X180697095Y-106576857D01*
X180744714Y-106481619D01*
X180792333Y-106434000D01*
X180887571Y-106386381D01*
X172818381Y-132412857D02*
X172342190Y-132746191D01*
X172818381Y-132984286D02*
X171818381Y-132984286D01*
X171818381Y-132603333D01*
X171866000Y-132508095D01*
X171913619Y-132460476D01*
X172008857Y-132412857D01*
X172151714Y-132412857D01*
X172246952Y-132460476D01*
X172294571Y-132508095D01*
X172342190Y-132603333D01*
X172342190Y-132984286D01*
X171818381Y-132079524D02*
X171818381Y-131460476D01*
X172199333Y-131793810D01*
X172199333Y-131650952D01*
X172246952Y-131555714D01*
X172294571Y-131508095D01*
X172389810Y-131460476D01*
X172627905Y-131460476D01*
X172723143Y-131508095D01*
X172770762Y-131555714D01*
X172818381Y-131650952D01*
X172818381Y-131936667D01*
X172770762Y-132031905D01*
X172723143Y-132079524D01*
X171818381Y-130841429D02*
X171818381Y-130746190D01*
X171866000Y-130650952D01*
X171913619Y-130603333D01*
X172008857Y-130555714D01*
X172199333Y-130508095D01*
X172437429Y-130508095D01*
X172627905Y-130555714D01*
X172723143Y-130603333D01*
X172770762Y-130650952D01*
X172818381Y-130746190D01*
X172818381Y-130841429D01*
X172770762Y-130936667D01*
X172723143Y-130984286D01*
X172627905Y-131031905D01*
X172437429Y-131079524D01*
X172199333Y-131079524D01*
X172008857Y-131031905D01*
X171913619Y-130984286D01*
X171866000Y-130936667D01*
X171818381Y-130841429D01*
X168092381Y-129039857D02*
X167616190Y-129373191D01*
X168092381Y-129611286D02*
X167092381Y-129611286D01*
X167092381Y-129230333D01*
X167140000Y-129135095D01*
X167187619Y-129087476D01*
X167282857Y-129039857D01*
X167425714Y-129039857D01*
X167520952Y-129087476D01*
X167568571Y-129135095D01*
X167616190Y-129230333D01*
X167616190Y-129611286D01*
X167092381Y-128706524D02*
X167092381Y-128087476D01*
X167473333Y-128420810D01*
X167473333Y-128277952D01*
X167520952Y-128182714D01*
X167568571Y-128135095D01*
X167663810Y-128087476D01*
X167901905Y-128087476D01*
X167997143Y-128135095D01*
X168044762Y-128182714D01*
X168092381Y-128277952D01*
X168092381Y-128563667D01*
X168044762Y-128658905D01*
X167997143Y-128706524D01*
X167425714Y-127230333D02*
X168092381Y-127230333D01*
X167044762Y-127468429D02*
X167759048Y-127706524D01*
X167759048Y-127087476D01*
X178252381Y-83042857D02*
X177776190Y-83376191D01*
X178252381Y-83614286D02*
X177252381Y-83614286D01*
X177252381Y-83233333D01*
X177300000Y-83138095D01*
X177347619Y-83090476D01*
X177442857Y-83042857D01*
X177585714Y-83042857D01*
X177680952Y-83090476D01*
X177728571Y-83138095D01*
X177776190Y-83233333D01*
X177776190Y-83614286D01*
X177252381Y-82709524D02*
X177252381Y-82090476D01*
X177633333Y-82423810D01*
X177633333Y-82280952D01*
X177680952Y-82185714D01*
X177728571Y-82138095D01*
X177823810Y-82090476D01*
X178061905Y-82090476D01*
X178157143Y-82138095D01*
X178204762Y-82185714D01*
X178252381Y-82280952D01*
X178252381Y-82566667D01*
X178204762Y-82661905D01*
X178157143Y-82709524D01*
X177252381Y-81233333D02*
X177252381Y-81423810D01*
X177300000Y-81519048D01*
X177347619Y-81566667D01*
X177490476Y-81661905D01*
X177680952Y-81709524D01*
X178061905Y-81709524D01*
X178157143Y-81661905D01*
X178204762Y-81614286D01*
X178252381Y-81519048D01*
X178252381Y-81328571D01*
X178204762Y-81233333D01*
X178157143Y-81185714D01*
X178061905Y-81138095D01*
X177823810Y-81138095D01*
X177728571Y-81185714D01*
X177680952Y-81233333D01*
X177633333Y-81328571D01*
X177633333Y-81519048D01*
X177680952Y-81614286D01*
X177728571Y-81661905D01*
X177823810Y-81709524D01*
X150941143Y-138398381D02*
X150607809Y-137922190D01*
X150369714Y-138398381D02*
X150369714Y-137398381D01*
X150750667Y-137398381D01*
X150845905Y-137446000D01*
X150893524Y-137493619D01*
X150941143Y-137588857D01*
X150941143Y-137731714D01*
X150893524Y-137826952D01*
X150845905Y-137874571D01*
X150750667Y-137922190D01*
X150369714Y-137922190D01*
X151274476Y-137398381D02*
X151893524Y-137398381D01*
X151560190Y-137779333D01*
X151703048Y-137779333D01*
X151798286Y-137826952D01*
X151845905Y-137874571D01*
X151893524Y-137969810D01*
X151893524Y-138207905D01*
X151845905Y-138303143D01*
X151798286Y-138350762D01*
X151703048Y-138398381D01*
X151417333Y-138398381D01*
X151322095Y-138350762D01*
X151274476Y-138303143D01*
X152226857Y-137398381D02*
X152893524Y-137398381D01*
X152464952Y-138398381D01*
X182165143Y-109224381D02*
X181831809Y-108748190D01*
X181593714Y-109224381D02*
X181593714Y-108224381D01*
X181974667Y-108224381D01*
X182069905Y-108272000D01*
X182117524Y-108319619D01*
X182165143Y-108414857D01*
X182165143Y-108557714D01*
X182117524Y-108652952D01*
X182069905Y-108700571D01*
X181974667Y-108748190D01*
X181593714Y-108748190D01*
X182498476Y-108224381D02*
X183117524Y-108224381D01*
X182784190Y-108605333D01*
X182927048Y-108605333D01*
X183022286Y-108652952D01*
X183069905Y-108700571D01*
X183117524Y-108795810D01*
X183117524Y-109033905D01*
X183069905Y-109129143D01*
X183022286Y-109176762D01*
X182927048Y-109224381D01*
X182641333Y-109224381D01*
X182546095Y-109176762D01*
X182498476Y-109129143D01*
X183688952Y-108652952D02*
X183593714Y-108605333D01*
X183546095Y-108557714D01*
X183498476Y-108462476D01*
X183498476Y-108414857D01*
X183546095Y-108319619D01*
X183593714Y-108272000D01*
X183688952Y-108224381D01*
X183879429Y-108224381D01*
X183974667Y-108272000D01*
X184022286Y-108319619D01*
X184069905Y-108414857D01*
X184069905Y-108462476D01*
X184022286Y-108557714D01*
X183974667Y-108605333D01*
X183879429Y-108652952D01*
X183688952Y-108652952D01*
X183593714Y-108700571D01*
X183546095Y-108748190D01*
X183498476Y-108843429D01*
X183498476Y-109033905D01*
X183546095Y-109129143D01*
X183593714Y-109176762D01*
X183688952Y-109224381D01*
X183879429Y-109224381D01*
X183974667Y-109176762D01*
X184022286Y-109129143D01*
X184069905Y-109033905D01*
X184069905Y-108843429D01*
X184022286Y-108748190D01*
X183974667Y-108700571D01*
X183879429Y-108652952D01*
X149572381Y-102252857D02*
X149096190Y-102586191D01*
X149572381Y-102824286D02*
X148572381Y-102824286D01*
X148572381Y-102443333D01*
X148620000Y-102348095D01*
X148667619Y-102300476D01*
X148762857Y-102252857D01*
X148905714Y-102252857D01*
X149000952Y-102300476D01*
X149048571Y-102348095D01*
X149096190Y-102443333D01*
X149096190Y-102824286D01*
X148905714Y-101395714D02*
X149572381Y-101395714D01*
X148524762Y-101633810D02*
X149239048Y-101871905D01*
X149239048Y-101252857D01*
X148667619Y-100919524D02*
X148620000Y-100871905D01*
X148572381Y-100776667D01*
X148572381Y-100538571D01*
X148620000Y-100443333D01*
X148667619Y-100395714D01*
X148762857Y-100348095D01*
X148858095Y-100348095D01*
X149000952Y-100395714D01*
X149572381Y-100967143D01*
X149572381Y-100348095D01*
X166102381Y-91802857D02*
X165626190Y-92136191D01*
X166102381Y-92374286D02*
X165102381Y-92374286D01*
X165102381Y-91993333D01*
X165150000Y-91898095D01*
X165197619Y-91850476D01*
X165292857Y-91802857D01*
X165435714Y-91802857D01*
X165530952Y-91850476D01*
X165578571Y-91898095D01*
X165626190Y-91993333D01*
X165626190Y-92374286D01*
X165435714Y-90945714D02*
X166102381Y-90945714D01*
X165054762Y-91183810D02*
X165769048Y-91421905D01*
X165769048Y-90802857D01*
X165435714Y-89993333D02*
X166102381Y-89993333D01*
X165054762Y-90231429D02*
X165769048Y-90469524D01*
X165769048Y-89850476D01*
X166161905Y-85552381D02*
X166161905Y-86361905D01*
X166209524Y-86457143D01*
X166257143Y-86504762D01*
X166352381Y-86552381D01*
X166542858Y-86552381D01*
X166638096Y-86504762D01*
X166685715Y-86457143D01*
X166733334Y-86361905D01*
X166733334Y-85552381D01*
X167733334Y-86552381D02*
X167161905Y-86552381D01*
X167447619Y-86552381D02*
X167447619Y-85552381D01*
X167352381Y-85695238D01*
X167257143Y-85790476D01*
X167161905Y-85838095D01*
X168685715Y-86552381D02*
X168114286Y-86552381D01*
X168400000Y-86552381D02*
X168400000Y-85552381D01*
X168304762Y-85695238D01*
X168209524Y-85790476D01*
X168114286Y-85838095D01*
X136937809Y-80430690D02*
X136937809Y-80906881D01*
X136604476Y-79906881D02*
X136937809Y-80430690D01*
X137271143Y-79906881D01*
X138128286Y-80906881D02*
X137556857Y-80906881D01*
X137842571Y-80906881D02*
X137842571Y-79906881D01*
X137747333Y-80049738D01*
X137652095Y-80144976D01*
X137556857Y-80192595D01*
X141089143Y-74525143D02*
X141041524Y-74572762D01*
X140898667Y-74620381D01*
X140803429Y-74620381D01*
X140660571Y-74572762D01*
X140565333Y-74477524D01*
X140517714Y-74382286D01*
X140470095Y-74191810D01*
X140470095Y-74048952D01*
X140517714Y-73858476D01*
X140565333Y-73763238D01*
X140660571Y-73668000D01*
X140803429Y-73620381D01*
X140898667Y-73620381D01*
X141041524Y-73668000D01*
X141089143Y-73715619D01*
X141422476Y-73620381D02*
X142041524Y-73620381D01*
X141708190Y-74001333D01*
X141851048Y-74001333D01*
X141946286Y-74048952D01*
X141993905Y-74096571D01*
X142041524Y-74191810D01*
X142041524Y-74429905D01*
X141993905Y-74525143D01*
X141946286Y-74572762D01*
X141851048Y-74620381D01*
X141565333Y-74620381D01*
X141470095Y-74572762D01*
X141422476Y-74525143D01*
X142946286Y-73620381D02*
X142470095Y-73620381D01*
X142422476Y-74096571D01*
X142470095Y-74048952D01*
X142565333Y-74001333D01*
X142803429Y-74001333D01*
X142898667Y-74048952D01*
X142946286Y-74096571D01*
X142993905Y-74191810D01*
X142993905Y-74429905D01*
X142946286Y-74525143D01*
X142898667Y-74572762D01*
X142803429Y-74620381D01*
X142565333Y-74620381D01*
X142470095Y-74572762D01*
X142422476Y-74525143D01*
X162233943Y-83027743D02*
X162186324Y-83075362D01*
X162043467Y-83122981D01*
X161948229Y-83122981D01*
X161805371Y-83075362D01*
X161710133Y-82980124D01*
X161662514Y-82884886D01*
X161614895Y-82694410D01*
X161614895Y-82551552D01*
X161662514Y-82361076D01*
X161710133Y-82265838D01*
X161805371Y-82170600D01*
X161948229Y-82122981D01*
X162043467Y-82122981D01*
X162186324Y-82170600D01*
X162233943Y-82218219D01*
X163091086Y-82456314D02*
X163091086Y-83122981D01*
X162852990Y-82075362D02*
X162614895Y-82789648D01*
X163233943Y-82789648D01*
X163805371Y-82122981D02*
X163900610Y-82122981D01*
X163995848Y-82170600D01*
X164043467Y-82218219D01*
X164091086Y-82313457D01*
X164138705Y-82503933D01*
X164138705Y-82742029D01*
X164091086Y-82932505D01*
X164043467Y-83027743D01*
X163995848Y-83075362D01*
X163900610Y-83122981D01*
X163805371Y-83122981D01*
X163710133Y-83075362D01*
X163662514Y-83027743D01*
X163614895Y-82932505D01*
X163567276Y-82742029D01*
X163567276Y-82503933D01*
X163614895Y-82313457D01*
X163662514Y-82218219D01*
X163710133Y-82170600D01*
X163805371Y-82122981D01*
X140931905Y-110672381D02*
X140931905Y-109672381D01*
X141170000Y-109672381D01*
X141312858Y-109720000D01*
X141408096Y-109815238D01*
X141455715Y-109910476D01*
X141503334Y-110100952D01*
X141503334Y-110243810D01*
X141455715Y-110434286D01*
X141408096Y-110529524D01*
X141312858Y-110624762D01*
X141170000Y-110672381D01*
X140931905Y-110672381D01*
X142360477Y-110005714D02*
X142360477Y-110672381D01*
X142122381Y-109624762D02*
X141884286Y-110339048D01*
X142503334Y-110339048D01*
X131341905Y-145232381D02*
X131341905Y-144232381D01*
X131722858Y-144232381D01*
X131818096Y-144280000D01*
X131865715Y-144327619D01*
X131913334Y-144422857D01*
X131913334Y-144565714D01*
X131865715Y-144660952D01*
X131818096Y-144708571D01*
X131722858Y-144756190D01*
X131341905Y-144756190D01*
X132818096Y-144232381D02*
X132341905Y-144232381D01*
X132294286Y-144708571D01*
X132341905Y-144660952D01*
X132437143Y-144613333D01*
X132675239Y-144613333D01*
X132770477Y-144660952D01*
X132818096Y-144708571D01*
X132865715Y-144803810D01*
X132865715Y-145041905D01*
X132818096Y-145137143D01*
X132770477Y-145184762D01*
X132675239Y-145232381D01*
X132437143Y-145232381D01*
X132341905Y-145184762D01*
X132294286Y-145137143D01*
X114831905Y-84272381D02*
X114831905Y-83272381D01*
X115212858Y-83272381D01*
X115308096Y-83320000D01*
X115355715Y-83367619D01*
X115403334Y-83462857D01*
X115403334Y-83605714D01*
X115355715Y-83700952D01*
X115308096Y-83748571D01*
X115212858Y-83796190D01*
X114831905Y-83796190D01*
X116260477Y-83272381D02*
X116070000Y-83272381D01*
X115974762Y-83320000D01*
X115927143Y-83367619D01*
X115831905Y-83510476D01*
X115784286Y-83700952D01*
X115784286Y-84081905D01*
X115831905Y-84177143D01*
X115879524Y-84224762D01*
X115974762Y-84272381D01*
X116165239Y-84272381D01*
X116260477Y-84224762D01*
X116308096Y-84177143D01*
X116355715Y-84081905D01*
X116355715Y-83843810D01*
X116308096Y-83748571D01*
X116260477Y-83700952D01*
X116165239Y-83653333D01*
X115974762Y-83653333D01*
X115879524Y-83700952D01*
X115831905Y-83748571D01*
X115784286Y-83843810D01*
X195672381Y-94172095D02*
X194672381Y-94172095D01*
X194672381Y-93791142D01*
X194720000Y-93695904D01*
X194767619Y-93648285D01*
X194862857Y-93600666D01*
X195005714Y-93600666D01*
X195100952Y-93648285D01*
X195148571Y-93695904D01*
X195196190Y-93791142D01*
X195196190Y-94172095D01*
X195672381Y-93124476D02*
X195672381Y-92934000D01*
X195624762Y-92838761D01*
X195577143Y-92791142D01*
X195434286Y-92695904D01*
X195243810Y-92648285D01*
X194862857Y-92648285D01*
X194767619Y-92695904D01*
X194720000Y-92743523D01*
X194672381Y-92838761D01*
X194672381Y-93029238D01*
X194720000Y-93124476D01*
X194767619Y-93172095D01*
X194862857Y-93219714D01*
X195100952Y-93219714D01*
X195196190Y-93172095D01*
X195243810Y-93124476D01*
X195291429Y-93029238D01*
X195291429Y-92838761D01*
X195243810Y-92743523D01*
X195196190Y-92695904D01*
X195100952Y-92648285D01*
X115035714Y-93202381D02*
X115035714Y-92202381D01*
X115416667Y-92202381D01*
X115511905Y-92250000D01*
X115559524Y-92297619D01*
X115607143Y-92392857D01*
X115607143Y-92535714D01*
X115559524Y-92630952D01*
X115511905Y-92678571D01*
X115416667Y-92726190D01*
X115035714Y-92726190D01*
X116559524Y-93202381D02*
X115988095Y-93202381D01*
X116273809Y-93202381D02*
X116273809Y-92202381D01*
X116178571Y-92345238D01*
X116083333Y-92440476D01*
X115988095Y-92488095D01*
X117178571Y-92202381D02*
X117273810Y-92202381D01*
X117369048Y-92250000D01*
X117416667Y-92297619D01*
X117464286Y-92392857D01*
X117511905Y-92583333D01*
X117511905Y-92821429D01*
X117464286Y-93011905D01*
X117416667Y-93107143D01*
X117369048Y-93154762D01*
X117273810Y-93202381D01*
X117178571Y-93202381D01*
X117083333Y-93154762D01*
X117035714Y-93107143D01*
X116988095Y-93011905D01*
X116940476Y-92821429D01*
X116940476Y-92583333D01*
X116988095Y-92392857D01*
X117035714Y-92297619D01*
X117083333Y-92250000D01*
X117178571Y-92202381D01*
X141214762Y-115107619D02*
X141119524Y-115060000D01*
X141024286Y-114964762D01*
X140881429Y-114821905D01*
X140786190Y-114774286D01*
X140690952Y-114774286D01*
X140738571Y-115012381D02*
X140643333Y-114964762D01*
X140548095Y-114869524D01*
X140500476Y-114679048D01*
X140500476Y-114345714D01*
X140548095Y-114155238D01*
X140643333Y-114060000D01*
X140738571Y-114012381D01*
X140929048Y-114012381D01*
X141024286Y-114060000D01*
X141119524Y-114155238D01*
X141167143Y-114345714D01*
X141167143Y-114679048D01*
X141119524Y-114869524D01*
X141024286Y-114964762D01*
X140929048Y-115012381D01*
X140738571Y-115012381D01*
X142071905Y-114012381D02*
X141595714Y-114012381D01*
X141548095Y-114488571D01*
X141595714Y-114440952D01*
X141690952Y-114393333D01*
X141929048Y-114393333D01*
X142024286Y-114440952D01*
X142071905Y-114488571D01*
X142119524Y-114583810D01*
X142119524Y-114821905D01*
X142071905Y-114917143D01*
X142024286Y-114964762D01*
X141929048Y-115012381D01*
X141690952Y-115012381D01*
X141595714Y-114964762D01*
X141548095Y-114917143D01*
X136504762Y-68247619D02*
X136409524Y-68200000D01*
X136314286Y-68104762D01*
X136171429Y-67961905D01*
X136076190Y-67914286D01*
X135980952Y-67914286D01*
X136028571Y-68152381D02*
X135933333Y-68104762D01*
X135838095Y-68009524D01*
X135790476Y-67819048D01*
X135790476Y-67485714D01*
X135838095Y-67295238D01*
X135933333Y-67200000D01*
X136028571Y-67152381D01*
X136219048Y-67152381D01*
X136314286Y-67200000D01*
X136409524Y-67295238D01*
X136457143Y-67485714D01*
X136457143Y-67819048D01*
X136409524Y-68009524D01*
X136314286Y-68104762D01*
X136219048Y-68152381D01*
X136028571Y-68152381D01*
X137314286Y-67152381D02*
X137123809Y-67152381D01*
X137028571Y-67200000D01*
X136980952Y-67247619D01*
X136885714Y-67390476D01*
X136838095Y-67580952D01*
X136838095Y-67961905D01*
X136885714Y-68057143D01*
X136933333Y-68104762D01*
X137028571Y-68152381D01*
X137219048Y-68152381D01*
X137314286Y-68104762D01*
X137361905Y-68057143D01*
X137409524Y-67961905D01*
X137409524Y-67723810D01*
X137361905Y-67628571D01*
X137314286Y-67580952D01*
X137219048Y-67533333D01*
X137028571Y-67533333D01*
X136933333Y-67580952D01*
X136885714Y-67628571D01*
X136838095Y-67723810D01*
X121834762Y-93337619D02*
X121739524Y-93290000D01*
X121644286Y-93194762D01*
X121501429Y-93051905D01*
X121406190Y-93004286D01*
X121310952Y-93004286D01*
X121358571Y-93242381D02*
X121263333Y-93194762D01*
X121168095Y-93099524D01*
X121120476Y-92909048D01*
X121120476Y-92575714D01*
X121168095Y-92385238D01*
X121263333Y-92290000D01*
X121358571Y-92242381D01*
X121549048Y-92242381D01*
X121644286Y-92290000D01*
X121739524Y-92385238D01*
X121787143Y-92575714D01*
X121787143Y-92909048D01*
X121739524Y-93099524D01*
X121644286Y-93194762D01*
X121549048Y-93242381D01*
X121358571Y-93242381D01*
X122120476Y-92242381D02*
X122787143Y-92242381D01*
X122358571Y-93242381D01*
X131604762Y-68247619D02*
X131509524Y-68200000D01*
X131414286Y-68104762D01*
X131271429Y-67961905D01*
X131176190Y-67914286D01*
X131080952Y-67914286D01*
X131128571Y-68152381D02*
X131033333Y-68104762D01*
X130938095Y-68009524D01*
X130890476Y-67819048D01*
X130890476Y-67485714D01*
X130938095Y-67295238D01*
X131033333Y-67200000D01*
X131128571Y-67152381D01*
X131319048Y-67152381D01*
X131414286Y-67200000D01*
X131509524Y-67295238D01*
X131557143Y-67485714D01*
X131557143Y-67819048D01*
X131509524Y-68009524D01*
X131414286Y-68104762D01*
X131319048Y-68152381D01*
X131128571Y-68152381D01*
X132128571Y-67580952D02*
X132033333Y-67533333D01*
X131985714Y-67485714D01*
X131938095Y-67390476D01*
X131938095Y-67342857D01*
X131985714Y-67247619D01*
X132033333Y-67200000D01*
X132128571Y-67152381D01*
X132319048Y-67152381D01*
X132414286Y-67200000D01*
X132461905Y-67247619D01*
X132509524Y-67342857D01*
X132509524Y-67390476D01*
X132461905Y-67485714D01*
X132414286Y-67533333D01*
X132319048Y-67580952D01*
X132128571Y-67580952D01*
X132033333Y-67628571D01*
X131985714Y-67676190D01*
X131938095Y-67771429D01*
X131938095Y-67961905D01*
X131985714Y-68057143D01*
X132033333Y-68104762D01*
X132128571Y-68152381D01*
X132319048Y-68152381D01*
X132414286Y-68104762D01*
X132461905Y-68057143D01*
X132509524Y-67961905D01*
X132509524Y-67771429D01*
X132461905Y-67676190D01*
X132414286Y-67628571D01*
X132319048Y-67580952D01*
X126904762Y-68047619D02*
X126809524Y-68000000D01*
X126714286Y-67904762D01*
X126571429Y-67761905D01*
X126476190Y-67714286D01*
X126380952Y-67714286D01*
X126428571Y-67952381D02*
X126333333Y-67904762D01*
X126238095Y-67809524D01*
X126190476Y-67619048D01*
X126190476Y-67285714D01*
X126238095Y-67095238D01*
X126333333Y-67000000D01*
X126428571Y-66952381D01*
X126619048Y-66952381D01*
X126714286Y-67000000D01*
X126809524Y-67095238D01*
X126857143Y-67285714D01*
X126857143Y-67619048D01*
X126809524Y-67809524D01*
X126714286Y-67904762D01*
X126619048Y-67952381D01*
X126428571Y-67952381D01*
X127333333Y-67952381D02*
X127523809Y-67952381D01*
X127619048Y-67904762D01*
X127666667Y-67857143D01*
X127761905Y-67714286D01*
X127809524Y-67523810D01*
X127809524Y-67142857D01*
X127761905Y-67047619D01*
X127714286Y-67000000D01*
X127619048Y-66952381D01*
X127428571Y-66952381D01*
X127333333Y-67000000D01*
X127285714Y-67047619D01*
X127238095Y-67142857D01*
X127238095Y-67380952D01*
X127285714Y-67476190D01*
X127333333Y-67523810D01*
X127428571Y-67571429D01*
X127619048Y-67571429D01*
X127714286Y-67523810D01*
X127761905Y-67476190D01*
X127809524Y-67380952D01*
X121628572Y-68047619D02*
X121533334Y-68000000D01*
X121438096Y-67904762D01*
X121295239Y-67761905D01*
X121200000Y-67714286D01*
X121104762Y-67714286D01*
X121152381Y-67952381D02*
X121057143Y-67904762D01*
X120961905Y-67809524D01*
X120914286Y-67619048D01*
X120914286Y-67285714D01*
X120961905Y-67095238D01*
X121057143Y-67000000D01*
X121152381Y-66952381D01*
X121342858Y-66952381D01*
X121438096Y-67000000D01*
X121533334Y-67095238D01*
X121580953Y-67285714D01*
X121580953Y-67619048D01*
X121533334Y-67809524D01*
X121438096Y-67904762D01*
X121342858Y-67952381D01*
X121152381Y-67952381D01*
X122533334Y-67952381D02*
X121961905Y-67952381D01*
X122247619Y-67952381D02*
X122247619Y-66952381D01*
X122152381Y-67095238D01*
X122057143Y-67190476D01*
X121961905Y-67238095D01*
X123152381Y-66952381D02*
X123247620Y-66952381D01*
X123342858Y-67000000D01*
X123390477Y-67047619D01*
X123438096Y-67142857D01*
X123485715Y-67333333D01*
X123485715Y-67571429D01*
X123438096Y-67761905D01*
X123390477Y-67857143D01*
X123342858Y-67904762D01*
X123247620Y-67952381D01*
X123152381Y-67952381D01*
X123057143Y-67904762D01*
X123009524Y-67857143D01*
X122961905Y-67761905D01*
X122914286Y-67571429D01*
X122914286Y-67333333D01*
X122961905Y-67142857D01*
X123009524Y-67047619D01*
X123057143Y-67000000D01*
X123152381Y-66952381D01*
X182562572Y-92281619D02*
X182467334Y-92234000D01*
X182372096Y-92138762D01*
X182229239Y-91995905D01*
X182134000Y-91948286D01*
X182038762Y-91948286D01*
X182086381Y-92186381D02*
X181991143Y-92138762D01*
X181895905Y-92043524D01*
X181848286Y-91853048D01*
X181848286Y-91519714D01*
X181895905Y-91329238D01*
X181991143Y-91234000D01*
X182086381Y-91186381D01*
X182276858Y-91186381D01*
X182372096Y-91234000D01*
X182467334Y-91329238D01*
X182514953Y-91519714D01*
X182514953Y-91853048D01*
X182467334Y-92043524D01*
X182372096Y-92138762D01*
X182276858Y-92186381D01*
X182086381Y-92186381D01*
X183467334Y-92186381D02*
X182895905Y-92186381D01*
X183181619Y-92186381D02*
X183181619Y-91186381D01*
X183086381Y-91329238D01*
X182991143Y-91424476D01*
X182895905Y-91472095D01*
X183848286Y-91281619D02*
X183895905Y-91234000D01*
X183991143Y-91186381D01*
X184229239Y-91186381D01*
X184324477Y-91234000D01*
X184372096Y-91281619D01*
X184419715Y-91376857D01*
X184419715Y-91472095D01*
X184372096Y-91614952D01*
X183800667Y-92186381D01*
X184419715Y-92186381D01*
X141247143Y-112512381D02*
X140913809Y-112036190D01*
X140675714Y-112512381D02*
X140675714Y-111512381D01*
X141056667Y-111512381D01*
X141151905Y-111560000D01*
X141199524Y-111607619D01*
X141247143Y-111702857D01*
X141247143Y-111845714D01*
X141199524Y-111940952D01*
X141151905Y-111988571D01*
X141056667Y-112036190D01*
X140675714Y-112036190D01*
X142199524Y-112512381D02*
X141628095Y-112512381D01*
X141913809Y-112512381D02*
X141913809Y-111512381D01*
X141818571Y-111655238D01*
X141723333Y-111750476D01*
X141628095Y-111798095D01*
X143104286Y-111512381D02*
X142628095Y-111512381D01*
X142580476Y-111988571D01*
X142628095Y-111940952D01*
X142723333Y-111893333D01*
X142961429Y-111893333D01*
X143056667Y-111940952D01*
X143104286Y-111988571D01*
X143151905Y-112083810D01*
X143151905Y-112321905D01*
X143104286Y-112417143D01*
X143056667Y-112464762D01*
X142961429Y-112512381D01*
X142723333Y-112512381D01*
X142628095Y-112464762D01*
X142580476Y-112417143D01*
X130617143Y-114252381D02*
X130283809Y-113776190D01*
X130045714Y-114252381D02*
X130045714Y-113252381D01*
X130426667Y-113252381D01*
X130521905Y-113300000D01*
X130569524Y-113347619D01*
X130617143Y-113442857D01*
X130617143Y-113585714D01*
X130569524Y-113680952D01*
X130521905Y-113728571D01*
X130426667Y-113776190D01*
X130045714Y-113776190D01*
X131569524Y-114252381D02*
X130998095Y-114252381D01*
X131283809Y-114252381D02*
X131283809Y-113252381D01*
X131188571Y-113395238D01*
X131093333Y-113490476D01*
X130998095Y-113538095D01*
X132426667Y-113252381D02*
X132236190Y-113252381D01*
X132140952Y-113300000D01*
X132093333Y-113347619D01*
X131998095Y-113490476D01*
X131950476Y-113680952D01*
X131950476Y-114061905D01*
X131998095Y-114157143D01*
X132045714Y-114204762D01*
X132140952Y-114252381D01*
X132331429Y-114252381D01*
X132426667Y-114204762D01*
X132474286Y-114157143D01*
X132521905Y-114061905D01*
X132521905Y-113823810D01*
X132474286Y-113728571D01*
X132426667Y-113680952D01*
X132331429Y-113633333D01*
X132140952Y-113633333D01*
X132045714Y-113680952D01*
X131998095Y-113728571D01*
X131950476Y-113823810D01*
X136157143Y-73552381D02*
X135823809Y-73076190D01*
X135585714Y-73552381D02*
X135585714Y-72552381D01*
X135966667Y-72552381D01*
X136061905Y-72600000D01*
X136109524Y-72647619D01*
X136157143Y-72742857D01*
X136157143Y-72885714D01*
X136109524Y-72980952D01*
X136061905Y-73028571D01*
X135966667Y-73076190D01*
X135585714Y-73076190D01*
X136538095Y-72647619D02*
X136585714Y-72600000D01*
X136680952Y-72552381D01*
X136919048Y-72552381D01*
X137014286Y-72600000D01*
X137061905Y-72647619D01*
X137109524Y-72742857D01*
X137109524Y-72838095D01*
X137061905Y-72980952D01*
X136490476Y-73552381D01*
X137109524Y-73552381D01*
X138061905Y-73552381D02*
X137490476Y-73552381D01*
X137776190Y-73552381D02*
X137776190Y-72552381D01*
X137680952Y-72695238D01*
X137585714Y-72790476D01*
X137490476Y-72838095D01*
X130011143Y-96464381D02*
X129677809Y-95988190D01*
X129439714Y-96464381D02*
X129439714Y-95464381D01*
X129820667Y-95464381D01*
X129915905Y-95512000D01*
X129963524Y-95559619D01*
X130011143Y-95654857D01*
X130011143Y-95797714D01*
X129963524Y-95892952D01*
X129915905Y-95940571D01*
X129820667Y-95988190D01*
X129439714Y-95988190D01*
X130392095Y-95559619D02*
X130439714Y-95512000D01*
X130534952Y-95464381D01*
X130773048Y-95464381D01*
X130868286Y-95512000D01*
X130915905Y-95559619D01*
X130963524Y-95654857D01*
X130963524Y-95750095D01*
X130915905Y-95892952D01*
X130344476Y-96464381D01*
X130963524Y-96464381D01*
X131344476Y-95559619D02*
X131392095Y-95512000D01*
X131487333Y-95464381D01*
X131725429Y-95464381D01*
X131820667Y-95512000D01*
X131868286Y-95559619D01*
X131915905Y-95654857D01*
X131915905Y-95750095D01*
X131868286Y-95892952D01*
X131296857Y-96464381D01*
X131915905Y-96464381D01*
X130857143Y-73552381D02*
X130523809Y-73076190D01*
X130285714Y-73552381D02*
X130285714Y-72552381D01*
X130666667Y-72552381D01*
X130761905Y-72600000D01*
X130809524Y-72647619D01*
X130857143Y-72742857D01*
X130857143Y-72885714D01*
X130809524Y-72980952D01*
X130761905Y-73028571D01*
X130666667Y-73076190D01*
X130285714Y-73076190D01*
X131238095Y-72647619D02*
X131285714Y-72600000D01*
X131380952Y-72552381D01*
X131619048Y-72552381D01*
X131714286Y-72600000D01*
X131761905Y-72647619D01*
X131809524Y-72742857D01*
X131809524Y-72838095D01*
X131761905Y-72980952D01*
X131190476Y-73552381D01*
X131809524Y-73552381D01*
X132142857Y-72552381D02*
X132761905Y-72552381D01*
X132428571Y-72933333D01*
X132571429Y-72933333D01*
X132666667Y-72980952D01*
X132714286Y-73028571D01*
X132761905Y-73123810D01*
X132761905Y-73361905D01*
X132714286Y-73457143D01*
X132666667Y-73504762D01*
X132571429Y-73552381D01*
X132285714Y-73552381D01*
X132190476Y-73504762D01*
X132142857Y-73457143D01*
X126057143Y-73552381D02*
X125723809Y-73076190D01*
X125485714Y-73552381D02*
X125485714Y-72552381D01*
X125866667Y-72552381D01*
X125961905Y-72600000D01*
X126009524Y-72647619D01*
X126057143Y-72742857D01*
X126057143Y-72885714D01*
X126009524Y-72980952D01*
X125961905Y-73028571D01*
X125866667Y-73076190D01*
X125485714Y-73076190D01*
X126438095Y-72647619D02*
X126485714Y-72600000D01*
X126580952Y-72552381D01*
X126819048Y-72552381D01*
X126914286Y-72600000D01*
X126961905Y-72647619D01*
X127009524Y-72742857D01*
X127009524Y-72838095D01*
X126961905Y-72980952D01*
X126390476Y-73552381D01*
X127009524Y-73552381D01*
X127866667Y-72885714D02*
X127866667Y-73552381D01*
X127628571Y-72504762D02*
X127390476Y-73219048D01*
X128009524Y-73219048D01*
X125357143Y-77802381D02*
X125023809Y-77326190D01*
X124785714Y-77802381D02*
X124785714Y-76802381D01*
X125166667Y-76802381D01*
X125261905Y-76850000D01*
X125309524Y-76897619D01*
X125357143Y-76992857D01*
X125357143Y-77135714D01*
X125309524Y-77230952D01*
X125261905Y-77278571D01*
X125166667Y-77326190D01*
X124785714Y-77326190D01*
X125738095Y-76897619D02*
X125785714Y-76850000D01*
X125880952Y-76802381D01*
X126119048Y-76802381D01*
X126214286Y-76850000D01*
X126261905Y-76897619D01*
X126309524Y-76992857D01*
X126309524Y-77088095D01*
X126261905Y-77230952D01*
X125690476Y-77802381D01*
X126309524Y-77802381D01*
X127214286Y-76802381D02*
X126738095Y-76802381D01*
X126690476Y-77278571D01*
X126738095Y-77230952D01*
X126833333Y-77183333D01*
X127071429Y-77183333D01*
X127166667Y-77230952D01*
X127214286Y-77278571D01*
X127261905Y-77373810D01*
X127261905Y-77611905D01*
X127214286Y-77707143D01*
X127166667Y-77754762D01*
X127071429Y-77802381D01*
X126833333Y-77802381D01*
X126738095Y-77754762D01*
X126690476Y-77707143D01*
X130257143Y-77852381D02*
X129923809Y-77376190D01*
X129685714Y-77852381D02*
X129685714Y-76852381D01*
X130066667Y-76852381D01*
X130161905Y-76900000D01*
X130209524Y-76947619D01*
X130257143Y-77042857D01*
X130257143Y-77185714D01*
X130209524Y-77280952D01*
X130161905Y-77328571D01*
X130066667Y-77376190D01*
X129685714Y-77376190D01*
X130638095Y-76947619D02*
X130685714Y-76900000D01*
X130780952Y-76852381D01*
X131019048Y-76852381D01*
X131114286Y-76900000D01*
X131161905Y-76947619D01*
X131209524Y-77042857D01*
X131209524Y-77138095D01*
X131161905Y-77280952D01*
X130590476Y-77852381D01*
X131209524Y-77852381D01*
X132066667Y-76852381D02*
X131876190Y-76852381D01*
X131780952Y-76900000D01*
X131733333Y-76947619D01*
X131638095Y-77090476D01*
X131590476Y-77280952D01*
X131590476Y-77661905D01*
X131638095Y-77757143D01*
X131685714Y-77804762D01*
X131780952Y-77852381D01*
X131971429Y-77852381D01*
X132066667Y-77804762D01*
X132114286Y-77757143D01*
X132161905Y-77661905D01*
X132161905Y-77423810D01*
X132114286Y-77328571D01*
X132066667Y-77280952D01*
X131971429Y-77233333D01*
X131780952Y-77233333D01*
X131685714Y-77280952D01*
X131638095Y-77328571D01*
X131590476Y-77423810D01*
X125457143Y-80602381D02*
X125123809Y-80126190D01*
X124885714Y-80602381D02*
X124885714Y-79602381D01*
X125266667Y-79602381D01*
X125361905Y-79650000D01*
X125409524Y-79697619D01*
X125457143Y-79792857D01*
X125457143Y-79935714D01*
X125409524Y-80030952D01*
X125361905Y-80078571D01*
X125266667Y-80126190D01*
X124885714Y-80126190D01*
X125838095Y-79697619D02*
X125885714Y-79650000D01*
X125980952Y-79602381D01*
X126219048Y-79602381D01*
X126314286Y-79650000D01*
X126361905Y-79697619D01*
X126409524Y-79792857D01*
X126409524Y-79888095D01*
X126361905Y-80030952D01*
X125790476Y-80602381D01*
X126409524Y-80602381D01*
X126742857Y-79602381D02*
X127409524Y-79602381D01*
X126980952Y-80602381D01*
X130257143Y-80752381D02*
X129923809Y-80276190D01*
X129685714Y-80752381D02*
X129685714Y-79752381D01*
X130066667Y-79752381D01*
X130161905Y-79800000D01*
X130209524Y-79847619D01*
X130257143Y-79942857D01*
X130257143Y-80085714D01*
X130209524Y-80180952D01*
X130161905Y-80228571D01*
X130066667Y-80276190D01*
X129685714Y-80276190D01*
X130638095Y-79847619D02*
X130685714Y-79800000D01*
X130780952Y-79752381D01*
X131019048Y-79752381D01*
X131114286Y-79800000D01*
X131161905Y-79847619D01*
X131209524Y-79942857D01*
X131209524Y-80038095D01*
X131161905Y-80180952D01*
X130590476Y-80752381D01*
X131209524Y-80752381D01*
X131780952Y-80180952D02*
X131685714Y-80133333D01*
X131638095Y-80085714D01*
X131590476Y-79990476D01*
X131590476Y-79942857D01*
X131638095Y-79847619D01*
X131685714Y-79800000D01*
X131780952Y-79752381D01*
X131971429Y-79752381D01*
X132066667Y-79800000D01*
X132114286Y-79847619D01*
X132161905Y-79942857D01*
X132161905Y-79990476D01*
X132114286Y-80085714D01*
X132066667Y-80133333D01*
X131971429Y-80180952D01*
X131780952Y-80180952D01*
X131685714Y-80228571D01*
X131638095Y-80276190D01*
X131590476Y-80371429D01*
X131590476Y-80561905D01*
X131638095Y-80657143D01*
X131685714Y-80704762D01*
X131780952Y-80752381D01*
X131971429Y-80752381D01*
X132066667Y-80704762D01*
X132114286Y-80657143D01*
X132161905Y-80561905D01*
X132161905Y-80371429D01*
X132114286Y-80276190D01*
X132066667Y-80228571D01*
X131971429Y-80180952D01*
X121657143Y-73552381D02*
X121323809Y-73076190D01*
X121085714Y-73552381D02*
X121085714Y-72552381D01*
X121466667Y-72552381D01*
X121561905Y-72600000D01*
X121609524Y-72647619D01*
X121657143Y-72742857D01*
X121657143Y-72885714D01*
X121609524Y-72980952D01*
X121561905Y-73028571D01*
X121466667Y-73076190D01*
X121085714Y-73076190D01*
X122038095Y-72647619D02*
X122085714Y-72600000D01*
X122180952Y-72552381D01*
X122419048Y-72552381D01*
X122514286Y-72600000D01*
X122561905Y-72647619D01*
X122609524Y-72742857D01*
X122609524Y-72838095D01*
X122561905Y-72980952D01*
X121990476Y-73552381D01*
X122609524Y-73552381D01*
X123085714Y-73552381D02*
X123276190Y-73552381D01*
X123371429Y-73504762D01*
X123419048Y-73457143D01*
X123514286Y-73314286D01*
X123561905Y-73123810D01*
X123561905Y-72742857D01*
X123514286Y-72647619D01*
X123466667Y-72600000D01*
X123371429Y-72552381D01*
X123180952Y-72552381D01*
X123085714Y-72600000D01*
X123038095Y-72647619D01*
X122990476Y-72742857D01*
X122990476Y-72980952D01*
X123038095Y-73076190D01*
X123085714Y-73123810D01*
X123180952Y-73171429D01*
X123371429Y-73171429D01*
X123466667Y-73123810D01*
X123514286Y-73076190D01*
X123561905Y-72980952D01*
X125457143Y-83402381D02*
X125123809Y-82926190D01*
X124885714Y-83402381D02*
X124885714Y-82402381D01*
X125266667Y-82402381D01*
X125361905Y-82450000D01*
X125409524Y-82497619D01*
X125457143Y-82592857D01*
X125457143Y-82735714D01*
X125409524Y-82830952D01*
X125361905Y-82878571D01*
X125266667Y-82926190D01*
X124885714Y-82926190D01*
X126314286Y-82735714D02*
X126314286Y-83402381D01*
X126076190Y-82354762D02*
X125838095Y-83069048D01*
X126457143Y-83069048D01*
X127314286Y-82402381D02*
X126838095Y-82402381D01*
X126790476Y-82878571D01*
X126838095Y-82830952D01*
X126933333Y-82783333D01*
X127171429Y-82783333D01*
X127266667Y-82830952D01*
X127314286Y-82878571D01*
X127361905Y-82973810D01*
X127361905Y-83211905D01*
X127314286Y-83307143D01*
X127266667Y-83354762D01*
X127171429Y-83402381D01*
X126933333Y-83402381D01*
X126838095Y-83354762D01*
X126790476Y-83307143D01*
X130157143Y-83452381D02*
X129823809Y-82976190D01*
X129585714Y-83452381D02*
X129585714Y-82452381D01*
X129966667Y-82452381D01*
X130061905Y-82500000D01*
X130109524Y-82547619D01*
X130157143Y-82642857D01*
X130157143Y-82785714D01*
X130109524Y-82880952D01*
X130061905Y-82928571D01*
X129966667Y-82976190D01*
X129585714Y-82976190D01*
X131014286Y-82785714D02*
X131014286Y-83452381D01*
X130776190Y-82404762D02*
X130538095Y-83119048D01*
X131157143Y-83119048D01*
X131966667Y-82452381D02*
X131776190Y-82452381D01*
X131680952Y-82500000D01*
X131633333Y-82547619D01*
X131538095Y-82690476D01*
X131490476Y-82880952D01*
X131490476Y-83261905D01*
X131538095Y-83357143D01*
X131585714Y-83404762D01*
X131680952Y-83452381D01*
X131871429Y-83452381D01*
X131966667Y-83404762D01*
X132014286Y-83357143D01*
X132061905Y-83261905D01*
X132061905Y-83023810D01*
X132014286Y-82928571D01*
X131966667Y-82880952D01*
X131871429Y-82833333D01*
X131680952Y-82833333D01*
X131585714Y-82880952D01*
X131538095Y-82928571D01*
X131490476Y-83023810D01*
X125457143Y-86202381D02*
X125123809Y-85726190D01*
X124885714Y-86202381D02*
X124885714Y-85202381D01*
X125266667Y-85202381D01*
X125361905Y-85250000D01*
X125409524Y-85297619D01*
X125457143Y-85392857D01*
X125457143Y-85535714D01*
X125409524Y-85630952D01*
X125361905Y-85678571D01*
X125266667Y-85726190D01*
X124885714Y-85726190D01*
X126314286Y-85535714D02*
X126314286Y-86202381D01*
X126076190Y-85154762D02*
X125838095Y-85869048D01*
X126457143Y-85869048D01*
X126742857Y-85202381D02*
X127409524Y-85202381D01*
X126980952Y-86202381D01*
X130057143Y-86352381D02*
X129723809Y-85876190D01*
X129485714Y-86352381D02*
X129485714Y-85352381D01*
X129866667Y-85352381D01*
X129961905Y-85400000D01*
X130009524Y-85447619D01*
X130057143Y-85542857D01*
X130057143Y-85685714D01*
X130009524Y-85780952D01*
X129961905Y-85828571D01*
X129866667Y-85876190D01*
X129485714Y-85876190D01*
X130914286Y-85685714D02*
X130914286Y-86352381D01*
X130676190Y-85304762D02*
X130438095Y-86019048D01*
X131057143Y-86019048D01*
X131580952Y-85780952D02*
X131485714Y-85733333D01*
X131438095Y-85685714D01*
X131390476Y-85590476D01*
X131390476Y-85542857D01*
X131438095Y-85447619D01*
X131485714Y-85400000D01*
X131580952Y-85352381D01*
X131771429Y-85352381D01*
X131866667Y-85400000D01*
X131914286Y-85447619D01*
X131961905Y-85542857D01*
X131961905Y-85590476D01*
X131914286Y-85685714D01*
X131866667Y-85733333D01*
X131771429Y-85780952D01*
X131580952Y-85780952D01*
X131485714Y-85828571D01*
X131438095Y-85876190D01*
X131390476Y-85971429D01*
X131390476Y-86161905D01*
X131438095Y-86257143D01*
X131485714Y-86304762D01*
X131580952Y-86352381D01*
X131771429Y-86352381D01*
X131866667Y-86304762D01*
X131914286Y-86257143D01*
X131961905Y-86161905D01*
X131961905Y-85971429D01*
X131914286Y-85876190D01*
X131866667Y-85828571D01*
X131771429Y-85780952D01*
X122166143Y-89606381D02*
X121832809Y-89130190D01*
X121594714Y-89606381D02*
X121594714Y-88606381D01*
X121975667Y-88606381D01*
X122070905Y-88654000D01*
X122118524Y-88701619D01*
X122166143Y-88796857D01*
X122166143Y-88939714D01*
X122118524Y-89034952D01*
X122070905Y-89082571D01*
X121975667Y-89130190D01*
X121594714Y-89130190D01*
X123023286Y-88939714D02*
X123023286Y-89606381D01*
X122785190Y-88558762D02*
X122547095Y-89273048D01*
X123166143Y-89273048D01*
X123594714Y-89606381D02*
X123785190Y-89606381D01*
X123880429Y-89558762D01*
X123928048Y-89511143D01*
X124023286Y-89368286D01*
X124070905Y-89177810D01*
X124070905Y-88796857D01*
X124023286Y-88701619D01*
X123975667Y-88654000D01*
X123880429Y-88606381D01*
X123689952Y-88606381D01*
X123594714Y-88654000D01*
X123547095Y-88701619D01*
X123499476Y-88796857D01*
X123499476Y-89034952D01*
X123547095Y-89130190D01*
X123594714Y-89177810D01*
X123689952Y-89225429D01*
X123880429Y-89225429D01*
X123975667Y-89177810D01*
X124023286Y-89130190D01*
X124070905Y-89034952D01*
X133650143Y-89182381D02*
X133316809Y-88706190D01*
X133078714Y-89182381D02*
X133078714Y-88182381D01*
X133459667Y-88182381D01*
X133554905Y-88230000D01*
X133602524Y-88277619D01*
X133650143Y-88372857D01*
X133650143Y-88515714D01*
X133602524Y-88610952D01*
X133554905Y-88658571D01*
X133459667Y-88706190D01*
X133078714Y-88706190D01*
X134554905Y-88182381D02*
X134078714Y-88182381D01*
X134031095Y-88658571D01*
X134078714Y-88610952D01*
X134173952Y-88563333D01*
X134412048Y-88563333D01*
X134507286Y-88610952D01*
X134554905Y-88658571D01*
X134602524Y-88753810D01*
X134602524Y-88991905D01*
X134554905Y-89087143D01*
X134507286Y-89134762D01*
X134412048Y-89182381D01*
X134173952Y-89182381D01*
X134078714Y-89134762D01*
X134031095Y-89087143D01*
X135221571Y-88182381D02*
X135316810Y-88182381D01*
X135412048Y-88230000D01*
X135459667Y-88277619D01*
X135507286Y-88372857D01*
X135554905Y-88563333D01*
X135554905Y-88801429D01*
X135507286Y-88991905D01*
X135459667Y-89087143D01*
X135412048Y-89134762D01*
X135316810Y-89182381D01*
X135221571Y-89182381D01*
X135126333Y-89134762D01*
X135078714Y-89087143D01*
X135031095Y-88991905D01*
X134983476Y-88801429D01*
X134983476Y-88563333D01*
X135031095Y-88372857D01*
X135078714Y-88277619D01*
X135126333Y-88230000D01*
X135221571Y-88182381D01*
X180332143Y-97988381D02*
X179998809Y-97512190D01*
X179760714Y-97988381D02*
X179760714Y-96988381D01*
X180141667Y-96988381D01*
X180236905Y-97036000D01*
X180284524Y-97083619D01*
X180332143Y-97178857D01*
X180332143Y-97321714D01*
X180284524Y-97416952D01*
X180236905Y-97464571D01*
X180141667Y-97512190D01*
X179760714Y-97512190D01*
X181236905Y-96988381D02*
X180760714Y-96988381D01*
X180713095Y-97464571D01*
X180760714Y-97416952D01*
X180855952Y-97369333D01*
X181094048Y-97369333D01*
X181189286Y-97416952D01*
X181236905Y-97464571D01*
X181284524Y-97559810D01*
X181284524Y-97797905D01*
X181236905Y-97893143D01*
X181189286Y-97940762D01*
X181094048Y-97988381D01*
X180855952Y-97988381D01*
X180760714Y-97940762D01*
X180713095Y-97893143D01*
X182236905Y-97988381D02*
X181665476Y-97988381D01*
X181951190Y-97988381D02*
X181951190Y-96988381D01*
X181855952Y-97131238D01*
X181760714Y-97226476D01*
X181665476Y-97274095D01*
X125341143Y-92474381D02*
X125007809Y-91998190D01*
X124769714Y-92474381D02*
X124769714Y-91474381D01*
X125150667Y-91474381D01*
X125245905Y-91522000D01*
X125293524Y-91569619D01*
X125341143Y-91664857D01*
X125341143Y-91807714D01*
X125293524Y-91902952D01*
X125245905Y-91950571D01*
X125150667Y-91998190D01*
X124769714Y-91998190D01*
X126245905Y-91474381D02*
X125769714Y-91474381D01*
X125722095Y-91950571D01*
X125769714Y-91902952D01*
X125864952Y-91855333D01*
X126103048Y-91855333D01*
X126198286Y-91902952D01*
X126245905Y-91950571D01*
X126293524Y-92045810D01*
X126293524Y-92283905D01*
X126245905Y-92379143D01*
X126198286Y-92426762D01*
X126103048Y-92474381D01*
X125864952Y-92474381D01*
X125769714Y-92426762D01*
X125722095Y-92379143D01*
X126674476Y-91569619D02*
X126722095Y-91522000D01*
X126817333Y-91474381D01*
X127055429Y-91474381D01*
X127150667Y-91522000D01*
X127198286Y-91569619D01*
X127245905Y-91664857D01*
X127245905Y-91760095D01*
X127198286Y-91902952D01*
X126626857Y-92474381D01*
X127245905Y-92474381D01*
X130116343Y-92474381D02*
X129783009Y-91998190D01*
X129544914Y-92474381D02*
X129544914Y-91474381D01*
X129925867Y-91474381D01*
X130021105Y-91522000D01*
X130068724Y-91569619D01*
X130116343Y-91664857D01*
X130116343Y-91807714D01*
X130068724Y-91902952D01*
X130021105Y-91950571D01*
X129925867Y-91998190D01*
X129544914Y-91998190D01*
X131021105Y-91474381D02*
X130544914Y-91474381D01*
X130497295Y-91950571D01*
X130544914Y-91902952D01*
X130640152Y-91855333D01*
X130878248Y-91855333D01*
X130973486Y-91902952D01*
X131021105Y-91950571D01*
X131068724Y-92045810D01*
X131068724Y-92283905D01*
X131021105Y-92379143D01*
X130973486Y-92426762D01*
X130878248Y-92474381D01*
X130640152Y-92474381D01*
X130544914Y-92426762D01*
X130497295Y-92379143D01*
X131402057Y-91474381D02*
X132021105Y-91474381D01*
X131687771Y-91855333D01*
X131830629Y-91855333D01*
X131925867Y-91902952D01*
X131973486Y-91950571D01*
X132021105Y-92045810D01*
X132021105Y-92283905D01*
X131973486Y-92379143D01*
X131925867Y-92426762D01*
X131830629Y-92474381D01*
X131544914Y-92474381D01*
X131449676Y-92426762D01*
X131402057Y-92379143D01*
X181152381Y-83742857D02*
X180676190Y-84076191D01*
X181152381Y-84314286D02*
X180152381Y-84314286D01*
X180152381Y-83933333D01*
X180200000Y-83838095D01*
X180247619Y-83790476D01*
X180342857Y-83742857D01*
X180485714Y-83742857D01*
X180580952Y-83790476D01*
X180628571Y-83838095D01*
X180676190Y-83933333D01*
X180676190Y-84314286D01*
X180152381Y-82838095D02*
X180152381Y-83314286D01*
X180628571Y-83361905D01*
X180580952Y-83314286D01*
X180533333Y-83219048D01*
X180533333Y-82980952D01*
X180580952Y-82885714D01*
X180628571Y-82838095D01*
X180723810Y-82790476D01*
X180961905Y-82790476D01*
X181057143Y-82838095D01*
X181104762Y-82885714D01*
X181152381Y-82980952D01*
X181152381Y-83219048D01*
X181104762Y-83314286D01*
X181057143Y-83361905D01*
X180485714Y-81933333D02*
X181152381Y-81933333D01*
X180104762Y-82171429D02*
X180819048Y-82409524D01*
X180819048Y-81790476D01*
X181585714Y-145402381D02*
X181585714Y-144402381D01*
X181966667Y-144402381D01*
X182061905Y-144450000D01*
X182109524Y-144497619D01*
X182157143Y-144592857D01*
X182157143Y-144735714D01*
X182109524Y-144830952D01*
X182061905Y-144878571D01*
X181966667Y-144926190D01*
X181585714Y-144926190D01*
X183109524Y-145402381D02*
X182538095Y-145402381D01*
X182823809Y-145402381D02*
X182823809Y-144402381D01*
X182728571Y-144545238D01*
X182633333Y-144640476D01*
X182538095Y-144688095D01*
X183490476Y-144497619D02*
X183538095Y-144450000D01*
X183633333Y-144402381D01*
X183871429Y-144402381D01*
X183966667Y-144450000D01*
X184014286Y-144497619D01*
X184061905Y-144592857D01*
X184061905Y-144688095D01*
X184014286Y-144830952D01*
X183442857Y-145402381D01*
X184061905Y-145402381D01*
X116728572Y-68147619D02*
X116633334Y-68100000D01*
X116538096Y-68004762D01*
X116395239Y-67861905D01*
X116300000Y-67814286D01*
X116204762Y-67814286D01*
X116252381Y-68052381D02*
X116157143Y-68004762D01*
X116061905Y-67909524D01*
X116014286Y-67719048D01*
X116014286Y-67385714D01*
X116061905Y-67195238D01*
X116157143Y-67100000D01*
X116252381Y-67052381D01*
X116442858Y-67052381D01*
X116538096Y-67100000D01*
X116633334Y-67195238D01*
X116680953Y-67385714D01*
X116680953Y-67719048D01*
X116633334Y-67909524D01*
X116538096Y-68004762D01*
X116442858Y-68052381D01*
X116252381Y-68052381D01*
X117633334Y-68052381D02*
X117061905Y-68052381D01*
X117347619Y-68052381D02*
X117347619Y-67052381D01*
X117252381Y-67195238D01*
X117157143Y-67290476D01*
X117061905Y-67338095D01*
X117966667Y-67052381D02*
X118585715Y-67052381D01*
X118252381Y-67433333D01*
X118395239Y-67433333D01*
X118490477Y-67480952D01*
X118538096Y-67528571D01*
X118585715Y-67623810D01*
X118585715Y-67861905D01*
X118538096Y-67957143D01*
X118490477Y-68004762D01*
X118395239Y-68052381D01*
X118109524Y-68052381D01*
X118014286Y-68004762D01*
X117966667Y-67957143D01*
X130517143Y-116172381D02*
X130183809Y-115696190D01*
X129945714Y-116172381D02*
X129945714Y-115172381D01*
X130326667Y-115172381D01*
X130421905Y-115220000D01*
X130469524Y-115267619D01*
X130517143Y-115362857D01*
X130517143Y-115505714D01*
X130469524Y-115600952D01*
X130421905Y-115648571D01*
X130326667Y-115696190D01*
X129945714Y-115696190D01*
X131469524Y-116172381D02*
X130898095Y-116172381D01*
X131183809Y-116172381D02*
X131183809Y-115172381D01*
X131088571Y-115315238D01*
X130993333Y-115410476D01*
X130898095Y-115458095D01*
X131802857Y-115172381D02*
X132469524Y-115172381D01*
X132040952Y-116172381D01*
X134178143Y-109053381D02*
X133844809Y-108577190D01*
X133606714Y-109053381D02*
X133606714Y-108053381D01*
X133987667Y-108053381D01*
X134082905Y-108101000D01*
X134130524Y-108148619D01*
X134178143Y-108243857D01*
X134178143Y-108386714D01*
X134130524Y-108481952D01*
X134082905Y-108529571D01*
X133987667Y-108577190D01*
X133606714Y-108577190D01*
X135130524Y-109053381D02*
X134559095Y-109053381D01*
X134844809Y-109053381D02*
X134844809Y-108053381D01*
X134749571Y-108196238D01*
X134654333Y-108291476D01*
X134559095Y-108339095D01*
X135701952Y-108481952D02*
X135606714Y-108434333D01*
X135559095Y-108386714D01*
X135511476Y-108291476D01*
X135511476Y-108243857D01*
X135559095Y-108148619D01*
X135606714Y-108101000D01*
X135701952Y-108053381D01*
X135892429Y-108053381D01*
X135987667Y-108101000D01*
X136035286Y-108148619D01*
X136082905Y-108243857D01*
X136082905Y-108291476D01*
X136035286Y-108386714D01*
X135987667Y-108434333D01*
X135892429Y-108481952D01*
X135701952Y-108481952D01*
X135606714Y-108529571D01*
X135559095Y-108577190D01*
X135511476Y-108672429D01*
X135511476Y-108862905D01*
X135559095Y-108958143D01*
X135606714Y-109005762D01*
X135701952Y-109053381D01*
X135892429Y-109053381D01*
X135987667Y-109005762D01*
X136035286Y-108958143D01*
X136082905Y-108862905D01*
X136082905Y-108672429D01*
X136035286Y-108577190D01*
X135987667Y-108529571D01*
X135892429Y-108481952D01*
X114172381Y-111922857D02*
X113696190Y-112256191D01*
X114172381Y-112494286D02*
X113172381Y-112494286D01*
X113172381Y-112113333D01*
X113220000Y-112018095D01*
X113267619Y-111970476D01*
X113362857Y-111922857D01*
X113505714Y-111922857D01*
X113600952Y-111970476D01*
X113648571Y-112018095D01*
X113696190Y-112113333D01*
X113696190Y-112494286D01*
X114172381Y-110970476D02*
X114172381Y-111541905D01*
X114172381Y-111256191D02*
X113172381Y-111256191D01*
X113315238Y-111351429D01*
X113410476Y-111446667D01*
X113458095Y-111541905D01*
X114172381Y-110494286D02*
X114172381Y-110303810D01*
X114124762Y-110208571D01*
X114077143Y-110160952D01*
X113934286Y-110065714D01*
X113743810Y-110018095D01*
X113362857Y-110018095D01*
X113267619Y-110065714D01*
X113220000Y-110113333D01*
X113172381Y-110208571D01*
X113172381Y-110399048D01*
X113220000Y-110494286D01*
X113267619Y-110541905D01*
X113362857Y-110589524D01*
X113600952Y-110589524D01*
X113696190Y-110541905D01*
X113743810Y-110494286D01*
X113791429Y-110399048D01*
X113791429Y-110208571D01*
X113743810Y-110113333D01*
X113696190Y-110065714D01*
X113600952Y-110018095D01*
X116957143Y-73552381D02*
X116623809Y-73076190D01*
X116385714Y-73552381D02*
X116385714Y-72552381D01*
X116766667Y-72552381D01*
X116861905Y-72600000D01*
X116909524Y-72647619D01*
X116957143Y-72742857D01*
X116957143Y-72885714D01*
X116909524Y-72980952D01*
X116861905Y-73028571D01*
X116766667Y-73076190D01*
X116385714Y-73076190D01*
X117861905Y-72552381D02*
X117385714Y-72552381D01*
X117338095Y-73028571D01*
X117385714Y-72980952D01*
X117480952Y-72933333D01*
X117719048Y-72933333D01*
X117814286Y-72980952D01*
X117861905Y-73028571D01*
X117909524Y-73123810D01*
X117909524Y-73361905D01*
X117861905Y-73457143D01*
X117814286Y-73504762D01*
X117719048Y-73552381D01*
X117480952Y-73552381D01*
X117385714Y-73504762D01*
X117338095Y-73457143D01*
X118242857Y-72552381D02*
X118909524Y-72552381D01*
X118480952Y-73552381D01*
X172864762Y-98582381D02*
X172531428Y-98106190D01*
X172293333Y-98582381D02*
X172293333Y-97582381D01*
X172674286Y-97582381D01*
X172769524Y-97630000D01*
X172817143Y-97677619D01*
X172864762Y-97772857D01*
X172864762Y-97915714D01*
X172817143Y-98010952D01*
X172769524Y-98058571D01*
X172674286Y-98106190D01*
X172293333Y-98106190D01*
X173150476Y-97582381D02*
X173483809Y-98582381D01*
X173817143Y-97582381D01*
X174674286Y-98582381D02*
X174102857Y-98582381D01*
X174388571Y-98582381D02*
X174388571Y-97582381D01*
X174293333Y-97725238D01*
X174198095Y-97820476D01*
X174102857Y-97868095D01*
X141353881Y-104624166D02*
X141353881Y-105100357D01*
X140353881Y-105100357D01*
X140449119Y-104338452D02*
X140401500Y-104290833D01*
X140353881Y-104195595D01*
X140353881Y-103957499D01*
X140401500Y-103862261D01*
X140449119Y-103814642D01*
X140544357Y-103767023D01*
X140639595Y-103767023D01*
X140782452Y-103814642D01*
X141353881Y-104386071D01*
X141353881Y-103767023D01*
X121781905Y-100542381D02*
X121781905Y-101351905D01*
X121829524Y-101447143D01*
X121877143Y-101494762D01*
X121972381Y-101542381D01*
X122162858Y-101542381D01*
X122258096Y-101494762D01*
X122305715Y-101447143D01*
X122353334Y-101351905D01*
X122353334Y-100542381D01*
X123353334Y-101542381D02*
X122781905Y-101542381D01*
X123067619Y-101542381D02*
X123067619Y-100542381D01*
X122972381Y-100685238D01*
X122877143Y-100780476D01*
X122781905Y-100828095D01*
X123829524Y-101542381D02*
X124020000Y-101542381D01*
X124115239Y-101494762D01*
X124162858Y-101447143D01*
X124258096Y-101304286D01*
X124305715Y-101113810D01*
X124305715Y-100732857D01*
X124258096Y-100637619D01*
X124210477Y-100590000D01*
X124115239Y-100542381D01*
X123924762Y-100542381D01*
X123829524Y-100590000D01*
X123781905Y-100637619D01*
X123734286Y-100732857D01*
X123734286Y-100970952D01*
X123781905Y-101066190D01*
X123829524Y-101113810D01*
X123924762Y-101161429D01*
X124115239Y-101161429D01*
X124210477Y-101113810D01*
X124258096Y-101066190D01*
X124305715Y-100970952D01*
X136683905Y-100798381D02*
X136683905Y-101607905D01*
X136731524Y-101703143D01*
X136779143Y-101750762D01*
X136874381Y-101798381D01*
X137064858Y-101798381D01*
X137160096Y-101750762D01*
X137207715Y-101703143D01*
X137255334Y-101607905D01*
X137255334Y-100798381D01*
X138255334Y-101798381D02*
X137683905Y-101798381D01*
X137969619Y-101798381D02*
X137969619Y-100798381D01*
X137874381Y-100941238D01*
X137779143Y-101036476D01*
X137683905Y-101084095D01*
X138826762Y-101226952D02*
X138731524Y-101179333D01*
X138683905Y-101131714D01*
X138636286Y-101036476D01*
X138636286Y-100988857D01*
X138683905Y-100893619D01*
X138731524Y-100846000D01*
X138826762Y-100798381D01*
X139017239Y-100798381D01*
X139112477Y-100846000D01*
X139160096Y-100893619D01*
X139207715Y-100988857D01*
X139207715Y-101036476D01*
X139160096Y-101131714D01*
X139112477Y-101179333D01*
X139017239Y-101226952D01*
X138826762Y-101226952D01*
X138731524Y-101274571D01*
X138683905Y-101322190D01*
X138636286Y-101417429D01*
X138636286Y-101607905D01*
X138683905Y-101703143D01*
X138731524Y-101750762D01*
X138826762Y-101798381D01*
X139017239Y-101798381D01*
X139112477Y-101750762D01*
X139160096Y-101703143D01*
X139207715Y-101607905D01*
X139207715Y-101417429D01*
X139160096Y-101322190D01*
X139112477Y-101274571D01*
X139017239Y-101226952D01*
X187824905Y-99475881D02*
X187824905Y-100285405D01*
X187872524Y-100380643D01*
X187920143Y-100428262D01*
X188015381Y-100475881D01*
X188205858Y-100475881D01*
X188301096Y-100428262D01*
X188348715Y-100380643D01*
X188396334Y-100285405D01*
X188396334Y-99475881D01*
X189396334Y-100475881D02*
X188824905Y-100475881D01*
X189110619Y-100475881D02*
X189110619Y-99475881D01*
X189015381Y-99618738D01*
X188920143Y-99713976D01*
X188824905Y-99761595D01*
X189729667Y-99475881D02*
X190396334Y-99475881D01*
X189967762Y-100475881D01*
X188623905Y-108368881D02*
X188623905Y-109178405D01*
X188671524Y-109273643D01*
X188719143Y-109321262D01*
X188814381Y-109368881D01*
X189004858Y-109368881D01*
X189100096Y-109321262D01*
X189147715Y-109273643D01*
X189195334Y-109178405D01*
X189195334Y-108368881D01*
X190195334Y-109368881D02*
X189623905Y-109368881D01*
X189909619Y-109368881D02*
X189909619Y-108368881D01*
X189814381Y-108511738D01*
X189719143Y-108606976D01*
X189623905Y-108654595D01*
X191052477Y-108368881D02*
X190862000Y-108368881D01*
X190766762Y-108416500D01*
X190719143Y-108464119D01*
X190623905Y-108606976D01*
X190576286Y-108797452D01*
X190576286Y-109178405D01*
X190623905Y-109273643D01*
X190671524Y-109321262D01*
X190766762Y-109368881D01*
X190957239Y-109368881D01*
X191052477Y-109321262D01*
X191100096Y-109273643D01*
X191147715Y-109178405D01*
X191147715Y-108940310D01*
X191100096Y-108845071D01*
X191052477Y-108797452D01*
X190957239Y-108749833D01*
X190766762Y-108749833D01*
X190671524Y-108797452D01*
X190623905Y-108845071D01*
X190576286Y-108940310D01*
X147601905Y-118502381D02*
X147601905Y-119311905D01*
X147649524Y-119407143D01*
X147697143Y-119454762D01*
X147792381Y-119502381D01*
X147982858Y-119502381D01*
X148078096Y-119454762D01*
X148125715Y-119407143D01*
X148173334Y-119311905D01*
X148173334Y-118502381D01*
X149173334Y-119502381D02*
X148601905Y-119502381D01*
X148887619Y-119502381D02*
X148887619Y-118502381D01*
X148792381Y-118645238D01*
X148697143Y-118740476D01*
X148601905Y-118788095D01*
X150078096Y-118502381D02*
X149601905Y-118502381D01*
X149554286Y-118978571D01*
X149601905Y-118930952D01*
X149697143Y-118883333D01*
X149935239Y-118883333D01*
X150030477Y-118930952D01*
X150078096Y-118978571D01*
X150125715Y-119073810D01*
X150125715Y-119311905D01*
X150078096Y-119407143D01*
X150030477Y-119454762D01*
X149935239Y-119502381D01*
X149697143Y-119502381D01*
X149601905Y-119454762D01*
X149554286Y-119407143D01*
X133989381Y-64722333D02*
X134703667Y-64722333D01*
X134846524Y-64769953D01*
X134941762Y-64865191D01*
X134989381Y-65008048D01*
X134989381Y-65103286D01*
X133989381Y-64341381D02*
X133989381Y-63722333D01*
X134370333Y-64055667D01*
X134370333Y-63912809D01*
X134417952Y-63817571D01*
X134465571Y-63769952D01*
X134560810Y-63722333D01*
X134798905Y-63722333D01*
X134894143Y-63769952D01*
X134941762Y-63817571D01*
X134989381Y-63912809D01*
X134989381Y-64198524D01*
X134941762Y-64293762D01*
X134894143Y-64341381D01*
X187433143Y-90145143D02*
X187385524Y-90192762D01*
X187242667Y-90240381D01*
X187147429Y-90240381D01*
X187004571Y-90192762D01*
X186909333Y-90097524D01*
X186861714Y-90002286D01*
X186814095Y-89811810D01*
X186814095Y-89668952D01*
X186861714Y-89478476D01*
X186909333Y-89383238D01*
X187004571Y-89288000D01*
X187147429Y-89240381D01*
X187242667Y-89240381D01*
X187385524Y-89288000D01*
X187433143Y-89335619D01*
X187766476Y-89240381D02*
X188385524Y-89240381D01*
X188052190Y-89621333D01*
X188195048Y-89621333D01*
X188290286Y-89668952D01*
X188337905Y-89716571D01*
X188385524Y-89811810D01*
X188385524Y-90049905D01*
X188337905Y-90145143D01*
X188290286Y-90192762D01*
X188195048Y-90240381D01*
X187909333Y-90240381D01*
X187814095Y-90192762D01*
X187766476Y-90145143D01*
X189337905Y-90240381D02*
X188766476Y-90240381D01*
X189052190Y-90240381D02*
X189052190Y-89240381D01*
X188956952Y-89383238D01*
X188861714Y-89478476D01*
X188766476Y-89526095D01*
X132307143Y-100512381D02*
X131973809Y-100036190D01*
X131735714Y-100512381D02*
X131735714Y-99512381D01*
X132116667Y-99512381D01*
X132211905Y-99560000D01*
X132259524Y-99607619D01*
X132307143Y-99702857D01*
X132307143Y-99845714D01*
X132259524Y-99940952D01*
X132211905Y-99988571D01*
X132116667Y-100036190D01*
X131735714Y-100036190D01*
X133164286Y-99512381D02*
X132973809Y-99512381D01*
X132878571Y-99560000D01*
X132830952Y-99607619D01*
X132735714Y-99750476D01*
X132688095Y-99940952D01*
X132688095Y-100321905D01*
X132735714Y-100417143D01*
X132783333Y-100464762D01*
X132878571Y-100512381D01*
X133069048Y-100512381D01*
X133164286Y-100464762D01*
X133211905Y-100417143D01*
X133259524Y-100321905D01*
X133259524Y-100083810D01*
X133211905Y-99988571D01*
X133164286Y-99940952D01*
X133069048Y-99893333D01*
X132878571Y-99893333D01*
X132783333Y-99940952D01*
X132735714Y-99988571D01*
X132688095Y-100083810D01*
X133640476Y-99607619D02*
X133688095Y-99560000D01*
X133783333Y-99512381D01*
X134021429Y-99512381D01*
X134116667Y-99560000D01*
X134164286Y-99607619D01*
X134211905Y-99702857D01*
X134211905Y-99798095D01*
X134164286Y-99940952D01*
X133592857Y-100512381D01*
X134211905Y-100512381D01*
X132307143Y-98572381D02*
X131973809Y-98096190D01*
X131735714Y-98572381D02*
X131735714Y-97572381D01*
X132116667Y-97572381D01*
X132211905Y-97620000D01*
X132259524Y-97667619D01*
X132307143Y-97762857D01*
X132307143Y-97905714D01*
X132259524Y-98000952D01*
X132211905Y-98048571D01*
X132116667Y-98096190D01*
X131735714Y-98096190D01*
X133164286Y-97572381D02*
X132973809Y-97572381D01*
X132878571Y-97620000D01*
X132830952Y-97667619D01*
X132735714Y-97810476D01*
X132688095Y-98000952D01*
X132688095Y-98381905D01*
X132735714Y-98477143D01*
X132783333Y-98524762D01*
X132878571Y-98572381D01*
X133069048Y-98572381D01*
X133164286Y-98524762D01*
X133211905Y-98477143D01*
X133259524Y-98381905D01*
X133259524Y-98143810D01*
X133211905Y-98048571D01*
X133164286Y-98000952D01*
X133069048Y-97953333D01*
X132878571Y-97953333D01*
X132783333Y-98000952D01*
X132735714Y-98048571D01*
X132688095Y-98143810D01*
X133592857Y-97572381D02*
X134211905Y-97572381D01*
X133878571Y-97953333D01*
X134021429Y-97953333D01*
X134116667Y-98000952D01*
X134164286Y-98048571D01*
X134211905Y-98143810D01*
X134211905Y-98381905D01*
X134164286Y-98477143D01*
X134116667Y-98524762D01*
X134021429Y-98572381D01*
X133735714Y-98572381D01*
X133640476Y-98524762D01*
X133592857Y-98477143D01*
X133928571Y-137550952D02*
X133976190Y-137408095D01*
X134023810Y-137360476D01*
X134119048Y-137312857D01*
X134261905Y-137312857D01*
X134357143Y-137360476D01*
X134404762Y-137408095D01*
X134452381Y-137503333D01*
X134452381Y-137884286D01*
X133452381Y-137884286D01*
X133452381Y-137550952D01*
X133500000Y-137455714D01*
X133547619Y-137408095D01*
X133642857Y-137360476D01*
X133738095Y-137360476D01*
X133833333Y-137408095D01*
X133880952Y-137455714D01*
X133928571Y-137550952D01*
X133928571Y-137884286D01*
X133452381Y-136979524D02*
X133452381Y-136312857D01*
X134452381Y-136979524D01*
X134452381Y-136312857D01*
X134452381Y-135408095D02*
X134452381Y-135979524D01*
X134452381Y-135693810D02*
X133452381Y-135693810D01*
X133595238Y-135789048D01*
X133690476Y-135884286D01*
X133738095Y-135979524D01*
X138731429Y-140860952D02*
X138731429Y-140099047D01*
X139112381Y-140479999D02*
X138350476Y-140479999D01*
X174442381Y-116847857D02*
X173966190Y-117181191D01*
X174442381Y-117419286D02*
X173442381Y-117419286D01*
X173442381Y-117038333D01*
X173490000Y-116943095D01*
X173537619Y-116895476D01*
X173632857Y-116847857D01*
X173775714Y-116847857D01*
X173870952Y-116895476D01*
X173918571Y-116943095D01*
X173966190Y-117038333D01*
X173966190Y-117419286D01*
X173442381Y-115990714D02*
X173442381Y-116181191D01*
X173490000Y-116276429D01*
X173537619Y-116324048D01*
X173680476Y-116419286D01*
X173870952Y-116466905D01*
X174251905Y-116466905D01*
X174347143Y-116419286D01*
X174394762Y-116371667D01*
X174442381Y-116276429D01*
X174442381Y-116085952D01*
X174394762Y-115990714D01*
X174347143Y-115943095D01*
X174251905Y-115895476D01*
X174013810Y-115895476D01*
X173918571Y-115943095D01*
X173870952Y-115990714D01*
X173823333Y-116085952D01*
X173823333Y-116276429D01*
X173870952Y-116371667D01*
X173918571Y-116419286D01*
X174013810Y-116466905D01*
X173442381Y-115038333D02*
X173442381Y-115228810D01*
X173490000Y-115324048D01*
X173537619Y-115371667D01*
X173680476Y-115466905D01*
X173870952Y-115514524D01*
X174251905Y-115514524D01*
X174347143Y-115466905D01*
X174394762Y-115419286D01*
X174442381Y-115324048D01*
X174442381Y-115133571D01*
X174394762Y-115038333D01*
X174347143Y-114990714D01*
X174251905Y-114943095D01*
X174013810Y-114943095D01*
X173918571Y-114990714D01*
X173870952Y-115038333D01*
X173823333Y-115133571D01*
X173823333Y-115324048D01*
X173870952Y-115419286D01*
X173918571Y-115466905D01*
X174013810Y-115514524D01*
X182982381Y-73818095D02*
X183791905Y-73818095D01*
X183887143Y-73770476D01*
X183934762Y-73722857D01*
X183982381Y-73627619D01*
X183982381Y-73437142D01*
X183934762Y-73341904D01*
X183887143Y-73294285D01*
X183791905Y-73246666D01*
X182982381Y-73246666D01*
X183982381Y-72246666D02*
X183982381Y-72818095D01*
X183982381Y-72532381D02*
X182982381Y-72532381D01*
X183125238Y-72627619D01*
X183220476Y-72722857D01*
X183268095Y-72818095D01*
X182982381Y-71627619D02*
X182982381Y-71532380D01*
X183030000Y-71437142D01*
X183077619Y-71389523D01*
X183172857Y-71341904D01*
X183363333Y-71294285D01*
X183601429Y-71294285D01*
X183791905Y-71341904D01*
X183887143Y-71389523D01*
X183934762Y-71437142D01*
X183982381Y-71532380D01*
X183982381Y-71627619D01*
X183934762Y-71722857D01*
X183887143Y-71770476D01*
X183791905Y-71818095D01*
X183601429Y-71865714D01*
X183363333Y-71865714D01*
X183172857Y-71818095D01*
X183077619Y-71770476D01*
X183030000Y-71722857D01*
X182982381Y-71627619D01*
M02*
