G04 #@! TF.FileFunction,Soldermask,Top*
%FSLAX46Y46*%
G04 Gerber Fmt 4.6, Leading zero omitted, Abs format (unit mm)*
G04 Created by KiCad (PCBNEW 4.0.5) date 06/08/18 20:03:19*
%MOMM*%
%LPD*%
G01*
G04 APERTURE LIST*
%ADD10C,0.100000*%
%ADD11R,1.050000X1.460000*%
%ADD12R,1.300000X1.200000*%
%ADD13R,1.600000X1.150000*%
%ADD14O,2.900000X1.100000*%
%ADD15O,1.100000X2.900000*%
%ADD16R,1.500000X1.500000*%
%ADD17R,2.400000X1.600000*%
%ADD18R,2.600000X1.300000*%
%ADD19R,1.600000X1.600000*%
%ADD20R,3.900000X3.900000*%
%ADD21R,2.000000X2.000000*%
%ADD22C,2.000000*%
%ADD23R,1.250000X0.700000*%
%ADD24R,0.700000X1.250000*%
%ADD25R,2.100000X2.100000*%
%ADD26O,2.100000X2.100000*%
%ADD27R,1.150000X1.600000*%
%ADD28R,1.300000X1.600000*%
%ADD29C,3.000000*%
%ADD30R,0.800000X1.750000*%
%ADD31O,1.650000X1.350000*%
%ADD32O,1.400000X1.950000*%
%ADD33R,1.600000X1.300000*%
%ADD34R,1.950000X1.000000*%
%ADD35C,1.900000*%
%ADD36C,3.400000*%
%ADD37R,1.200000X1.300000*%
%ADD38C,2.900000*%
%ADD39R,1.700000X1.100000*%
%ADD40O,2.200000X1.200000*%
%ADD41R,2.625000X1.450000*%
%ADD42C,0.725000*%
%ADD43R,2.400000X2.400000*%
%ADD44C,2.400000*%
G04 APERTURE END LIST*
D10*
D11*
X134100000Y-124050000D03*
X133150000Y-124050000D03*
X132200000Y-124050000D03*
X132200000Y-126250000D03*
X134100000Y-126250000D03*
X133150000Y-126250000D03*
D12*
X161200000Y-93550000D03*
X161200000Y-95450000D03*
X163200000Y-94500000D03*
D13*
X138115000Y-106807000D03*
X140015000Y-106807000D03*
D10*
G36*
X142596358Y-79252676D02*
X143055977Y-78793057D01*
X144045926Y-79783006D01*
X143586307Y-80242625D01*
X142596358Y-79252676D01*
X142596358Y-79252676D01*
G37*
G36*
X142242804Y-79606229D02*
X142702423Y-79146610D01*
X143692372Y-80136559D01*
X143232753Y-80596178D01*
X142242804Y-79606229D01*
X142242804Y-79606229D01*
G37*
G36*
X141889251Y-79959783D02*
X142348870Y-79500164D01*
X143338819Y-80490113D01*
X142879200Y-80949732D01*
X141889251Y-79959783D01*
X141889251Y-79959783D01*
G37*
G36*
X141535698Y-80313336D02*
X141995317Y-79853717D01*
X142985266Y-80843666D01*
X142525647Y-81303285D01*
X141535698Y-80313336D01*
X141535698Y-80313336D01*
G37*
G36*
X141182144Y-80666889D02*
X141641763Y-80207270D01*
X142631712Y-81197219D01*
X142172093Y-81656838D01*
X141182144Y-80666889D01*
X141182144Y-80666889D01*
G37*
G36*
X140828591Y-81020443D02*
X141288210Y-80560824D01*
X142278159Y-81550773D01*
X141818540Y-82010392D01*
X140828591Y-81020443D01*
X140828591Y-81020443D01*
G37*
G36*
X140475037Y-81373996D02*
X140934656Y-80914377D01*
X141924605Y-81904326D01*
X141464986Y-82363945D01*
X140475037Y-81373996D01*
X140475037Y-81373996D01*
G37*
G36*
X140121484Y-81727550D02*
X140581103Y-81267931D01*
X141571052Y-82257880D01*
X141111433Y-82717499D01*
X140121484Y-81727550D01*
X140121484Y-81727550D01*
G37*
G36*
X139767931Y-82081103D02*
X140227550Y-81621484D01*
X141217499Y-82611433D01*
X140757880Y-83071052D01*
X139767931Y-82081103D01*
X139767931Y-82081103D01*
G37*
G36*
X139414377Y-82434656D02*
X139873996Y-81975037D01*
X140863945Y-82964986D01*
X140404326Y-83424605D01*
X139414377Y-82434656D01*
X139414377Y-82434656D01*
G37*
G36*
X139060824Y-82788210D02*
X139520443Y-82328591D01*
X140510392Y-83318540D01*
X140050773Y-83778159D01*
X139060824Y-82788210D01*
X139060824Y-82788210D01*
G37*
G36*
X138707270Y-83141763D02*
X139166889Y-82682144D01*
X140156838Y-83672093D01*
X139697219Y-84131712D01*
X138707270Y-83141763D01*
X138707270Y-83141763D01*
G37*
G36*
X138353717Y-83495317D02*
X138813336Y-83035698D01*
X139803285Y-84025647D01*
X139343666Y-84485266D01*
X138353717Y-83495317D01*
X138353717Y-83495317D01*
G37*
G36*
X138000164Y-83848870D02*
X138459783Y-83389251D01*
X139449732Y-84379200D01*
X138990113Y-84838819D01*
X138000164Y-83848870D01*
X138000164Y-83848870D01*
G37*
G36*
X137646610Y-84202423D02*
X138106229Y-83742804D01*
X139096178Y-84732753D01*
X138636559Y-85192372D01*
X137646610Y-84202423D01*
X137646610Y-84202423D01*
G37*
G36*
X137293057Y-84555977D02*
X137752676Y-84096358D01*
X138742625Y-85086307D01*
X138283006Y-85545926D01*
X137293057Y-84555977D01*
X137293057Y-84555977D01*
G37*
G36*
X137752676Y-88303642D02*
X137293057Y-87844023D01*
X138283006Y-86854074D01*
X138742625Y-87313693D01*
X137752676Y-88303642D01*
X137752676Y-88303642D01*
G37*
G36*
X138106229Y-88657196D02*
X137646610Y-88197577D01*
X138636559Y-87207628D01*
X139096178Y-87667247D01*
X138106229Y-88657196D01*
X138106229Y-88657196D01*
G37*
G36*
X138459783Y-89010749D02*
X138000164Y-88551130D01*
X138990113Y-87561181D01*
X139449732Y-88020800D01*
X138459783Y-89010749D01*
X138459783Y-89010749D01*
G37*
G36*
X138813336Y-89364302D02*
X138353717Y-88904683D01*
X139343666Y-87914734D01*
X139803285Y-88374353D01*
X138813336Y-89364302D01*
X138813336Y-89364302D01*
G37*
G36*
X139166889Y-89717856D02*
X138707270Y-89258237D01*
X139697219Y-88268288D01*
X140156838Y-88727907D01*
X139166889Y-89717856D01*
X139166889Y-89717856D01*
G37*
G36*
X139520443Y-90071409D02*
X139060824Y-89611790D01*
X140050773Y-88621841D01*
X140510392Y-89081460D01*
X139520443Y-90071409D01*
X139520443Y-90071409D01*
G37*
G36*
X139873996Y-90424963D02*
X139414377Y-89965344D01*
X140404326Y-88975395D01*
X140863945Y-89435014D01*
X139873996Y-90424963D01*
X139873996Y-90424963D01*
G37*
G36*
X140227550Y-90778516D02*
X139767931Y-90318897D01*
X140757880Y-89328948D01*
X141217499Y-89788567D01*
X140227550Y-90778516D01*
X140227550Y-90778516D01*
G37*
G36*
X140581103Y-91132069D02*
X140121484Y-90672450D01*
X141111433Y-89682501D01*
X141571052Y-90142120D01*
X140581103Y-91132069D01*
X140581103Y-91132069D01*
G37*
G36*
X140934656Y-91485623D02*
X140475037Y-91026004D01*
X141464986Y-90036055D01*
X141924605Y-90495674D01*
X140934656Y-91485623D01*
X140934656Y-91485623D01*
G37*
G36*
X141288210Y-91839176D02*
X140828591Y-91379557D01*
X141818540Y-90389608D01*
X142278159Y-90849227D01*
X141288210Y-91839176D01*
X141288210Y-91839176D01*
G37*
G36*
X141641763Y-92192730D02*
X141182144Y-91733111D01*
X142172093Y-90743162D01*
X142631712Y-91202781D01*
X141641763Y-92192730D01*
X141641763Y-92192730D01*
G37*
G36*
X141995317Y-92546283D02*
X141535698Y-92086664D01*
X142525647Y-91096715D01*
X142985266Y-91556334D01*
X141995317Y-92546283D01*
X141995317Y-92546283D01*
G37*
G36*
X142348870Y-92899836D02*
X141889251Y-92440217D01*
X142879200Y-91450268D01*
X143338819Y-91909887D01*
X142348870Y-92899836D01*
X142348870Y-92899836D01*
G37*
G36*
X142702423Y-93253390D02*
X142242804Y-92793771D01*
X143232753Y-91803822D01*
X143692372Y-92263441D01*
X142702423Y-93253390D01*
X142702423Y-93253390D01*
G37*
G36*
X143055977Y-93606943D02*
X142596358Y-93147324D01*
X143586307Y-92157375D01*
X144045926Y-92616994D01*
X143055977Y-93606943D01*
X143055977Y-93606943D01*
G37*
G36*
X145354074Y-92616994D02*
X145813693Y-92157375D01*
X146803642Y-93147324D01*
X146344023Y-93606943D01*
X145354074Y-92616994D01*
X145354074Y-92616994D01*
G37*
G36*
X145707628Y-92263441D02*
X146167247Y-91803822D01*
X147157196Y-92793771D01*
X146697577Y-93253390D01*
X145707628Y-92263441D01*
X145707628Y-92263441D01*
G37*
G36*
X146061181Y-91909887D02*
X146520800Y-91450268D01*
X147510749Y-92440217D01*
X147051130Y-92899836D01*
X146061181Y-91909887D01*
X146061181Y-91909887D01*
G37*
G36*
X146414734Y-91556334D02*
X146874353Y-91096715D01*
X147864302Y-92086664D01*
X147404683Y-92546283D01*
X146414734Y-91556334D01*
X146414734Y-91556334D01*
G37*
G36*
X146768288Y-91202781D02*
X147227907Y-90743162D01*
X148217856Y-91733111D01*
X147758237Y-92192730D01*
X146768288Y-91202781D01*
X146768288Y-91202781D01*
G37*
G36*
X147121841Y-90849227D02*
X147581460Y-90389608D01*
X148571409Y-91379557D01*
X148111790Y-91839176D01*
X147121841Y-90849227D01*
X147121841Y-90849227D01*
G37*
G36*
X147475395Y-90495674D02*
X147935014Y-90036055D01*
X148924963Y-91026004D01*
X148465344Y-91485623D01*
X147475395Y-90495674D01*
X147475395Y-90495674D01*
G37*
G36*
X147828948Y-90142120D02*
X148288567Y-89682501D01*
X149278516Y-90672450D01*
X148818897Y-91132069D01*
X147828948Y-90142120D01*
X147828948Y-90142120D01*
G37*
G36*
X148182501Y-89788567D02*
X148642120Y-89328948D01*
X149632069Y-90318897D01*
X149172450Y-90778516D01*
X148182501Y-89788567D01*
X148182501Y-89788567D01*
G37*
G36*
X148536055Y-89435014D02*
X148995674Y-88975395D01*
X149985623Y-89965344D01*
X149526004Y-90424963D01*
X148536055Y-89435014D01*
X148536055Y-89435014D01*
G37*
G36*
X148889608Y-89081460D02*
X149349227Y-88621841D01*
X150339176Y-89611790D01*
X149879557Y-90071409D01*
X148889608Y-89081460D01*
X148889608Y-89081460D01*
G37*
G36*
X149243162Y-88727907D02*
X149702781Y-88268288D01*
X150692730Y-89258237D01*
X150233111Y-89717856D01*
X149243162Y-88727907D01*
X149243162Y-88727907D01*
G37*
G36*
X149596715Y-88374353D02*
X150056334Y-87914734D01*
X151046283Y-88904683D01*
X150586664Y-89364302D01*
X149596715Y-88374353D01*
X149596715Y-88374353D01*
G37*
G36*
X149950268Y-88020800D02*
X150409887Y-87561181D01*
X151399836Y-88551130D01*
X150940217Y-89010749D01*
X149950268Y-88020800D01*
X149950268Y-88020800D01*
G37*
G36*
X150303822Y-87667247D02*
X150763441Y-87207628D01*
X151753390Y-88197577D01*
X151293771Y-88657196D01*
X150303822Y-87667247D01*
X150303822Y-87667247D01*
G37*
G36*
X150657375Y-87313693D02*
X151116994Y-86854074D01*
X152106943Y-87844023D01*
X151647324Y-88303642D01*
X150657375Y-87313693D01*
X150657375Y-87313693D01*
G37*
G36*
X151116994Y-85545926D02*
X150657375Y-85086307D01*
X151647324Y-84096358D01*
X152106943Y-84555977D01*
X151116994Y-85545926D01*
X151116994Y-85545926D01*
G37*
G36*
X150763441Y-85192372D02*
X150303822Y-84732753D01*
X151293771Y-83742804D01*
X151753390Y-84202423D01*
X150763441Y-85192372D01*
X150763441Y-85192372D01*
G37*
G36*
X150409887Y-84838819D02*
X149950268Y-84379200D01*
X150940217Y-83389251D01*
X151399836Y-83848870D01*
X150409887Y-84838819D01*
X150409887Y-84838819D01*
G37*
G36*
X150056334Y-84485266D02*
X149596715Y-84025647D01*
X150586664Y-83035698D01*
X151046283Y-83495317D01*
X150056334Y-84485266D01*
X150056334Y-84485266D01*
G37*
G36*
X149702781Y-84131712D02*
X149243162Y-83672093D01*
X150233111Y-82682144D01*
X150692730Y-83141763D01*
X149702781Y-84131712D01*
X149702781Y-84131712D01*
G37*
G36*
X149349227Y-83778159D02*
X148889608Y-83318540D01*
X149879557Y-82328591D01*
X150339176Y-82788210D01*
X149349227Y-83778159D01*
X149349227Y-83778159D01*
G37*
G36*
X148995674Y-83424605D02*
X148536055Y-82964986D01*
X149526004Y-81975037D01*
X149985623Y-82434656D01*
X148995674Y-83424605D01*
X148995674Y-83424605D01*
G37*
G36*
X148642120Y-83071052D02*
X148182501Y-82611433D01*
X149172450Y-81621484D01*
X149632069Y-82081103D01*
X148642120Y-83071052D01*
X148642120Y-83071052D01*
G37*
G36*
X148288567Y-82717499D02*
X147828948Y-82257880D01*
X148818897Y-81267931D01*
X149278516Y-81727550D01*
X148288567Y-82717499D01*
X148288567Y-82717499D01*
G37*
G36*
X147935014Y-82363945D02*
X147475395Y-81904326D01*
X148465344Y-80914377D01*
X148924963Y-81373996D01*
X147935014Y-82363945D01*
X147935014Y-82363945D01*
G37*
G36*
X147581460Y-82010392D02*
X147121841Y-81550773D01*
X148111790Y-80560824D01*
X148571409Y-81020443D01*
X147581460Y-82010392D01*
X147581460Y-82010392D01*
G37*
G36*
X147227907Y-81656838D02*
X146768288Y-81197219D01*
X147758237Y-80207270D01*
X148217856Y-80666889D01*
X147227907Y-81656838D01*
X147227907Y-81656838D01*
G37*
G36*
X146874353Y-81303285D02*
X146414734Y-80843666D01*
X147404683Y-79853717D01*
X147864302Y-80313336D01*
X146874353Y-81303285D01*
X146874353Y-81303285D01*
G37*
G36*
X146520800Y-80949732D02*
X146061181Y-80490113D01*
X147051130Y-79500164D01*
X147510749Y-79959783D01*
X146520800Y-80949732D01*
X146520800Y-80949732D01*
G37*
G36*
X146167247Y-80596178D02*
X145707628Y-80136559D01*
X146697577Y-79146610D01*
X147157196Y-79606229D01*
X146167247Y-80596178D01*
X146167247Y-80596178D01*
G37*
G36*
X145813693Y-80242625D02*
X145354074Y-79783006D01*
X146344023Y-78793057D01*
X146803642Y-79252676D01*
X145813693Y-80242625D01*
X145813693Y-80242625D01*
G37*
D14*
X155600000Y-102000000D03*
X155600000Y-103000000D03*
X155600000Y-104000000D03*
X155600000Y-105000000D03*
X155600000Y-106000000D03*
X155600000Y-107000000D03*
X155600000Y-108000000D03*
X155600000Y-109000000D03*
X155600000Y-110000000D03*
X155600000Y-111000000D03*
X155600000Y-112000000D03*
X155600000Y-113000000D03*
X155600000Y-114000000D03*
X155600000Y-115000000D03*
X155600000Y-116000000D03*
D15*
X158100000Y-118350000D03*
X159100000Y-118350000D03*
X160100000Y-118350000D03*
X161100000Y-118350000D03*
X162100000Y-118350000D03*
X163100000Y-118350000D03*
X164100000Y-118350000D03*
X165100000Y-118350000D03*
X166100000Y-118350000D03*
X167100000Y-118350000D03*
X168100000Y-118350000D03*
X169100000Y-118350000D03*
D14*
X171600000Y-116000000D03*
X171600000Y-115000000D03*
X171600000Y-114000000D03*
X171600000Y-113000000D03*
X171600000Y-112000000D03*
X171600000Y-111000000D03*
X171600000Y-110000000D03*
X171600000Y-109000000D03*
X171600000Y-108000000D03*
X171600000Y-107000000D03*
X171600000Y-106000000D03*
X171600000Y-105000000D03*
X171600000Y-104000000D03*
X171600000Y-103000000D03*
X171600000Y-102000000D03*
D15*
X169100000Y-99650000D03*
X168100000Y-99650000D03*
X167100000Y-99650000D03*
X166100000Y-99650000D03*
X165100000Y-99650000D03*
X164100000Y-99650000D03*
X163100000Y-99650000D03*
X162100000Y-99650000D03*
X161100000Y-99640000D03*
X160100000Y-99650000D03*
X159100000Y-99650000D03*
X158100000Y-99650000D03*
D16*
X163600000Y-104500000D03*
X161800000Y-104500000D03*
X165400000Y-104500000D03*
X159950000Y-108060000D03*
X159950000Y-106260000D03*
X159950000Y-109860000D03*
X159950000Y-111660000D03*
X163600000Y-113500000D03*
X167250000Y-106260000D03*
X167250000Y-108060000D03*
X167250000Y-109860000D03*
X167250000Y-111660000D03*
X165400000Y-113500000D03*
X161800000Y-113500000D03*
D17*
X117900000Y-121700000D03*
X117900000Y-124240000D03*
X117900000Y-126780000D03*
X127900000Y-126780000D03*
X127900000Y-124240000D03*
X127900000Y-121700000D03*
D18*
X120400000Y-119510000D03*
X125400000Y-119510000D03*
X120400000Y-132010000D03*
X125400000Y-132010000D03*
D19*
X151530000Y-143610000D03*
X149330000Y-143610000D03*
X174244000Y-129370000D03*
X174244000Y-127170000D03*
X156718000Y-95715000D03*
X156718000Y-93515000D03*
D20*
X181356000Y-127381000D03*
X187356000Y-127381000D03*
X184356000Y-122681000D03*
D19*
X152928500Y-93662500D03*
X150728500Y-93662500D03*
X153960000Y-97260000D03*
X151760000Y-97260000D03*
X152928500Y-95504000D03*
X150728500Y-95504000D03*
X170688000Y-127170000D03*
X170688000Y-129370000D03*
D12*
X147500000Y-105050000D03*
X147500000Y-106950000D03*
X149500000Y-106000000D03*
D21*
X144151000Y-147872000D03*
D22*
X144151000Y-145372000D03*
D21*
X161036000Y-136144000D03*
D22*
X161036000Y-138644000D03*
D23*
X146570800Y-64928000D03*
X146570800Y-65428000D03*
X146570800Y-65928000D03*
X146570800Y-66428000D03*
X146570800Y-66928000D03*
X146570800Y-67428000D03*
D24*
X147270800Y-68128000D03*
X147770800Y-68128000D03*
X148270800Y-68128000D03*
X148770800Y-68128000D03*
X149270800Y-68128000D03*
X149770800Y-68128000D03*
D23*
X150470800Y-67428000D03*
X150470800Y-66928000D03*
X150470800Y-66428000D03*
X150470800Y-65928000D03*
X150470800Y-65428000D03*
X150470800Y-64928000D03*
D24*
X149770800Y-64228000D03*
X149270800Y-64228000D03*
X148770800Y-64228000D03*
X148270800Y-64228000D03*
X147770800Y-64228000D03*
X147270800Y-64228000D03*
D21*
X179070000Y-118618000D03*
D22*
X179070000Y-116118000D03*
D25*
X159519000Y-64654000D03*
D26*
X162059000Y-64654000D03*
X164599000Y-64654000D03*
X167139000Y-64654000D03*
D25*
X191250000Y-84500000D03*
D26*
X191250000Y-87040000D03*
D25*
X177680000Y-64654000D03*
D26*
X175140000Y-64654000D03*
X172600000Y-64654000D03*
D27*
X144650000Y-70420000D03*
X144650000Y-72320000D03*
X146320000Y-70430000D03*
X146320000Y-72330000D03*
D13*
X156700000Y-87550000D03*
X158600000Y-87550000D03*
X145440000Y-75410000D03*
X147340000Y-75410000D03*
X153050000Y-65800000D03*
X154950000Y-65800000D03*
X155135000Y-67295600D03*
X153235000Y-67295600D03*
X142708000Y-67156000D03*
X140808000Y-67156000D03*
X155008000Y-64146000D03*
X153108000Y-64146000D03*
X165330400Y-82797600D03*
X167230400Y-82797600D03*
X137175000Y-129400000D03*
X139075000Y-129400000D03*
X137125000Y-126400000D03*
X139025000Y-126400000D03*
D21*
X183642000Y-136906000D03*
D22*
X186142000Y-136906000D03*
D13*
X137125000Y-123400000D03*
X139025000Y-123400000D03*
D21*
X165354000Y-137414000D03*
D22*
X167854000Y-137414000D03*
D13*
X137225000Y-120225000D03*
X139125000Y-120225000D03*
X182890000Y-85970000D03*
X184790000Y-85970000D03*
X139150000Y-118400000D03*
X137250000Y-118400000D03*
D27*
X171323000Y-123002000D03*
X171323000Y-124902000D03*
D13*
X171250000Y-81300000D03*
X169350000Y-81300000D03*
X142750000Y-68800000D03*
X140850000Y-68800000D03*
D28*
X172721000Y-146304000D03*
X176021000Y-146304000D03*
D25*
X165300000Y-130500000D03*
D26*
X162760000Y-130500000D03*
X160220000Y-130500000D03*
D29*
X164719000Y-146050000D03*
X167719000Y-146050000D03*
D30*
X188879000Y-66628000D03*
X188229000Y-66628000D03*
X187579000Y-66628000D03*
X186929000Y-66628000D03*
X186279000Y-66628000D03*
D31*
X190079000Y-66628000D03*
X185079000Y-66628000D03*
D32*
X191079000Y-63928000D03*
X184079000Y-63928000D03*
D33*
X140600000Y-63900000D03*
X142800000Y-63900000D03*
X140658000Y-65632000D03*
X142858000Y-65632000D03*
X139325000Y-121950000D03*
X137125000Y-121950000D03*
X139325000Y-124900000D03*
X137125000Y-124900000D03*
X139325000Y-127900000D03*
X137125000Y-127900000D03*
D28*
X158810000Y-93390000D03*
X158810000Y-95590000D03*
X168021000Y-95842000D03*
X168021000Y-93642000D03*
X167200000Y-125000000D03*
X167200000Y-122800000D03*
X169600000Y-122800000D03*
X169600000Y-125000000D03*
D33*
X152620000Y-129840000D03*
X150420000Y-129840000D03*
X152630000Y-131390000D03*
X150430000Y-131390000D03*
D28*
X151240000Y-147920000D03*
X151240000Y-145720000D03*
X165850000Y-125000000D03*
X165850000Y-122800000D03*
D33*
X174922000Y-106997500D03*
X177122000Y-106997500D03*
D28*
X172466000Y-127170000D03*
X172466000Y-129370000D03*
X168910000Y-127170000D03*
X168910000Y-129370000D03*
X177800000Y-87000000D03*
X177800000Y-84800000D03*
D33*
X152484000Y-139446000D03*
X150284000Y-139446000D03*
X180424000Y-108712000D03*
X178224000Y-108712000D03*
D28*
X147500000Y-100500000D03*
X147500000Y-102700000D03*
X165735000Y-95842000D03*
X165735000Y-93642000D03*
D34*
X169900000Y-84195000D03*
X169900000Y-85465000D03*
X169900000Y-86735000D03*
X169900000Y-88005000D03*
X175300000Y-88005000D03*
X175300000Y-86735000D03*
X175300000Y-85465000D03*
X175300000Y-84195000D03*
D35*
X135636000Y-77533500D03*
X139436000Y-77533500D03*
D13*
X142682000Y-72517000D03*
X140782000Y-72517000D03*
X167179600Y-81273600D03*
X165279600Y-81273600D03*
D19*
X139360000Y-110200000D03*
X137160000Y-110200000D03*
D35*
X125460000Y-139280000D03*
X122920000Y-139280000D03*
X120890000Y-139280000D03*
X118350000Y-139280000D03*
D36*
X128510000Y-141950000D03*
X114790000Y-141950000D03*
D25*
X112776000Y-77978000D03*
D26*
X112776000Y-80518000D03*
X112776000Y-83058000D03*
X112776000Y-85598000D03*
X112776000Y-88138000D03*
D25*
X188430000Y-98150000D03*
D26*
X190970000Y-98150000D03*
D25*
X112750000Y-92750000D03*
D12*
X137540000Y-113860000D03*
X137540000Y-115760000D03*
X139540000Y-114810000D03*
D37*
X135750000Y-71100000D03*
X137650000Y-71100000D03*
X136700000Y-69100000D03*
D12*
X122900000Y-96350000D03*
X122900000Y-94450000D03*
X120900000Y-95400000D03*
D37*
X130750000Y-71100000D03*
X132650000Y-71100000D03*
X131700000Y-69100000D03*
X125950000Y-71100000D03*
X127850000Y-71100000D03*
X126900000Y-69100000D03*
X121350000Y-71100000D03*
X123250000Y-71100000D03*
X122300000Y-69100000D03*
D12*
X183000000Y-92850000D03*
X183000000Y-94750000D03*
X185000000Y-93800000D03*
D33*
X139380000Y-111960000D03*
X137180000Y-111960000D03*
X135620000Y-113890000D03*
X133420000Y-113890000D03*
X137800000Y-74600000D03*
X135600000Y-74600000D03*
X128354000Y-96012000D03*
X126154000Y-96012000D03*
X132700000Y-74600000D03*
X130500000Y-74600000D03*
X128000000Y-74600000D03*
X125800000Y-74600000D03*
X124900000Y-78800000D03*
X127100000Y-78800000D03*
X131900000Y-78800000D03*
X129700000Y-78800000D03*
X125000000Y-81600000D03*
X127200000Y-81600000D03*
X131900000Y-81600000D03*
X129700000Y-81600000D03*
X123400000Y-74600000D03*
X121200000Y-74600000D03*
X125000000Y-84400000D03*
X127200000Y-84400000D03*
X131900000Y-84400000D03*
X129700000Y-84400000D03*
X125000000Y-87200000D03*
X127200000Y-87200000D03*
X131700000Y-87200000D03*
X129500000Y-87200000D03*
X125138000Y-89027000D03*
X127338000Y-89027000D03*
X131710000Y-88730000D03*
X129510000Y-88730000D03*
X183240500Y-96837500D03*
X185440500Y-96837500D03*
X124884000Y-93472000D03*
X127084000Y-93472000D03*
X129659200Y-93472000D03*
X131859200Y-93472000D03*
D28*
X180600000Y-85900000D03*
X180600000Y-88100000D03*
D25*
X186300000Y-142500000D03*
D26*
X188840000Y-142500000D03*
X186300000Y-145040000D03*
X188840000Y-145040000D03*
X186300000Y-147580000D03*
X188840000Y-147580000D03*
D37*
X116350000Y-71100000D03*
X118250000Y-71100000D03*
X117300000Y-69100000D03*
D33*
X135650000Y-115580000D03*
X133450000Y-115580000D03*
X136101000Y-107061000D03*
X133901000Y-107061000D03*
D28*
X113770000Y-113890000D03*
X113770000Y-116090000D03*
D33*
X118700000Y-74600000D03*
X116500000Y-74600000D03*
D38*
X176236000Y-93305000D03*
X171196000Y-95805000D03*
X171196000Y-90805000D03*
D39*
X139001500Y-105407500D03*
X139001500Y-103507500D03*
D40*
X129128000Y-116356000D03*
X129128000Y-115256000D03*
X129128000Y-114156000D03*
X129128000Y-113056000D03*
X129128000Y-111956000D03*
X129128000Y-110856000D03*
X129128000Y-109756000D03*
X129128000Y-106756000D03*
X129128000Y-105656000D03*
X129128000Y-104556000D03*
X129128000Y-103456000D03*
X129128000Y-102356000D03*
X116878000Y-102356000D03*
X116878000Y-103456000D03*
X116878000Y-104556000D03*
X116878000Y-105656000D03*
X116878000Y-106756000D03*
X116878000Y-109756000D03*
X116878000Y-110856000D03*
X116878000Y-111956000D03*
X116878000Y-113056000D03*
X116878000Y-114156000D03*
X116878000Y-115356000D03*
X116878000Y-116356000D03*
D41*
X135128000Y-104956000D03*
X135128000Y-101981000D03*
X133528000Y-103468500D03*
X182245000Y-104511500D03*
X182245000Y-101536500D03*
X180645000Y-103024000D03*
X188341000Y-113465000D03*
X188341000Y-110490000D03*
X186741000Y-111977500D03*
X148336000Y-114436500D03*
X148336000Y-117411500D03*
X149936000Y-115924000D03*
D25*
X132207000Y-64389000D03*
D26*
X129667000Y-64389000D03*
X127127000Y-64389000D03*
X124587000Y-64389000D03*
X122047000Y-64389000D03*
D42*
X179650000Y-71605000D03*
X179650000Y-72105000D03*
X179650000Y-72605000D03*
X179650000Y-73105000D03*
X179650000Y-73605000D03*
X179650000Y-74105000D03*
X179150000Y-72605000D03*
X179650000Y-75605000D03*
X179650000Y-76105000D03*
X179650000Y-76605000D03*
X179650000Y-77105000D03*
X179150000Y-70605000D03*
X179150000Y-71105000D03*
X179150000Y-71605000D03*
X179150000Y-72105000D03*
X179650000Y-74605000D03*
X179150000Y-73105000D03*
X179150000Y-73605000D03*
X179150000Y-74105000D03*
X179150000Y-74605000D03*
X179150000Y-75105000D03*
X179150000Y-75605000D03*
X179150000Y-76105000D03*
X179150000Y-76605000D03*
X179150000Y-77105000D03*
X178650000Y-77105000D03*
X178650000Y-76605000D03*
X178650000Y-76105000D03*
X178650000Y-75605000D03*
X178650000Y-75105000D03*
X178650000Y-74605000D03*
X178650000Y-74105000D03*
X178650000Y-73605000D03*
X178650000Y-73105000D03*
X178650000Y-72605000D03*
X178650000Y-72105000D03*
X178650000Y-71605000D03*
X178650000Y-71105000D03*
X178650000Y-70605000D03*
X178150000Y-70605000D03*
X178150000Y-71105000D03*
X178150000Y-71605000D03*
X178150000Y-72105000D03*
X179650000Y-71105000D03*
X176650000Y-71605000D03*
X174150000Y-72105000D03*
X174150000Y-72605000D03*
X174150000Y-73105000D03*
X173650000Y-72605000D03*
X173650000Y-72105000D03*
X173650000Y-71105000D03*
X173150000Y-71605000D03*
X173150000Y-72105000D03*
X173150000Y-72605000D03*
X173150000Y-73105000D03*
X173150000Y-73605000D03*
X173150000Y-75105000D03*
X177650000Y-72605000D03*
X177150000Y-72605000D03*
X176650000Y-72605000D03*
X176150000Y-72605000D03*
X175650000Y-72605000D03*
X175150000Y-72605000D03*
X175150000Y-73105000D03*
X175150000Y-73605000D03*
X175150000Y-74605000D03*
X175150000Y-75105000D03*
X175150000Y-74105000D03*
X175650000Y-75105000D03*
X176150000Y-75105000D03*
X176650000Y-75105000D03*
X177150000Y-75105000D03*
X177650000Y-75105000D03*
X177650000Y-74605000D03*
X177650000Y-74105000D03*
X177650000Y-73605000D03*
X177650000Y-73105000D03*
X179650000Y-75105000D03*
X177650000Y-70605000D03*
X177650000Y-71105000D03*
X177650000Y-71605000D03*
X177150000Y-70605000D03*
X177150000Y-71105000D03*
X177150000Y-71605000D03*
X176650000Y-70605000D03*
X176650000Y-71105000D03*
X176150000Y-70605000D03*
X176150000Y-71105000D03*
X176150000Y-71605000D03*
X175650000Y-70605000D03*
X175650000Y-71105000D03*
X175650000Y-71605000D03*
X175150000Y-70605000D03*
X175150000Y-71105000D03*
X175150000Y-71605000D03*
X174650000Y-70605000D03*
X174650000Y-71105000D03*
X174650000Y-71605000D03*
X174150000Y-70605000D03*
X174150000Y-71105000D03*
X174150000Y-71605000D03*
X173650000Y-70605000D03*
X173650000Y-71605000D03*
X173150000Y-70605000D03*
X173650000Y-73105000D03*
X173650000Y-73605000D03*
X174150000Y-73605000D03*
X174150000Y-74105000D03*
X173650000Y-74105000D03*
X173150000Y-74105000D03*
X173150000Y-74605000D03*
X173650000Y-74605000D03*
X174150000Y-74605000D03*
X174150000Y-75105000D03*
X173650000Y-75105000D03*
X173150000Y-75605000D03*
X173650000Y-75605000D03*
X174150000Y-75605000D03*
X174150000Y-76105000D03*
X173650000Y-76105000D03*
X173150000Y-76105000D03*
X173150000Y-76605000D03*
X173650000Y-76605000D03*
X174150000Y-76605000D03*
X174150000Y-77105000D03*
X173150000Y-77105000D03*
X173650000Y-77105000D03*
X174650000Y-77105000D03*
X175150000Y-77105000D03*
X175650000Y-77105000D03*
X176150000Y-77105000D03*
X176650000Y-77105000D03*
X177150000Y-77105000D03*
X177650000Y-77105000D03*
X178150000Y-77105000D03*
X178150000Y-76605000D03*
X177650000Y-76605000D03*
X177150000Y-76605000D03*
X176650000Y-76605000D03*
X176150000Y-76605000D03*
X175650000Y-76605000D03*
X175150000Y-76605000D03*
X174650000Y-76605000D03*
X174650000Y-76105000D03*
X175150000Y-76105000D03*
X175650000Y-76105000D03*
X176150000Y-76105000D03*
X176650000Y-76105000D03*
X177150000Y-76105000D03*
X177650000Y-76105000D03*
X178150000Y-76105000D03*
X179650000Y-70605000D03*
D21*
X188940000Y-94160000D03*
D22*
X188940000Y-91660000D03*
D33*
X130600000Y-100000000D03*
X128400000Y-100000000D03*
X130600000Y-98250000D03*
X128400000Y-98250000D03*
D43*
X141200000Y-140470000D03*
D44*
X141200000Y-132870000D03*
D28*
X175387000Y-115105000D03*
X175387000Y-117305000D03*
M02*
