M48
;DRILL file {KiCad 4.0.5} date 06/13/18 16:43:03
;FORMAT={-:-/ absolute / metric / decimal}
FMAT,2
METRIC,TZ
T1C0.200
T2C0.300
T3C0.500
T4C0.550
T5C0.800
T6C1.000
T7C1.200
T8C1.300
T9C2.300
%
G90
G05
M71
T1
X116.408Y-125.844
X116.408Y-127.876
X117.17Y-125.59
X117.424Y-127.876
X118.186Y-125.59
X118.186Y-128.13
X118.948Y-128.638
X119.202Y-125.59
X119.456Y-126.352
X119.456Y-127.114
X119.964Y-128.638
X120.726Y-127.114
X120.98Y-128.638
X121.996Y-127.114
X121.996Y-128.638
X122.174Y-77.089
X122.555Y-91.313
X122.758Y-128.638
X123.012Y-127.114
X123.108Y-77.209
X123.4Y-91.3
X123.774Y-128.638
X123.952Y-77.47
X124.028Y-127.114
X124.079Y-91.186
X124.714Y-90.678
X124.79Y-128.638
X124.841Y-76.581
X125.044Y-127.114
X125.095Y-90.17
X125.222Y-77.216
X125.806Y-128.638
X126.06Y-127.114
X126.314Y-126.352
X126.822Y-128.638
X127.076Y-125.59
X127.838Y-128.638
X128.092Y-125.59
X128.27Y-90.043
X128.397Y-96.012
X128.575Y-127.125
X128.854Y-128.638
X128.892Y-79.604
X129.362Y-125.844
X129.5Y-87.2
X129.54Y-84.328
X129.667Y-101.473
X129.794Y-81.534
X129.87Y-126.479
X129.87Y-128.638
X130.302Y-100.965
X130.429Y-105.283
X130.505Y-125.844
X130.886Y-128.638
X131.064Y-100.965
X131.318Y-105.791
X131.318Y-127.165
X131.775Y-128.5
X131.826Y-100.965
X132.207Y-105.791
X132.475Y-128.55
X132.588Y-100.965
X132.969Y-105.791
X133.025Y-129.025
X133.15Y-124.05
X133.452Y-122.936
X133.477Y-100.965
X133.575Y-129.6
X133.825Y-127.4
X133.858Y-105.791
X134.264Y-122.885
X134.366Y-100.965
X134.375Y-130.075
X134.4Y-127.95
X134.45Y-128.575
X134.518Y-121.869
X134.54Y-81.16
X134.625Y-125.3
X134.8Y-124.6
X134.975Y-127.05
X135.Y-124.05
X135.07Y-88.41
X135.077Y-128.638
X135.128Y-100.965
X135.2Y-130.075
X135.23Y-121.158
X135.28Y-122.682
X135.3Y-125.75
X135.382Y-93.37
X135.6Y-124.025
X135.992Y-122.072
X135.992Y-125.628
X136.017Y-100.965
X136.042Y-121.158
X136.075Y-127.1
X136.125Y-128.775
X136.15Y-130.125
X136.3Y-88.3
X136.3Y-124.1
X136.347Y-83.718
X136.398Y-89.408
X136.906Y-100.965
X137.363Y-88.24
X137.795Y-100.965
X138.12Y-114.92
X138.684Y-100.965
X138.768Y-111.34
X139.129Y-91.923
X139.446Y-108.458
X139.649Y-94.386
X139.687Y-90.856
X139.86Y-107.7
X140.144Y-87.185
X140.208Y-93.878
X140.725Y-122.5
X140.767Y-80.378
X140.78Y-83.84
X140.919Y-96.164
X140.97Y-93.853
X141.097Y-97.917
X141.25Y-124.65
X141.478Y-96.812
X141.5Y-127.2
X142.425Y-122.425
X142.494Y-93.193
X142.558Y-83.502
X142.748Y-82.296
X143.55Y-124.65
X143.6Y-127.075
X143.875Y-122.475
X143.89Y-132.6
X144.6Y-65.1
X144.628Y-94.742
X144.65Y-72.32
X145.288Y-64.77
X145.475Y-122.5
X145.542Y-65.786
X145.65Y-81.9
X145.669Y-98.552
X145.71Y-95.55
X145.85Y-124.65
X145.85Y-127.075
X146.55Y-83.5
X147.066Y-98.044
X147.15Y-122.525
X147.5Y-69.4
X147.975Y-124.675
X148.209Y-78.74
X148.209Y-92.837
X148.25Y-127.025
X148.26Y-98.11
X148.336Y-66.04
X148.488Y-92.304
X148.7Y-80.3
X148.78Y-78.232
X148.844Y-69.723
X149.098Y-91.643
X149.1Y-69.1
X149.161Y-95.25
X149.2Y-99.314
X149.35Y-122.475
X149.479Y-96.203
X149.606Y-90.805
X149.606Y-113.538
X149.708Y-94.361
X149.86Y-118.364
X150.241Y-80.937
X150.275Y-124.675
X150.368Y-113.538
X150.45Y-91.11
X150.45Y-127.
X150.52Y-80.264
X150.749Y-85.725
X150.749Y-118.364
X150.762Y-76.187
X150.79Y-104.93
X151.257Y-113.538
X151.475Y-122.475
X151.511Y-118.364
X151.75Y-71.38
X151.765Y-72.136
X151.892Y-68.453
X151.9Y-108.175
X152.146Y-113.538
X152.273Y-118.364
X152.4Y-81.153
X152.81Y-91.62
X152.85Y-124.65
X152.9Y-127.
X153.035Y-80.645
X153.035Y-83.185
X153.035Y-113.538
X153.035Y-118.364
X153.162Y-81.788
X153.3Y-69.1
X153.45Y-87.35
X153.65Y-122.475
X153.797Y-113.538
X153.797Y-118.364
X153.8Y-144.775
X154.051Y-95.758
X154.051Y-97.346
X154.114Y-93.916
X154.559Y-118.364
X155.125Y-124.65
X155.32Y-91.11
X155.321Y-82.423
X155.321Y-118.364
X155.4Y-97.2
X155.4Y-126.95
X156.083Y-118.364
X156.18Y-80.48
X156.7Y-122.45
X156.718Y-67.31
X157.45Y-124.575
X157.734Y-108.407
X157.95Y-126.575
X157.988Y-107.442
X159.175Y-122.4
X159.36Y-121.05
X159.519Y-64.654
X160.65Y-126.475
X160.7Y-124.5
X160.858Y-102.006
X160.934Y-71.526
X161.061Y-75.438
X161.138Y-101.244
X161.33Y-85.94
X161.696Y-101.956
X161.925Y-122.05
X162.001Y-71.12
X162.103Y-101.397
X162.15Y-119.65
X162.382Y-102.032
X162.4Y-78.36
X162.56Y-97.282
X163.05Y-116.4
X163.225Y-126.45
X163.55Y-97.35
X164.Y-123.95
X164.338Y-97.282
X165.05Y-123.9
X165.24Y-88.37
X165.3Y-74.25
X165.608Y-80.01
X166.8Y-123.975
X167.386Y-75.311
X167.386Y-82.804
X167.386Y-84.836
X167.405Y-90.535
X167.64Y-69.977
X168.275Y-123.952
X168.275Y-126.111
X168.783Y-75.438
X168.974Y-102.933
X169.037Y-105.029
X169.545Y-105.41
X170.05Y-82.804
X170.375Y-131.15
X172.33Y-71.64
X173.228Y-80.01
X173.25Y-66.95
X173.482Y-100.584
X173.736Y-105.41
X174.244Y-100.584
X174.498Y-105.41
X174.625Y-72.784
X174.65Y-74.25
X174.752Y-114.046
X174.95Y-72.1
X175.006Y-100.584
X175.225Y-130.85
X175.26Y-105.41
X175.5Y-82.56
X175.768Y-100.584
X175.768Y-118.491
X175.895Y-114.046
X175.9Y-74.45
X176.022Y-105.41
X176.2Y-109.791
X176.53Y-100.584
X176.594Y-73.101
X176.784Y-105.41
X177.038Y-114.3
X177.122Y-106.997
X177.203Y-69.748
X177.292Y-100.584
X177.394Y-72.136
X177.419Y-67.691
X177.43Y-82.7
X177.546Y-105.41
X177.648Y-109.855
X177.8Y-114.3
X178.054Y-100.584
X178.079Y-72.149
X178.156Y-73.406
X178.308Y-105.41
X178.562Y-114.3
X178.816Y-100.584
X178.943Y-146.812
X179.07Y-105.41
X179.451Y-114.3
X179.578Y-100.584
X179.578Y-109.22
X179.832Y-105.41
X179.832Y-109.855
X180.213Y-65.913
X180.226Y-73.101
X180.34Y-100.584
X180.34Y-114.3
X180.594Y-105.41
X180.848Y-109.601
X180.975Y-100.584
X181.229Y-114.3
X181.356Y-105.41
X181.45Y-87.35
X181.737Y-100.584
X181.737Y-109.601
X181.75Y-91.62
X182.118Y-105.41
X182.118Y-114.3
X182.499Y-100.584
X182.626Y-109.601
X182.88Y-105.41
X182.88Y-114.3
X183.261Y-100.584
X183.335Y-83.8
X183.515Y-109.601
X183.642Y-105.41
X183.642Y-114.3
X184.023Y-100.584
X184.404Y-105.41
X184.404Y-109.601
X184.404Y-114.3
X184.72Y-83.92
X184.785Y-100.584
X185.166Y-105.41
X185.166Y-114.3
X185.293Y-109.601
X185.547Y-100.584
X185.928Y-105.41
X185.928Y-114.3
X186.182Y-63.5
X186.182Y-109.601
X186.309Y-100.584
X186.69Y-105.41
X186.69Y-114.3
X187.071Y-100.584
X187.071Y-109.601
X187.452Y-105.41
X187.452Y-114.3
X187.554Y-65.786
X187.833Y-100.584
X187.96Y-109.601
X188.214Y-105.41
X188.214Y-114.3
X188.51Y-63.32
X188.76Y-64.414
X188.849Y-109.601
X188.849Y-114.3
T2
X150.495Y-137.541
X152.05Y-137.02
X152.1Y-135.625
X155.6Y-135.8
X155.804Y-138.074
X155.81Y-129.44
X157.2Y-135.625
X157.429Y-102.933
X167.259Y-77.724
X172.466Y-126.365
X173.482Y-122.682
X180.795Y-90.65
X184.15Y-98.425
X185.102Y-98.234
T5
X135.636Y-77.533
X139.436Y-77.533
X144.151Y-145.372
X144.151Y-147.872
X161.036Y-136.144
X161.036Y-138.644
X165.354Y-137.414
X167.854Y-137.414
X179.07Y-116.118
X179.07Y-118.618
X183.642Y-136.906
X186.142Y-136.906
X187.706Y-91.988
X187.706Y-94.488
T6
X112.75Y-92.75
X112.776Y-77.978
X112.776Y-80.518
X112.776Y-83.058
X112.776Y-85.598
X112.776Y-88.138
X118.35Y-139.28
X120.89Y-139.28
X122.047Y-64.389
X122.92Y-139.28
X124.587Y-64.389
X125.46Y-139.28
X127.127Y-64.389
X129.667Y-64.389
X132.207Y-64.389
X141.2Y-132.87
X141.2Y-140.47
X159.519Y-64.654
X160.22Y-130.5
X162.059Y-64.654
X162.76Y-130.5
X164.599Y-64.654
X165.3Y-130.5
X167.139Y-64.654
X172.6Y-64.654
X175.14Y-64.654
X177.68Y-64.654
X186.3Y-142.5
X186.3Y-145.04
X186.3Y-147.58
X188.84Y-142.5
X188.84Y-145.04
X188.84Y-147.58
X191.25Y-84.5
X191.25Y-87.04
X192.532Y-92.202
X192.532Y-94.742
T7
X171.196Y-90.805
X171.196Y-95.805
X176.236Y-93.305
T8
X164.719Y-146.05
X167.719Y-146.05
T9
X114.79Y-141.95
X128.51Y-141.95
T3
X184.079Y-63.603G85X184.079Y-64.253
G05
X191.079Y-63.603G85X191.079Y-64.253
G05
T4
X185.229Y-66.628G85X184.929Y-66.628
G05
X190.229Y-66.628G85X189.929Y-66.628
G05
T6
X181.356Y-128.381G85X181.356Y-126.381
G05
X185.356Y-122.681G85X183.356Y-122.681
G05
X187.356Y-128.381G85X187.356Y-126.381
G05
T0
M30
