G04 #@! TF.FileFunction,Legend,Bot*
%FSLAX46Y46*%
G04 Gerber Fmt 4.6, Leading zero omitted, Abs format (unit mm)*
G04 Created by KiCad (PCBNEW 4.0.5) date 06/13/18 16:42:59*
%MOMM*%
%LPD*%
G01*
G04 APERTURE LIST*
%ADD10C,0.100000*%
%ADD11C,0.300000*%
%ADD12C,0.120000*%
%ADD13C,0.150000*%
G04 APERTURE END LIST*
D10*
D11*
X112716571Y-97966286D02*
X114216571Y-98466286D01*
X112716571Y-98966286D01*
X114145143Y-100037714D02*
X114216571Y-99894857D01*
X114216571Y-99609143D01*
X114145143Y-99466286D01*
X114002286Y-99394857D01*
X113430857Y-99394857D01*
X113288000Y-99466286D01*
X113216571Y-99609143D01*
X113216571Y-99894857D01*
X113288000Y-100037714D01*
X113430857Y-100109143D01*
X113573714Y-100109143D01*
X113716571Y-99394857D01*
X114145143Y-101394857D02*
X114216571Y-101252000D01*
X114216571Y-100966286D01*
X114145143Y-100823428D01*
X114073714Y-100752000D01*
X113930857Y-100680571D01*
X113502286Y-100680571D01*
X113359429Y-100752000D01*
X113288000Y-100823428D01*
X113216571Y-100966286D01*
X113216571Y-101252000D01*
X113288000Y-101394857D01*
X114216571Y-102037714D02*
X113216571Y-102037714D01*
X113359429Y-102037714D02*
X113288000Y-102109142D01*
X113216571Y-102252000D01*
X113216571Y-102466285D01*
X113288000Y-102609142D01*
X113430857Y-102680571D01*
X114216571Y-102680571D01*
X113430857Y-102680571D02*
X113288000Y-102752000D01*
X113216571Y-102894857D01*
X113216571Y-103109142D01*
X113288000Y-103252000D01*
X113430857Y-103323428D01*
X114216571Y-103323428D01*
X114216571Y-104252000D02*
X114145143Y-104109142D01*
X114073714Y-104037714D01*
X113930857Y-103966285D01*
X113502286Y-103966285D01*
X113359429Y-104037714D01*
X113288000Y-104109142D01*
X113216571Y-104252000D01*
X113216571Y-104466285D01*
X113288000Y-104609142D01*
X113359429Y-104680571D01*
X113502286Y-104752000D01*
X113930857Y-104752000D01*
X114073714Y-104680571D01*
X114145143Y-104609142D01*
X114216571Y-104466285D01*
X114216571Y-104252000D01*
X114145143Y-106037714D02*
X114216571Y-105894857D01*
X114216571Y-105609143D01*
X114145143Y-105466285D01*
X114073714Y-105394857D01*
X113930857Y-105323428D01*
X113502286Y-105323428D01*
X113359429Y-105394857D01*
X113288000Y-105466285D01*
X113216571Y-105609143D01*
X113216571Y-105894857D01*
X113288000Y-106037714D01*
X114216571Y-106894857D02*
X114145143Y-106751999D01*
X114073714Y-106680571D01*
X113930857Y-106609142D01*
X113502286Y-106609142D01*
X113359429Y-106680571D01*
X113288000Y-106751999D01*
X113216571Y-106894857D01*
X113216571Y-107109142D01*
X113288000Y-107251999D01*
X113359429Y-107323428D01*
X113502286Y-107394857D01*
X113930857Y-107394857D01*
X114073714Y-107323428D01*
X114145143Y-107251999D01*
X114216571Y-107109142D01*
X114216571Y-106894857D01*
X113216571Y-108037714D02*
X114216571Y-108037714D01*
X113359429Y-108037714D02*
X113288000Y-108109142D01*
X113216571Y-108252000D01*
X113216571Y-108466285D01*
X113288000Y-108609142D01*
X113430857Y-108680571D01*
X114216571Y-108680571D01*
X112716571Y-110323428D02*
X112716571Y-111180571D01*
X114216571Y-110752000D02*
X112716571Y-110752000D01*
X114145143Y-112251999D02*
X114216571Y-112109142D01*
X114216571Y-111823428D01*
X114145143Y-111680571D01*
X114002286Y-111609142D01*
X113430857Y-111609142D01*
X113288000Y-111680571D01*
X113216571Y-111823428D01*
X113216571Y-112109142D01*
X113288000Y-112251999D01*
X113430857Y-112323428D01*
X113573714Y-112323428D01*
X113716571Y-111609142D01*
X114145143Y-113609142D02*
X114216571Y-113466285D01*
X114216571Y-113180571D01*
X114145143Y-113037713D01*
X114073714Y-112966285D01*
X113930857Y-112894856D01*
X113502286Y-112894856D01*
X113359429Y-112966285D01*
X113288000Y-113037713D01*
X113216571Y-113180571D01*
X113216571Y-113466285D01*
X113288000Y-113609142D01*
X114216571Y-114251999D02*
X112716571Y-114251999D01*
X114216571Y-114894856D02*
X113430857Y-114894856D01*
X113288000Y-114823427D01*
X113216571Y-114680570D01*
X113216571Y-114466285D01*
X113288000Y-114323427D01*
X113359429Y-114251999D01*
X113216571Y-115609142D02*
X114216571Y-115609142D01*
X113359429Y-115609142D02*
X113288000Y-115680570D01*
X113216571Y-115823428D01*
X113216571Y-116037713D01*
X113288000Y-116180570D01*
X113430857Y-116251999D01*
X114216571Y-116251999D01*
X114216571Y-117180571D02*
X114145143Y-117037713D01*
X114073714Y-116966285D01*
X113930857Y-116894856D01*
X113502286Y-116894856D01*
X113359429Y-116966285D01*
X113288000Y-117037713D01*
X113216571Y-117180571D01*
X113216571Y-117394856D01*
X113288000Y-117537713D01*
X113359429Y-117609142D01*
X113502286Y-117680571D01*
X113930857Y-117680571D01*
X114073714Y-117609142D01*
X114145143Y-117537713D01*
X114216571Y-117394856D01*
X114216571Y-117180571D01*
X114216571Y-118537714D02*
X114145143Y-118394856D01*
X114002286Y-118323428D01*
X112716571Y-118323428D01*
X114216571Y-119323428D02*
X114145143Y-119180570D01*
X114073714Y-119109142D01*
X113930857Y-119037713D01*
X113502286Y-119037713D01*
X113359429Y-119109142D01*
X113288000Y-119180570D01*
X113216571Y-119323428D01*
X113216571Y-119537713D01*
X113288000Y-119680570D01*
X113359429Y-119751999D01*
X113502286Y-119823428D01*
X113930857Y-119823428D01*
X114073714Y-119751999D01*
X114145143Y-119680570D01*
X114216571Y-119537713D01*
X114216571Y-119323428D01*
X113216571Y-121109142D02*
X114430857Y-121109142D01*
X114573714Y-121037713D01*
X114645143Y-120966285D01*
X114716571Y-120823428D01*
X114716571Y-120609142D01*
X114645143Y-120466285D01*
X114145143Y-121109142D02*
X114216571Y-120966285D01*
X114216571Y-120680571D01*
X114145143Y-120537713D01*
X114073714Y-120466285D01*
X113930857Y-120394856D01*
X113502286Y-120394856D01*
X113359429Y-120466285D01*
X113288000Y-120537713D01*
X113216571Y-120680571D01*
X113216571Y-120966285D01*
X113288000Y-121109142D01*
X114216571Y-121823428D02*
X113216571Y-121823428D01*
X112716571Y-121823428D02*
X112788000Y-121751999D01*
X112859429Y-121823428D01*
X112788000Y-121894856D01*
X112716571Y-121823428D01*
X112859429Y-121823428D01*
X114145143Y-123109142D02*
X114216571Y-122966285D01*
X114216571Y-122680571D01*
X114145143Y-122537714D01*
X114002286Y-122466285D01*
X113430857Y-122466285D01*
X113288000Y-122537714D01*
X113216571Y-122680571D01*
X113216571Y-122966285D01*
X113288000Y-123109142D01*
X113430857Y-123180571D01*
X113573714Y-123180571D01*
X113716571Y-122466285D01*
X114145143Y-123751999D02*
X114216571Y-123894856D01*
X114216571Y-124180571D01*
X114145143Y-124323428D01*
X114002286Y-124394856D01*
X113930857Y-124394856D01*
X113788000Y-124323428D01*
X113716571Y-124180571D01*
X113716571Y-123966285D01*
X113645143Y-123823428D01*
X113502286Y-123751999D01*
X113430857Y-123751999D01*
X113288000Y-123823428D01*
X113216571Y-123966285D01*
X113216571Y-124180571D01*
X113288000Y-124323428D01*
D12*
X147757000Y-132586000D02*
X146827000Y-132586000D01*
X144597000Y-132586000D02*
X145527000Y-132586000D01*
X144597000Y-132586000D02*
X144597000Y-130426000D01*
X147757000Y-132586000D02*
X147757000Y-131126000D01*
X169460000Y-122370000D02*
X169460000Y-123300000D01*
X169460000Y-125530000D02*
X169460000Y-124600000D01*
X169460000Y-125530000D02*
X167300000Y-125530000D01*
X169460000Y-122370000D02*
X168000000Y-122370000D01*
X148600000Y-139950000D02*
X148600000Y-138450000D01*
X148600000Y-138450000D02*
X149550000Y-138450000D01*
X149550000Y-138450000D02*
X149550000Y-133325000D01*
X159000000Y-139950000D02*
X159000000Y-138450000D01*
X159000000Y-138450000D02*
X158050000Y-138450000D01*
X158050000Y-138450000D02*
X158050000Y-137350000D01*
X176108000Y-119877000D02*
X176108000Y-121677000D01*
X172888000Y-121677000D02*
X172888000Y-119227000D01*
X162301000Y-78848000D02*
X162301000Y-77588000D01*
X162301000Y-72028000D02*
X162301000Y-73288000D01*
X166061000Y-78848000D02*
X162301000Y-78848000D01*
X168311000Y-72028000D02*
X162301000Y-72028000D01*
X169806000Y-140155000D02*
X169806000Y-138655000D01*
X169806000Y-138655000D02*
X170756000Y-138655000D01*
X170756000Y-138655000D02*
X170756000Y-133530000D01*
X180206000Y-140155000D02*
X180206000Y-138655000D01*
X180206000Y-138655000D02*
X179256000Y-138655000D01*
X179256000Y-138655000D02*
X179256000Y-137555000D01*
X185090000Y-76190000D02*
X186350000Y-76190000D01*
X191910000Y-76190000D02*
X190650000Y-76190000D01*
X185090000Y-79950000D02*
X185090000Y-76190000D01*
X191910000Y-82200000D02*
X191910000Y-76190000D01*
X136600000Y-86650000D02*
X135900000Y-86650000D01*
X135900000Y-87850000D02*
X136600000Y-87850000D01*
X142232900Y-91443100D02*
X142932900Y-91443100D01*
X142932900Y-90243100D02*
X142232900Y-90243100D01*
X161650000Y-133800000D02*
X162350000Y-133800000D01*
X162350000Y-132600000D02*
X161650000Y-132600000D01*
X174275000Y-125822000D02*
X174975000Y-125822000D01*
X174975000Y-124622000D02*
X174275000Y-124622000D01*
X189714000Y-71928000D02*
X189014000Y-71928000D01*
X189014000Y-73128000D02*
X189714000Y-73128000D01*
X163175200Y-103825600D02*
X163875200Y-103825600D01*
X163875200Y-102625600D02*
X163175200Y-102625600D01*
X173005000Y-118456000D02*
X173705000Y-118456000D01*
X173705000Y-117256000D02*
X173005000Y-117256000D01*
X177073000Y-122459000D02*
X177073000Y-123159000D01*
X178273000Y-123159000D02*
X178273000Y-122459000D01*
X135036000Y-73818000D02*
X135036000Y-74518000D01*
X136236000Y-74518000D02*
X136236000Y-73818000D01*
X138592000Y-73818000D02*
X138592000Y-74518000D01*
X139792000Y-74518000D02*
X139792000Y-73818000D01*
X174275000Y-124298000D02*
X174975000Y-124298000D01*
X174975000Y-123098000D02*
X174275000Y-123098000D01*
X119150000Y-146460000D02*
X118150000Y-146460000D01*
X118150000Y-147820000D02*
X119150000Y-147820000D01*
X151392000Y-94787000D02*
X152392000Y-94787000D01*
X152392000Y-93427000D02*
X151392000Y-93427000D01*
X152392000Y-96538500D02*
X151392000Y-96538500D01*
X151392000Y-97898500D02*
X152392000Y-97898500D01*
X151392000Y-96374500D02*
X152392000Y-96374500D01*
X152392000Y-95014500D02*
X151392000Y-95014500D01*
X185502000Y-64143000D02*
X185502000Y-65143000D01*
X186862000Y-65143000D02*
X186862000Y-64143000D01*
X176522000Y-106381000D02*
X175522000Y-106381000D01*
X175522000Y-107741000D02*
X176522000Y-107741000D01*
X189240000Y-64990000D02*
X189240000Y-63990000D01*
X187880000Y-63990000D02*
X187880000Y-64990000D01*
X134755000Y-90088000D02*
X135755000Y-90088000D01*
X135755000Y-88728000D02*
X134755000Y-88728000D01*
X165170000Y-123400000D02*
X165170000Y-124400000D01*
X166530000Y-124400000D02*
X166530000Y-123400000D01*
X143823223Y-94828249D02*
X143328249Y-95323223D01*
X144176777Y-96171751D02*
X144671751Y-95676777D01*
X136998000Y-84982800D02*
X136998000Y-84282800D01*
X135798000Y-84282800D02*
X135798000Y-84982800D01*
X190592000Y-93822000D02*
X190592000Y-93122000D01*
X189392000Y-93122000D02*
X189392000Y-93822000D01*
X121780000Y-145530000D02*
X122710000Y-145530000D01*
X124940000Y-145530000D02*
X124010000Y-145530000D01*
X124940000Y-145530000D02*
X124940000Y-147690000D01*
X121780000Y-145530000D02*
X121780000Y-146990000D01*
D13*
X180125000Y-84425000D02*
X180175000Y-84425000D01*
X180125000Y-88575000D02*
X180270000Y-88575000D01*
X185275000Y-88575000D02*
X185130000Y-88575000D01*
X185275000Y-84425000D02*
X185130000Y-84425000D01*
X180125000Y-84425000D02*
X180125000Y-88575000D01*
X185275000Y-84425000D02*
X185275000Y-88575000D01*
X180175000Y-84425000D02*
X180175000Y-83025000D01*
D12*
X158361000Y-81108000D02*
X157361000Y-81108000D01*
X157361000Y-82468000D02*
X158361000Y-82468000D01*
X158361000Y-82759000D02*
X157361000Y-82759000D01*
X157361000Y-84119000D02*
X158361000Y-84119000D01*
X178050000Y-130070000D02*
X177050000Y-130070000D01*
X177050000Y-131430000D02*
X178050000Y-131430000D01*
X170100000Y-130520000D02*
X169100000Y-130520000D01*
X169100000Y-131880000D02*
X170100000Y-131880000D01*
X160826800Y-107517200D02*
X165376800Y-107517200D01*
X160826800Y-104217200D02*
X165376800Y-104217200D01*
X160826800Y-107517200D02*
X160826800Y-104217200D01*
X159150800Y-104149600D02*
X158450800Y-104149600D01*
X158450800Y-105349600D02*
X159150800Y-105349600D01*
X159150800Y-105622800D02*
X158450800Y-105622800D01*
X158450800Y-106822800D02*
X159150800Y-106822800D01*
D13*
X149167838Y-132500619D02*
X149263076Y-132453000D01*
X149358314Y-132357762D01*
X149501171Y-132214905D01*
X149596410Y-132167286D01*
X149691648Y-132167286D01*
X149644029Y-132405381D02*
X149739267Y-132357762D01*
X149834505Y-132262524D01*
X149882124Y-132072048D01*
X149882124Y-131738714D01*
X149834505Y-131548238D01*
X149739267Y-131453000D01*
X149644029Y-131405381D01*
X149453552Y-131405381D01*
X149358314Y-131453000D01*
X149263076Y-131548238D01*
X149215457Y-131738714D01*
X149215457Y-132072048D01*
X149263076Y-132262524D01*
X149358314Y-132357762D01*
X149453552Y-132405381D01*
X149644029Y-132405381D01*
X148263076Y-132405381D02*
X148834505Y-132405381D01*
X148548791Y-132405381D02*
X148548791Y-131405381D01*
X148644029Y-131548238D01*
X148739267Y-131643476D01*
X148834505Y-131691095D01*
X168505238Y-121657619D02*
X168600476Y-121610000D01*
X168695714Y-121514762D01*
X168838571Y-121371905D01*
X168933810Y-121324286D01*
X169029048Y-121324286D01*
X168981429Y-121562381D02*
X169076667Y-121514762D01*
X169171905Y-121419524D01*
X169219524Y-121229048D01*
X169219524Y-120895714D01*
X169171905Y-120705238D01*
X169076667Y-120610000D01*
X168981429Y-120562381D01*
X168790952Y-120562381D01*
X168695714Y-120610000D01*
X168600476Y-120705238D01*
X168552857Y-120895714D01*
X168552857Y-121229048D01*
X168600476Y-121419524D01*
X168695714Y-121514762D01*
X168790952Y-121562381D01*
X168981429Y-121562381D01*
X168219524Y-120562381D02*
X167600476Y-120562381D01*
X167933810Y-120943333D01*
X167790952Y-120943333D01*
X167695714Y-120990952D01*
X167648095Y-121038571D01*
X167600476Y-121133810D01*
X167600476Y-121371905D01*
X167648095Y-121467143D01*
X167695714Y-121514762D01*
X167790952Y-121562381D01*
X168076667Y-121562381D01*
X168171905Y-121514762D01*
X168219524Y-121467143D01*
X162051905Y-143597381D02*
X162051905Y-144406905D01*
X162004286Y-144502143D01*
X161956667Y-144549762D01*
X161861429Y-144597381D01*
X161670952Y-144597381D01*
X161575714Y-144549762D01*
X161528095Y-144502143D01*
X161480476Y-144406905D01*
X161480476Y-143597381D01*
X161099524Y-143597381D02*
X160480476Y-143597381D01*
X160813810Y-143978333D01*
X160670952Y-143978333D01*
X160575714Y-144025952D01*
X160528095Y-144073571D01*
X160480476Y-144168810D01*
X160480476Y-144406905D01*
X160528095Y-144502143D01*
X160575714Y-144549762D01*
X160670952Y-144597381D01*
X160956667Y-144597381D01*
X161051905Y-144549762D01*
X161099524Y-144502143D01*
X171537381Y-120142095D02*
X172346905Y-120142095D01*
X172442143Y-120189714D01*
X172489762Y-120237333D01*
X172537381Y-120332571D01*
X172537381Y-120523048D01*
X172489762Y-120618286D01*
X172442143Y-120665905D01*
X172346905Y-120713524D01*
X171537381Y-120713524D01*
X171537381Y-121618286D02*
X171537381Y-121427809D01*
X171585000Y-121332571D01*
X171632619Y-121284952D01*
X171775476Y-121189714D01*
X171965952Y-121142095D01*
X172346905Y-121142095D01*
X172442143Y-121189714D01*
X172489762Y-121237333D01*
X172537381Y-121332571D01*
X172537381Y-121523048D01*
X172489762Y-121618286D01*
X172442143Y-121665905D01*
X172346905Y-121713524D01*
X172108810Y-121713524D01*
X172013571Y-121665905D01*
X171965952Y-121618286D01*
X171918333Y-121523048D01*
X171918333Y-121332571D01*
X171965952Y-121237333D01*
X172013571Y-121189714D01*
X172108810Y-121142095D01*
X158292705Y-74128381D02*
X158292705Y-74937905D01*
X158245086Y-75033143D01*
X158197467Y-75080762D01*
X158102229Y-75128381D01*
X157911752Y-75128381D01*
X157816514Y-75080762D01*
X157768895Y-75033143D01*
X157721276Y-74937905D01*
X157721276Y-74128381D01*
X157197467Y-75128381D02*
X157006991Y-75128381D01*
X156911752Y-75080762D01*
X156864133Y-75033143D01*
X156768895Y-74890286D01*
X156721276Y-74699810D01*
X156721276Y-74318857D01*
X156768895Y-74223619D01*
X156816514Y-74176000D01*
X156911752Y-74128381D01*
X157102229Y-74128381D01*
X157197467Y-74176000D01*
X157245086Y-74223619D01*
X157292705Y-74318857D01*
X157292705Y-74556952D01*
X157245086Y-74652190D01*
X157197467Y-74699810D01*
X157102229Y-74747429D01*
X156911752Y-74747429D01*
X156816514Y-74699810D01*
X156768895Y-74652190D01*
X156721276Y-74556952D01*
X183006905Y-148042381D02*
X183006905Y-148851905D01*
X182959286Y-148947143D01*
X182911667Y-148994762D01*
X182816429Y-149042381D01*
X182625952Y-149042381D01*
X182530714Y-148994762D01*
X182483095Y-148947143D01*
X182435476Y-148851905D01*
X182435476Y-148042381D01*
X181816429Y-148470952D02*
X181911667Y-148423333D01*
X181959286Y-148375714D01*
X182006905Y-148280476D01*
X182006905Y-148232857D01*
X181959286Y-148137619D01*
X181911667Y-148090000D01*
X181816429Y-148042381D01*
X181625952Y-148042381D01*
X181530714Y-148090000D01*
X181483095Y-148137619D01*
X181435476Y-148232857D01*
X181435476Y-148280476D01*
X181483095Y-148375714D01*
X181530714Y-148423333D01*
X181625952Y-148470952D01*
X181816429Y-148470952D01*
X181911667Y-148518571D01*
X181959286Y-148566190D01*
X182006905Y-148661429D01*
X182006905Y-148851905D01*
X181959286Y-148947143D01*
X181911667Y-148994762D01*
X181816429Y-149042381D01*
X181625952Y-149042381D01*
X181530714Y-148994762D01*
X181483095Y-148947143D01*
X181435476Y-148851905D01*
X181435476Y-148661429D01*
X181483095Y-148566190D01*
X181530714Y-148518571D01*
X181625952Y-148470952D01*
X184753095Y-77684381D02*
X184753095Y-78493905D01*
X184705476Y-78589143D01*
X184657857Y-78636762D01*
X184562619Y-78684381D01*
X184372142Y-78684381D01*
X184276904Y-78636762D01*
X184229285Y-78589143D01*
X184181666Y-78493905D01*
X184181666Y-77684381D01*
X183181666Y-78684381D02*
X183753095Y-78684381D01*
X183467381Y-78684381D02*
X183467381Y-77684381D01*
X183562619Y-77827238D01*
X183657857Y-77922476D01*
X183753095Y-77970095D01*
X182324523Y-78017714D02*
X182324523Y-78684381D01*
X182562619Y-77636762D02*
X182800714Y-78351048D01*
X182181666Y-78351048D01*
X133368666Y-87734143D02*
X133416285Y-87781762D01*
X133559142Y-87829381D01*
X133654380Y-87829381D01*
X133797238Y-87781762D01*
X133892476Y-87686524D01*
X133940095Y-87591286D01*
X133987714Y-87400810D01*
X133987714Y-87257952D01*
X133940095Y-87067476D01*
X133892476Y-86972238D01*
X133797238Y-86877000D01*
X133654380Y-86829381D01*
X133559142Y-86829381D01*
X133416285Y-86877000D01*
X133368666Y-86924619D01*
X132511523Y-87162714D02*
X132511523Y-87829381D01*
X132749619Y-86781762D02*
X132987714Y-87496048D01*
X132368666Y-87496048D01*
X143069757Y-89741243D02*
X143117376Y-89788862D01*
X143260233Y-89836481D01*
X143355471Y-89836481D01*
X143498329Y-89788862D01*
X143593567Y-89693624D01*
X143641186Y-89598386D01*
X143688805Y-89407910D01*
X143688805Y-89265052D01*
X143641186Y-89074576D01*
X143593567Y-88979338D01*
X143498329Y-88884100D01*
X143355471Y-88836481D01*
X143260233Y-88836481D01*
X143117376Y-88884100D01*
X143069757Y-88931719D01*
X142117376Y-89836481D02*
X142688805Y-89836481D01*
X142403091Y-89836481D02*
X142403091Y-88836481D01*
X142498329Y-88979338D01*
X142593567Y-89074576D01*
X142688805Y-89122195D01*
X141498329Y-88836481D02*
X141403090Y-88836481D01*
X141307852Y-88884100D01*
X141260233Y-88931719D01*
X141212614Y-89026957D01*
X141164995Y-89217433D01*
X141164995Y-89455529D01*
X141212614Y-89646005D01*
X141260233Y-89741243D01*
X141307852Y-89788862D01*
X141403090Y-89836481D01*
X141498329Y-89836481D01*
X141593567Y-89788862D01*
X141641186Y-89741243D01*
X141688805Y-89646005D01*
X141736424Y-89455529D01*
X141736424Y-89217433D01*
X141688805Y-89026957D01*
X141641186Y-88931719D01*
X141593567Y-88884100D01*
X141498329Y-88836481D01*
X165742857Y-133072143D02*
X165790476Y-133119762D01*
X165933333Y-133167381D01*
X166028571Y-133167381D01*
X166171429Y-133119762D01*
X166266667Y-133024524D01*
X166314286Y-132929286D01*
X166361905Y-132738810D01*
X166361905Y-132595952D01*
X166314286Y-132405476D01*
X166266667Y-132310238D01*
X166171429Y-132215000D01*
X166028571Y-132167381D01*
X165933333Y-132167381D01*
X165790476Y-132215000D01*
X165742857Y-132262619D01*
X164790476Y-133167381D02*
X165361905Y-133167381D01*
X165076191Y-133167381D02*
X165076191Y-132167381D01*
X165171429Y-132310238D01*
X165266667Y-132405476D01*
X165361905Y-132453095D01*
X164457143Y-132167381D02*
X163838095Y-132167381D01*
X164171429Y-132548333D01*
X164028571Y-132548333D01*
X163933333Y-132595952D01*
X163885714Y-132643571D01*
X163838095Y-132738810D01*
X163838095Y-132976905D01*
X163885714Y-133072143D01*
X163933333Y-133119762D01*
X164028571Y-133167381D01*
X164314286Y-133167381D01*
X164409524Y-133119762D01*
X164457143Y-133072143D01*
X175267857Y-128500143D02*
X175315476Y-128547762D01*
X175458333Y-128595381D01*
X175553571Y-128595381D01*
X175696429Y-128547762D01*
X175791667Y-128452524D01*
X175839286Y-128357286D01*
X175886905Y-128166810D01*
X175886905Y-128023952D01*
X175839286Y-127833476D01*
X175791667Y-127738238D01*
X175696429Y-127643000D01*
X175553571Y-127595381D01*
X175458333Y-127595381D01*
X175315476Y-127643000D01*
X175267857Y-127690619D01*
X174315476Y-128595381D02*
X174886905Y-128595381D01*
X174601191Y-128595381D02*
X174601191Y-127595381D01*
X174696429Y-127738238D01*
X174791667Y-127833476D01*
X174886905Y-127881095D01*
X173458333Y-127595381D02*
X173648810Y-127595381D01*
X173744048Y-127643000D01*
X173791667Y-127690619D01*
X173886905Y-127833476D01*
X173934524Y-128023952D01*
X173934524Y-128404905D01*
X173886905Y-128500143D01*
X173839286Y-128547762D01*
X173744048Y-128595381D01*
X173553571Y-128595381D01*
X173458333Y-128547762D01*
X173410714Y-128500143D01*
X173363095Y-128404905D01*
X173363095Y-128166810D01*
X173410714Y-128071571D01*
X173458333Y-128023952D01*
X173553571Y-127976333D01*
X173744048Y-127976333D01*
X173839286Y-128023952D01*
X173886905Y-128071571D01*
X173934524Y-128166810D01*
X189999857Y-71604143D02*
X190047476Y-71651762D01*
X190190333Y-71699381D01*
X190285571Y-71699381D01*
X190428429Y-71651762D01*
X190523667Y-71556524D01*
X190571286Y-71461286D01*
X190618905Y-71270810D01*
X190618905Y-71127952D01*
X190571286Y-70937476D01*
X190523667Y-70842238D01*
X190428429Y-70747000D01*
X190285571Y-70699381D01*
X190190333Y-70699381D01*
X190047476Y-70747000D01*
X189999857Y-70794619D01*
X189618905Y-70794619D02*
X189571286Y-70747000D01*
X189476048Y-70699381D01*
X189237952Y-70699381D01*
X189142714Y-70747000D01*
X189095095Y-70794619D01*
X189047476Y-70889857D01*
X189047476Y-70985095D01*
X189095095Y-71127952D01*
X189666524Y-71699381D01*
X189047476Y-71699381D01*
X188666524Y-70794619D02*
X188618905Y-70747000D01*
X188523667Y-70699381D01*
X188285571Y-70699381D01*
X188190333Y-70747000D01*
X188142714Y-70794619D01*
X188095095Y-70889857D01*
X188095095Y-70985095D01*
X188142714Y-71127952D01*
X188714143Y-71699381D01*
X188095095Y-71699381D01*
X164168057Y-104852743D02*
X164215676Y-104900362D01*
X164358533Y-104947981D01*
X164453771Y-104947981D01*
X164596629Y-104900362D01*
X164691867Y-104805124D01*
X164739486Y-104709886D01*
X164787105Y-104519410D01*
X164787105Y-104376552D01*
X164739486Y-104186076D01*
X164691867Y-104090838D01*
X164596629Y-103995600D01*
X164453771Y-103947981D01*
X164358533Y-103947981D01*
X164215676Y-103995600D01*
X164168057Y-104043219D01*
X163787105Y-104043219D02*
X163739486Y-103995600D01*
X163644248Y-103947981D01*
X163406152Y-103947981D01*
X163310914Y-103995600D01*
X163263295Y-104043219D01*
X163215676Y-104138457D01*
X163215676Y-104233695D01*
X163263295Y-104376552D01*
X163834724Y-104947981D01*
X163215676Y-104947981D01*
X162358533Y-104281314D02*
X162358533Y-104947981D01*
X162596629Y-103900362D02*
X162834724Y-104614648D01*
X162215676Y-104614648D01*
X173997857Y-116713143D02*
X174045476Y-116760762D01*
X174188333Y-116808381D01*
X174283571Y-116808381D01*
X174426429Y-116760762D01*
X174521667Y-116665524D01*
X174569286Y-116570286D01*
X174616905Y-116379810D01*
X174616905Y-116236952D01*
X174569286Y-116046476D01*
X174521667Y-115951238D01*
X174426429Y-115856000D01*
X174283571Y-115808381D01*
X174188333Y-115808381D01*
X174045476Y-115856000D01*
X173997857Y-115903619D01*
X173616905Y-115903619D02*
X173569286Y-115856000D01*
X173474048Y-115808381D01*
X173235952Y-115808381D01*
X173140714Y-115856000D01*
X173093095Y-115903619D01*
X173045476Y-115998857D01*
X173045476Y-116094095D01*
X173093095Y-116236952D01*
X173664524Y-116808381D01*
X173045476Y-116808381D01*
X172140714Y-115808381D02*
X172616905Y-115808381D01*
X172664524Y-116284571D01*
X172616905Y-116236952D01*
X172521667Y-116189333D01*
X172283571Y-116189333D01*
X172188333Y-116236952D01*
X172140714Y-116284571D01*
X172093095Y-116379810D01*
X172093095Y-116617905D01*
X172140714Y-116713143D01*
X172188333Y-116760762D01*
X172283571Y-116808381D01*
X172521667Y-116808381D01*
X172616905Y-116760762D01*
X172664524Y-116713143D01*
X179554143Y-122166143D02*
X179601762Y-122118524D01*
X179649381Y-121975667D01*
X179649381Y-121880429D01*
X179601762Y-121737571D01*
X179506524Y-121642333D01*
X179411286Y-121594714D01*
X179220810Y-121547095D01*
X179077952Y-121547095D01*
X178887476Y-121594714D01*
X178792238Y-121642333D01*
X178697000Y-121737571D01*
X178649381Y-121880429D01*
X178649381Y-121975667D01*
X178697000Y-122118524D01*
X178744619Y-122166143D01*
X178744619Y-122547095D02*
X178697000Y-122594714D01*
X178649381Y-122689952D01*
X178649381Y-122928048D01*
X178697000Y-123023286D01*
X178744619Y-123070905D01*
X178839857Y-123118524D01*
X178935095Y-123118524D01*
X179077952Y-123070905D01*
X179649381Y-122499476D01*
X179649381Y-123118524D01*
X178649381Y-123451857D02*
X178649381Y-124118524D01*
X179649381Y-123689952D01*
X135893143Y-70225143D02*
X135940762Y-70177524D01*
X135988381Y-70034667D01*
X135988381Y-69939429D01*
X135940762Y-69796571D01*
X135845524Y-69701333D01*
X135750286Y-69653714D01*
X135559810Y-69606095D01*
X135416952Y-69606095D01*
X135226476Y-69653714D01*
X135131238Y-69701333D01*
X135036000Y-69796571D01*
X134988381Y-69939429D01*
X134988381Y-70034667D01*
X135036000Y-70177524D01*
X135083619Y-70225143D01*
X135321714Y-71082286D02*
X135988381Y-71082286D01*
X134940762Y-70844190D02*
X135655048Y-70606095D01*
X135655048Y-71225143D01*
X135083619Y-71558476D02*
X135036000Y-71606095D01*
X134988381Y-71701333D01*
X134988381Y-71939429D01*
X135036000Y-72034667D01*
X135083619Y-72082286D01*
X135178857Y-72129905D01*
X135274095Y-72129905D01*
X135416952Y-72082286D01*
X135988381Y-71510857D01*
X135988381Y-72129905D01*
X139541143Y-70210143D02*
X139588762Y-70162524D01*
X139636381Y-70019667D01*
X139636381Y-69924429D01*
X139588762Y-69781571D01*
X139493524Y-69686333D01*
X139398286Y-69638714D01*
X139207810Y-69591095D01*
X139064952Y-69591095D01*
X138874476Y-69638714D01*
X138779238Y-69686333D01*
X138684000Y-69781571D01*
X138636381Y-69924429D01*
X138636381Y-70019667D01*
X138684000Y-70162524D01*
X138731619Y-70210143D01*
X138969714Y-71067286D02*
X139636381Y-71067286D01*
X138588762Y-70829190D02*
X139303048Y-70591095D01*
X139303048Y-71210143D01*
X138636381Y-71495857D02*
X138636381Y-72114905D01*
X139017333Y-71781571D01*
X139017333Y-71924429D01*
X139064952Y-72019667D01*
X139112571Y-72067286D01*
X139207810Y-72114905D01*
X139445905Y-72114905D01*
X139541143Y-72067286D01*
X139588762Y-72019667D01*
X139636381Y-71924429D01*
X139636381Y-71638714D01*
X139588762Y-71543476D01*
X139541143Y-71495857D01*
X175394857Y-127103143D02*
X175442476Y-127150762D01*
X175585333Y-127198381D01*
X175680571Y-127198381D01*
X175823429Y-127150762D01*
X175918667Y-127055524D01*
X175966286Y-126960286D01*
X176013905Y-126769810D01*
X176013905Y-126626952D01*
X175966286Y-126436476D01*
X175918667Y-126341238D01*
X175823429Y-126246000D01*
X175680571Y-126198381D01*
X175585333Y-126198381D01*
X175442476Y-126246000D01*
X175394857Y-126293619D01*
X174490095Y-126198381D02*
X174966286Y-126198381D01*
X175013905Y-126674571D01*
X174966286Y-126626952D01*
X174871048Y-126579333D01*
X174632952Y-126579333D01*
X174537714Y-126626952D01*
X174490095Y-126674571D01*
X174442476Y-126769810D01*
X174442476Y-127007905D01*
X174490095Y-127103143D01*
X174537714Y-127150762D01*
X174632952Y-127198381D01*
X174871048Y-127198381D01*
X174966286Y-127150762D01*
X175013905Y-127103143D01*
X173823429Y-126198381D02*
X173728190Y-126198381D01*
X173632952Y-126246000D01*
X173585333Y-126293619D01*
X173537714Y-126388857D01*
X173490095Y-126579333D01*
X173490095Y-126817429D01*
X173537714Y-127007905D01*
X173585333Y-127103143D01*
X173632952Y-127150762D01*
X173728190Y-127198381D01*
X173823429Y-127198381D01*
X173918667Y-127150762D01*
X173966286Y-127103143D01*
X174013905Y-127007905D01*
X174061524Y-126817429D01*
X174061524Y-126579333D01*
X174013905Y-126388857D01*
X173966286Y-126293619D01*
X173918667Y-126246000D01*
X173823429Y-126198381D01*
X118926666Y-149102381D02*
X119260000Y-148626190D01*
X119498095Y-149102381D02*
X119498095Y-148102381D01*
X119117142Y-148102381D01*
X119021904Y-148150000D01*
X118974285Y-148197619D01*
X118926666Y-148292857D01*
X118926666Y-148435714D01*
X118974285Y-148530952D01*
X119021904Y-148578571D01*
X119117142Y-148626190D01*
X119498095Y-148626190D01*
X118593333Y-148102381D02*
X117926666Y-148102381D01*
X118355238Y-149102381D01*
X156167057Y-94711781D02*
X156500391Y-94235590D01*
X156738486Y-94711781D02*
X156738486Y-93711781D01*
X156357533Y-93711781D01*
X156262295Y-93759400D01*
X156214676Y-93807019D01*
X156167057Y-93902257D01*
X156167057Y-94045114D01*
X156214676Y-94140352D01*
X156262295Y-94187971D01*
X156357533Y-94235590D01*
X156738486Y-94235590D01*
X155833724Y-93711781D02*
X155214676Y-93711781D01*
X155548010Y-94092733D01*
X155405152Y-94092733D01*
X155309914Y-94140352D01*
X155262295Y-94187971D01*
X155214676Y-94283210D01*
X155214676Y-94521305D01*
X155262295Y-94616543D01*
X155309914Y-94664162D01*
X155405152Y-94711781D01*
X155690867Y-94711781D01*
X155786105Y-94664162D01*
X155833724Y-94616543D01*
X154262295Y-94711781D02*
X154833724Y-94711781D01*
X154548010Y-94711781D02*
X154548010Y-93711781D01*
X154643248Y-93854638D01*
X154738486Y-93949876D01*
X154833724Y-93997495D01*
X156370257Y-97823281D02*
X156703591Y-97347090D01*
X156941686Y-97823281D02*
X156941686Y-96823281D01*
X156560733Y-96823281D01*
X156465495Y-96870900D01*
X156417876Y-96918519D01*
X156370257Y-97013757D01*
X156370257Y-97156614D01*
X156417876Y-97251852D01*
X156465495Y-97299471D01*
X156560733Y-97347090D01*
X156941686Y-97347090D01*
X156036924Y-96823281D02*
X155417876Y-96823281D01*
X155751210Y-97204233D01*
X155608352Y-97204233D01*
X155513114Y-97251852D01*
X155465495Y-97299471D01*
X155417876Y-97394710D01*
X155417876Y-97632805D01*
X155465495Y-97728043D01*
X155513114Y-97775662D01*
X155608352Y-97823281D01*
X155894067Y-97823281D01*
X155989305Y-97775662D01*
X156036924Y-97728043D01*
X155036924Y-96918519D02*
X154989305Y-96870900D01*
X154894067Y-96823281D01*
X154655971Y-96823281D01*
X154560733Y-96870900D01*
X154513114Y-96918519D01*
X154465495Y-97013757D01*
X154465495Y-97108995D01*
X154513114Y-97251852D01*
X155084543Y-97823281D01*
X154465495Y-97823281D01*
X156192457Y-96172281D02*
X156525791Y-95696090D01*
X156763886Y-96172281D02*
X156763886Y-95172281D01*
X156382933Y-95172281D01*
X156287695Y-95219900D01*
X156240076Y-95267519D01*
X156192457Y-95362757D01*
X156192457Y-95505614D01*
X156240076Y-95600852D01*
X156287695Y-95648471D01*
X156382933Y-95696090D01*
X156763886Y-95696090D01*
X155859124Y-95172281D02*
X155240076Y-95172281D01*
X155573410Y-95553233D01*
X155430552Y-95553233D01*
X155335314Y-95600852D01*
X155287695Y-95648471D01*
X155240076Y-95743710D01*
X155240076Y-95981805D01*
X155287695Y-96077043D01*
X155335314Y-96124662D01*
X155430552Y-96172281D01*
X155716267Y-96172281D01*
X155811505Y-96124662D01*
X155859124Y-96077043D01*
X154906743Y-95172281D02*
X154287695Y-95172281D01*
X154621029Y-95553233D01*
X154478171Y-95553233D01*
X154382933Y-95600852D01*
X154335314Y-95648471D01*
X154287695Y-95743710D01*
X154287695Y-95981805D01*
X154335314Y-96077043D01*
X154382933Y-96124662D01*
X154478171Y-96172281D01*
X154763886Y-96172281D01*
X154859124Y-96124662D01*
X154906743Y-96077043D01*
X186702381Y-67527143D02*
X186226190Y-67193809D01*
X186702381Y-66955714D02*
X185702381Y-66955714D01*
X185702381Y-67336667D01*
X185750000Y-67431905D01*
X185797619Y-67479524D01*
X185892857Y-67527143D01*
X186035714Y-67527143D01*
X186130952Y-67479524D01*
X186178571Y-67431905D01*
X186226190Y-67336667D01*
X186226190Y-66955714D01*
X185702381Y-67860476D02*
X185702381Y-68479524D01*
X186083333Y-68146190D01*
X186083333Y-68289048D01*
X186130952Y-68384286D01*
X186178571Y-68431905D01*
X186273810Y-68479524D01*
X186511905Y-68479524D01*
X186607143Y-68431905D01*
X186654762Y-68384286D01*
X186702381Y-68289048D01*
X186702381Y-68003333D01*
X186654762Y-67908095D01*
X186607143Y-67860476D01*
X185702381Y-69384286D02*
X185702381Y-68908095D01*
X186178571Y-68860476D01*
X186130952Y-68908095D01*
X186083333Y-69003333D01*
X186083333Y-69241429D01*
X186130952Y-69336667D01*
X186178571Y-69384286D01*
X186273810Y-69431905D01*
X186511905Y-69431905D01*
X186607143Y-69384286D01*
X186654762Y-69336667D01*
X186702381Y-69241429D01*
X186702381Y-69003333D01*
X186654762Y-68908095D01*
X186607143Y-68860476D01*
X173064857Y-107613381D02*
X173398191Y-107137190D01*
X173636286Y-107613381D02*
X173636286Y-106613381D01*
X173255333Y-106613381D01*
X173160095Y-106661000D01*
X173112476Y-106708619D01*
X173064857Y-106803857D01*
X173064857Y-106946714D01*
X173112476Y-107041952D01*
X173160095Y-107089571D01*
X173255333Y-107137190D01*
X173636286Y-107137190D01*
X172731524Y-106613381D02*
X172112476Y-106613381D01*
X172445810Y-106994333D01*
X172302952Y-106994333D01*
X172207714Y-107041952D01*
X172160095Y-107089571D01*
X172112476Y-107184810D01*
X172112476Y-107422905D01*
X172160095Y-107518143D01*
X172207714Y-107565762D01*
X172302952Y-107613381D01*
X172588667Y-107613381D01*
X172683905Y-107565762D01*
X172731524Y-107518143D01*
X171636286Y-107613381D02*
X171445810Y-107613381D01*
X171350571Y-107565762D01*
X171302952Y-107518143D01*
X171207714Y-107375286D01*
X171160095Y-107184810D01*
X171160095Y-106803857D01*
X171207714Y-106708619D01*
X171255333Y-106661000D01*
X171350571Y-106613381D01*
X171541048Y-106613381D01*
X171636286Y-106661000D01*
X171683905Y-106708619D01*
X171731524Y-106803857D01*
X171731524Y-107041952D01*
X171683905Y-107137190D01*
X171636286Y-107184810D01*
X171541048Y-107232429D01*
X171350571Y-107232429D01*
X171255333Y-107184810D01*
X171207714Y-107137190D01*
X171160095Y-107041952D01*
X189172381Y-67587143D02*
X188696190Y-67253809D01*
X189172381Y-67015714D02*
X188172381Y-67015714D01*
X188172381Y-67396667D01*
X188220000Y-67491905D01*
X188267619Y-67539524D01*
X188362857Y-67587143D01*
X188505714Y-67587143D01*
X188600952Y-67539524D01*
X188648571Y-67491905D01*
X188696190Y-67396667D01*
X188696190Y-67015714D01*
X188505714Y-68444286D02*
X189172381Y-68444286D01*
X188124762Y-68206190D02*
X188839048Y-67968095D01*
X188839048Y-68587143D01*
X188172381Y-69158571D02*
X188172381Y-69253810D01*
X188220000Y-69349048D01*
X188267619Y-69396667D01*
X188362857Y-69444286D01*
X188553333Y-69491905D01*
X188791429Y-69491905D01*
X188981905Y-69444286D01*
X189077143Y-69396667D01*
X189124762Y-69349048D01*
X189172381Y-69253810D01*
X189172381Y-69158571D01*
X189124762Y-69063333D01*
X189077143Y-69015714D01*
X188981905Y-68968095D01*
X188791429Y-68920476D01*
X188553333Y-68920476D01*
X188362857Y-68968095D01*
X188267619Y-69015714D01*
X188220000Y-69063333D01*
X188172381Y-69158571D01*
X135897857Y-91511381D02*
X136231191Y-91035190D01*
X136469286Y-91511381D02*
X136469286Y-90511381D01*
X136088333Y-90511381D01*
X135993095Y-90559000D01*
X135945476Y-90606619D01*
X135897857Y-90701857D01*
X135897857Y-90844714D01*
X135945476Y-90939952D01*
X135993095Y-90987571D01*
X136088333Y-91035190D01*
X136469286Y-91035190D01*
X135040714Y-90844714D02*
X135040714Y-91511381D01*
X135278810Y-90463762D02*
X135516905Y-91178048D01*
X134897857Y-91178048D01*
X133993095Y-91511381D02*
X134564524Y-91511381D01*
X134278810Y-91511381D02*
X134278810Y-90511381D01*
X134374048Y-90654238D01*
X134469286Y-90749476D01*
X134564524Y-90797095D01*
X166272381Y-126607143D02*
X165796190Y-126273809D01*
X166272381Y-126035714D02*
X165272381Y-126035714D01*
X165272381Y-126416667D01*
X165320000Y-126511905D01*
X165367619Y-126559524D01*
X165462857Y-126607143D01*
X165605714Y-126607143D01*
X165700952Y-126559524D01*
X165748571Y-126511905D01*
X165796190Y-126416667D01*
X165796190Y-126035714D01*
X165605714Y-127464286D02*
X166272381Y-127464286D01*
X165224762Y-127226190D02*
X165939048Y-126988095D01*
X165939048Y-127607143D01*
X165272381Y-127892857D02*
X165272381Y-128511905D01*
X165653333Y-128178571D01*
X165653333Y-128321429D01*
X165700952Y-128416667D01*
X165748571Y-128464286D01*
X165843810Y-128511905D01*
X166081905Y-128511905D01*
X166177143Y-128464286D01*
X166224762Y-128416667D01*
X166272381Y-128321429D01*
X166272381Y-128035714D01*
X166224762Y-127940476D01*
X166177143Y-127892857D01*
X143787868Y-94378731D02*
X143855211Y-94378731D01*
X143989898Y-94311387D01*
X144057242Y-94244044D01*
X144124586Y-94109356D01*
X144124586Y-93974669D01*
X144090914Y-93873654D01*
X143989899Y-93705296D01*
X143888883Y-93604280D01*
X143720524Y-93503265D01*
X143619509Y-93469593D01*
X143484822Y-93469593D01*
X143350135Y-93536937D01*
X143282791Y-93604280D01*
X143215448Y-93738967D01*
X143215448Y-93806311D01*
X142912402Y-93974669D02*
X142474669Y-94412402D01*
X142979746Y-94446073D01*
X142878730Y-94547089D01*
X142845058Y-94648104D01*
X142845058Y-94715448D01*
X142878731Y-94816464D01*
X143047089Y-94984822D01*
X143148104Y-95018494D01*
X143215448Y-95018494D01*
X143316463Y-94984822D01*
X143518494Y-94782791D01*
X143552166Y-94681776D01*
X143552166Y-94614433D01*
X142373654Y-95119508D02*
X142407326Y-95018493D01*
X142407326Y-94951150D01*
X142373654Y-94850135D01*
X142339983Y-94816463D01*
X142238967Y-94782791D01*
X142171624Y-94782791D01*
X142070609Y-94816463D01*
X141935921Y-94951151D01*
X141902249Y-95052166D01*
X141902249Y-95119509D01*
X141935921Y-95220524D01*
X141969593Y-95254196D01*
X142070608Y-95287868D01*
X142137951Y-95287868D01*
X142238967Y-95254196D01*
X142373654Y-95119508D01*
X142474669Y-95085837D01*
X142542013Y-95085837D01*
X142643029Y-95119509D01*
X142777716Y-95254196D01*
X142811387Y-95355211D01*
X142811387Y-95422555D01*
X142777716Y-95523570D01*
X142643028Y-95658257D01*
X142542013Y-95691929D01*
X142474669Y-95691929D01*
X142373654Y-95658257D01*
X142238967Y-95523571D01*
X142205295Y-95422555D01*
X142205295Y-95355211D01*
X142238967Y-95254196D01*
X137955143Y-83989943D02*
X138002762Y-83942324D01*
X138050381Y-83799467D01*
X138050381Y-83704229D01*
X138002762Y-83561371D01*
X137907524Y-83466133D01*
X137812286Y-83418514D01*
X137621810Y-83370895D01*
X137478952Y-83370895D01*
X137288476Y-83418514D01*
X137193238Y-83466133D01*
X137098000Y-83561371D01*
X137050381Y-83704229D01*
X137050381Y-83799467D01*
X137098000Y-83942324D01*
X137145619Y-83989943D01*
X137050381Y-84323276D02*
X137050381Y-84942324D01*
X137431333Y-84608990D01*
X137431333Y-84751848D01*
X137478952Y-84847086D01*
X137526571Y-84894705D01*
X137621810Y-84942324D01*
X137859905Y-84942324D01*
X137955143Y-84894705D01*
X138002762Y-84847086D01*
X138050381Y-84751848D01*
X138050381Y-84466133D01*
X138002762Y-84370895D01*
X137955143Y-84323276D01*
X138050381Y-85418514D02*
X138050381Y-85608990D01*
X138002762Y-85704229D01*
X137955143Y-85751848D01*
X137812286Y-85847086D01*
X137621810Y-85894705D01*
X137240857Y-85894705D01*
X137145619Y-85847086D01*
X137098000Y-85799467D01*
X137050381Y-85704229D01*
X137050381Y-85513752D01*
X137098000Y-85418514D01*
X137145619Y-85370895D01*
X137240857Y-85323276D01*
X137478952Y-85323276D01*
X137574190Y-85370895D01*
X137621810Y-85418514D01*
X137669429Y-85513752D01*
X137669429Y-85704229D01*
X137621810Y-85799467D01*
X137574190Y-85847086D01*
X137478952Y-85894705D01*
X191746143Y-92956143D02*
X191793762Y-92908524D01*
X191841381Y-92765667D01*
X191841381Y-92670429D01*
X191793762Y-92527571D01*
X191698524Y-92432333D01*
X191603286Y-92384714D01*
X191412810Y-92337095D01*
X191269952Y-92337095D01*
X191079476Y-92384714D01*
X190984238Y-92432333D01*
X190889000Y-92527571D01*
X190841381Y-92670429D01*
X190841381Y-92765667D01*
X190889000Y-92908524D01*
X190936619Y-92956143D01*
X190841381Y-93289476D02*
X190841381Y-93908524D01*
X191222333Y-93575190D01*
X191222333Y-93718048D01*
X191269952Y-93813286D01*
X191317571Y-93860905D01*
X191412810Y-93908524D01*
X191650905Y-93908524D01*
X191746143Y-93860905D01*
X191793762Y-93813286D01*
X191841381Y-93718048D01*
X191841381Y-93432333D01*
X191793762Y-93337095D01*
X191746143Y-93289476D01*
X190936619Y-94289476D02*
X190889000Y-94337095D01*
X190841381Y-94432333D01*
X190841381Y-94670429D01*
X190889000Y-94765667D01*
X190936619Y-94813286D01*
X191031857Y-94860905D01*
X191127095Y-94860905D01*
X191269952Y-94813286D01*
X191841381Y-94241857D01*
X191841381Y-94860905D01*
X123888428Y-149518619D02*
X123983666Y-149471000D01*
X124078904Y-149375762D01*
X124221761Y-149232905D01*
X124317000Y-149185286D01*
X124412238Y-149185286D01*
X124364619Y-149423381D02*
X124459857Y-149375762D01*
X124555095Y-149280524D01*
X124602714Y-149090048D01*
X124602714Y-148756714D01*
X124555095Y-148566238D01*
X124459857Y-148471000D01*
X124364619Y-148423381D01*
X124174142Y-148423381D01*
X124078904Y-148471000D01*
X123983666Y-148566238D01*
X123936047Y-148756714D01*
X123936047Y-149090048D01*
X123983666Y-149280524D01*
X124078904Y-149375762D01*
X124174142Y-149423381D01*
X124364619Y-149423381D01*
X122983666Y-149423381D02*
X123555095Y-149423381D01*
X123269381Y-149423381D02*
X123269381Y-148423381D01*
X123364619Y-148566238D01*
X123459857Y-148661476D01*
X123555095Y-148709095D01*
X122031285Y-149423381D02*
X122602714Y-149423381D01*
X122317000Y-149423381D02*
X122317000Y-148423381D01*
X122412238Y-148566238D01*
X122507476Y-148661476D01*
X122602714Y-148709095D01*
X178652381Y-85738095D02*
X179461905Y-85738095D01*
X179557143Y-85785714D01*
X179604762Y-85833333D01*
X179652381Y-85928571D01*
X179652381Y-86119048D01*
X179604762Y-86214286D01*
X179557143Y-86261905D01*
X179461905Y-86309524D01*
X178652381Y-86309524D01*
X178985714Y-87214286D02*
X179652381Y-87214286D01*
X178604762Y-86976190D02*
X179319048Y-86738095D01*
X179319048Y-87357143D01*
X162103857Y-82240381D02*
X162437191Y-81764190D01*
X162675286Y-82240381D02*
X162675286Y-81240381D01*
X162294333Y-81240381D01*
X162199095Y-81288000D01*
X162151476Y-81335619D01*
X162103857Y-81430857D01*
X162103857Y-81573714D01*
X162151476Y-81668952D01*
X162199095Y-81716571D01*
X162294333Y-81764190D01*
X162675286Y-81764190D01*
X161199095Y-81240381D02*
X161675286Y-81240381D01*
X161722905Y-81716571D01*
X161675286Y-81668952D01*
X161580048Y-81621333D01*
X161341952Y-81621333D01*
X161246714Y-81668952D01*
X161199095Y-81716571D01*
X161151476Y-81811810D01*
X161151476Y-82049905D01*
X161199095Y-82145143D01*
X161246714Y-82192762D01*
X161341952Y-82240381D01*
X161580048Y-82240381D01*
X161675286Y-82192762D01*
X161722905Y-82145143D01*
X160246714Y-81240381D02*
X160722905Y-81240381D01*
X160770524Y-81716571D01*
X160722905Y-81668952D01*
X160627667Y-81621333D01*
X160389571Y-81621333D01*
X160294333Y-81668952D01*
X160246714Y-81716571D01*
X160199095Y-81811810D01*
X160199095Y-82049905D01*
X160246714Y-82145143D01*
X160294333Y-82192762D01*
X160389571Y-82240381D01*
X160627667Y-82240381D01*
X160722905Y-82192762D01*
X160770524Y-82145143D01*
X162103857Y-83891381D02*
X162437191Y-83415190D01*
X162675286Y-83891381D02*
X162675286Y-82891381D01*
X162294333Y-82891381D01*
X162199095Y-82939000D01*
X162151476Y-82986619D01*
X162103857Y-83081857D01*
X162103857Y-83224714D01*
X162151476Y-83319952D01*
X162199095Y-83367571D01*
X162294333Y-83415190D01*
X162675286Y-83415190D01*
X161199095Y-82891381D02*
X161675286Y-82891381D01*
X161722905Y-83367571D01*
X161675286Y-83319952D01*
X161580048Y-83272333D01*
X161341952Y-83272333D01*
X161246714Y-83319952D01*
X161199095Y-83367571D01*
X161151476Y-83462810D01*
X161151476Y-83700905D01*
X161199095Y-83796143D01*
X161246714Y-83843762D01*
X161341952Y-83891381D01*
X161580048Y-83891381D01*
X161675286Y-83843762D01*
X161722905Y-83796143D01*
X160294333Y-82891381D02*
X160484810Y-82891381D01*
X160580048Y-82939000D01*
X160627667Y-82986619D01*
X160722905Y-83129476D01*
X160770524Y-83319952D01*
X160770524Y-83700905D01*
X160722905Y-83796143D01*
X160675286Y-83843762D01*
X160580048Y-83891381D01*
X160389571Y-83891381D01*
X160294333Y-83843762D01*
X160246714Y-83796143D01*
X160199095Y-83700905D01*
X160199095Y-83462810D01*
X160246714Y-83367571D01*
X160294333Y-83319952D01*
X160389571Y-83272333D01*
X160580048Y-83272333D01*
X160675286Y-83319952D01*
X160722905Y-83367571D01*
X160770524Y-83462810D01*
X178192857Y-132652381D02*
X178526191Y-132176190D01*
X178764286Y-132652381D02*
X178764286Y-131652381D01*
X178383333Y-131652381D01*
X178288095Y-131700000D01*
X178240476Y-131747619D01*
X178192857Y-131842857D01*
X178192857Y-131985714D01*
X178240476Y-132080952D01*
X178288095Y-132128571D01*
X178383333Y-132176190D01*
X178764286Y-132176190D01*
X177335714Y-131652381D02*
X177526191Y-131652381D01*
X177621429Y-131700000D01*
X177669048Y-131747619D01*
X177764286Y-131890476D01*
X177811905Y-132080952D01*
X177811905Y-132461905D01*
X177764286Y-132557143D01*
X177716667Y-132604762D01*
X177621429Y-132652381D01*
X177430952Y-132652381D01*
X177335714Y-132604762D01*
X177288095Y-132557143D01*
X177240476Y-132461905D01*
X177240476Y-132223810D01*
X177288095Y-132128571D01*
X177335714Y-132080952D01*
X177430952Y-132033333D01*
X177621429Y-132033333D01*
X177716667Y-132080952D01*
X177764286Y-132128571D01*
X177811905Y-132223810D01*
X176383333Y-131985714D02*
X176383333Y-132652381D01*
X176621429Y-131604762D02*
X176859524Y-132319048D01*
X176240476Y-132319048D01*
X170242857Y-133102381D02*
X170576191Y-132626190D01*
X170814286Y-133102381D02*
X170814286Y-132102381D01*
X170433333Y-132102381D01*
X170338095Y-132150000D01*
X170290476Y-132197619D01*
X170242857Y-132292857D01*
X170242857Y-132435714D01*
X170290476Y-132530952D01*
X170338095Y-132578571D01*
X170433333Y-132626190D01*
X170814286Y-132626190D01*
X169385714Y-132102381D02*
X169576191Y-132102381D01*
X169671429Y-132150000D01*
X169719048Y-132197619D01*
X169814286Y-132340476D01*
X169861905Y-132530952D01*
X169861905Y-132911905D01*
X169814286Y-133007143D01*
X169766667Y-133054762D01*
X169671429Y-133102381D01*
X169480952Y-133102381D01*
X169385714Y-133054762D01*
X169338095Y-133007143D01*
X169290476Y-132911905D01*
X169290476Y-132673810D01*
X169338095Y-132578571D01*
X169385714Y-132530952D01*
X169480952Y-132483333D01*
X169671429Y-132483333D01*
X169766667Y-132530952D01*
X169814286Y-132578571D01*
X169861905Y-132673810D01*
X168385714Y-132102381D02*
X168861905Y-132102381D01*
X168909524Y-132578571D01*
X168861905Y-132530952D01*
X168766667Y-132483333D01*
X168528571Y-132483333D01*
X168433333Y-132530952D01*
X168385714Y-132578571D01*
X168338095Y-132673810D01*
X168338095Y-132911905D01*
X168385714Y-133007143D01*
X168433333Y-133054762D01*
X168528571Y-133102381D01*
X168766667Y-133102381D01*
X168861905Y-133054762D01*
X168909524Y-133007143D01*
X164269657Y-109374343D02*
X164317276Y-109421962D01*
X164460133Y-109469581D01*
X164555371Y-109469581D01*
X164698229Y-109421962D01*
X164793467Y-109326724D01*
X164841086Y-109231486D01*
X164888705Y-109041010D01*
X164888705Y-108898152D01*
X164841086Y-108707676D01*
X164793467Y-108612438D01*
X164698229Y-108517200D01*
X164555371Y-108469581D01*
X164460133Y-108469581D01*
X164317276Y-108517200D01*
X164269657Y-108564819D01*
X163936324Y-108469581D02*
X163317276Y-108469581D01*
X163650610Y-108850533D01*
X163507752Y-108850533D01*
X163412514Y-108898152D01*
X163364895Y-108945771D01*
X163317276Y-109041010D01*
X163317276Y-109279105D01*
X163364895Y-109374343D01*
X163412514Y-109421962D01*
X163507752Y-109469581D01*
X163793467Y-109469581D01*
X163888705Y-109421962D01*
X163936324Y-109374343D01*
X162983943Y-108469581D02*
X162364895Y-108469581D01*
X162698229Y-108850533D01*
X162555371Y-108850533D01*
X162460133Y-108898152D01*
X162412514Y-108945771D01*
X162364895Y-109041010D01*
X162364895Y-109279105D01*
X162412514Y-109374343D01*
X162460133Y-109421962D01*
X162555371Y-109469581D01*
X162841086Y-109469581D01*
X162936324Y-109421962D01*
X162983943Y-109374343D01*
X159443657Y-103856743D02*
X159491276Y-103904362D01*
X159634133Y-103951981D01*
X159729371Y-103951981D01*
X159872229Y-103904362D01*
X159967467Y-103809124D01*
X160015086Y-103713886D01*
X160062705Y-103523410D01*
X160062705Y-103380552D01*
X160015086Y-103190076D01*
X159967467Y-103094838D01*
X159872229Y-102999600D01*
X159729371Y-102951981D01*
X159634133Y-102951981D01*
X159491276Y-102999600D01*
X159443657Y-103047219D01*
X159110324Y-102951981D02*
X158491276Y-102951981D01*
X158824610Y-103332933D01*
X158681752Y-103332933D01*
X158586514Y-103380552D01*
X158538895Y-103428171D01*
X158491276Y-103523410D01*
X158491276Y-103761505D01*
X158538895Y-103856743D01*
X158586514Y-103904362D01*
X158681752Y-103951981D01*
X158967467Y-103951981D01*
X159062705Y-103904362D01*
X159110324Y-103856743D01*
X157634133Y-102951981D02*
X157824610Y-102951981D01*
X157919848Y-102999600D01*
X157967467Y-103047219D01*
X158062705Y-103190076D01*
X158110324Y-103380552D01*
X158110324Y-103761505D01*
X158062705Y-103856743D01*
X158015086Y-103904362D01*
X157919848Y-103951981D01*
X157729371Y-103951981D01*
X157634133Y-103904362D01*
X157586514Y-103856743D01*
X157538895Y-103761505D01*
X157538895Y-103523410D01*
X157586514Y-103428171D01*
X157634133Y-103380552D01*
X157729371Y-103332933D01*
X157919848Y-103332933D01*
X158015086Y-103380552D01*
X158062705Y-103428171D01*
X158110324Y-103523410D01*
X159443657Y-105329943D02*
X159491276Y-105377562D01*
X159634133Y-105425181D01*
X159729371Y-105425181D01*
X159872229Y-105377562D01*
X159967467Y-105282324D01*
X160015086Y-105187086D01*
X160062705Y-104996610D01*
X160062705Y-104853752D01*
X160015086Y-104663276D01*
X159967467Y-104568038D01*
X159872229Y-104472800D01*
X159729371Y-104425181D01*
X159634133Y-104425181D01*
X159491276Y-104472800D01*
X159443657Y-104520419D01*
X159110324Y-104425181D02*
X158491276Y-104425181D01*
X158824610Y-104806133D01*
X158681752Y-104806133D01*
X158586514Y-104853752D01*
X158538895Y-104901371D01*
X158491276Y-104996610D01*
X158491276Y-105234705D01*
X158538895Y-105329943D01*
X158586514Y-105377562D01*
X158681752Y-105425181D01*
X158967467Y-105425181D01*
X159062705Y-105377562D01*
X159110324Y-105329943D01*
X158157943Y-104425181D02*
X157491276Y-104425181D01*
X157919848Y-105425181D01*
M02*
