G04 #@! TF.FileFunction,Copper,L2,Bot,Signal*
%FSLAX46Y46*%
G04 Gerber Fmt 4.6, Leading zero omitted, Abs format (unit mm)*
G04 Created by KiCad (PCBNEW 4.0.5) date 04/12/18 12:11:43*
%MOMM*%
%LPD*%
G01*
G04 APERTURE LIST*
%ADD10C,0.100000*%
%ADD11R,1.200000X2.000000*%
%ADD12R,0.900000X2.200000*%
%ADD13R,3.500000X3.500000*%
%ADD14R,0.800000X0.900000*%
%ADD15R,0.900000X0.800000*%
%ADD16R,1.100000X4.600000*%
%ADD17R,10.800000X9.400000*%
%ADD18R,5.250000X4.550000*%
%ADD19R,1.600000X1.600000*%
%ADD20C,1.600000*%
%ADD21R,0.650000X1.060000*%
%ADD22R,1.700000X1.700000*%
%ADD23O,1.700000X1.700000*%
%ADD24R,3.800000X2.000000*%
%ADD25R,1.500000X2.000000*%
%ADD26R,4.600000X1.100000*%
%ADD27R,9.400000X10.800000*%
%ADD28R,4.550000X5.250000*%
%ADD29R,0.750000X1.200000*%
%ADD30R,1.200000X0.750000*%
%ADD31C,2.600000*%
%ADD32R,0.400000X1.350000*%
%ADD33O,1.250000X0.950000*%
%ADD34O,1.000000X1.550000*%
%ADD35R,1.200000X0.900000*%
%ADD36R,0.900000X1.200000*%
%ADD37R,1.200000X2.200000*%
%ADD38R,5.800000X6.400000*%
%ADD39R,2.750000X3.050000*%
%ADD40C,1.500000*%
%ADD41R,10.000000X3.700000*%
%ADD42R,0.420000X0.220000*%
%ADD43C,0.650000*%
%ADD44C,0.450000*%
%ADD45C,0.600000*%
%ADD46C,1.350000*%
%ADD47C,0.500000*%
%ADD48C,0.300000*%
%ADD49C,0.250000*%
%ADD50C,1.000000*%
%ADD51C,0.150000*%
%ADD52C,0.200000*%
%ADD53C,0.700000*%
%ADD54C,0.254000*%
G04 APERTURE END LIST*
D10*
D11*
X160909000Y-104775000D03*
X158369000Y-104775000D03*
X155829000Y-104775000D03*
X155829000Y-94775000D03*
X158369000Y-94775000D03*
X160909000Y-94775000D03*
D12*
X163099000Y-102275000D03*
X163099000Y-97275000D03*
X150599000Y-102275000D03*
X150599000Y-97275000D03*
D13*
X183946800Y-102514400D03*
X189946800Y-102514400D03*
X186946800Y-97814400D03*
D14*
X174945000Y-107839000D03*
X176845000Y-107839000D03*
X175895000Y-109839000D03*
D15*
X156956000Y-109794000D03*
X156956000Y-111694000D03*
X154956000Y-110744000D03*
D16*
X159160000Y-117161000D03*
X160860000Y-117161000D03*
X162560000Y-117161000D03*
X164260000Y-117161000D03*
X165960000Y-117161000D03*
D17*
X162560000Y-126311000D03*
D18*
X165335000Y-128736000D03*
X159785000Y-123886000D03*
X159785000Y-128736000D03*
X165335000Y-123886000D03*
D19*
X154940000Y-127254000D03*
D20*
X154940000Y-129754000D03*
D19*
X171577000Y-121412000D03*
D20*
X171577000Y-123912000D03*
D19*
X148590000Y-121412000D03*
D20*
X148590000Y-123912000D03*
D21*
X152974000Y-115740000D03*
X153924000Y-115740000D03*
X154874000Y-115740000D03*
X154874000Y-117940000D03*
X152974000Y-117940000D03*
D22*
X164719000Y-63754000D03*
D23*
X167259000Y-63754000D03*
X169799000Y-63754000D03*
X172339000Y-63754000D03*
D24*
X186690000Y-74523200D03*
D25*
X186690000Y-80823200D03*
X184390000Y-80823200D03*
X188990000Y-80823200D03*
D22*
X187960000Y-85090000D03*
D23*
X187960000Y-87630000D03*
D26*
X183836000Y-125320000D03*
X183836000Y-123620000D03*
X183836000Y-121920000D03*
X183836000Y-120220000D03*
X183836000Y-118520000D03*
D27*
X192986000Y-121920000D03*
D28*
X195411000Y-119145000D03*
X190561000Y-124695000D03*
X195411000Y-124695000D03*
X190561000Y-119145000D03*
D24*
X194564000Y-74523200D03*
D25*
X194564000Y-80823200D03*
X192264000Y-80823200D03*
X196864000Y-80823200D03*
D22*
X182880000Y-63754000D03*
D23*
X180340000Y-63754000D03*
X177800000Y-63754000D03*
D29*
X170434000Y-119187000D03*
X170434000Y-117287000D03*
X152273000Y-109794000D03*
X152273000Y-111694000D03*
X155702000Y-88846700D03*
X155702000Y-86946700D03*
D19*
X184607200Y-111201200D03*
D20*
X187107200Y-111201200D03*
D29*
X157162500Y-88846700D03*
X157162500Y-86946700D03*
D19*
X171704000Y-129540000D03*
D20*
X171704000Y-127040000D03*
D30*
X166436000Y-95631000D03*
X168336000Y-95631000D03*
X195514000Y-71628000D03*
X193614000Y-71628000D03*
D29*
X150114000Y-115890000D03*
X150114000Y-117790000D03*
X161417000Y-109667000D03*
X161417000Y-111567000D03*
D30*
X154874000Y-120904000D03*
X152974000Y-120904000D03*
D29*
X147320000Y-117790000D03*
X147320000Y-115890000D03*
D22*
X177495200Y-118973600D03*
D23*
X177495200Y-116433600D03*
X177495200Y-113893600D03*
D31*
X178816000Y-125730000D03*
X178816000Y-128730000D03*
D32*
X193010000Y-68660000D03*
X193660000Y-68660000D03*
X194310000Y-68660000D03*
X194960000Y-68660000D03*
X195610000Y-68660000D03*
D33*
X191810000Y-68660000D03*
X196810000Y-68660000D03*
D34*
X190810000Y-65960000D03*
X197810000Y-65960000D03*
D35*
X168994000Y-103886000D03*
X166794000Y-103886000D03*
X168994000Y-105537000D03*
X166794000Y-105537000D03*
D36*
X170942000Y-105494000D03*
X170942000Y-103294000D03*
D35*
X170010000Y-84582000D03*
X167810000Y-84582000D03*
X167810000Y-88138000D03*
X170010000Y-88138000D03*
X170010000Y-86487000D03*
X167810000Y-86487000D03*
D36*
X172974000Y-119337000D03*
X172974000Y-117137000D03*
D35*
X168867000Y-107315000D03*
X166667000Y-107315000D03*
D36*
X159512000Y-109644000D03*
X159512000Y-111844000D03*
D37*
X192030000Y-84700000D03*
X196590000Y-84700000D03*
D38*
X194310000Y-91000000D03*
D39*
X195835000Y-92675000D03*
X192785000Y-89325000D03*
X192785000Y-92675000D03*
X195835000Y-89325000D03*
D40*
X141173200Y-68122800D03*
X141173200Y-71922800D03*
D41*
X164020500Y-76898500D03*
X144020500Y-76898500D03*
D42*
X167640000Y-97028000D03*
X167640000Y-97428000D03*
X167640000Y-97828000D03*
X166990000Y-97028000D03*
X166990000Y-97428000D03*
X166990000Y-97828000D03*
D43*
X156273500Y-80137000D03*
X160655000Y-79565500D03*
X168275000Y-79438500D03*
X167640000Y-80073500D03*
X162052000Y-80010000D03*
X182118000Y-88646000D03*
D44*
X158242000Y-84772500D03*
X150622000Y-67437000D03*
X149098000Y-71247000D03*
X153352500Y-64516000D03*
X161417000Y-63563500D03*
X181483000Y-71501000D03*
D45*
X192278000Y-80581500D03*
X188531500Y-76898500D03*
D44*
X160528000Y-93091000D03*
X161036000Y-92583000D03*
X158369000Y-92837000D03*
X159131000Y-91948000D03*
X159639000Y-91440000D03*
X159766000Y-90932000D03*
X150368000Y-93726000D03*
X149860000Y-93218000D03*
X149352000Y-92710000D03*
X148844000Y-92202000D03*
X148336000Y-91694000D03*
X147828000Y-91186000D03*
X147320000Y-90678000D03*
X146812000Y-90170000D03*
X146304000Y-89662000D03*
X145669000Y-89281000D03*
X145034000Y-89281000D03*
X144399000Y-89281000D03*
X143764000Y-89281000D03*
X148590000Y-94488000D03*
X148082000Y-93980000D03*
X147574000Y-93472000D03*
X147066000Y-92964000D03*
X146558000Y-92456000D03*
X146050000Y-91948000D03*
X145542000Y-91440000D03*
X145034000Y-91186000D03*
X144399000Y-91186000D03*
X143764000Y-91186000D03*
X164211000Y-113284000D03*
X164846000Y-113284000D03*
X165481000Y-113284000D03*
X166116000Y-113284000D03*
X166878000Y-113284000D03*
X167640000Y-113284000D03*
X168402000Y-113284000D03*
X169037000Y-113284000D03*
X169672000Y-113284000D03*
X163957000Y-111379000D03*
X164592000Y-111379000D03*
X165227000Y-111379000D03*
X165862000Y-111379000D03*
X166624000Y-111379000D03*
X167386000Y-111379000D03*
X168148000Y-111379000D03*
X168910000Y-111379000D03*
X169672000Y-111379000D03*
X161620200Y-98526600D03*
X156273500Y-116205000D03*
D46*
X192986000Y-121920000D03*
D43*
X148082000Y-96075500D03*
X156019500Y-76771500D03*
D44*
X159994600Y-125933200D03*
X156591000Y-87731600D03*
X163982400Y-98679000D03*
X175895000Y-72872600D03*
X177469800Y-73609200D03*
X179324000Y-72771000D03*
X183896000Y-75247500D03*
X153098500Y-114300000D03*
X151574500Y-116967000D03*
X154432000Y-108775500D03*
X144462500Y-99822000D03*
X144462500Y-104013000D03*
X162687000Y-116776500D03*
X153797000Y-78295500D03*
X161925000Y-70231000D03*
X156972000Y-66040000D03*
X154178000Y-66421000D03*
X170688000Y-75438000D03*
X154686000Y-104902000D03*
X152273000Y-108458000D03*
X167132000Y-99187000D03*
X166243000Y-96901000D03*
X164846000Y-95758000D03*
X162941000Y-109220000D03*
D43*
X144399000Y-106553000D03*
X144399000Y-107696000D03*
D44*
X162560000Y-110236000D03*
X160782000Y-108077000D03*
X152806400Y-80746600D03*
X168656000Y-104648000D03*
X169037000Y-106172000D03*
X170688000Y-104394000D03*
X165989000Y-121031000D03*
X162179000Y-83947000D03*
D43*
X153543000Y-65913000D03*
X161671000Y-66675000D03*
D44*
X164084000Y-69024500D03*
X161239200Y-99110800D03*
X163957000Y-99822000D03*
X167975280Y-99608640D03*
X170489880Y-100934520D03*
X157988000Y-110490000D03*
X195834000Y-84582000D03*
D45*
X182880000Y-82042000D03*
D44*
X155067000Y-75184000D03*
D43*
X156083000Y-69342000D03*
X152019000Y-62230000D03*
X150114000Y-63500000D03*
X153670000Y-68580000D03*
D44*
X163512500Y-69151500D03*
D43*
X157226000Y-67183000D03*
D44*
X164642800Y-81292700D03*
X160972500Y-69342000D03*
X162153600Y-68834000D03*
X164439600Y-81889600D03*
X167386000Y-120269000D03*
X159258000Y-120015000D03*
X161671000Y-84391500D03*
X161290000Y-84836000D03*
X170137000Y-84455000D03*
X170010000Y-88138000D03*
X170010000Y-86487000D03*
D46*
X186866000Y-123620000D03*
D44*
X168783000Y-108204000D03*
X171704000Y-107823000D03*
X160337500Y-82867500D03*
X177982880Y-98673920D03*
D43*
X186753500Y-120269000D03*
D44*
X172161200Y-72605900D03*
X176961800Y-75323700D03*
X162153600Y-81394300D03*
X163106100Y-80124300D03*
X174409100Y-72059800D03*
X181457600Y-72466200D03*
X181470300Y-73088500D03*
X175768000Y-71628000D03*
X180352700Y-73812400D03*
D45*
X184277000Y-73279000D03*
D44*
X177469800Y-72313800D03*
X163804600Y-70180200D03*
D45*
X151574500Y-72072500D03*
D44*
X169545000Y-119253000D03*
D43*
X160909000Y-119761000D03*
X160909000Y-118364000D03*
D44*
X190500000Y-86715600D03*
X188379100Y-67284600D03*
X192633600Y-67716400D03*
X193751200Y-67310000D03*
X167608250Y-74301350D03*
X170776900Y-71107300D03*
X194868800Y-67386200D03*
X153664920Y-110657640D03*
X153416000Y-94107000D03*
X163957000Y-100584000D03*
X155194000Y-93218000D03*
X156337000Y-92202000D03*
X152069800Y-75095100D03*
X149593300Y-77851000D03*
X154813000Y-94615000D03*
X154051000Y-82296000D03*
X164058600Y-83375500D03*
X178460400Y-73812400D03*
X163436300Y-83146900D03*
X172542200Y-73101200D03*
X163207700Y-71196200D03*
X176453800Y-74815700D03*
X177469800Y-74320400D03*
X162585400Y-70688200D03*
D47*
X182880000Y-70104000D02*
X182880000Y-63754000D01*
X181483000Y-71501000D02*
X182880000Y-70104000D01*
X181483000Y-71501000D02*
X181483000Y-71628000D01*
X184378200Y-74523200D02*
X186690000Y-74523200D01*
X181483000Y-71628000D02*
X184378200Y-74523200D01*
D48*
X158242000Y-84772500D02*
X158242000Y-82105500D01*
X158242000Y-82105500D02*
X156273500Y-80137000D01*
X168275000Y-79438500D02*
X164465000Y-79438500D01*
X161099500Y-79565500D02*
X160655000Y-79565500D01*
X161480500Y-79184500D02*
X161099500Y-79565500D01*
X164211000Y-79184500D02*
X161480500Y-79184500D01*
X164465000Y-79438500D02*
X164211000Y-79184500D01*
D47*
X168275000Y-79438500D02*
X168211500Y-79375000D01*
D48*
X163449000Y-79629000D02*
X163639500Y-79629000D01*
X164084000Y-80073500D02*
X167640000Y-80073500D01*
X163639500Y-79629000D02*
X164084000Y-80073500D01*
X162433000Y-79629000D02*
X163449000Y-79629000D01*
X162052000Y-80010000D02*
X162433000Y-79629000D01*
D47*
X161417000Y-63563500D02*
X154305000Y-63563500D01*
X154305000Y-63563500D02*
X153352500Y-64516000D01*
X186690000Y-74523200D02*
X186690000Y-75057000D01*
X186690000Y-75057000D02*
X188531500Y-76898500D01*
X186690000Y-74523200D02*
X186690000Y-80823200D01*
X184912000Y-83312000D02*
X184912000Y-82601200D01*
X184912000Y-82601200D02*
X186690000Y-80823200D01*
X182118000Y-88646000D02*
X184912000Y-85852000D01*
X184912000Y-85852000D02*
X184912000Y-83312000D01*
D49*
X150622000Y-69723000D02*
X150622000Y-67437000D01*
X149098000Y-71247000D02*
X150622000Y-69723000D01*
X186690000Y-80823200D02*
X186690000Y-81026000D01*
X153352500Y-64516000D02*
X153384250Y-64547750D01*
X153384250Y-64547750D02*
X153352500Y-64516000D01*
X192278000Y-80581500D02*
X192264000Y-80595500D01*
X192264000Y-80595500D02*
X192264000Y-80823200D01*
X186690000Y-75057000D02*
X188531500Y-76898500D01*
X161036000Y-92583000D02*
X160528000Y-93091000D01*
X158369000Y-92710000D02*
X158369000Y-92837000D01*
X159131000Y-91948000D02*
X158369000Y-92710000D01*
X159639000Y-91059000D02*
X159639000Y-91440000D01*
X159766000Y-90932000D02*
X159639000Y-91059000D01*
X150368000Y-93726000D02*
X150876000Y-94234000D01*
X149352000Y-92710000D02*
X149860000Y-93218000D01*
X148336000Y-91694000D02*
X148844000Y-92202000D01*
X147320000Y-90678000D02*
X147828000Y-91186000D01*
X146304000Y-89662000D02*
X146812000Y-90170000D01*
X145034000Y-89281000D02*
X145669000Y-89281000D01*
X143764000Y-89281000D02*
X144399000Y-89281000D01*
X148082000Y-93980000D02*
X148590000Y-94488000D01*
X147066000Y-92964000D02*
X147574000Y-93472000D01*
X146050000Y-91948000D02*
X146558000Y-92456000D01*
X145288000Y-91440000D02*
X145542000Y-91440000D01*
X145034000Y-91186000D02*
X145288000Y-91440000D01*
X143764000Y-91186000D02*
X144399000Y-91186000D01*
X164211000Y-113284000D02*
X163830000Y-113665000D01*
X165481000Y-113284000D02*
X164846000Y-113284000D01*
X166878000Y-113284000D02*
X166116000Y-113284000D01*
X168402000Y-113284000D02*
X167640000Y-113284000D01*
X169672000Y-113284000D02*
X169037000Y-113284000D01*
X163957000Y-111379000D02*
X163957000Y-110871000D01*
X165227000Y-111379000D02*
X164592000Y-111379000D01*
X166624000Y-111379000D02*
X165862000Y-111379000D01*
X168148000Y-111379000D02*
X167386000Y-111379000D01*
X169672000Y-111379000D02*
X168910000Y-111379000D01*
X161620200Y-98526600D02*
X161893602Y-98526600D01*
X162046002Y-98679000D02*
X163982400Y-98679000D01*
X161893602Y-98526600D02*
X162046002Y-98679000D01*
D48*
X153924000Y-115740000D02*
X153924000Y-116268500D01*
X153924000Y-116268500D02*
X154368500Y-116713000D01*
X155765500Y-116713000D02*
X156273500Y-116205000D01*
X154368500Y-116713000D02*
X155765500Y-116713000D01*
D50*
X183836000Y-118520000D02*
X189586000Y-118520000D01*
X189586000Y-118520000D02*
X192986000Y-121920000D01*
X192986000Y-121920000D02*
X183836000Y-121920000D01*
X144462500Y-99822000D02*
X144462500Y-99695000D01*
X144462500Y-99695000D02*
X148082000Y-96075500D01*
X144462500Y-104013000D02*
X144462500Y-99822000D01*
X189946800Y-102514400D02*
X190030100Y-102514400D01*
X190030100Y-102514400D02*
X198310500Y-94234000D01*
X198310500Y-70160500D02*
X196810000Y-68660000D01*
X198310500Y-94234000D02*
X198310500Y-70160500D01*
D48*
X156019500Y-76771500D02*
X157321250Y-78073250D01*
X157321250Y-78073250D02*
X157321250Y-79470250D01*
X157480000Y-79629000D02*
X157321250Y-79470250D01*
X184506600Y-97814400D02*
X182499000Y-99822000D01*
X182499000Y-99822000D02*
X174688500Y-99822000D01*
X174688500Y-99822000D02*
X159639000Y-84772500D01*
X159639000Y-84772500D02*
X159639000Y-81788000D01*
X159639000Y-81788000D02*
X157480000Y-79629000D01*
X186946800Y-97814400D02*
X184506600Y-97814400D01*
D50*
X186946800Y-97814400D02*
X187495600Y-97814400D01*
X187495600Y-97814400D02*
X194310000Y-91000000D01*
X189946800Y-102514400D02*
X189946800Y-108361600D01*
X189946800Y-108361600D02*
X187107200Y-111201200D01*
D49*
X159994600Y-125933200D02*
X160372400Y-126311000D01*
X160372400Y-126311000D02*
X162560000Y-126311000D01*
D51*
X157162500Y-86946700D02*
X157162500Y-87160100D01*
X157162500Y-87160100D02*
X156591000Y-87731600D01*
X157162500Y-86946700D02*
X155702000Y-86946700D01*
X196810000Y-68660000D02*
X195610000Y-68660000D01*
X163982400Y-98679000D02*
X163830000Y-98526600D01*
X167640000Y-97428000D02*
X168179800Y-97428000D01*
X168336000Y-97271800D02*
X168336000Y-95631000D01*
X168179800Y-97428000D02*
X168336000Y-97271800D01*
X179324000Y-72771000D02*
X179324000Y-73837800D01*
X180733700Y-75247500D02*
X183896000Y-75247500D01*
X179324000Y-73837800D02*
X180733700Y-75247500D01*
X175895000Y-72872600D02*
X176733200Y-72872600D01*
X176733200Y-72872600D02*
X177469800Y-73609200D01*
X177469800Y-73609200D02*
X177520600Y-73609200D01*
X178358800Y-72771000D02*
X179324000Y-72771000D01*
X177520600Y-73609200D02*
X178358800Y-72771000D01*
D52*
X183896000Y-75247500D02*
X183832500Y-75247500D01*
X153924000Y-115740000D02*
X153924000Y-115125500D01*
X153924000Y-115125500D02*
X153098500Y-114300000D01*
X150114000Y-117790000D02*
X150751500Y-117790000D01*
X150751500Y-117790000D02*
X151574500Y-116967000D01*
X154876500Y-109220000D02*
X154432000Y-108775500D01*
X156956000Y-111694000D02*
X156956000Y-111299500D01*
X156956000Y-111299500D02*
X154876500Y-109220000D01*
X162687000Y-116776500D02*
X162560000Y-116903500D01*
X162560000Y-116903500D02*
X162560000Y-117161000D01*
X161925000Y-70231000D02*
X163004500Y-70231000D01*
X167005000Y-69532500D02*
X172339000Y-64198500D01*
X163703000Y-69532500D02*
X167005000Y-69532500D01*
X163004500Y-70231000D02*
X163703000Y-69532500D01*
X172339000Y-64198500D02*
X172339000Y-63754000D01*
D51*
X154178000Y-66421000D02*
X156591000Y-66421000D01*
X156591000Y-66421000D02*
X156972000Y-66040000D01*
D49*
X164020500Y-76898500D02*
X169227500Y-76898500D01*
X169227500Y-76898500D02*
X170688000Y-75438000D01*
X194310000Y-91000000D02*
X193761200Y-91000000D01*
X193761200Y-91000000D02*
X186946800Y-97814400D01*
D48*
X191810000Y-68660000D02*
X191810000Y-69128000D01*
X191810000Y-69128000D02*
X192913000Y-70231000D01*
X192913000Y-70231000D02*
X195834000Y-70231000D01*
X195834000Y-70231000D02*
X196810000Y-69255000D01*
X196810000Y-69255000D02*
X196810000Y-68660000D01*
X190810000Y-65960000D02*
X197810000Y-65960000D01*
X197810000Y-65960000D02*
X197810000Y-67660000D01*
X197810000Y-67660000D02*
X196810000Y-68660000D01*
X189946800Y-108361600D02*
X187107200Y-111201200D01*
D49*
X152273000Y-109794000D02*
X152273000Y-108458000D01*
X154813000Y-104775000D02*
X155829000Y-104775000D01*
X154686000Y-104902000D02*
X154813000Y-104775000D01*
D52*
X170942000Y-103294000D02*
X171112000Y-103294000D01*
X171112000Y-103294000D02*
X171831000Y-104013000D01*
X160401000Y-108712000D02*
X155702000Y-104013000D01*
X169291000Y-108712000D02*
X160401000Y-108712000D01*
X171831000Y-106172000D02*
X169291000Y-108712000D01*
X171831000Y-104013000D02*
X171831000Y-106172000D01*
X170942000Y-103294000D02*
X170942000Y-100330000D01*
X170942000Y-100330000D02*
X168440000Y-97828000D01*
X168440000Y-97828000D02*
X167640000Y-97828000D01*
X167640000Y-97828000D02*
X167602000Y-97828000D01*
D49*
X155829000Y-94775000D02*
X155923000Y-94775000D01*
X155923000Y-94775000D02*
X154559000Y-93411000D01*
X155120300Y-88846700D02*
X155702000Y-88846700D01*
X154559000Y-89408000D02*
X155120300Y-88846700D01*
X154559000Y-93411000D02*
X154559000Y-89408000D01*
D52*
X166990000Y-97828000D02*
X164376000Y-97828000D01*
X157955000Y-96901000D02*
X155829000Y-94775000D01*
X161544000Y-96901000D02*
X157955000Y-96901000D01*
X162560000Y-95885000D02*
X161544000Y-96901000D01*
X163576000Y-95885000D02*
X162560000Y-95885000D01*
X163830000Y-96139000D02*
X163576000Y-95885000D01*
X163830000Y-97282000D02*
X163830000Y-96139000D01*
X164376000Y-97828000D02*
X163830000Y-97282000D01*
X166990000Y-97828000D02*
X166990000Y-97932000D01*
X166990000Y-97932000D02*
X165735000Y-99187000D01*
X165735000Y-104478000D02*
X166794000Y-105537000D01*
X165735000Y-99187000D02*
X165735000Y-104478000D01*
D50*
X184607200Y-111201200D02*
X184607200Y-113334800D01*
X181200000Y-125320000D02*
X183836000Y-125320000D01*
X180594000Y-124714000D02*
X181200000Y-125320000D01*
X180594000Y-117348000D02*
X180594000Y-124714000D01*
X184607200Y-113334800D02*
X180594000Y-117348000D01*
X183946800Y-102514400D02*
X183946800Y-110540800D01*
X183946800Y-110540800D02*
X184607200Y-111201200D01*
D48*
X183946800Y-110540800D02*
X184607200Y-111201200D01*
D52*
X158369000Y-94775000D02*
X157817800Y-94775000D01*
X157817800Y-94775000D02*
X156768800Y-93726000D01*
X156768800Y-89240400D02*
X157162500Y-88846700D01*
X156768800Y-93726000D02*
X156768800Y-89240400D01*
X164484000Y-97428000D02*
X164211000Y-97155000D01*
X160114000Y-96520000D02*
X158369000Y-94775000D01*
X161417000Y-96520000D02*
X160114000Y-96520000D01*
X162352002Y-95584998D02*
X161417000Y-96520000D01*
X163783998Y-95584998D02*
X162352002Y-95584998D01*
X164211000Y-96012000D02*
X163783998Y-95584998D01*
X164211000Y-97155000D02*
X164211000Y-96012000D01*
X166990000Y-97428000D02*
X164484000Y-97428000D01*
X164484000Y-97428000D02*
X164465000Y-97409000D01*
X167132000Y-99187000D02*
X167132000Y-99695000D01*
X166794000Y-103886000D02*
X167132000Y-103886000D01*
X167132000Y-103886000D02*
X167767000Y-103251000D01*
X167132000Y-99822000D02*
X167132000Y-99695000D01*
X167767000Y-100457000D02*
X167132000Y-99822000D01*
X167767000Y-103251000D02*
X167767000Y-100457000D01*
X166243000Y-96901000D02*
X166497000Y-97155000D01*
X166497000Y-97155000D02*
X166497000Y-97428000D01*
X166497000Y-97428000D02*
X166990000Y-97428000D01*
D50*
X178816000Y-125730000D02*
X178308000Y-125730000D01*
X178308000Y-125730000D02*
X174498000Y-129540000D01*
X174498000Y-129540000D02*
X171704000Y-129540000D01*
D48*
X171704000Y-129540000D02*
X175006000Y-129540000D01*
X175006000Y-129540000D02*
X178816000Y-125730000D01*
D52*
X166436000Y-95631000D02*
X165404800Y-95631000D01*
X164548800Y-94775000D02*
X160909000Y-94775000D01*
X165404800Y-95631000D02*
X164548800Y-94775000D01*
X164973000Y-95631000D02*
X166436000Y-95631000D01*
X164846000Y-95758000D02*
X164973000Y-95631000D01*
D49*
X161417000Y-109667000D02*
X162494000Y-109667000D01*
X162494000Y-109667000D02*
X162941000Y-109220000D01*
D52*
X166436000Y-95631000D02*
X165989000Y-95631000D01*
X166436000Y-95631000D02*
X166436000Y-96474000D01*
X166436000Y-96474000D02*
X166990000Y-97028000D01*
D50*
X144399000Y-110680500D02*
X144399000Y-123190000D01*
X148463000Y-127254000D02*
X154940000Y-127254000D01*
X144399000Y-123190000D02*
X148463000Y-127254000D01*
X144399000Y-107696000D02*
X144399000Y-106553000D01*
X144399000Y-107696000D02*
X144399000Y-110680500D01*
X149608500Y-115890000D02*
X150114000Y-115890000D01*
D53*
X144399000Y-107696000D02*
X144399000Y-108204000D01*
D47*
X149608500Y-115890000D02*
X144399000Y-110680500D01*
X149608500Y-115890000D02*
X150114000Y-115890000D01*
X150114000Y-115890000D02*
X152824000Y-115890000D01*
X152824000Y-115890000D02*
X152974000Y-115740000D01*
D48*
X152974000Y-115740000D02*
X152974000Y-116144000D01*
X152974000Y-116144000D02*
X153924000Y-117094000D01*
X153924000Y-117094000D02*
X153924000Y-122936000D01*
X153924000Y-122936000D02*
X154178000Y-123190000D01*
X164260000Y-117161000D02*
X164260000Y-119839000D01*
X152974000Y-116144000D02*
X153924000Y-117094000D01*
X164260000Y-119839000D02*
X163068000Y-121031000D01*
X163068000Y-121031000D02*
X156845000Y-121031000D01*
D50*
X154940000Y-123698000D02*
X154686000Y-123698000D01*
X154686000Y-123698000D02*
X154178000Y-123190000D01*
X164260000Y-117161000D02*
X164260000Y-120220000D01*
X154940000Y-122936000D02*
X154940000Y-123698000D01*
X154940000Y-123698000D02*
X154940000Y-127254000D01*
X156972000Y-120904000D02*
X154940000Y-122936000D01*
X163576000Y-120904000D02*
X156972000Y-120904000D01*
X164260000Y-120220000D02*
X163576000Y-120904000D01*
D48*
X152824000Y-115890000D02*
X152974000Y-115740000D01*
X150114000Y-115890000D02*
X150053000Y-115890000D01*
D49*
X161417000Y-111567000D02*
X161417000Y-111379000D01*
X161417000Y-111379000D02*
X162560000Y-110236000D01*
X160467000Y-107061000D02*
X160467000Y-105217000D01*
X160467000Y-105217000D02*
X160909000Y-104775000D01*
D52*
X160467000Y-107762000D02*
X160467000Y-107061000D01*
X160467000Y-107061000D02*
X160467000Y-106997500D01*
X160782000Y-108077000D02*
X160467000Y-107762000D01*
D48*
X154874000Y-117940000D02*
X154874000Y-120904000D01*
D49*
X156464000Y-98298000D02*
X153162000Y-94996000D01*
X164592000Y-106426000D02*
X156464000Y-98298000D01*
X168300400Y-106426000D02*
X166166800Y-106426000D01*
X168867000Y-106992600D02*
X168300400Y-106426000D01*
X166166800Y-106426000D02*
X164592000Y-106426000D01*
X153162000Y-94932500D02*
X152806400Y-94576900D01*
X153162000Y-94996000D02*
X153162000Y-94932500D01*
X152806400Y-94576900D02*
X152806400Y-80746600D01*
X168867000Y-107315000D02*
X168867000Y-106992600D01*
D51*
X168994000Y-103886000D02*
X168994000Y-104310000D01*
X168994000Y-104310000D02*
X168656000Y-104648000D01*
X168994000Y-103886000D02*
X168994000Y-103929000D01*
D52*
X168994000Y-105537000D02*
X168994000Y-106129000D01*
X168994000Y-106129000D02*
X169037000Y-106172000D01*
X168994000Y-105537000D02*
X168994000Y-105961000D01*
X170942000Y-105494000D02*
X170942000Y-104648000D01*
X170942000Y-104648000D02*
X170688000Y-104394000D01*
X165960000Y-117161000D02*
X165960000Y-121002000D01*
X165960000Y-121002000D02*
X165989000Y-121031000D01*
X166878000Y-83947000D02*
X167513000Y-84582000D01*
X166243000Y-83947000D02*
X166878000Y-83947000D01*
X162179000Y-83947000D02*
X166243000Y-83947000D01*
X167513000Y-84582000D02*
X167810000Y-84582000D01*
D49*
X161671000Y-66675000D02*
X161734500Y-66675000D01*
D48*
X153543000Y-65913000D02*
X154051000Y-65405000D01*
X154051000Y-65405000D02*
X160401000Y-65405000D01*
X160401000Y-65405000D02*
X161671000Y-66675000D01*
D49*
X161734500Y-66675000D02*
X164084000Y-69024500D01*
D50*
X148590000Y-121412000D02*
X148717000Y-121412000D01*
X148717000Y-121412000D02*
X152189000Y-117940000D01*
X152189000Y-117940000D02*
X152974000Y-117940000D01*
D49*
X161239200Y-99110800D02*
X161239200Y-99060000D01*
X161239200Y-99060000D02*
X161239200Y-99110800D01*
X161239200Y-99110800D02*
X161239200Y-99060000D01*
D52*
X147320000Y-117790000D02*
X148397000Y-117790000D01*
X148397000Y-117790000D02*
X150304500Y-119697500D01*
D48*
X163576000Y-99060000D02*
X161239200Y-99060000D01*
X163830000Y-99314000D02*
X163576000Y-99060000D01*
X163830000Y-99949000D02*
X163830000Y-99314000D01*
X163957000Y-99822000D02*
X163830000Y-99949000D01*
X152974000Y-117940000D02*
X152062000Y-117940000D01*
X152062000Y-117940000D02*
X150304500Y-119697500D01*
X150304500Y-119697500D02*
X148590000Y-121412000D01*
X169164000Y-99608640D02*
X167975280Y-99608640D01*
X170489880Y-100934520D02*
X169164000Y-99608640D01*
D47*
X154874000Y-115740000D02*
X154874000Y-115699500D01*
X154874000Y-115699500D02*
X157988000Y-112585500D01*
X157988000Y-112585500D02*
X157988000Y-110490000D01*
D52*
X157988000Y-110490000D02*
X157976500Y-110490000D01*
X157976500Y-110490000D02*
X157988000Y-110490000D01*
X157988000Y-110490000D02*
X157976500Y-110490000D01*
X157976500Y-110490000D02*
X157976500Y-112637500D01*
X157976500Y-112637500D02*
X154874000Y-115740000D01*
D49*
X195952000Y-84700000D02*
X196590000Y-84700000D01*
X195834000Y-84582000D02*
X195952000Y-84700000D01*
X182880000Y-82042000D02*
X183171200Y-82042000D01*
X183171200Y-82042000D02*
X184390000Y-80823200D01*
D52*
X184098800Y-80823200D02*
X184390000Y-80823200D01*
D49*
X158072000Y-108204000D02*
X159512000Y-109644000D01*
X152781000Y-108204000D02*
X158072000Y-108204000D01*
X152019000Y-107442000D02*
X152781000Y-108204000D01*
X152019000Y-78232000D02*
X152019000Y-107442000D01*
X155067000Y-75184000D02*
X152019000Y-78232000D01*
D48*
X156083000Y-69342000D02*
X152019000Y-65278000D01*
X152019000Y-65278000D02*
X152019000Y-62230000D01*
X150114000Y-65024000D02*
X150114000Y-63500000D01*
X153670000Y-68580000D02*
X150114000Y-65024000D01*
D49*
X161036000Y-67564000D02*
X161925000Y-67564000D01*
X161925000Y-67564000D02*
X163512500Y-69151500D01*
D48*
X157607000Y-67564000D02*
X161036000Y-67564000D01*
X157226000Y-67183000D02*
X157607000Y-67564000D01*
X158045150Y-72193150D02*
X158045150Y-72205850D01*
X157841998Y-79184500D02*
X157841998Y-79355998D01*
X157841998Y-72409002D02*
X157841998Y-79184500D01*
X158045150Y-72205850D02*
X157841998Y-72409002D01*
D49*
X160972500Y-69342000D02*
X160896300Y-69342000D01*
D48*
X164642800Y-81292700D02*
X164071300Y-81292700D01*
X161290000Y-82804000D02*
X160528000Y-82042000D01*
X162560000Y-82804000D02*
X161290000Y-82804000D01*
X164071300Y-81292700D02*
X162560000Y-82804000D01*
X160528000Y-82042000D02*
X157841998Y-79355998D01*
X158045150Y-72193150D02*
X160782000Y-69456300D01*
D49*
X160896300Y-69342000D02*
X160782000Y-69456300D01*
D48*
X159226250Y-72167750D02*
X158242000Y-73152000D01*
X158496000Y-79438500D02*
X158496000Y-79444312D01*
X158242000Y-79184500D02*
X158496000Y-79438500D01*
X158242000Y-73152000D02*
X158242000Y-79184500D01*
D49*
X162153600Y-68834000D02*
X162153600Y-69176900D01*
X162153600Y-69176900D02*
X161480500Y-69850000D01*
X161480500Y-69850000D02*
X161239200Y-70091300D01*
X161239200Y-70091300D02*
X161239200Y-70154800D01*
D48*
X165252400Y-80772000D02*
X165252400Y-80670400D01*
X165252400Y-80670400D02*
X165100000Y-80518000D01*
X165100000Y-80518000D02*
X163830000Y-80518000D01*
X163830000Y-80518000D02*
X162052000Y-82296000D01*
X162052000Y-82296000D02*
X161347688Y-82296000D01*
X161347688Y-82296000D02*
X158496000Y-79444312D01*
X159226250Y-72167750D02*
X161239200Y-70154800D01*
D52*
X165252400Y-80632300D02*
X165252400Y-80772000D01*
X165252400Y-80772000D02*
X165252400Y-81330800D01*
X165252400Y-81330800D02*
X164693600Y-81889600D01*
X161239200Y-70091300D02*
X161239200Y-70154800D01*
X165252400Y-80632300D02*
X165265100Y-80645000D01*
X165265100Y-80645000D02*
X165265100Y-80670400D01*
X164693600Y-81889600D02*
X164439600Y-81889600D01*
X173525000Y-117137000D02*
X173990000Y-117602000D01*
X173990000Y-117602000D02*
X173990000Y-120142000D01*
X173990000Y-120142000D02*
X173863000Y-120269000D01*
X173863000Y-120269000D02*
X167386000Y-120269000D01*
X172974000Y-117137000D02*
X173525000Y-117137000D01*
X159160000Y-119917000D02*
X159160000Y-117161000D01*
X159258000Y-120015000D02*
X159160000Y-119917000D01*
X175895000Y-109839000D02*
X175895000Y-114216000D01*
X175895000Y-114216000D02*
X172974000Y-117137000D01*
X161671000Y-84391500D02*
X166052500Y-84391500D01*
X166052500Y-84391500D02*
X167810000Y-86149000D01*
X167810000Y-86149000D02*
X167810000Y-86487000D01*
X161290000Y-84836000D02*
X161353500Y-84899500D01*
X161353500Y-84899500D02*
X164592000Y-84899500D01*
X164592000Y-84899500D02*
X167810000Y-88117500D01*
X167810000Y-88117500D02*
X167810000Y-88138000D01*
D48*
X170137000Y-84455000D02*
X170010000Y-84582000D01*
D50*
X183836000Y-123620000D02*
X186866000Y-123620000D01*
X186103000Y-128730000D02*
X178816000Y-128730000D01*
X187198000Y-127635000D02*
X186103000Y-128730000D01*
X187198000Y-123952000D02*
X187198000Y-127635000D01*
X186866000Y-123620000D02*
X187198000Y-123952000D01*
D48*
X178816000Y-128730000D02*
X178864000Y-128730000D01*
X181561000Y-123620000D02*
X183836000Y-123620000D01*
X178816000Y-128730000D02*
X178816000Y-128397000D01*
D52*
X166667000Y-107315000D02*
X167132000Y-107315000D01*
X167132000Y-107315000D02*
X168021000Y-108204000D01*
X168021000Y-108204000D02*
X168783000Y-108204000D01*
X171704000Y-107823000D02*
X171720000Y-107839000D01*
X171720000Y-107839000D02*
X174945000Y-107839000D01*
X156956000Y-109794000D02*
X158117500Y-109794000D01*
X159512000Y-111188500D02*
X159512000Y-111844000D01*
X158117500Y-109794000D02*
X159512000Y-111188500D01*
X160655000Y-84455000D02*
X160655000Y-85026500D01*
X160655000Y-85026500D02*
X161277300Y-85648800D01*
X160655000Y-83185000D02*
X160655000Y-84455000D01*
X160337500Y-82867500D02*
X160655000Y-83185000D01*
D48*
X164078920Y-86136480D02*
X164078920Y-86126320D01*
X163591240Y-85648800D02*
X164078920Y-86136480D01*
X161277300Y-85648800D02*
X163591240Y-85648800D01*
X176626520Y-98673920D02*
X177982880Y-98673920D01*
X164078920Y-86126320D02*
X176626520Y-98673920D01*
D50*
X186704500Y-120220000D02*
X183836000Y-120220000D01*
X186753500Y-120269000D02*
X186704500Y-120220000D01*
D48*
X186866000Y-120220000D02*
X183836000Y-120220000D01*
X186944000Y-120142000D02*
X186866000Y-120220000D01*
D52*
X172161200Y-72605900D02*
X172161200Y-72593200D01*
X172161200Y-72593200D02*
X172161200Y-72605900D01*
X172161200Y-72605900D02*
X172161200Y-72593200D01*
D51*
X172808900Y-72593200D02*
X172161200Y-72593200D01*
X175564800Y-75349100D02*
X172808900Y-72593200D01*
X176936400Y-75349100D02*
X175564800Y-75349100D01*
X176961800Y-75323700D02*
X176936400Y-75349100D01*
D52*
X162153600Y-81076800D02*
X162153600Y-81394300D01*
X163106100Y-80124300D02*
X162153600Y-81076800D01*
D51*
X174409100Y-72059800D02*
X175450500Y-71018400D01*
X175450500Y-71018400D02*
X180009800Y-71018400D01*
X180009800Y-71018400D02*
X181457600Y-72466200D01*
X179273200Y-71268402D02*
X179650202Y-71268402D01*
X179650202Y-71268402D02*
X179755800Y-71374000D01*
X181470300Y-73088500D02*
X179755800Y-71374000D01*
X175768000Y-71628000D02*
X175996600Y-71628000D01*
X175996600Y-71628000D02*
X176356198Y-71268402D01*
X179273200Y-71268402D02*
X176356198Y-71268402D01*
D47*
X194564000Y-80823200D02*
X194564000Y-74523200D01*
X195514000Y-71628000D02*
X195514000Y-73573200D01*
X195514000Y-73573200D02*
X194564000Y-74523200D01*
X194564000Y-74523200D02*
X193966700Y-74523200D01*
X193966700Y-74523200D02*
X192151000Y-72707500D01*
X192151000Y-72707500D02*
X184848500Y-72707500D01*
X184848500Y-72707500D02*
X184277000Y-73279000D01*
X180352700Y-73812400D02*
X180352700Y-72720200D01*
X180352700Y-72720200D02*
X179946300Y-72313800D01*
X177469800Y-72313800D02*
X178816000Y-72313800D01*
D52*
X178816000Y-72313800D02*
X179946300Y-72313800D01*
X179946300Y-72313800D02*
X180352700Y-72720200D01*
D49*
X195514000Y-73573200D02*
X194564000Y-74523200D01*
X184848500Y-72707500D02*
X184277000Y-73279000D01*
X194564000Y-74523200D02*
X194157200Y-74523200D01*
X163804600Y-70180200D02*
X163880800Y-70180200D01*
X173926500Y-69913500D02*
X174371000Y-69469000D01*
X164147500Y-69913500D02*
X173926500Y-69913500D01*
X163880800Y-70180200D02*
X164147500Y-69913500D01*
X175501300Y-68338700D02*
X174371000Y-69469000D01*
D52*
X175501300Y-68338700D02*
X180340000Y-63500000D01*
D49*
X174371000Y-69469000D02*
X174244000Y-69596000D01*
D47*
X144020500Y-76898500D02*
X146748500Y-76898500D01*
X146748500Y-76898500D02*
X151574500Y-72072500D01*
D52*
X172974000Y-119337000D02*
X170584000Y-119337000D01*
X170584000Y-119337000D02*
X170434000Y-119187000D01*
X170434000Y-119187000D02*
X169611000Y-119187000D01*
X169611000Y-119187000D02*
X169545000Y-119253000D01*
D50*
X160860000Y-117161000D02*
X160860000Y-119712000D01*
X160860000Y-119712000D02*
X160909000Y-119761000D01*
X160909000Y-118364000D02*
X160860000Y-118315000D01*
X160860000Y-118315000D02*
X160860000Y-117161000D01*
D49*
X190500000Y-86715600D02*
X192030000Y-85185600D01*
X192030000Y-85185600D02*
X192030000Y-84700000D01*
D52*
X192633600Y-67716400D02*
X192633600Y-67703700D01*
X192633600Y-67703700D02*
X192214500Y-67284600D01*
X192214500Y-67284600D02*
X188379100Y-67284600D01*
X192633600Y-67716400D02*
X193010000Y-68092800D01*
X193010000Y-68092800D02*
X193010000Y-68660000D01*
X194310000Y-67868800D02*
X194310000Y-68660000D01*
X193751200Y-67310000D02*
X194310000Y-67868800D01*
X170776900Y-71132700D02*
X170776900Y-71107300D01*
X170776900Y-71132700D02*
X167608250Y-74301350D01*
X194868800Y-67386200D02*
X194960000Y-67477400D01*
X194960000Y-67477400D02*
X194960000Y-68660000D01*
X153664920Y-110657640D02*
X153751280Y-110744000D01*
X153751280Y-110744000D02*
X154956000Y-110744000D01*
D49*
X153416000Y-94488000D02*
X153416000Y-94107000D01*
X159512000Y-100584000D02*
X153416000Y-94488000D01*
X163957000Y-100584000D02*
X159512000Y-100584000D01*
X156337000Y-92202000D02*
X155321000Y-93218000D01*
X155321000Y-93218000D02*
X155194000Y-93218000D01*
D52*
X151485600Y-75095100D02*
X152069800Y-75095100D01*
X149593300Y-76987400D02*
X151485600Y-75095100D01*
X149593300Y-77851000D02*
X149593300Y-76987400D01*
D48*
X154813000Y-94615000D02*
X154051000Y-93853000D01*
X154051000Y-93853000D02*
X154051000Y-82296000D01*
D51*
X164426900Y-83007200D02*
X164058600Y-83375500D01*
X178460400Y-73812400D02*
X178460400Y-75234800D01*
X171462700Y-82232500D02*
X169862500Y-82232500D01*
X178460400Y-75234800D02*
X171462700Y-82232500D01*
X169862500Y-82232500D02*
X165201600Y-82232500D01*
X165201600Y-82232500D02*
X164426900Y-83007200D01*
D52*
X172542200Y-74485500D02*
X172542200Y-76123800D01*
X167449500Y-81216500D02*
X165811200Y-81216500D01*
X172542200Y-76123800D02*
X167449500Y-81216500D01*
X164604700Y-82423000D02*
X165811200Y-81216500D01*
X163436300Y-83146900D02*
X163436300Y-83083400D01*
X164096700Y-82423000D02*
X164604700Y-82423000D01*
X163436300Y-83083400D02*
X164096700Y-82423000D01*
X172542200Y-74485500D02*
X172542200Y-74422000D01*
X172542200Y-73101200D02*
X172542200Y-74422000D01*
X163207700Y-71196200D02*
X163868100Y-71196200D01*
X175691800Y-74815700D02*
X176453800Y-74815700D01*
X171475400Y-70599300D02*
X175691800Y-74815700D01*
X164465000Y-70599300D02*
X171475400Y-70599300D01*
X163868100Y-71196200D02*
X164465000Y-70599300D01*
X163906200Y-70688200D02*
X162585400Y-70688200D01*
X164465000Y-70289702D02*
X164304698Y-70289702D01*
X172091350Y-70694550D02*
X171686502Y-70289702D01*
X171686502Y-70289702D02*
X164465000Y-70289702D01*
X172091350Y-70758050D02*
X172091350Y-70694550D01*
X164304698Y-70289702D02*
X163906200Y-70688200D01*
D51*
X173812200Y-72478900D02*
X173812200Y-72504300D01*
X175628300Y-74320400D02*
X177469800Y-74320400D01*
X173812200Y-72504300D02*
X175628300Y-74320400D01*
X172091350Y-70758050D02*
X173812200Y-72478900D01*
D54*
G36*
X151205626Y-61685493D02*
X151059167Y-62038206D01*
X151058833Y-62420118D01*
X151204677Y-62773086D01*
X151234000Y-62802460D01*
X151234000Y-65033842D01*
X150899000Y-64698842D01*
X150899000Y-64072831D01*
X150927374Y-64044507D01*
X151073833Y-63691794D01*
X151074167Y-63309882D01*
X150928323Y-62956914D01*
X150658507Y-62686626D01*
X150305794Y-62540167D01*
X149923882Y-62539833D01*
X149570914Y-62685677D01*
X149300626Y-62955493D01*
X149154167Y-63308206D01*
X149153833Y-63690118D01*
X149299677Y-64043086D01*
X149329000Y-64072460D01*
X149329000Y-65024000D01*
X149388755Y-65324407D01*
X149558921Y-65579079D01*
X150556785Y-66576943D01*
X150451686Y-66576851D01*
X150135486Y-66707503D01*
X149893353Y-66949213D01*
X149762150Y-67265185D01*
X149761851Y-67607314D01*
X149862000Y-67849692D01*
X149862000Y-69408198D01*
X148852126Y-70418072D01*
X148611486Y-70517503D01*
X148369353Y-70759213D01*
X148238150Y-71075185D01*
X148237851Y-71417314D01*
X148368503Y-71733514D01*
X148610213Y-71975647D01*
X148926185Y-72106850D01*
X149268314Y-72107149D01*
X149584514Y-71976497D01*
X149826647Y-71734787D01*
X149927219Y-71492583D01*
X151159401Y-70260401D01*
X151324148Y-70013840D01*
X151344107Y-69913500D01*
X151382000Y-69723000D01*
X151382000Y-67849281D01*
X151481850Y-67608815D01*
X151481943Y-67502101D01*
X152709868Y-68730026D01*
X152709833Y-68770118D01*
X152855677Y-69123086D01*
X153125493Y-69393374D01*
X153478206Y-69539833D01*
X153860118Y-69540167D01*
X154213086Y-69394323D01*
X154483374Y-69124507D01*
X154563173Y-68932331D01*
X155122868Y-69492026D01*
X155122833Y-69532118D01*
X155268677Y-69885086D01*
X155538493Y-70155374D01*
X155891206Y-70301833D01*
X156273118Y-70302167D01*
X156626086Y-70156323D01*
X156896374Y-69886507D01*
X157042833Y-69533794D01*
X157043167Y-69151882D01*
X156897323Y-68798914D01*
X156627507Y-68528626D01*
X156274794Y-68382167D01*
X156233289Y-68382131D01*
X154332499Y-66481341D01*
X154356374Y-66457507D01*
X154467452Y-66190000D01*
X160075842Y-66190000D01*
X160664842Y-66779000D01*
X158097792Y-66779000D01*
X158040323Y-66639914D01*
X157770507Y-66369626D01*
X157417794Y-66223167D01*
X157035882Y-66222833D01*
X156682914Y-66368677D01*
X156412626Y-66638493D01*
X156266167Y-66991206D01*
X156265833Y-67373118D01*
X156411677Y-67726086D01*
X156681493Y-67996374D01*
X157034206Y-68142833D01*
X157087541Y-68142880D01*
X157306593Y-68289245D01*
X157607000Y-68349000D01*
X161036000Y-68349000D01*
X161161682Y-68324000D01*
X161447205Y-68324000D01*
X161424953Y-68346213D01*
X161335536Y-68561552D01*
X161144315Y-68482150D01*
X160802186Y-68481851D01*
X160485986Y-68612503D01*
X160243853Y-68854213D01*
X160222496Y-68905646D01*
X157490071Y-71638071D01*
X157464498Y-71676344D01*
X157286919Y-71853923D01*
X157116753Y-72108595D01*
X157066774Y-72359853D01*
X157056998Y-72409002D01*
X157056998Y-79355998D01*
X157116753Y-79656405D01*
X157286919Y-79911077D01*
X159682268Y-82306426D01*
X159608853Y-82379713D01*
X159477650Y-82695685D01*
X159477351Y-83037814D01*
X159608003Y-83354014D01*
X159849713Y-83596147D01*
X159920000Y-83625333D01*
X159920000Y-85026500D01*
X159966504Y-85260287D01*
X159975949Y-85307772D01*
X160135277Y-85546223D01*
X160579834Y-85990781D01*
X160722221Y-86203879D01*
X160976894Y-86374045D01*
X161277300Y-86433800D01*
X163266082Y-86433800D01*
X163523841Y-86691559D01*
X163554460Y-86712018D01*
X176071441Y-99228999D01*
X176326113Y-99399165D01*
X176626520Y-99458920D01*
X177630806Y-99458920D01*
X177811065Y-99533770D01*
X178153194Y-99534069D01*
X178469394Y-99403417D01*
X178711527Y-99161707D01*
X178842730Y-98845735D01*
X178843029Y-98503606D01*
X178712377Y-98187406D01*
X178470667Y-97945273D01*
X178154695Y-97814070D01*
X177812566Y-97813771D01*
X177630693Y-97888920D01*
X176951678Y-97888920D01*
X175000848Y-95938090D01*
X184561800Y-95938090D01*
X184561800Y-97528650D01*
X184720550Y-97687400D01*
X186819800Y-97687400D01*
X186819800Y-95588150D01*
X187073800Y-95588150D01*
X187073800Y-97687400D01*
X189173050Y-97687400D01*
X189331800Y-97528650D01*
X189331800Y-95938090D01*
X189235127Y-95704701D01*
X189056498Y-95526073D01*
X188823109Y-95429400D01*
X187232550Y-95429400D01*
X187073800Y-95588150D01*
X186819800Y-95588150D01*
X186661050Y-95429400D01*
X185070491Y-95429400D01*
X184837102Y-95526073D01*
X184658473Y-95704701D01*
X184561800Y-95938090D01*
X175000848Y-95938090D01*
X168298198Y-89235440D01*
X168410000Y-89235440D01*
X168645317Y-89191162D01*
X168861441Y-89052090D01*
X168909134Y-88982289D01*
X168945910Y-89039441D01*
X169158110Y-89184431D01*
X169410000Y-89235440D01*
X170610000Y-89235440D01*
X170845317Y-89191162D01*
X171061441Y-89052090D01*
X171206431Y-88839890D01*
X171257440Y-88588000D01*
X171257440Y-87688000D01*
X171213162Y-87452683D01*
X171122479Y-87311758D01*
X171206431Y-87188890D01*
X171257440Y-86937000D01*
X171257440Y-86037000D01*
X171213162Y-85801683D01*
X171074090Y-85585559D01*
X171000521Y-85535291D01*
X171061441Y-85496090D01*
X171206431Y-85283890D01*
X171257440Y-85032000D01*
X171257440Y-84132000D01*
X171213162Y-83896683D01*
X171074090Y-83680559D01*
X170861890Y-83535569D01*
X170610000Y-83484560D01*
X169410000Y-83484560D01*
X169174683Y-83528838D01*
X168958559Y-83667910D01*
X168910866Y-83737711D01*
X168874090Y-83680559D01*
X168661890Y-83535569D01*
X168410000Y-83484560D01*
X167455006Y-83484560D01*
X167397723Y-83427277D01*
X167159272Y-83267949D01*
X166878000Y-83212000D01*
X165226192Y-83212000D01*
X165495692Y-82942500D01*
X171462700Y-82942500D01*
X171734405Y-82888454D01*
X171964746Y-82734546D01*
X178962446Y-75736846D01*
X179116354Y-75506505D01*
X179170400Y-75234800D01*
X179170400Y-74318801D01*
X179189047Y-74300187D01*
X179320250Y-73984215D01*
X179320549Y-73642086D01*
X179189897Y-73325886D01*
X179022107Y-73157803D01*
X179154675Y-73131433D01*
X179278345Y-73048800D01*
X179429720Y-73048800D01*
X179467700Y-73086780D01*
X179467700Y-73812400D01*
X179492590Y-73937532D01*
X179492551Y-73982714D01*
X179509957Y-74024840D01*
X179535067Y-74151075D01*
X179605951Y-74257161D01*
X179623203Y-74298914D01*
X179655400Y-74331168D01*
X179726910Y-74438190D01*
X179832996Y-74509074D01*
X179864913Y-74541047D01*
X179907006Y-74558525D01*
X180014025Y-74630033D01*
X180139159Y-74654924D01*
X180180885Y-74672250D01*
X180226463Y-74672290D01*
X180352700Y-74697400D01*
X180477832Y-74672510D01*
X180523014Y-74672549D01*
X180565140Y-74655143D01*
X180691375Y-74630033D01*
X180797461Y-74559149D01*
X180839214Y-74541897D01*
X180871468Y-74509700D01*
X180978490Y-74438190D01*
X181049374Y-74332104D01*
X181081347Y-74300187D01*
X181098825Y-74258094D01*
X181170333Y-74151075D01*
X181195224Y-74025941D01*
X181212550Y-73984215D01*
X181212590Y-73938637D01*
X181217358Y-73914663D01*
X181298485Y-73948350D01*
X181640614Y-73948649D01*
X181956814Y-73817997D01*
X182189319Y-73585898D01*
X183752408Y-75148987D01*
X183752410Y-75148990D01*
X184013884Y-75323700D01*
X184039525Y-75340833D01*
X184142560Y-75361328D01*
X184142560Y-75523200D01*
X184186838Y-75758517D01*
X184325910Y-75974641D01*
X184538110Y-76119631D01*
X184790000Y-76170640D01*
X185805000Y-76170640D01*
X185805000Y-79201162D01*
X185704683Y-79220038D01*
X185538523Y-79326959D01*
X185391890Y-79226769D01*
X185140000Y-79175760D01*
X183640000Y-79175760D01*
X183404683Y-79220038D01*
X183188559Y-79359110D01*
X183043569Y-79571310D01*
X182992560Y-79823200D01*
X182992560Y-81107097D01*
X182694833Y-81106838D01*
X182351057Y-81248883D01*
X182087808Y-81511673D01*
X181945162Y-81855201D01*
X181944838Y-82227167D01*
X182086883Y-82570943D01*
X182349673Y-82834192D01*
X182693201Y-82976838D01*
X183065167Y-82977162D01*
X183408943Y-82835117D01*
X183577058Y-82667295D01*
X183708601Y-82579401D01*
X183817362Y-82470640D01*
X184052970Y-82470640D01*
X184026999Y-82601200D01*
X184027000Y-82601205D01*
X184027000Y-85485421D01*
X181755261Y-87757159D01*
X181574914Y-87831677D01*
X181304626Y-88101493D01*
X181158167Y-88454206D01*
X181157833Y-88836118D01*
X181303677Y-89189086D01*
X181573493Y-89459374D01*
X181926206Y-89605833D01*
X182308118Y-89606167D01*
X182661086Y-89460323D01*
X182931374Y-89190507D01*
X183006857Y-89008723D01*
X184385579Y-87630000D01*
X186445907Y-87630000D01*
X186558946Y-88198285D01*
X186880853Y-88680054D01*
X187362622Y-89001961D01*
X187930907Y-89115000D01*
X187989093Y-89115000D01*
X188557378Y-89001961D01*
X189039147Y-88680054D01*
X189361054Y-88198285D01*
X189474093Y-87630000D01*
X189361054Y-87061715D01*
X189243588Y-86885914D01*
X189639851Y-86885914D01*
X189770503Y-87202114D01*
X190012213Y-87444247D01*
X190328185Y-87575450D01*
X190670314Y-87575749D01*
X190845563Y-87503337D01*
X190775000Y-87673691D01*
X190775000Y-90976309D01*
X190784813Y-91000000D01*
X190775000Y-91023691D01*
X190775000Y-94326309D01*
X190871673Y-94559698D01*
X191050301Y-94738327D01*
X191283690Y-94835000D01*
X194286310Y-94835000D01*
X194310000Y-94825187D01*
X194333690Y-94835000D01*
X197336310Y-94835000D01*
X197569699Y-94738327D01*
X197748327Y-94559698D01*
X197845000Y-94326309D01*
X197845000Y-91023691D01*
X197835187Y-91000000D01*
X197845000Y-90976309D01*
X197845000Y-87673691D01*
X197748327Y-87440302D01*
X197569699Y-87261673D01*
X197336310Y-87165000D01*
X194333690Y-87165000D01*
X194310000Y-87174813D01*
X194286310Y-87165000D01*
X191283690Y-87165000D01*
X191236464Y-87184562D01*
X191329219Y-86961183D01*
X191842962Y-86447440D01*
X192630000Y-86447440D01*
X192865317Y-86403162D01*
X193081441Y-86264090D01*
X193226431Y-86051890D01*
X193277440Y-85800000D01*
X193277440Y-84752314D01*
X194973851Y-84752314D01*
X195104503Y-85068514D01*
X195342560Y-85306988D01*
X195342560Y-85800000D01*
X195386838Y-86035317D01*
X195525910Y-86251441D01*
X195738110Y-86396431D01*
X195990000Y-86447440D01*
X197190000Y-86447440D01*
X197425317Y-86403162D01*
X197641441Y-86264090D01*
X197786431Y-86051890D01*
X197837440Y-85800000D01*
X197837440Y-83600000D01*
X197793162Y-83364683D01*
X197654090Y-83148559D01*
X197441890Y-83003569D01*
X197190000Y-82952560D01*
X195990000Y-82952560D01*
X195754683Y-82996838D01*
X195538559Y-83135910D01*
X195393569Y-83348110D01*
X195342560Y-83600000D01*
X195342560Y-83857420D01*
X195105353Y-84094213D01*
X194974150Y-84410185D01*
X194973851Y-84752314D01*
X193277440Y-84752314D01*
X193277440Y-83600000D01*
X193233162Y-83364683D01*
X193094090Y-83148559D01*
X192881890Y-83003569D01*
X192630000Y-82952560D01*
X191430000Y-82952560D01*
X191194683Y-82996838D01*
X190978559Y-83135910D01*
X190833569Y-83348110D01*
X190782560Y-83600000D01*
X190782560Y-85358238D01*
X190254126Y-85886672D01*
X190013486Y-85986103D01*
X189771353Y-86227813D01*
X189640150Y-86543785D01*
X189639851Y-86885914D01*
X189243588Y-86885914D01*
X189039147Y-86579946D01*
X188997548Y-86552150D01*
X189045317Y-86543162D01*
X189261441Y-86404090D01*
X189406431Y-86191890D01*
X189457440Y-85940000D01*
X189457440Y-84240000D01*
X189413162Y-84004683D01*
X189274090Y-83788559D01*
X189061890Y-83643569D01*
X188810000Y-83592560D01*
X187110000Y-83592560D01*
X186874683Y-83636838D01*
X186658559Y-83775910D01*
X186513569Y-83988110D01*
X186462560Y-84240000D01*
X186462560Y-85940000D01*
X186506838Y-86175317D01*
X186645910Y-86391441D01*
X186858110Y-86536431D01*
X186925541Y-86550086D01*
X186880853Y-86579946D01*
X186558946Y-87061715D01*
X186445907Y-87630000D01*
X184385579Y-87630000D01*
X185537787Y-86477792D01*
X185537790Y-86477790D01*
X185729633Y-86190675D01*
X185760536Y-86035317D01*
X185797001Y-85852000D01*
X185797000Y-85851995D01*
X185797000Y-82967780D01*
X186294140Y-82470640D01*
X187440000Y-82470640D01*
X187675317Y-82426362D01*
X187839492Y-82320718D01*
X187880301Y-82361527D01*
X188113690Y-82458200D01*
X188704250Y-82458200D01*
X188863000Y-82299450D01*
X188863000Y-80950200D01*
X189117000Y-80950200D01*
X189117000Y-82299450D01*
X189275750Y-82458200D01*
X189866310Y-82458200D01*
X190099699Y-82361527D01*
X190278327Y-82182898D01*
X190375000Y-81949509D01*
X190375000Y-81108950D01*
X190216250Y-80950200D01*
X189117000Y-80950200D01*
X188863000Y-80950200D01*
X188843000Y-80950200D01*
X188843000Y-80696200D01*
X188863000Y-80696200D01*
X188863000Y-79346950D01*
X189117000Y-79346950D01*
X189117000Y-80696200D01*
X190216250Y-80696200D01*
X190375000Y-80537450D01*
X190375000Y-79696891D01*
X190278327Y-79463502D01*
X190099699Y-79284873D01*
X189866310Y-79188200D01*
X189275750Y-79188200D01*
X189117000Y-79346950D01*
X188863000Y-79346950D01*
X188704250Y-79188200D01*
X188113690Y-79188200D01*
X187880301Y-79284873D01*
X187838340Y-79326834D01*
X187691890Y-79226769D01*
X187575000Y-79203098D01*
X187575000Y-77193579D01*
X187688755Y-77307334D01*
X187738383Y-77427443D01*
X188001173Y-77690692D01*
X188344701Y-77833338D01*
X188716667Y-77833662D01*
X189060443Y-77691617D01*
X189323692Y-77428827D01*
X189466338Y-77085299D01*
X189466662Y-76713333D01*
X189324617Y-76369557D01*
X189061827Y-76106308D01*
X188940513Y-76055934D01*
X188938263Y-76053683D01*
X189041441Y-75987290D01*
X189186431Y-75775090D01*
X189237440Y-75523200D01*
X189237440Y-73592500D01*
X191784420Y-73592500D01*
X192016560Y-73824640D01*
X192016560Y-75523200D01*
X192060838Y-75758517D01*
X192199910Y-75974641D01*
X192412110Y-76119631D01*
X192664000Y-76170640D01*
X193679000Y-76170640D01*
X193679000Y-79201162D01*
X193578683Y-79220038D01*
X193412523Y-79326959D01*
X193265890Y-79226769D01*
X193014000Y-79175760D01*
X191514000Y-79175760D01*
X191278683Y-79220038D01*
X191062559Y-79359110D01*
X190917569Y-79571310D01*
X190866560Y-79823200D01*
X190866560Y-81823200D01*
X190910838Y-82058517D01*
X191049910Y-82274641D01*
X191262110Y-82419631D01*
X191514000Y-82470640D01*
X193014000Y-82470640D01*
X193249317Y-82426362D01*
X193415477Y-82319441D01*
X193562110Y-82419631D01*
X193814000Y-82470640D01*
X195314000Y-82470640D01*
X195549317Y-82426362D01*
X195713492Y-82320718D01*
X195754301Y-82361527D01*
X195987690Y-82458200D01*
X196578250Y-82458200D01*
X196737000Y-82299450D01*
X196737000Y-80950200D01*
X196991000Y-80950200D01*
X196991000Y-82299450D01*
X197149750Y-82458200D01*
X197740310Y-82458200D01*
X197973699Y-82361527D01*
X198152327Y-82182898D01*
X198249000Y-81949509D01*
X198249000Y-81108950D01*
X198090250Y-80950200D01*
X196991000Y-80950200D01*
X196737000Y-80950200D01*
X196717000Y-80950200D01*
X196717000Y-80696200D01*
X196737000Y-80696200D01*
X196737000Y-79346950D01*
X196991000Y-79346950D01*
X196991000Y-80696200D01*
X198090250Y-80696200D01*
X198249000Y-80537450D01*
X198249000Y-79696891D01*
X198152327Y-79463502D01*
X197973699Y-79284873D01*
X197740310Y-79188200D01*
X197149750Y-79188200D01*
X196991000Y-79346950D01*
X196737000Y-79346950D01*
X196578250Y-79188200D01*
X195987690Y-79188200D01*
X195754301Y-79284873D01*
X195712340Y-79326834D01*
X195565890Y-79226769D01*
X195449000Y-79203098D01*
X195449000Y-76170640D01*
X196464000Y-76170640D01*
X196699317Y-76126362D01*
X196915441Y-75987290D01*
X197060431Y-75775090D01*
X197111440Y-75523200D01*
X197111440Y-73523200D01*
X197067162Y-73287883D01*
X196928090Y-73071759D01*
X196715890Y-72926769D01*
X196464000Y-72875760D01*
X196399000Y-72875760D01*
X196399000Y-72574192D01*
X196565441Y-72467090D01*
X196710431Y-72254890D01*
X196761440Y-72003000D01*
X196761440Y-71253000D01*
X196717162Y-71017683D01*
X196578090Y-70801559D01*
X196365890Y-70656569D01*
X196114000Y-70605560D01*
X194914000Y-70605560D01*
X194678683Y-70649838D01*
X194575354Y-70716329D01*
X194573698Y-70714673D01*
X194340309Y-70618000D01*
X193899750Y-70618000D01*
X193741000Y-70776750D01*
X193741000Y-71501000D01*
X193761000Y-71501000D01*
X193761000Y-71755000D01*
X193741000Y-71755000D01*
X193741000Y-72479250D01*
X193899750Y-72638000D01*
X194340309Y-72638000D01*
X194573698Y-72541327D01*
X194575068Y-72539957D01*
X194629000Y-72576808D01*
X194629000Y-72875760D01*
X193570840Y-72875760D01*
X193330665Y-72635585D01*
X193487000Y-72479250D01*
X193487000Y-71755000D01*
X192537750Y-71755000D01*
X192417283Y-71875467D01*
X192151000Y-71822499D01*
X192150995Y-71822500D01*
X184848505Y-71822500D01*
X184848500Y-71822499D01*
X184566016Y-71878690D01*
X184509825Y-71889867D01*
X184222710Y-72081710D01*
X184222708Y-72081713D01*
X183868165Y-72436256D01*
X183748057Y-72485883D01*
X183670192Y-72563612D01*
X182671080Y-71564500D01*
X183108889Y-71126690D01*
X192379000Y-71126690D01*
X192379000Y-71342250D01*
X192537750Y-71501000D01*
X193487000Y-71501000D01*
X193487000Y-70776750D01*
X193328250Y-70618000D01*
X192887691Y-70618000D01*
X192654302Y-70714673D01*
X192475673Y-70893301D01*
X192379000Y-71126690D01*
X183108889Y-71126690D01*
X183505787Y-70729792D01*
X183505790Y-70729790D01*
X183697633Y-70442675D01*
X183765000Y-70104000D01*
X183765000Y-68957938D01*
X190590732Y-68957938D01*
X190774448Y-69331821D01*
X191098951Y-69619568D01*
X191508869Y-69761229D01*
X191683000Y-69612563D01*
X191683000Y-68787000D01*
X190717266Y-68787000D01*
X190590732Y-68957938D01*
X183765000Y-68957938D01*
X183765000Y-67454914D01*
X187518951Y-67454914D01*
X187649603Y-67771114D01*
X187891313Y-68013247D01*
X188207285Y-68144450D01*
X188549414Y-68144749D01*
X188852296Y-68019600D01*
X190759009Y-68019600D01*
X190590732Y-68362062D01*
X190717266Y-68533000D01*
X191683000Y-68533000D01*
X191683000Y-68513000D01*
X191937000Y-68513000D01*
X191937000Y-68533000D01*
X191957000Y-68533000D01*
X191957000Y-68787000D01*
X191937000Y-68787000D01*
X191937000Y-69612563D01*
X192111131Y-69761229D01*
X192289926Y-69699440D01*
X192345910Y-69786441D01*
X192558110Y-69931431D01*
X192810000Y-69982440D01*
X193210000Y-69982440D01*
X193339589Y-69958056D01*
X193460000Y-69982440D01*
X193860000Y-69982440D01*
X193989589Y-69958056D01*
X194110000Y-69982440D01*
X194510000Y-69982440D01*
X194639589Y-69958056D01*
X194760000Y-69982440D01*
X195160000Y-69982440D01*
X195265705Y-69962550D01*
X195283690Y-69970000D01*
X195351250Y-69970000D01*
X195380254Y-69940996D01*
X195395317Y-69938162D01*
X195611441Y-69799090D01*
X195710000Y-69654844D01*
X195710000Y-69811250D01*
X195868750Y-69970000D01*
X195936310Y-69970000D01*
X196169699Y-69873327D01*
X196340115Y-69702910D01*
X196508869Y-69761229D01*
X196683000Y-69612563D01*
X196683000Y-68787000D01*
X196937000Y-68787000D01*
X196937000Y-69612563D01*
X197111131Y-69761229D01*
X197521049Y-69619568D01*
X197845552Y-69331821D01*
X198029268Y-68957938D01*
X197902734Y-68787000D01*
X196937000Y-68787000D01*
X196683000Y-68787000D01*
X196663000Y-68787000D01*
X196663000Y-68533000D01*
X196683000Y-68533000D01*
X196683000Y-67707437D01*
X196937000Y-67707437D01*
X196937000Y-68533000D01*
X197902734Y-68533000D01*
X198029268Y-68362062D01*
X197845552Y-67988179D01*
X197521049Y-67700432D01*
X197111131Y-67558771D01*
X196937000Y-67707437D01*
X196683000Y-67707437D01*
X196508869Y-67558771D01*
X196340115Y-67617090D01*
X196169699Y-67446673D01*
X195936310Y-67350000D01*
X195868750Y-67350000D01*
X195737002Y-67481748D01*
X195737002Y-67350000D01*
X195728832Y-67350000D01*
X195728949Y-67215886D01*
X195598297Y-66899686D01*
X195356587Y-66657553D01*
X195040615Y-66526350D01*
X194698486Y-66526051D01*
X194382286Y-66656703D01*
X194348186Y-66690743D01*
X194238987Y-66581353D01*
X193923015Y-66450150D01*
X193580886Y-66449851D01*
X193264686Y-66580503D01*
X193022553Y-66822213D01*
X192978459Y-66928404D01*
X192840440Y-66871094D01*
X192734223Y-66764877D01*
X192495772Y-66605549D01*
X192214500Y-66549600D01*
X191885365Y-66549600D01*
X191945000Y-66362000D01*
X191945000Y-66087000D01*
X196675000Y-66087000D01*
X196675000Y-66362000D01*
X196809998Y-66786678D01*
X197097237Y-67127368D01*
X197508126Y-67329119D01*
X197683000Y-67202954D01*
X197683000Y-66087000D01*
X196675000Y-66087000D01*
X191945000Y-66087000D01*
X190937000Y-66087000D01*
X190937000Y-66107000D01*
X190683000Y-66107000D01*
X190683000Y-66087000D01*
X189675000Y-66087000D01*
X189675000Y-66362000D01*
X189734635Y-66549600D01*
X188851587Y-66549600D01*
X188550915Y-66424750D01*
X188208786Y-66424451D01*
X187892586Y-66555103D01*
X187650453Y-66796813D01*
X187519250Y-67112785D01*
X187518951Y-67454914D01*
X183765000Y-67454914D01*
X183765000Y-65558000D01*
X189675000Y-65558000D01*
X189675000Y-65833000D01*
X190683000Y-65833000D01*
X190683000Y-64717046D01*
X190937000Y-64717046D01*
X190937000Y-65833000D01*
X191945000Y-65833000D01*
X191945000Y-65558000D01*
X196675000Y-65558000D01*
X196675000Y-65833000D01*
X197683000Y-65833000D01*
X197683000Y-64717046D01*
X197508126Y-64590881D01*
X197097237Y-64792632D01*
X196809998Y-65133322D01*
X196675000Y-65558000D01*
X191945000Y-65558000D01*
X191810002Y-65133322D01*
X191522763Y-64792632D01*
X191111874Y-64590881D01*
X190937000Y-64717046D01*
X190683000Y-64717046D01*
X190508126Y-64590881D01*
X190097237Y-64792632D01*
X189809998Y-65133322D01*
X189675000Y-65558000D01*
X183765000Y-65558000D01*
X183765000Y-65244854D01*
X183965317Y-65207162D01*
X184181441Y-65068090D01*
X184326431Y-64855890D01*
X184377440Y-64604000D01*
X184377440Y-62904000D01*
X184333162Y-62668683D01*
X184194090Y-62452559D01*
X183981890Y-62307569D01*
X183730000Y-62256560D01*
X182030000Y-62256560D01*
X181794683Y-62300838D01*
X181578559Y-62439910D01*
X181433569Y-62652110D01*
X181419914Y-62719541D01*
X181390054Y-62674853D01*
X180908285Y-62352946D01*
X180340000Y-62239907D01*
X179771715Y-62352946D01*
X179289946Y-62674853D01*
X179062298Y-63015553D01*
X178995183Y-62872642D01*
X178566924Y-62482355D01*
X178156890Y-62312524D01*
X177927000Y-62433845D01*
X177927000Y-63627000D01*
X177947000Y-63627000D01*
X177947000Y-63881000D01*
X177927000Y-63881000D01*
X177927000Y-63901000D01*
X177673000Y-63901000D01*
X177673000Y-63881000D01*
X176479181Y-63881000D01*
X176358514Y-64110892D01*
X176604817Y-64635358D01*
X177033076Y-65025645D01*
X177443110Y-65195476D01*
X177672998Y-65074156D01*
X177672998Y-65127555D01*
X175070450Y-67730104D01*
X174963899Y-67801299D01*
X173611698Y-69153500D01*
X164943887Y-69153500D01*
X164944149Y-68854186D01*
X164813497Y-68537986D01*
X164571787Y-68295853D01*
X164329583Y-68195281D01*
X162631157Y-66496855D01*
X162631167Y-66484882D01*
X162485323Y-66131914D01*
X162215507Y-65861626D01*
X161862794Y-65715167D01*
X161821289Y-65715131D01*
X160956079Y-64849921D01*
X160701407Y-64679755D01*
X160401000Y-64620000D01*
X154500079Y-64620000D01*
X154671579Y-64448500D01*
X161417000Y-64448500D01*
X161542132Y-64423610D01*
X161587314Y-64423649D01*
X161629440Y-64406243D01*
X161755675Y-64381133D01*
X161861761Y-64310249D01*
X161903514Y-64292997D01*
X161935768Y-64260800D01*
X162042790Y-64189290D01*
X162113674Y-64083204D01*
X162145647Y-64051287D01*
X162163125Y-64009194D01*
X162234633Y-63902175D01*
X162259524Y-63777041D01*
X162276850Y-63735315D01*
X162276890Y-63689737D01*
X162302000Y-63563500D01*
X162277110Y-63438368D01*
X162277149Y-63393186D01*
X162259743Y-63351060D01*
X162234633Y-63224825D01*
X162163749Y-63118739D01*
X162146497Y-63076986D01*
X162114300Y-63044732D01*
X162042790Y-62937710D01*
X161992340Y-62904000D01*
X163221560Y-62904000D01*
X163221560Y-64604000D01*
X163265838Y-64839317D01*
X163404910Y-65055441D01*
X163617110Y-65200431D01*
X163869000Y-65251440D01*
X165569000Y-65251440D01*
X165804317Y-65207162D01*
X166020441Y-65068090D01*
X166165431Y-64855890D01*
X166179086Y-64788459D01*
X166208946Y-64833147D01*
X166690715Y-65155054D01*
X167259000Y-65268093D01*
X167827285Y-65155054D01*
X168309054Y-64833147D01*
X168529000Y-64503974D01*
X168748946Y-64833147D01*
X169230715Y-65155054D01*
X169799000Y-65268093D01*
X170367285Y-65155054D01*
X170849054Y-64833147D01*
X171076702Y-64492447D01*
X171143817Y-64635358D01*
X171572076Y-65025645D01*
X171982110Y-65195476D01*
X172212000Y-65074155D01*
X172212000Y-63881000D01*
X172466000Y-63881000D01*
X172466000Y-65074155D01*
X172695890Y-65195476D01*
X173105924Y-65025645D01*
X173534183Y-64635358D01*
X173780486Y-64110892D01*
X173659819Y-63881000D01*
X172466000Y-63881000D01*
X172212000Y-63881000D01*
X172192000Y-63881000D01*
X172192000Y-63627000D01*
X172212000Y-63627000D01*
X172212000Y-62433845D01*
X172466000Y-62433845D01*
X172466000Y-63627000D01*
X173659819Y-63627000D01*
X173780486Y-63397108D01*
X176358514Y-63397108D01*
X176479181Y-63627000D01*
X177673000Y-63627000D01*
X177673000Y-62433845D01*
X177443110Y-62312524D01*
X177033076Y-62482355D01*
X176604817Y-62872642D01*
X176358514Y-63397108D01*
X173780486Y-63397108D01*
X173534183Y-62872642D01*
X173105924Y-62482355D01*
X172695890Y-62312524D01*
X172466000Y-62433845D01*
X172212000Y-62433845D01*
X171982110Y-62312524D01*
X171572076Y-62482355D01*
X171143817Y-62872642D01*
X171076702Y-63015553D01*
X170849054Y-62674853D01*
X170367285Y-62352946D01*
X169799000Y-62239907D01*
X169230715Y-62352946D01*
X168748946Y-62674853D01*
X168529000Y-63004026D01*
X168309054Y-62674853D01*
X167827285Y-62352946D01*
X167259000Y-62239907D01*
X166690715Y-62352946D01*
X166208946Y-62674853D01*
X166181150Y-62716452D01*
X166172162Y-62668683D01*
X166033090Y-62452559D01*
X165820890Y-62307569D01*
X165569000Y-62256560D01*
X163869000Y-62256560D01*
X163633683Y-62300838D01*
X163417559Y-62439910D01*
X163272569Y-62652110D01*
X163221560Y-62904000D01*
X161992340Y-62904000D01*
X161936704Y-62866826D01*
X161904787Y-62834853D01*
X161862694Y-62817375D01*
X161755675Y-62745867D01*
X161630541Y-62720976D01*
X161588815Y-62703650D01*
X161543237Y-62703610D01*
X161417000Y-62678500D01*
X154305000Y-62678500D01*
X153966325Y-62745867D01*
X153679210Y-62937710D01*
X153679208Y-62937713D01*
X152804000Y-63812920D01*
X152804000Y-62802831D01*
X152832374Y-62774507D01*
X152978833Y-62421794D01*
X152979167Y-62039882D01*
X152833323Y-61686914D01*
X152816439Y-61670000D01*
X198680000Y-61670000D01*
X198680000Y-64979129D01*
X198522763Y-64792632D01*
X198111874Y-64590881D01*
X197937000Y-64717046D01*
X197937000Y-65833000D01*
X197957000Y-65833000D01*
X197957000Y-66087000D01*
X197937000Y-66087000D01*
X197937000Y-67202954D01*
X198111874Y-67329119D01*
X198522763Y-67127368D01*
X198680000Y-66940871D01*
X198680000Y-131370000D01*
X168498616Y-131370000D01*
X168595000Y-131137309D01*
X168595000Y-128740000D01*
X170256560Y-128740000D01*
X170256560Y-130340000D01*
X170300838Y-130575317D01*
X170439910Y-130791441D01*
X170652110Y-130936431D01*
X170904000Y-130987440D01*
X172504000Y-130987440D01*
X172739317Y-130943162D01*
X172955441Y-130804090D01*
X173043644Y-130675000D01*
X174498000Y-130675000D01*
X174932346Y-130588603D01*
X175300566Y-130342566D01*
X175521823Y-130121309D01*
X175561079Y-130095079D01*
X176880960Y-128775198D01*
X176880665Y-129113207D01*
X177174630Y-129824658D01*
X177718479Y-130369457D01*
X178429416Y-130664663D01*
X179199207Y-130665335D01*
X179910658Y-130371370D01*
X180417913Y-129865000D01*
X186103000Y-129865000D01*
X186537346Y-129778603D01*
X186905566Y-129532566D01*
X188000566Y-128437566D01*
X188033017Y-128389000D01*
X188246603Y-128069346D01*
X188269348Y-127955000D01*
X192962309Y-127955000D01*
X192986000Y-127945187D01*
X193009691Y-127955000D01*
X197812309Y-127955000D01*
X198045698Y-127858327D01*
X198224327Y-127679699D01*
X198321000Y-127446310D01*
X198321000Y-121943690D01*
X198311187Y-121920000D01*
X198321000Y-121896310D01*
X198321000Y-116393690D01*
X198224327Y-116160301D01*
X198045698Y-115981673D01*
X197812309Y-115885000D01*
X193009691Y-115885000D01*
X192986000Y-115894813D01*
X192962309Y-115885000D01*
X188159691Y-115885000D01*
X187926302Y-115981673D01*
X187747673Y-116160301D01*
X187651000Y-116393690D01*
X187651000Y-119608512D01*
X187556066Y-119466433D01*
X187507066Y-119417434D01*
X187476625Y-119397094D01*
X187138846Y-119171397D01*
X186771000Y-119098228D01*
X186771000Y-118805750D01*
X186612250Y-118647000D01*
X183963000Y-118647000D01*
X183963000Y-118667000D01*
X183709000Y-118667000D01*
X183709000Y-118647000D01*
X183689000Y-118647000D01*
X183689000Y-118393000D01*
X183709000Y-118393000D01*
X183709000Y-117493750D01*
X183963000Y-117493750D01*
X183963000Y-118393000D01*
X186612250Y-118393000D01*
X186771000Y-118234250D01*
X186771000Y-117843690D01*
X186674327Y-117610301D01*
X186495698Y-117431673D01*
X186262309Y-117335000D01*
X184121750Y-117335000D01*
X183963000Y-117493750D01*
X183709000Y-117493750D01*
X183550250Y-117335000D01*
X182212132Y-117335000D01*
X185409766Y-114137366D01*
X185655803Y-113769146D01*
X185742200Y-113334800D01*
X185742200Y-112540218D01*
X185858641Y-112465290D01*
X186003631Y-112253090D01*
X186012570Y-112208945D01*
X186279061Y-112208945D01*
X186353195Y-112455064D01*
X186890423Y-112648165D01*
X187460654Y-112620978D01*
X187861205Y-112455064D01*
X187935339Y-112208945D01*
X187107200Y-111380805D01*
X186279061Y-112208945D01*
X186012570Y-112208945D01*
X186051846Y-112014999D01*
X186099455Y-112029339D01*
X186927595Y-111201200D01*
X187286805Y-111201200D01*
X188114945Y-112029339D01*
X188361064Y-111955205D01*
X188554165Y-111417977D01*
X188526978Y-110847746D01*
X188361064Y-110447195D01*
X188114945Y-110373061D01*
X187286805Y-111201200D01*
X186927595Y-111201200D01*
X186099455Y-110373061D01*
X186052033Y-110387345D01*
X186015551Y-110193455D01*
X186279061Y-110193455D01*
X187107200Y-111021595D01*
X187935339Y-110193455D01*
X187861205Y-109947336D01*
X187323977Y-109754235D01*
X186753746Y-109781422D01*
X186353195Y-109947336D01*
X186279061Y-110193455D01*
X186015551Y-110193455D01*
X186010362Y-110165883D01*
X185871290Y-109949759D01*
X185659090Y-109804769D01*
X185407200Y-109753760D01*
X185081800Y-109753760D01*
X185081800Y-104911840D01*
X185696800Y-104911840D01*
X185932117Y-104867562D01*
X186148241Y-104728490D01*
X186293231Y-104516290D01*
X186344240Y-104264400D01*
X186344240Y-102800150D01*
X187561800Y-102800150D01*
X187561800Y-104390710D01*
X187658473Y-104624099D01*
X187837102Y-104802727D01*
X188070491Y-104899400D01*
X189661050Y-104899400D01*
X189819800Y-104740650D01*
X189819800Y-102641400D01*
X190073800Y-102641400D01*
X190073800Y-104740650D01*
X190232550Y-104899400D01*
X191823109Y-104899400D01*
X192056498Y-104802727D01*
X192235127Y-104624099D01*
X192331800Y-104390710D01*
X192331800Y-102800150D01*
X192173050Y-102641400D01*
X190073800Y-102641400D01*
X189819800Y-102641400D01*
X187720550Y-102641400D01*
X187561800Y-102800150D01*
X186344240Y-102800150D01*
X186344240Y-100764400D01*
X186299962Y-100529083D01*
X186160890Y-100312959D01*
X185994691Y-100199400D01*
X186661050Y-100199400D01*
X186819800Y-100040650D01*
X186819800Y-97941400D01*
X187073800Y-97941400D01*
X187073800Y-100040650D01*
X187232550Y-100199400D01*
X187901496Y-100199400D01*
X187837102Y-100226073D01*
X187658473Y-100404701D01*
X187561800Y-100638090D01*
X187561800Y-102228650D01*
X187720550Y-102387400D01*
X189819800Y-102387400D01*
X189819800Y-100288150D01*
X190073800Y-100288150D01*
X190073800Y-102387400D01*
X192173050Y-102387400D01*
X192331800Y-102228650D01*
X192331800Y-100638090D01*
X192235127Y-100404701D01*
X192056498Y-100226073D01*
X191823109Y-100129400D01*
X190232550Y-100129400D01*
X190073800Y-100288150D01*
X189819800Y-100288150D01*
X189661050Y-100129400D01*
X188992104Y-100129400D01*
X189056498Y-100102727D01*
X189235127Y-99924099D01*
X189331800Y-99690710D01*
X189331800Y-98100150D01*
X189173050Y-97941400D01*
X187073800Y-97941400D01*
X186819800Y-97941400D01*
X184720550Y-97941400D01*
X184561800Y-98100150D01*
X184561800Y-99690710D01*
X184658473Y-99924099D01*
X184837102Y-100102727D01*
X184871463Y-100116960D01*
X182196800Y-100116960D01*
X181961483Y-100161238D01*
X181745359Y-100300310D01*
X181600369Y-100512510D01*
X181549360Y-100764400D01*
X181549360Y-104264400D01*
X181593638Y-104499717D01*
X181732710Y-104715841D01*
X181944910Y-104860831D01*
X182196800Y-104911840D01*
X182811800Y-104911840D01*
X182811800Y-110540800D01*
X182898197Y-110975146D01*
X183065144Y-111225000D01*
X183144234Y-111343366D01*
X183159760Y-111358892D01*
X183159760Y-112001200D01*
X183204038Y-112236517D01*
X183343110Y-112452641D01*
X183472200Y-112540844D01*
X183472200Y-112864668D01*
X179791434Y-116545434D01*
X179545397Y-116913654D01*
X179459000Y-117348000D01*
X179459000Y-123901810D01*
X179202584Y-123795337D01*
X178432793Y-123794665D01*
X177721342Y-124088630D01*
X177176543Y-124632479D01*
X176881337Y-125343416D01*
X176881155Y-125551713D01*
X174027868Y-128405000D01*
X173043018Y-128405000D01*
X172968090Y-128288559D01*
X172755890Y-128143569D01*
X172517799Y-128095354D01*
X172532139Y-128047745D01*
X171704000Y-127219605D01*
X170875861Y-128047745D01*
X170890145Y-128095167D01*
X170668683Y-128136838D01*
X170452559Y-128275910D01*
X170307569Y-128488110D01*
X170256560Y-128740000D01*
X168595000Y-128740000D01*
X168595000Y-126823223D01*
X170257035Y-126823223D01*
X170284222Y-127393454D01*
X170450136Y-127794005D01*
X170696255Y-127868139D01*
X171524395Y-127040000D01*
X171883605Y-127040000D01*
X172711745Y-127868139D01*
X172957864Y-127794005D01*
X173150965Y-127256777D01*
X173123778Y-126686546D01*
X172957864Y-126285995D01*
X172711745Y-126211861D01*
X171883605Y-127040000D01*
X171524395Y-127040000D01*
X170696255Y-126211861D01*
X170450136Y-126285995D01*
X170257035Y-126823223D01*
X168595000Y-126823223D01*
X168595000Y-126334691D01*
X168585187Y-126311000D01*
X168595000Y-126287309D01*
X168595000Y-126032255D01*
X170875861Y-126032255D01*
X171704000Y-126860395D01*
X172532139Y-126032255D01*
X172458005Y-125786136D01*
X171920777Y-125593035D01*
X171350546Y-125620222D01*
X170949995Y-125786136D01*
X170875861Y-126032255D01*
X168595000Y-126032255D01*
X168595000Y-124919745D01*
X170748861Y-124919745D01*
X170822995Y-125165864D01*
X171360223Y-125358965D01*
X171930454Y-125331778D01*
X172331005Y-125165864D01*
X172405139Y-124919745D01*
X171577000Y-124091605D01*
X170748861Y-124919745D01*
X168595000Y-124919745D01*
X168595000Y-123695223D01*
X170130035Y-123695223D01*
X170157222Y-124265454D01*
X170323136Y-124666005D01*
X170569255Y-124740139D01*
X171397395Y-123912000D01*
X171756605Y-123912000D01*
X172584745Y-124740139D01*
X172830864Y-124666005D01*
X173023965Y-124128777D01*
X172996778Y-123558546D01*
X172830864Y-123157995D01*
X172584745Y-123083861D01*
X171756605Y-123912000D01*
X171397395Y-123912000D01*
X170569255Y-123083861D01*
X170323136Y-123157995D01*
X170130035Y-123695223D01*
X168595000Y-123695223D01*
X168595000Y-121484691D01*
X168498327Y-121251302D01*
X168319699Y-121072673D01*
X168153908Y-121004000D01*
X170129560Y-121004000D01*
X170129560Y-122212000D01*
X170173838Y-122447317D01*
X170312910Y-122663441D01*
X170525110Y-122808431D01*
X170763201Y-122856646D01*
X170748861Y-122904255D01*
X171577000Y-123732395D01*
X172405139Y-122904255D01*
X172390855Y-122856833D01*
X172612317Y-122815162D01*
X172828441Y-122676090D01*
X172973431Y-122463890D01*
X173024440Y-122212000D01*
X173024440Y-121004000D01*
X173863000Y-121004000D01*
X174144272Y-120948051D01*
X174382723Y-120788723D01*
X174509723Y-120661724D01*
X174669051Y-120423272D01*
X174681615Y-120360110D01*
X174725000Y-120142000D01*
X174725000Y-117602000D01*
X174669051Y-117320728D01*
X174598242Y-117214755D01*
X174509723Y-117082276D01*
X174288946Y-116861500D01*
X176332235Y-114818212D01*
X176416053Y-114943654D01*
X176745226Y-115163600D01*
X176416053Y-115383546D01*
X176094146Y-115865315D01*
X175981107Y-116433600D01*
X176094146Y-117001885D01*
X176416053Y-117483654D01*
X176457652Y-117511450D01*
X176409883Y-117520438D01*
X176193759Y-117659510D01*
X176048769Y-117871710D01*
X175997760Y-118123600D01*
X175997760Y-119823600D01*
X176042038Y-120058917D01*
X176181110Y-120275041D01*
X176393310Y-120420031D01*
X176645200Y-120471040D01*
X178345200Y-120471040D01*
X178580517Y-120426762D01*
X178796641Y-120287690D01*
X178941631Y-120075490D01*
X178992640Y-119823600D01*
X178992640Y-118123600D01*
X178948362Y-117888283D01*
X178809290Y-117672159D01*
X178597090Y-117527169D01*
X178529659Y-117513514D01*
X178574347Y-117483654D01*
X178896254Y-117001885D01*
X179009293Y-116433600D01*
X178896254Y-115865315D01*
X178574347Y-115383546D01*
X178245174Y-115163600D01*
X178574347Y-114943654D01*
X178896254Y-114461885D01*
X179009293Y-113893600D01*
X178896254Y-113325315D01*
X178574347Y-112843546D01*
X178092578Y-112521639D01*
X177524293Y-112408600D01*
X177466107Y-112408600D01*
X176897822Y-112521639D01*
X176630000Y-112700592D01*
X176630000Y-110828018D01*
X176746441Y-110753090D01*
X176891431Y-110540890D01*
X176942440Y-110289000D01*
X176942440Y-109389000D01*
X176898162Y-109153683D01*
X176759090Y-108937559D01*
X176632314Y-108850936D01*
X176718000Y-108765250D01*
X176718000Y-107966000D01*
X176972000Y-107966000D01*
X176972000Y-108765250D01*
X177130750Y-108924000D01*
X177371310Y-108924000D01*
X177604699Y-108827327D01*
X177783327Y-108648698D01*
X177880000Y-108415309D01*
X177880000Y-108124750D01*
X177721250Y-107966000D01*
X176972000Y-107966000D01*
X176718000Y-107966000D01*
X176698000Y-107966000D01*
X176698000Y-107712000D01*
X176718000Y-107712000D01*
X176718000Y-106912750D01*
X176972000Y-106912750D01*
X176972000Y-107712000D01*
X177721250Y-107712000D01*
X177880000Y-107553250D01*
X177880000Y-107262691D01*
X177783327Y-107029302D01*
X177604699Y-106850673D01*
X177371310Y-106754000D01*
X177130750Y-106754000D01*
X176972000Y-106912750D01*
X176718000Y-106912750D01*
X176559250Y-106754000D01*
X176318690Y-106754000D01*
X176085301Y-106850673D01*
X175906673Y-107029302D01*
X175891577Y-107065747D01*
X175809090Y-106937559D01*
X175596890Y-106792569D01*
X175345000Y-106741560D01*
X174545000Y-106741560D01*
X174309683Y-106785838D01*
X174093559Y-106924910D01*
X173971192Y-107104000D01*
X172201417Y-107104000D01*
X172191787Y-107094353D01*
X172019594Y-107022852D01*
X172350723Y-106691724D01*
X172510051Y-106453273D01*
X172531411Y-106345890D01*
X172566000Y-106172000D01*
X172566000Y-104013000D01*
X172510051Y-103731728D01*
X172465133Y-103664503D01*
X172350724Y-103493277D01*
X172039440Y-103181993D01*
X172039440Y-102694000D01*
X171995162Y-102458683D01*
X171856090Y-102242559D01*
X171677000Y-102120192D01*
X171677000Y-100330000D01*
X171621051Y-100048728D01*
X171583356Y-99992314D01*
X171461723Y-99810276D01*
X168959723Y-97308277D01*
X168721272Y-97148949D01*
X168710106Y-97146728D01*
X168497440Y-97104426D01*
X168497440Y-96918000D01*
X168453162Y-96682683D01*
X168426340Y-96641000D01*
X168463002Y-96641000D01*
X168463002Y-96482252D01*
X168621750Y-96641000D01*
X169062309Y-96641000D01*
X169295698Y-96544327D01*
X169474327Y-96365699D01*
X169571000Y-96132310D01*
X169571000Y-95916750D01*
X169412250Y-95758000D01*
X168463000Y-95758000D01*
X168463000Y-95778000D01*
X168209000Y-95778000D01*
X168209000Y-95758000D01*
X168189000Y-95758000D01*
X168189000Y-95504000D01*
X168209000Y-95504000D01*
X168209000Y-94779750D01*
X168463000Y-94779750D01*
X168463000Y-95504000D01*
X169412250Y-95504000D01*
X169571000Y-95345250D01*
X169571000Y-95129690D01*
X169474327Y-94896301D01*
X169295698Y-94717673D01*
X169062309Y-94621000D01*
X168621750Y-94621000D01*
X168463000Y-94779750D01*
X168209000Y-94779750D01*
X168050250Y-94621000D01*
X167609691Y-94621000D01*
X167376302Y-94717673D01*
X167374932Y-94719043D01*
X167287890Y-94659569D01*
X167036000Y-94608560D01*
X165836000Y-94608560D01*
X165600683Y-94652838D01*
X165518785Y-94705538D01*
X165068523Y-94255277D01*
X164830072Y-94095949D01*
X164548800Y-94040000D01*
X162156440Y-94040000D01*
X162156440Y-93775000D01*
X162112162Y-93539683D01*
X161973090Y-93323559D01*
X161760890Y-93178569D01*
X161509000Y-93127560D01*
X160309000Y-93127560D01*
X160073683Y-93171838D01*
X159857559Y-93310910D01*
X159712569Y-93523110D01*
X159661560Y-93775000D01*
X159661560Y-95028114D01*
X159616440Y-94982994D01*
X159616440Y-93775000D01*
X159572162Y-93539683D01*
X159433090Y-93323559D01*
X159220890Y-93178569D01*
X158969000Y-93127560D01*
X157769000Y-93127560D01*
X157533683Y-93171838D01*
X157503800Y-93191067D01*
X157503800Y-90094140D01*
X157537500Y-90094140D01*
X157772817Y-90049862D01*
X157988941Y-89910790D01*
X158133931Y-89698590D01*
X158184940Y-89446700D01*
X158184940Y-88246700D01*
X158140662Y-88011383D01*
X158074171Y-87908054D01*
X158075827Y-87906398D01*
X158172500Y-87673009D01*
X158172500Y-87232450D01*
X158013750Y-87073700D01*
X157289500Y-87073700D01*
X157289500Y-87093700D01*
X157035500Y-87093700D01*
X157035500Y-87073700D01*
X155829000Y-87073700D01*
X155829000Y-87093700D01*
X155575000Y-87093700D01*
X155575000Y-87073700D01*
X155555000Y-87073700D01*
X155555000Y-86819700D01*
X155575000Y-86819700D01*
X155575000Y-85870450D01*
X155829000Y-85870450D01*
X155829000Y-86819700D01*
X157035500Y-86819700D01*
X157035500Y-85870450D01*
X157289500Y-85870450D01*
X157289500Y-86819700D01*
X158013750Y-86819700D01*
X158172500Y-86660950D01*
X158172500Y-86220391D01*
X158075827Y-85987002D01*
X157897199Y-85808373D01*
X157663810Y-85711700D01*
X157448250Y-85711700D01*
X157289500Y-85870450D01*
X157035500Y-85870450D01*
X156876750Y-85711700D01*
X156661190Y-85711700D01*
X156432250Y-85806530D01*
X156203310Y-85711700D01*
X155987750Y-85711700D01*
X155829000Y-85870450D01*
X155575000Y-85870450D01*
X155416250Y-85711700D01*
X155200690Y-85711700D01*
X154967301Y-85808373D01*
X154836000Y-85939675D01*
X154836000Y-82648074D01*
X154910850Y-82467815D01*
X154911149Y-82125686D01*
X154780497Y-81809486D01*
X154538787Y-81567353D01*
X154222815Y-81436150D01*
X153880686Y-81435851D01*
X153566400Y-81565712D01*
X153566400Y-81158881D01*
X153666250Y-80918415D01*
X153666549Y-80576286D01*
X153563595Y-80327118D01*
X155313333Y-80327118D01*
X155459177Y-80680086D01*
X155728993Y-80950374D01*
X156081706Y-81096833D01*
X156123211Y-81096869D01*
X157457000Y-82430658D01*
X157457000Y-84420426D01*
X157382150Y-84600685D01*
X157381851Y-84942814D01*
X157512503Y-85259014D01*
X157754213Y-85501147D01*
X158070185Y-85632350D01*
X158412314Y-85632649D01*
X158728514Y-85501997D01*
X158970647Y-85260287D01*
X159101850Y-84944315D01*
X159102149Y-84602186D01*
X159027000Y-84420313D01*
X159027000Y-82105500D01*
X158967245Y-81805094D01*
X158797079Y-81550421D01*
X157233632Y-79986974D01*
X157233667Y-79946882D01*
X157087823Y-79593914D01*
X156818007Y-79323626D01*
X156465294Y-79177167D01*
X156083382Y-79176833D01*
X155730414Y-79322677D01*
X155460126Y-79592493D01*
X155313667Y-79945206D01*
X155313333Y-80327118D01*
X153563595Y-80327118D01*
X153535897Y-80260086D01*
X153294187Y-80017953D01*
X152978215Y-79886750D01*
X152779000Y-79886576D01*
X152779000Y-78546802D01*
X155312874Y-76012928D01*
X155553514Y-75913497D01*
X155795647Y-75671787D01*
X155926850Y-75355815D01*
X155927149Y-75013686D01*
X155796497Y-74697486D01*
X155554787Y-74455353D01*
X155238815Y-74324150D01*
X154896686Y-74323851D01*
X154580486Y-74454503D01*
X154338353Y-74696213D01*
X154237781Y-74938417D01*
X151481599Y-77694599D01*
X151316852Y-77941161D01*
X151259000Y-78232000D01*
X151259000Y-95570086D01*
X151049000Y-95527560D01*
X150149000Y-95527560D01*
X149913683Y-95571838D01*
X149697559Y-95710910D01*
X149552569Y-95923110D01*
X149501560Y-96175000D01*
X149501560Y-98375000D01*
X149545838Y-98610317D01*
X149684910Y-98826441D01*
X149897110Y-98971431D01*
X150149000Y-99022440D01*
X151049000Y-99022440D01*
X151259000Y-98982926D01*
X151259000Y-100570086D01*
X151049000Y-100527560D01*
X150149000Y-100527560D01*
X149913683Y-100571838D01*
X149697559Y-100710910D01*
X149552569Y-100923110D01*
X149501560Y-101175000D01*
X149501560Y-103375000D01*
X149545838Y-103610317D01*
X149684910Y-103826441D01*
X149897110Y-103971431D01*
X150149000Y-104022440D01*
X151049000Y-104022440D01*
X151259000Y-103982926D01*
X151259000Y-107442000D01*
X151316852Y-107732839D01*
X151481599Y-107979401D01*
X151523245Y-108021047D01*
X151413150Y-108286185D01*
X151412851Y-108628314D01*
X151453093Y-108725706D01*
X151446559Y-108729910D01*
X151301569Y-108942110D01*
X151250560Y-109194000D01*
X151250560Y-110394000D01*
X151294838Y-110629317D01*
X151361329Y-110732646D01*
X151359673Y-110734302D01*
X151263000Y-110967691D01*
X151263000Y-111408250D01*
X151421750Y-111567000D01*
X152146000Y-111567000D01*
X152146000Y-111547000D01*
X152400000Y-111547000D01*
X152400000Y-111567000D01*
X153124250Y-111567000D01*
X153267457Y-111423793D01*
X153493105Y-111517490D01*
X153835234Y-111517789D01*
X153929110Y-111479000D01*
X153966982Y-111479000D01*
X154041910Y-111595441D01*
X154254110Y-111740431D01*
X154506000Y-111791440D01*
X155406000Y-111791440D01*
X155641317Y-111747162D01*
X155857441Y-111608090D01*
X155944064Y-111481314D01*
X156029750Y-111567000D01*
X156829000Y-111567000D01*
X156829000Y-111547000D01*
X157083000Y-111547000D01*
X157083000Y-111567000D01*
X157103000Y-111567000D01*
X157103000Y-111821000D01*
X157083000Y-111821000D01*
X157083000Y-111841000D01*
X156829000Y-111841000D01*
X156829000Y-111821000D01*
X156029750Y-111821000D01*
X155871000Y-111979750D01*
X155871000Y-112220310D01*
X155967673Y-112453699D01*
X156146302Y-112632327D01*
X156379691Y-112729000D01*
X156592921Y-112729000D01*
X154759360Y-114562560D01*
X154549000Y-114562560D01*
X154408914Y-114588919D01*
X154375310Y-114575000D01*
X154209750Y-114575000D01*
X154051000Y-114733750D01*
X154051000Y-114814051D01*
X153952569Y-114958110D01*
X153924824Y-115095120D01*
X153902162Y-114974683D01*
X153797000Y-114811257D01*
X153797000Y-114733750D01*
X153638250Y-114575000D01*
X153472690Y-114575000D01*
X153435829Y-114590268D01*
X153299000Y-114562560D01*
X152649000Y-114562560D01*
X152413683Y-114606838D01*
X152197559Y-114745910D01*
X152052569Y-114958110D01*
X152043074Y-115005000D01*
X151060192Y-115005000D01*
X150953090Y-114838559D01*
X150740890Y-114693569D01*
X150489000Y-114642560D01*
X149739000Y-114642560D01*
X149632650Y-114662571D01*
X146949830Y-111979750D01*
X151263000Y-111979750D01*
X151263000Y-112420309D01*
X151359673Y-112653698D01*
X151538301Y-112832327D01*
X151771690Y-112929000D01*
X151987250Y-112929000D01*
X152146000Y-112770250D01*
X152146000Y-111821000D01*
X152400000Y-111821000D01*
X152400000Y-112770250D01*
X152558750Y-112929000D01*
X152774310Y-112929000D01*
X153007699Y-112832327D01*
X153186327Y-112653698D01*
X153283000Y-112420309D01*
X153283000Y-111979750D01*
X153124250Y-111821000D01*
X152400000Y-111821000D01*
X152146000Y-111821000D01*
X151421750Y-111821000D01*
X151263000Y-111979750D01*
X146949830Y-111979750D01*
X145534000Y-110563920D01*
X145534000Y-106553000D01*
X145447603Y-106118654D01*
X145201566Y-105750434D01*
X144833346Y-105504397D01*
X144399000Y-105418000D01*
X143964654Y-105504397D01*
X143596434Y-105750434D01*
X143350397Y-106118654D01*
X143264000Y-106553000D01*
X143264000Y-123190000D01*
X143350397Y-123624346D01*
X143544770Y-123915245D01*
X143583272Y-123972867D01*
X143556204Y-123954781D01*
X142118080Y-123668720D01*
X140679956Y-123954781D01*
X139460773Y-124769413D01*
X138646141Y-125988596D01*
X138360080Y-127426720D01*
X138646141Y-128864844D01*
X139460773Y-130084027D01*
X140679956Y-130898659D01*
X142118080Y-131184720D01*
X143556204Y-130898659D01*
X143761110Y-130761745D01*
X154111861Y-130761745D01*
X154185995Y-131007864D01*
X154723223Y-131200965D01*
X155293454Y-131173778D01*
X155694005Y-131007864D01*
X155768139Y-130761745D01*
X154940000Y-129933605D01*
X154111861Y-130761745D01*
X143761110Y-130761745D01*
X144775387Y-130084027D01*
X145140749Y-129537223D01*
X153493035Y-129537223D01*
X153520222Y-130107454D01*
X153686136Y-130508005D01*
X153932255Y-130582139D01*
X154760395Y-129754000D01*
X155119605Y-129754000D01*
X155947745Y-130582139D01*
X156193864Y-130508005D01*
X156386965Y-129970777D01*
X156359778Y-129400546D01*
X156193864Y-128999995D01*
X155947745Y-128925861D01*
X155119605Y-129754000D01*
X154760395Y-129754000D01*
X153932255Y-128925861D01*
X153686136Y-128999995D01*
X153493035Y-129537223D01*
X145140749Y-129537223D01*
X145590019Y-128864844D01*
X145876080Y-127426720D01*
X145590019Y-125988596D01*
X145585096Y-125981228D01*
X147660434Y-128056566D01*
X148028654Y-128302603D01*
X148463000Y-128389000D01*
X153600982Y-128389000D01*
X153675910Y-128505441D01*
X153888110Y-128650431D01*
X154126201Y-128698646D01*
X154111861Y-128746255D01*
X154940000Y-129574395D01*
X155768139Y-128746255D01*
X155753855Y-128698833D01*
X155975317Y-128657162D01*
X156191441Y-128518090D01*
X156336431Y-128305890D01*
X156387440Y-128054000D01*
X156387440Y-126454000D01*
X156343162Y-126218683D01*
X156204090Y-126002559D01*
X156075000Y-125914356D01*
X156075000Y-123406132D01*
X156525000Y-122956132D01*
X156525000Y-126287309D01*
X156534813Y-126311000D01*
X156525000Y-126334691D01*
X156525000Y-131137309D01*
X156621384Y-131370000D01*
X137870000Y-131370000D01*
X137870000Y-75048500D01*
X138373060Y-75048500D01*
X138373060Y-78748500D01*
X138417338Y-78983817D01*
X138556410Y-79199941D01*
X138768610Y-79344931D01*
X139020500Y-79395940D01*
X149020500Y-79395940D01*
X149255817Y-79351662D01*
X149471941Y-79212590D01*
X149616931Y-79000390D01*
X149667940Y-78748500D01*
X149667940Y-78711065D01*
X149763614Y-78711149D01*
X150079814Y-78580497D01*
X150321947Y-78338787D01*
X150453150Y-78022815D01*
X150453449Y-77680686D01*
X150328300Y-77377804D01*
X150328300Y-77291846D01*
X151733498Y-75886649D01*
X151897985Y-75954950D01*
X152240114Y-75955249D01*
X152556314Y-75824597D01*
X152798447Y-75582887D01*
X152929650Y-75266915D01*
X152929949Y-74924786D01*
X152799297Y-74608586D01*
X152557587Y-74366453D01*
X152241615Y-74235250D01*
X151899486Y-74234951D01*
X151596604Y-74360100D01*
X151485600Y-74360100D01*
X151217143Y-74413500D01*
X151204328Y-74416049D01*
X150965876Y-74575377D01*
X149667940Y-75873314D01*
X149667940Y-75230640D01*
X151983334Y-72915245D01*
X152103443Y-72865617D01*
X152366692Y-72602827D01*
X152509338Y-72259299D01*
X152509662Y-71887333D01*
X152367617Y-71543557D01*
X152104827Y-71280308D01*
X151761299Y-71137662D01*
X151389333Y-71137338D01*
X151045557Y-71279383D01*
X150782308Y-71542173D01*
X150731934Y-71663487D01*
X147994360Y-74401060D01*
X139020500Y-74401060D01*
X138785183Y-74445338D01*
X138569059Y-74584410D01*
X138424069Y-74796610D01*
X138373060Y-75048500D01*
X137870000Y-75048500D01*
X137870000Y-72197085D01*
X139787960Y-72197085D01*
X139998369Y-72706315D01*
X140387636Y-73096261D01*
X140896498Y-73307559D01*
X141447485Y-73308040D01*
X141956715Y-73097631D01*
X142346661Y-72708364D01*
X142557959Y-72199502D01*
X142558440Y-71648515D01*
X142348031Y-71139285D01*
X141958764Y-70749339D01*
X141449902Y-70538041D01*
X140898915Y-70537560D01*
X140389685Y-70747969D01*
X139999739Y-71137236D01*
X139788441Y-71646098D01*
X139787960Y-72197085D01*
X137870000Y-72197085D01*
X137870000Y-68397085D01*
X139787960Y-68397085D01*
X139998369Y-68906315D01*
X140387636Y-69296261D01*
X140896498Y-69507559D01*
X141447485Y-69508040D01*
X141956715Y-69297631D01*
X142346661Y-68908364D01*
X142557959Y-68399502D01*
X142558440Y-67848515D01*
X142348031Y-67339285D01*
X141958764Y-66949339D01*
X141449902Y-66738041D01*
X140898915Y-66737560D01*
X140389685Y-66947969D01*
X139999739Y-67337236D01*
X139788441Y-67846098D01*
X139787960Y-68397085D01*
X137870000Y-68397085D01*
X137870000Y-61670000D01*
X151221146Y-61670000D01*
X151205626Y-61685493D01*
X151205626Y-61685493D01*
G37*
X151205626Y-61685493D02*
X151059167Y-62038206D01*
X151058833Y-62420118D01*
X151204677Y-62773086D01*
X151234000Y-62802460D01*
X151234000Y-65033842D01*
X150899000Y-64698842D01*
X150899000Y-64072831D01*
X150927374Y-64044507D01*
X151073833Y-63691794D01*
X151074167Y-63309882D01*
X150928323Y-62956914D01*
X150658507Y-62686626D01*
X150305794Y-62540167D01*
X149923882Y-62539833D01*
X149570914Y-62685677D01*
X149300626Y-62955493D01*
X149154167Y-63308206D01*
X149153833Y-63690118D01*
X149299677Y-64043086D01*
X149329000Y-64072460D01*
X149329000Y-65024000D01*
X149388755Y-65324407D01*
X149558921Y-65579079D01*
X150556785Y-66576943D01*
X150451686Y-66576851D01*
X150135486Y-66707503D01*
X149893353Y-66949213D01*
X149762150Y-67265185D01*
X149761851Y-67607314D01*
X149862000Y-67849692D01*
X149862000Y-69408198D01*
X148852126Y-70418072D01*
X148611486Y-70517503D01*
X148369353Y-70759213D01*
X148238150Y-71075185D01*
X148237851Y-71417314D01*
X148368503Y-71733514D01*
X148610213Y-71975647D01*
X148926185Y-72106850D01*
X149268314Y-72107149D01*
X149584514Y-71976497D01*
X149826647Y-71734787D01*
X149927219Y-71492583D01*
X151159401Y-70260401D01*
X151324148Y-70013840D01*
X151344107Y-69913500D01*
X151382000Y-69723000D01*
X151382000Y-67849281D01*
X151481850Y-67608815D01*
X151481943Y-67502101D01*
X152709868Y-68730026D01*
X152709833Y-68770118D01*
X152855677Y-69123086D01*
X153125493Y-69393374D01*
X153478206Y-69539833D01*
X153860118Y-69540167D01*
X154213086Y-69394323D01*
X154483374Y-69124507D01*
X154563173Y-68932331D01*
X155122868Y-69492026D01*
X155122833Y-69532118D01*
X155268677Y-69885086D01*
X155538493Y-70155374D01*
X155891206Y-70301833D01*
X156273118Y-70302167D01*
X156626086Y-70156323D01*
X156896374Y-69886507D01*
X157042833Y-69533794D01*
X157043167Y-69151882D01*
X156897323Y-68798914D01*
X156627507Y-68528626D01*
X156274794Y-68382167D01*
X156233289Y-68382131D01*
X154332499Y-66481341D01*
X154356374Y-66457507D01*
X154467452Y-66190000D01*
X160075842Y-66190000D01*
X160664842Y-66779000D01*
X158097792Y-66779000D01*
X158040323Y-66639914D01*
X157770507Y-66369626D01*
X157417794Y-66223167D01*
X157035882Y-66222833D01*
X156682914Y-66368677D01*
X156412626Y-66638493D01*
X156266167Y-66991206D01*
X156265833Y-67373118D01*
X156411677Y-67726086D01*
X156681493Y-67996374D01*
X157034206Y-68142833D01*
X157087541Y-68142880D01*
X157306593Y-68289245D01*
X157607000Y-68349000D01*
X161036000Y-68349000D01*
X161161682Y-68324000D01*
X161447205Y-68324000D01*
X161424953Y-68346213D01*
X161335536Y-68561552D01*
X161144315Y-68482150D01*
X160802186Y-68481851D01*
X160485986Y-68612503D01*
X160243853Y-68854213D01*
X160222496Y-68905646D01*
X157490071Y-71638071D01*
X157464498Y-71676344D01*
X157286919Y-71853923D01*
X157116753Y-72108595D01*
X157066774Y-72359853D01*
X157056998Y-72409002D01*
X157056998Y-79355998D01*
X157116753Y-79656405D01*
X157286919Y-79911077D01*
X159682268Y-82306426D01*
X159608853Y-82379713D01*
X159477650Y-82695685D01*
X159477351Y-83037814D01*
X159608003Y-83354014D01*
X159849713Y-83596147D01*
X159920000Y-83625333D01*
X159920000Y-85026500D01*
X159966504Y-85260287D01*
X159975949Y-85307772D01*
X160135277Y-85546223D01*
X160579834Y-85990781D01*
X160722221Y-86203879D01*
X160976894Y-86374045D01*
X161277300Y-86433800D01*
X163266082Y-86433800D01*
X163523841Y-86691559D01*
X163554460Y-86712018D01*
X176071441Y-99228999D01*
X176326113Y-99399165D01*
X176626520Y-99458920D01*
X177630806Y-99458920D01*
X177811065Y-99533770D01*
X178153194Y-99534069D01*
X178469394Y-99403417D01*
X178711527Y-99161707D01*
X178842730Y-98845735D01*
X178843029Y-98503606D01*
X178712377Y-98187406D01*
X178470667Y-97945273D01*
X178154695Y-97814070D01*
X177812566Y-97813771D01*
X177630693Y-97888920D01*
X176951678Y-97888920D01*
X175000848Y-95938090D01*
X184561800Y-95938090D01*
X184561800Y-97528650D01*
X184720550Y-97687400D01*
X186819800Y-97687400D01*
X186819800Y-95588150D01*
X187073800Y-95588150D01*
X187073800Y-97687400D01*
X189173050Y-97687400D01*
X189331800Y-97528650D01*
X189331800Y-95938090D01*
X189235127Y-95704701D01*
X189056498Y-95526073D01*
X188823109Y-95429400D01*
X187232550Y-95429400D01*
X187073800Y-95588150D01*
X186819800Y-95588150D01*
X186661050Y-95429400D01*
X185070491Y-95429400D01*
X184837102Y-95526073D01*
X184658473Y-95704701D01*
X184561800Y-95938090D01*
X175000848Y-95938090D01*
X168298198Y-89235440D01*
X168410000Y-89235440D01*
X168645317Y-89191162D01*
X168861441Y-89052090D01*
X168909134Y-88982289D01*
X168945910Y-89039441D01*
X169158110Y-89184431D01*
X169410000Y-89235440D01*
X170610000Y-89235440D01*
X170845317Y-89191162D01*
X171061441Y-89052090D01*
X171206431Y-88839890D01*
X171257440Y-88588000D01*
X171257440Y-87688000D01*
X171213162Y-87452683D01*
X171122479Y-87311758D01*
X171206431Y-87188890D01*
X171257440Y-86937000D01*
X171257440Y-86037000D01*
X171213162Y-85801683D01*
X171074090Y-85585559D01*
X171000521Y-85535291D01*
X171061441Y-85496090D01*
X171206431Y-85283890D01*
X171257440Y-85032000D01*
X171257440Y-84132000D01*
X171213162Y-83896683D01*
X171074090Y-83680559D01*
X170861890Y-83535569D01*
X170610000Y-83484560D01*
X169410000Y-83484560D01*
X169174683Y-83528838D01*
X168958559Y-83667910D01*
X168910866Y-83737711D01*
X168874090Y-83680559D01*
X168661890Y-83535569D01*
X168410000Y-83484560D01*
X167455006Y-83484560D01*
X167397723Y-83427277D01*
X167159272Y-83267949D01*
X166878000Y-83212000D01*
X165226192Y-83212000D01*
X165495692Y-82942500D01*
X171462700Y-82942500D01*
X171734405Y-82888454D01*
X171964746Y-82734546D01*
X178962446Y-75736846D01*
X179116354Y-75506505D01*
X179170400Y-75234800D01*
X179170400Y-74318801D01*
X179189047Y-74300187D01*
X179320250Y-73984215D01*
X179320549Y-73642086D01*
X179189897Y-73325886D01*
X179022107Y-73157803D01*
X179154675Y-73131433D01*
X179278345Y-73048800D01*
X179429720Y-73048800D01*
X179467700Y-73086780D01*
X179467700Y-73812400D01*
X179492590Y-73937532D01*
X179492551Y-73982714D01*
X179509957Y-74024840D01*
X179535067Y-74151075D01*
X179605951Y-74257161D01*
X179623203Y-74298914D01*
X179655400Y-74331168D01*
X179726910Y-74438190D01*
X179832996Y-74509074D01*
X179864913Y-74541047D01*
X179907006Y-74558525D01*
X180014025Y-74630033D01*
X180139159Y-74654924D01*
X180180885Y-74672250D01*
X180226463Y-74672290D01*
X180352700Y-74697400D01*
X180477832Y-74672510D01*
X180523014Y-74672549D01*
X180565140Y-74655143D01*
X180691375Y-74630033D01*
X180797461Y-74559149D01*
X180839214Y-74541897D01*
X180871468Y-74509700D01*
X180978490Y-74438190D01*
X181049374Y-74332104D01*
X181081347Y-74300187D01*
X181098825Y-74258094D01*
X181170333Y-74151075D01*
X181195224Y-74025941D01*
X181212550Y-73984215D01*
X181212590Y-73938637D01*
X181217358Y-73914663D01*
X181298485Y-73948350D01*
X181640614Y-73948649D01*
X181956814Y-73817997D01*
X182189319Y-73585898D01*
X183752408Y-75148987D01*
X183752410Y-75148990D01*
X184013884Y-75323700D01*
X184039525Y-75340833D01*
X184142560Y-75361328D01*
X184142560Y-75523200D01*
X184186838Y-75758517D01*
X184325910Y-75974641D01*
X184538110Y-76119631D01*
X184790000Y-76170640D01*
X185805000Y-76170640D01*
X185805000Y-79201162D01*
X185704683Y-79220038D01*
X185538523Y-79326959D01*
X185391890Y-79226769D01*
X185140000Y-79175760D01*
X183640000Y-79175760D01*
X183404683Y-79220038D01*
X183188559Y-79359110D01*
X183043569Y-79571310D01*
X182992560Y-79823200D01*
X182992560Y-81107097D01*
X182694833Y-81106838D01*
X182351057Y-81248883D01*
X182087808Y-81511673D01*
X181945162Y-81855201D01*
X181944838Y-82227167D01*
X182086883Y-82570943D01*
X182349673Y-82834192D01*
X182693201Y-82976838D01*
X183065167Y-82977162D01*
X183408943Y-82835117D01*
X183577058Y-82667295D01*
X183708601Y-82579401D01*
X183817362Y-82470640D01*
X184052970Y-82470640D01*
X184026999Y-82601200D01*
X184027000Y-82601205D01*
X184027000Y-85485421D01*
X181755261Y-87757159D01*
X181574914Y-87831677D01*
X181304626Y-88101493D01*
X181158167Y-88454206D01*
X181157833Y-88836118D01*
X181303677Y-89189086D01*
X181573493Y-89459374D01*
X181926206Y-89605833D01*
X182308118Y-89606167D01*
X182661086Y-89460323D01*
X182931374Y-89190507D01*
X183006857Y-89008723D01*
X184385579Y-87630000D01*
X186445907Y-87630000D01*
X186558946Y-88198285D01*
X186880853Y-88680054D01*
X187362622Y-89001961D01*
X187930907Y-89115000D01*
X187989093Y-89115000D01*
X188557378Y-89001961D01*
X189039147Y-88680054D01*
X189361054Y-88198285D01*
X189474093Y-87630000D01*
X189361054Y-87061715D01*
X189243588Y-86885914D01*
X189639851Y-86885914D01*
X189770503Y-87202114D01*
X190012213Y-87444247D01*
X190328185Y-87575450D01*
X190670314Y-87575749D01*
X190845563Y-87503337D01*
X190775000Y-87673691D01*
X190775000Y-90976309D01*
X190784813Y-91000000D01*
X190775000Y-91023691D01*
X190775000Y-94326309D01*
X190871673Y-94559698D01*
X191050301Y-94738327D01*
X191283690Y-94835000D01*
X194286310Y-94835000D01*
X194310000Y-94825187D01*
X194333690Y-94835000D01*
X197336310Y-94835000D01*
X197569699Y-94738327D01*
X197748327Y-94559698D01*
X197845000Y-94326309D01*
X197845000Y-91023691D01*
X197835187Y-91000000D01*
X197845000Y-90976309D01*
X197845000Y-87673691D01*
X197748327Y-87440302D01*
X197569699Y-87261673D01*
X197336310Y-87165000D01*
X194333690Y-87165000D01*
X194310000Y-87174813D01*
X194286310Y-87165000D01*
X191283690Y-87165000D01*
X191236464Y-87184562D01*
X191329219Y-86961183D01*
X191842962Y-86447440D01*
X192630000Y-86447440D01*
X192865317Y-86403162D01*
X193081441Y-86264090D01*
X193226431Y-86051890D01*
X193277440Y-85800000D01*
X193277440Y-84752314D01*
X194973851Y-84752314D01*
X195104503Y-85068514D01*
X195342560Y-85306988D01*
X195342560Y-85800000D01*
X195386838Y-86035317D01*
X195525910Y-86251441D01*
X195738110Y-86396431D01*
X195990000Y-86447440D01*
X197190000Y-86447440D01*
X197425317Y-86403162D01*
X197641441Y-86264090D01*
X197786431Y-86051890D01*
X197837440Y-85800000D01*
X197837440Y-83600000D01*
X197793162Y-83364683D01*
X197654090Y-83148559D01*
X197441890Y-83003569D01*
X197190000Y-82952560D01*
X195990000Y-82952560D01*
X195754683Y-82996838D01*
X195538559Y-83135910D01*
X195393569Y-83348110D01*
X195342560Y-83600000D01*
X195342560Y-83857420D01*
X195105353Y-84094213D01*
X194974150Y-84410185D01*
X194973851Y-84752314D01*
X193277440Y-84752314D01*
X193277440Y-83600000D01*
X193233162Y-83364683D01*
X193094090Y-83148559D01*
X192881890Y-83003569D01*
X192630000Y-82952560D01*
X191430000Y-82952560D01*
X191194683Y-82996838D01*
X190978559Y-83135910D01*
X190833569Y-83348110D01*
X190782560Y-83600000D01*
X190782560Y-85358238D01*
X190254126Y-85886672D01*
X190013486Y-85986103D01*
X189771353Y-86227813D01*
X189640150Y-86543785D01*
X189639851Y-86885914D01*
X189243588Y-86885914D01*
X189039147Y-86579946D01*
X188997548Y-86552150D01*
X189045317Y-86543162D01*
X189261441Y-86404090D01*
X189406431Y-86191890D01*
X189457440Y-85940000D01*
X189457440Y-84240000D01*
X189413162Y-84004683D01*
X189274090Y-83788559D01*
X189061890Y-83643569D01*
X188810000Y-83592560D01*
X187110000Y-83592560D01*
X186874683Y-83636838D01*
X186658559Y-83775910D01*
X186513569Y-83988110D01*
X186462560Y-84240000D01*
X186462560Y-85940000D01*
X186506838Y-86175317D01*
X186645910Y-86391441D01*
X186858110Y-86536431D01*
X186925541Y-86550086D01*
X186880853Y-86579946D01*
X186558946Y-87061715D01*
X186445907Y-87630000D01*
X184385579Y-87630000D01*
X185537787Y-86477792D01*
X185537790Y-86477790D01*
X185729633Y-86190675D01*
X185760536Y-86035317D01*
X185797001Y-85852000D01*
X185797000Y-85851995D01*
X185797000Y-82967780D01*
X186294140Y-82470640D01*
X187440000Y-82470640D01*
X187675317Y-82426362D01*
X187839492Y-82320718D01*
X187880301Y-82361527D01*
X188113690Y-82458200D01*
X188704250Y-82458200D01*
X188863000Y-82299450D01*
X188863000Y-80950200D01*
X189117000Y-80950200D01*
X189117000Y-82299450D01*
X189275750Y-82458200D01*
X189866310Y-82458200D01*
X190099699Y-82361527D01*
X190278327Y-82182898D01*
X190375000Y-81949509D01*
X190375000Y-81108950D01*
X190216250Y-80950200D01*
X189117000Y-80950200D01*
X188863000Y-80950200D01*
X188843000Y-80950200D01*
X188843000Y-80696200D01*
X188863000Y-80696200D01*
X188863000Y-79346950D01*
X189117000Y-79346950D01*
X189117000Y-80696200D01*
X190216250Y-80696200D01*
X190375000Y-80537450D01*
X190375000Y-79696891D01*
X190278327Y-79463502D01*
X190099699Y-79284873D01*
X189866310Y-79188200D01*
X189275750Y-79188200D01*
X189117000Y-79346950D01*
X188863000Y-79346950D01*
X188704250Y-79188200D01*
X188113690Y-79188200D01*
X187880301Y-79284873D01*
X187838340Y-79326834D01*
X187691890Y-79226769D01*
X187575000Y-79203098D01*
X187575000Y-77193579D01*
X187688755Y-77307334D01*
X187738383Y-77427443D01*
X188001173Y-77690692D01*
X188344701Y-77833338D01*
X188716667Y-77833662D01*
X189060443Y-77691617D01*
X189323692Y-77428827D01*
X189466338Y-77085299D01*
X189466662Y-76713333D01*
X189324617Y-76369557D01*
X189061827Y-76106308D01*
X188940513Y-76055934D01*
X188938263Y-76053683D01*
X189041441Y-75987290D01*
X189186431Y-75775090D01*
X189237440Y-75523200D01*
X189237440Y-73592500D01*
X191784420Y-73592500D01*
X192016560Y-73824640D01*
X192016560Y-75523200D01*
X192060838Y-75758517D01*
X192199910Y-75974641D01*
X192412110Y-76119631D01*
X192664000Y-76170640D01*
X193679000Y-76170640D01*
X193679000Y-79201162D01*
X193578683Y-79220038D01*
X193412523Y-79326959D01*
X193265890Y-79226769D01*
X193014000Y-79175760D01*
X191514000Y-79175760D01*
X191278683Y-79220038D01*
X191062559Y-79359110D01*
X190917569Y-79571310D01*
X190866560Y-79823200D01*
X190866560Y-81823200D01*
X190910838Y-82058517D01*
X191049910Y-82274641D01*
X191262110Y-82419631D01*
X191514000Y-82470640D01*
X193014000Y-82470640D01*
X193249317Y-82426362D01*
X193415477Y-82319441D01*
X193562110Y-82419631D01*
X193814000Y-82470640D01*
X195314000Y-82470640D01*
X195549317Y-82426362D01*
X195713492Y-82320718D01*
X195754301Y-82361527D01*
X195987690Y-82458200D01*
X196578250Y-82458200D01*
X196737000Y-82299450D01*
X196737000Y-80950200D01*
X196991000Y-80950200D01*
X196991000Y-82299450D01*
X197149750Y-82458200D01*
X197740310Y-82458200D01*
X197973699Y-82361527D01*
X198152327Y-82182898D01*
X198249000Y-81949509D01*
X198249000Y-81108950D01*
X198090250Y-80950200D01*
X196991000Y-80950200D01*
X196737000Y-80950200D01*
X196717000Y-80950200D01*
X196717000Y-80696200D01*
X196737000Y-80696200D01*
X196737000Y-79346950D01*
X196991000Y-79346950D01*
X196991000Y-80696200D01*
X198090250Y-80696200D01*
X198249000Y-80537450D01*
X198249000Y-79696891D01*
X198152327Y-79463502D01*
X197973699Y-79284873D01*
X197740310Y-79188200D01*
X197149750Y-79188200D01*
X196991000Y-79346950D01*
X196737000Y-79346950D01*
X196578250Y-79188200D01*
X195987690Y-79188200D01*
X195754301Y-79284873D01*
X195712340Y-79326834D01*
X195565890Y-79226769D01*
X195449000Y-79203098D01*
X195449000Y-76170640D01*
X196464000Y-76170640D01*
X196699317Y-76126362D01*
X196915441Y-75987290D01*
X197060431Y-75775090D01*
X197111440Y-75523200D01*
X197111440Y-73523200D01*
X197067162Y-73287883D01*
X196928090Y-73071759D01*
X196715890Y-72926769D01*
X196464000Y-72875760D01*
X196399000Y-72875760D01*
X196399000Y-72574192D01*
X196565441Y-72467090D01*
X196710431Y-72254890D01*
X196761440Y-72003000D01*
X196761440Y-71253000D01*
X196717162Y-71017683D01*
X196578090Y-70801559D01*
X196365890Y-70656569D01*
X196114000Y-70605560D01*
X194914000Y-70605560D01*
X194678683Y-70649838D01*
X194575354Y-70716329D01*
X194573698Y-70714673D01*
X194340309Y-70618000D01*
X193899750Y-70618000D01*
X193741000Y-70776750D01*
X193741000Y-71501000D01*
X193761000Y-71501000D01*
X193761000Y-71755000D01*
X193741000Y-71755000D01*
X193741000Y-72479250D01*
X193899750Y-72638000D01*
X194340309Y-72638000D01*
X194573698Y-72541327D01*
X194575068Y-72539957D01*
X194629000Y-72576808D01*
X194629000Y-72875760D01*
X193570840Y-72875760D01*
X193330665Y-72635585D01*
X193487000Y-72479250D01*
X193487000Y-71755000D01*
X192537750Y-71755000D01*
X192417283Y-71875467D01*
X192151000Y-71822499D01*
X192150995Y-71822500D01*
X184848505Y-71822500D01*
X184848500Y-71822499D01*
X184566016Y-71878690D01*
X184509825Y-71889867D01*
X184222710Y-72081710D01*
X184222708Y-72081713D01*
X183868165Y-72436256D01*
X183748057Y-72485883D01*
X183670192Y-72563612D01*
X182671080Y-71564500D01*
X183108889Y-71126690D01*
X192379000Y-71126690D01*
X192379000Y-71342250D01*
X192537750Y-71501000D01*
X193487000Y-71501000D01*
X193487000Y-70776750D01*
X193328250Y-70618000D01*
X192887691Y-70618000D01*
X192654302Y-70714673D01*
X192475673Y-70893301D01*
X192379000Y-71126690D01*
X183108889Y-71126690D01*
X183505787Y-70729792D01*
X183505790Y-70729790D01*
X183697633Y-70442675D01*
X183765000Y-70104000D01*
X183765000Y-68957938D01*
X190590732Y-68957938D01*
X190774448Y-69331821D01*
X191098951Y-69619568D01*
X191508869Y-69761229D01*
X191683000Y-69612563D01*
X191683000Y-68787000D01*
X190717266Y-68787000D01*
X190590732Y-68957938D01*
X183765000Y-68957938D01*
X183765000Y-67454914D01*
X187518951Y-67454914D01*
X187649603Y-67771114D01*
X187891313Y-68013247D01*
X188207285Y-68144450D01*
X188549414Y-68144749D01*
X188852296Y-68019600D01*
X190759009Y-68019600D01*
X190590732Y-68362062D01*
X190717266Y-68533000D01*
X191683000Y-68533000D01*
X191683000Y-68513000D01*
X191937000Y-68513000D01*
X191937000Y-68533000D01*
X191957000Y-68533000D01*
X191957000Y-68787000D01*
X191937000Y-68787000D01*
X191937000Y-69612563D01*
X192111131Y-69761229D01*
X192289926Y-69699440D01*
X192345910Y-69786441D01*
X192558110Y-69931431D01*
X192810000Y-69982440D01*
X193210000Y-69982440D01*
X193339589Y-69958056D01*
X193460000Y-69982440D01*
X193860000Y-69982440D01*
X193989589Y-69958056D01*
X194110000Y-69982440D01*
X194510000Y-69982440D01*
X194639589Y-69958056D01*
X194760000Y-69982440D01*
X195160000Y-69982440D01*
X195265705Y-69962550D01*
X195283690Y-69970000D01*
X195351250Y-69970000D01*
X195380254Y-69940996D01*
X195395317Y-69938162D01*
X195611441Y-69799090D01*
X195710000Y-69654844D01*
X195710000Y-69811250D01*
X195868750Y-69970000D01*
X195936310Y-69970000D01*
X196169699Y-69873327D01*
X196340115Y-69702910D01*
X196508869Y-69761229D01*
X196683000Y-69612563D01*
X196683000Y-68787000D01*
X196937000Y-68787000D01*
X196937000Y-69612563D01*
X197111131Y-69761229D01*
X197521049Y-69619568D01*
X197845552Y-69331821D01*
X198029268Y-68957938D01*
X197902734Y-68787000D01*
X196937000Y-68787000D01*
X196683000Y-68787000D01*
X196663000Y-68787000D01*
X196663000Y-68533000D01*
X196683000Y-68533000D01*
X196683000Y-67707437D01*
X196937000Y-67707437D01*
X196937000Y-68533000D01*
X197902734Y-68533000D01*
X198029268Y-68362062D01*
X197845552Y-67988179D01*
X197521049Y-67700432D01*
X197111131Y-67558771D01*
X196937000Y-67707437D01*
X196683000Y-67707437D01*
X196508869Y-67558771D01*
X196340115Y-67617090D01*
X196169699Y-67446673D01*
X195936310Y-67350000D01*
X195868750Y-67350000D01*
X195737002Y-67481748D01*
X195737002Y-67350000D01*
X195728832Y-67350000D01*
X195728949Y-67215886D01*
X195598297Y-66899686D01*
X195356587Y-66657553D01*
X195040615Y-66526350D01*
X194698486Y-66526051D01*
X194382286Y-66656703D01*
X194348186Y-66690743D01*
X194238987Y-66581353D01*
X193923015Y-66450150D01*
X193580886Y-66449851D01*
X193264686Y-66580503D01*
X193022553Y-66822213D01*
X192978459Y-66928404D01*
X192840440Y-66871094D01*
X192734223Y-66764877D01*
X192495772Y-66605549D01*
X192214500Y-66549600D01*
X191885365Y-66549600D01*
X191945000Y-66362000D01*
X191945000Y-66087000D01*
X196675000Y-66087000D01*
X196675000Y-66362000D01*
X196809998Y-66786678D01*
X197097237Y-67127368D01*
X197508126Y-67329119D01*
X197683000Y-67202954D01*
X197683000Y-66087000D01*
X196675000Y-66087000D01*
X191945000Y-66087000D01*
X190937000Y-66087000D01*
X190937000Y-66107000D01*
X190683000Y-66107000D01*
X190683000Y-66087000D01*
X189675000Y-66087000D01*
X189675000Y-66362000D01*
X189734635Y-66549600D01*
X188851587Y-66549600D01*
X188550915Y-66424750D01*
X188208786Y-66424451D01*
X187892586Y-66555103D01*
X187650453Y-66796813D01*
X187519250Y-67112785D01*
X187518951Y-67454914D01*
X183765000Y-67454914D01*
X183765000Y-65558000D01*
X189675000Y-65558000D01*
X189675000Y-65833000D01*
X190683000Y-65833000D01*
X190683000Y-64717046D01*
X190937000Y-64717046D01*
X190937000Y-65833000D01*
X191945000Y-65833000D01*
X191945000Y-65558000D01*
X196675000Y-65558000D01*
X196675000Y-65833000D01*
X197683000Y-65833000D01*
X197683000Y-64717046D01*
X197508126Y-64590881D01*
X197097237Y-64792632D01*
X196809998Y-65133322D01*
X196675000Y-65558000D01*
X191945000Y-65558000D01*
X191810002Y-65133322D01*
X191522763Y-64792632D01*
X191111874Y-64590881D01*
X190937000Y-64717046D01*
X190683000Y-64717046D01*
X190508126Y-64590881D01*
X190097237Y-64792632D01*
X189809998Y-65133322D01*
X189675000Y-65558000D01*
X183765000Y-65558000D01*
X183765000Y-65244854D01*
X183965317Y-65207162D01*
X184181441Y-65068090D01*
X184326431Y-64855890D01*
X184377440Y-64604000D01*
X184377440Y-62904000D01*
X184333162Y-62668683D01*
X184194090Y-62452559D01*
X183981890Y-62307569D01*
X183730000Y-62256560D01*
X182030000Y-62256560D01*
X181794683Y-62300838D01*
X181578559Y-62439910D01*
X181433569Y-62652110D01*
X181419914Y-62719541D01*
X181390054Y-62674853D01*
X180908285Y-62352946D01*
X180340000Y-62239907D01*
X179771715Y-62352946D01*
X179289946Y-62674853D01*
X179062298Y-63015553D01*
X178995183Y-62872642D01*
X178566924Y-62482355D01*
X178156890Y-62312524D01*
X177927000Y-62433845D01*
X177927000Y-63627000D01*
X177947000Y-63627000D01*
X177947000Y-63881000D01*
X177927000Y-63881000D01*
X177927000Y-63901000D01*
X177673000Y-63901000D01*
X177673000Y-63881000D01*
X176479181Y-63881000D01*
X176358514Y-64110892D01*
X176604817Y-64635358D01*
X177033076Y-65025645D01*
X177443110Y-65195476D01*
X177672998Y-65074156D01*
X177672998Y-65127555D01*
X175070450Y-67730104D01*
X174963899Y-67801299D01*
X173611698Y-69153500D01*
X164943887Y-69153500D01*
X164944149Y-68854186D01*
X164813497Y-68537986D01*
X164571787Y-68295853D01*
X164329583Y-68195281D01*
X162631157Y-66496855D01*
X162631167Y-66484882D01*
X162485323Y-66131914D01*
X162215507Y-65861626D01*
X161862794Y-65715167D01*
X161821289Y-65715131D01*
X160956079Y-64849921D01*
X160701407Y-64679755D01*
X160401000Y-64620000D01*
X154500079Y-64620000D01*
X154671579Y-64448500D01*
X161417000Y-64448500D01*
X161542132Y-64423610D01*
X161587314Y-64423649D01*
X161629440Y-64406243D01*
X161755675Y-64381133D01*
X161861761Y-64310249D01*
X161903514Y-64292997D01*
X161935768Y-64260800D01*
X162042790Y-64189290D01*
X162113674Y-64083204D01*
X162145647Y-64051287D01*
X162163125Y-64009194D01*
X162234633Y-63902175D01*
X162259524Y-63777041D01*
X162276850Y-63735315D01*
X162276890Y-63689737D01*
X162302000Y-63563500D01*
X162277110Y-63438368D01*
X162277149Y-63393186D01*
X162259743Y-63351060D01*
X162234633Y-63224825D01*
X162163749Y-63118739D01*
X162146497Y-63076986D01*
X162114300Y-63044732D01*
X162042790Y-62937710D01*
X161992340Y-62904000D01*
X163221560Y-62904000D01*
X163221560Y-64604000D01*
X163265838Y-64839317D01*
X163404910Y-65055441D01*
X163617110Y-65200431D01*
X163869000Y-65251440D01*
X165569000Y-65251440D01*
X165804317Y-65207162D01*
X166020441Y-65068090D01*
X166165431Y-64855890D01*
X166179086Y-64788459D01*
X166208946Y-64833147D01*
X166690715Y-65155054D01*
X167259000Y-65268093D01*
X167827285Y-65155054D01*
X168309054Y-64833147D01*
X168529000Y-64503974D01*
X168748946Y-64833147D01*
X169230715Y-65155054D01*
X169799000Y-65268093D01*
X170367285Y-65155054D01*
X170849054Y-64833147D01*
X171076702Y-64492447D01*
X171143817Y-64635358D01*
X171572076Y-65025645D01*
X171982110Y-65195476D01*
X172212000Y-65074155D01*
X172212000Y-63881000D01*
X172466000Y-63881000D01*
X172466000Y-65074155D01*
X172695890Y-65195476D01*
X173105924Y-65025645D01*
X173534183Y-64635358D01*
X173780486Y-64110892D01*
X173659819Y-63881000D01*
X172466000Y-63881000D01*
X172212000Y-63881000D01*
X172192000Y-63881000D01*
X172192000Y-63627000D01*
X172212000Y-63627000D01*
X172212000Y-62433845D01*
X172466000Y-62433845D01*
X172466000Y-63627000D01*
X173659819Y-63627000D01*
X173780486Y-63397108D01*
X176358514Y-63397108D01*
X176479181Y-63627000D01*
X177673000Y-63627000D01*
X177673000Y-62433845D01*
X177443110Y-62312524D01*
X177033076Y-62482355D01*
X176604817Y-62872642D01*
X176358514Y-63397108D01*
X173780486Y-63397108D01*
X173534183Y-62872642D01*
X173105924Y-62482355D01*
X172695890Y-62312524D01*
X172466000Y-62433845D01*
X172212000Y-62433845D01*
X171982110Y-62312524D01*
X171572076Y-62482355D01*
X171143817Y-62872642D01*
X171076702Y-63015553D01*
X170849054Y-62674853D01*
X170367285Y-62352946D01*
X169799000Y-62239907D01*
X169230715Y-62352946D01*
X168748946Y-62674853D01*
X168529000Y-63004026D01*
X168309054Y-62674853D01*
X167827285Y-62352946D01*
X167259000Y-62239907D01*
X166690715Y-62352946D01*
X166208946Y-62674853D01*
X166181150Y-62716452D01*
X166172162Y-62668683D01*
X166033090Y-62452559D01*
X165820890Y-62307569D01*
X165569000Y-62256560D01*
X163869000Y-62256560D01*
X163633683Y-62300838D01*
X163417559Y-62439910D01*
X163272569Y-62652110D01*
X163221560Y-62904000D01*
X161992340Y-62904000D01*
X161936704Y-62866826D01*
X161904787Y-62834853D01*
X161862694Y-62817375D01*
X161755675Y-62745867D01*
X161630541Y-62720976D01*
X161588815Y-62703650D01*
X161543237Y-62703610D01*
X161417000Y-62678500D01*
X154305000Y-62678500D01*
X153966325Y-62745867D01*
X153679210Y-62937710D01*
X153679208Y-62937713D01*
X152804000Y-63812920D01*
X152804000Y-62802831D01*
X152832374Y-62774507D01*
X152978833Y-62421794D01*
X152979167Y-62039882D01*
X152833323Y-61686914D01*
X152816439Y-61670000D01*
X198680000Y-61670000D01*
X198680000Y-64979129D01*
X198522763Y-64792632D01*
X198111874Y-64590881D01*
X197937000Y-64717046D01*
X197937000Y-65833000D01*
X197957000Y-65833000D01*
X197957000Y-66087000D01*
X197937000Y-66087000D01*
X197937000Y-67202954D01*
X198111874Y-67329119D01*
X198522763Y-67127368D01*
X198680000Y-66940871D01*
X198680000Y-131370000D01*
X168498616Y-131370000D01*
X168595000Y-131137309D01*
X168595000Y-128740000D01*
X170256560Y-128740000D01*
X170256560Y-130340000D01*
X170300838Y-130575317D01*
X170439910Y-130791441D01*
X170652110Y-130936431D01*
X170904000Y-130987440D01*
X172504000Y-130987440D01*
X172739317Y-130943162D01*
X172955441Y-130804090D01*
X173043644Y-130675000D01*
X174498000Y-130675000D01*
X174932346Y-130588603D01*
X175300566Y-130342566D01*
X175521823Y-130121309D01*
X175561079Y-130095079D01*
X176880960Y-128775198D01*
X176880665Y-129113207D01*
X177174630Y-129824658D01*
X177718479Y-130369457D01*
X178429416Y-130664663D01*
X179199207Y-130665335D01*
X179910658Y-130371370D01*
X180417913Y-129865000D01*
X186103000Y-129865000D01*
X186537346Y-129778603D01*
X186905566Y-129532566D01*
X188000566Y-128437566D01*
X188033017Y-128389000D01*
X188246603Y-128069346D01*
X188269348Y-127955000D01*
X192962309Y-127955000D01*
X192986000Y-127945187D01*
X193009691Y-127955000D01*
X197812309Y-127955000D01*
X198045698Y-127858327D01*
X198224327Y-127679699D01*
X198321000Y-127446310D01*
X198321000Y-121943690D01*
X198311187Y-121920000D01*
X198321000Y-121896310D01*
X198321000Y-116393690D01*
X198224327Y-116160301D01*
X198045698Y-115981673D01*
X197812309Y-115885000D01*
X193009691Y-115885000D01*
X192986000Y-115894813D01*
X192962309Y-115885000D01*
X188159691Y-115885000D01*
X187926302Y-115981673D01*
X187747673Y-116160301D01*
X187651000Y-116393690D01*
X187651000Y-119608512D01*
X187556066Y-119466433D01*
X187507066Y-119417434D01*
X187476625Y-119397094D01*
X187138846Y-119171397D01*
X186771000Y-119098228D01*
X186771000Y-118805750D01*
X186612250Y-118647000D01*
X183963000Y-118647000D01*
X183963000Y-118667000D01*
X183709000Y-118667000D01*
X183709000Y-118647000D01*
X183689000Y-118647000D01*
X183689000Y-118393000D01*
X183709000Y-118393000D01*
X183709000Y-117493750D01*
X183963000Y-117493750D01*
X183963000Y-118393000D01*
X186612250Y-118393000D01*
X186771000Y-118234250D01*
X186771000Y-117843690D01*
X186674327Y-117610301D01*
X186495698Y-117431673D01*
X186262309Y-117335000D01*
X184121750Y-117335000D01*
X183963000Y-117493750D01*
X183709000Y-117493750D01*
X183550250Y-117335000D01*
X182212132Y-117335000D01*
X185409766Y-114137366D01*
X185655803Y-113769146D01*
X185742200Y-113334800D01*
X185742200Y-112540218D01*
X185858641Y-112465290D01*
X186003631Y-112253090D01*
X186012570Y-112208945D01*
X186279061Y-112208945D01*
X186353195Y-112455064D01*
X186890423Y-112648165D01*
X187460654Y-112620978D01*
X187861205Y-112455064D01*
X187935339Y-112208945D01*
X187107200Y-111380805D01*
X186279061Y-112208945D01*
X186012570Y-112208945D01*
X186051846Y-112014999D01*
X186099455Y-112029339D01*
X186927595Y-111201200D01*
X187286805Y-111201200D01*
X188114945Y-112029339D01*
X188361064Y-111955205D01*
X188554165Y-111417977D01*
X188526978Y-110847746D01*
X188361064Y-110447195D01*
X188114945Y-110373061D01*
X187286805Y-111201200D01*
X186927595Y-111201200D01*
X186099455Y-110373061D01*
X186052033Y-110387345D01*
X186015551Y-110193455D01*
X186279061Y-110193455D01*
X187107200Y-111021595D01*
X187935339Y-110193455D01*
X187861205Y-109947336D01*
X187323977Y-109754235D01*
X186753746Y-109781422D01*
X186353195Y-109947336D01*
X186279061Y-110193455D01*
X186015551Y-110193455D01*
X186010362Y-110165883D01*
X185871290Y-109949759D01*
X185659090Y-109804769D01*
X185407200Y-109753760D01*
X185081800Y-109753760D01*
X185081800Y-104911840D01*
X185696800Y-104911840D01*
X185932117Y-104867562D01*
X186148241Y-104728490D01*
X186293231Y-104516290D01*
X186344240Y-104264400D01*
X186344240Y-102800150D01*
X187561800Y-102800150D01*
X187561800Y-104390710D01*
X187658473Y-104624099D01*
X187837102Y-104802727D01*
X188070491Y-104899400D01*
X189661050Y-104899400D01*
X189819800Y-104740650D01*
X189819800Y-102641400D01*
X190073800Y-102641400D01*
X190073800Y-104740650D01*
X190232550Y-104899400D01*
X191823109Y-104899400D01*
X192056498Y-104802727D01*
X192235127Y-104624099D01*
X192331800Y-104390710D01*
X192331800Y-102800150D01*
X192173050Y-102641400D01*
X190073800Y-102641400D01*
X189819800Y-102641400D01*
X187720550Y-102641400D01*
X187561800Y-102800150D01*
X186344240Y-102800150D01*
X186344240Y-100764400D01*
X186299962Y-100529083D01*
X186160890Y-100312959D01*
X185994691Y-100199400D01*
X186661050Y-100199400D01*
X186819800Y-100040650D01*
X186819800Y-97941400D01*
X187073800Y-97941400D01*
X187073800Y-100040650D01*
X187232550Y-100199400D01*
X187901496Y-100199400D01*
X187837102Y-100226073D01*
X187658473Y-100404701D01*
X187561800Y-100638090D01*
X187561800Y-102228650D01*
X187720550Y-102387400D01*
X189819800Y-102387400D01*
X189819800Y-100288150D01*
X190073800Y-100288150D01*
X190073800Y-102387400D01*
X192173050Y-102387400D01*
X192331800Y-102228650D01*
X192331800Y-100638090D01*
X192235127Y-100404701D01*
X192056498Y-100226073D01*
X191823109Y-100129400D01*
X190232550Y-100129400D01*
X190073800Y-100288150D01*
X189819800Y-100288150D01*
X189661050Y-100129400D01*
X188992104Y-100129400D01*
X189056498Y-100102727D01*
X189235127Y-99924099D01*
X189331800Y-99690710D01*
X189331800Y-98100150D01*
X189173050Y-97941400D01*
X187073800Y-97941400D01*
X186819800Y-97941400D01*
X184720550Y-97941400D01*
X184561800Y-98100150D01*
X184561800Y-99690710D01*
X184658473Y-99924099D01*
X184837102Y-100102727D01*
X184871463Y-100116960D01*
X182196800Y-100116960D01*
X181961483Y-100161238D01*
X181745359Y-100300310D01*
X181600369Y-100512510D01*
X181549360Y-100764400D01*
X181549360Y-104264400D01*
X181593638Y-104499717D01*
X181732710Y-104715841D01*
X181944910Y-104860831D01*
X182196800Y-104911840D01*
X182811800Y-104911840D01*
X182811800Y-110540800D01*
X182898197Y-110975146D01*
X183065144Y-111225000D01*
X183144234Y-111343366D01*
X183159760Y-111358892D01*
X183159760Y-112001200D01*
X183204038Y-112236517D01*
X183343110Y-112452641D01*
X183472200Y-112540844D01*
X183472200Y-112864668D01*
X179791434Y-116545434D01*
X179545397Y-116913654D01*
X179459000Y-117348000D01*
X179459000Y-123901810D01*
X179202584Y-123795337D01*
X178432793Y-123794665D01*
X177721342Y-124088630D01*
X177176543Y-124632479D01*
X176881337Y-125343416D01*
X176881155Y-125551713D01*
X174027868Y-128405000D01*
X173043018Y-128405000D01*
X172968090Y-128288559D01*
X172755890Y-128143569D01*
X172517799Y-128095354D01*
X172532139Y-128047745D01*
X171704000Y-127219605D01*
X170875861Y-128047745D01*
X170890145Y-128095167D01*
X170668683Y-128136838D01*
X170452559Y-128275910D01*
X170307569Y-128488110D01*
X170256560Y-128740000D01*
X168595000Y-128740000D01*
X168595000Y-126823223D01*
X170257035Y-126823223D01*
X170284222Y-127393454D01*
X170450136Y-127794005D01*
X170696255Y-127868139D01*
X171524395Y-127040000D01*
X171883605Y-127040000D01*
X172711745Y-127868139D01*
X172957864Y-127794005D01*
X173150965Y-127256777D01*
X173123778Y-126686546D01*
X172957864Y-126285995D01*
X172711745Y-126211861D01*
X171883605Y-127040000D01*
X171524395Y-127040000D01*
X170696255Y-126211861D01*
X170450136Y-126285995D01*
X170257035Y-126823223D01*
X168595000Y-126823223D01*
X168595000Y-126334691D01*
X168585187Y-126311000D01*
X168595000Y-126287309D01*
X168595000Y-126032255D01*
X170875861Y-126032255D01*
X171704000Y-126860395D01*
X172532139Y-126032255D01*
X172458005Y-125786136D01*
X171920777Y-125593035D01*
X171350546Y-125620222D01*
X170949995Y-125786136D01*
X170875861Y-126032255D01*
X168595000Y-126032255D01*
X168595000Y-124919745D01*
X170748861Y-124919745D01*
X170822995Y-125165864D01*
X171360223Y-125358965D01*
X171930454Y-125331778D01*
X172331005Y-125165864D01*
X172405139Y-124919745D01*
X171577000Y-124091605D01*
X170748861Y-124919745D01*
X168595000Y-124919745D01*
X168595000Y-123695223D01*
X170130035Y-123695223D01*
X170157222Y-124265454D01*
X170323136Y-124666005D01*
X170569255Y-124740139D01*
X171397395Y-123912000D01*
X171756605Y-123912000D01*
X172584745Y-124740139D01*
X172830864Y-124666005D01*
X173023965Y-124128777D01*
X172996778Y-123558546D01*
X172830864Y-123157995D01*
X172584745Y-123083861D01*
X171756605Y-123912000D01*
X171397395Y-123912000D01*
X170569255Y-123083861D01*
X170323136Y-123157995D01*
X170130035Y-123695223D01*
X168595000Y-123695223D01*
X168595000Y-121484691D01*
X168498327Y-121251302D01*
X168319699Y-121072673D01*
X168153908Y-121004000D01*
X170129560Y-121004000D01*
X170129560Y-122212000D01*
X170173838Y-122447317D01*
X170312910Y-122663441D01*
X170525110Y-122808431D01*
X170763201Y-122856646D01*
X170748861Y-122904255D01*
X171577000Y-123732395D01*
X172405139Y-122904255D01*
X172390855Y-122856833D01*
X172612317Y-122815162D01*
X172828441Y-122676090D01*
X172973431Y-122463890D01*
X173024440Y-122212000D01*
X173024440Y-121004000D01*
X173863000Y-121004000D01*
X174144272Y-120948051D01*
X174382723Y-120788723D01*
X174509723Y-120661724D01*
X174669051Y-120423272D01*
X174681615Y-120360110D01*
X174725000Y-120142000D01*
X174725000Y-117602000D01*
X174669051Y-117320728D01*
X174598242Y-117214755D01*
X174509723Y-117082276D01*
X174288946Y-116861500D01*
X176332235Y-114818212D01*
X176416053Y-114943654D01*
X176745226Y-115163600D01*
X176416053Y-115383546D01*
X176094146Y-115865315D01*
X175981107Y-116433600D01*
X176094146Y-117001885D01*
X176416053Y-117483654D01*
X176457652Y-117511450D01*
X176409883Y-117520438D01*
X176193759Y-117659510D01*
X176048769Y-117871710D01*
X175997760Y-118123600D01*
X175997760Y-119823600D01*
X176042038Y-120058917D01*
X176181110Y-120275041D01*
X176393310Y-120420031D01*
X176645200Y-120471040D01*
X178345200Y-120471040D01*
X178580517Y-120426762D01*
X178796641Y-120287690D01*
X178941631Y-120075490D01*
X178992640Y-119823600D01*
X178992640Y-118123600D01*
X178948362Y-117888283D01*
X178809290Y-117672159D01*
X178597090Y-117527169D01*
X178529659Y-117513514D01*
X178574347Y-117483654D01*
X178896254Y-117001885D01*
X179009293Y-116433600D01*
X178896254Y-115865315D01*
X178574347Y-115383546D01*
X178245174Y-115163600D01*
X178574347Y-114943654D01*
X178896254Y-114461885D01*
X179009293Y-113893600D01*
X178896254Y-113325315D01*
X178574347Y-112843546D01*
X178092578Y-112521639D01*
X177524293Y-112408600D01*
X177466107Y-112408600D01*
X176897822Y-112521639D01*
X176630000Y-112700592D01*
X176630000Y-110828018D01*
X176746441Y-110753090D01*
X176891431Y-110540890D01*
X176942440Y-110289000D01*
X176942440Y-109389000D01*
X176898162Y-109153683D01*
X176759090Y-108937559D01*
X176632314Y-108850936D01*
X176718000Y-108765250D01*
X176718000Y-107966000D01*
X176972000Y-107966000D01*
X176972000Y-108765250D01*
X177130750Y-108924000D01*
X177371310Y-108924000D01*
X177604699Y-108827327D01*
X177783327Y-108648698D01*
X177880000Y-108415309D01*
X177880000Y-108124750D01*
X177721250Y-107966000D01*
X176972000Y-107966000D01*
X176718000Y-107966000D01*
X176698000Y-107966000D01*
X176698000Y-107712000D01*
X176718000Y-107712000D01*
X176718000Y-106912750D01*
X176972000Y-106912750D01*
X176972000Y-107712000D01*
X177721250Y-107712000D01*
X177880000Y-107553250D01*
X177880000Y-107262691D01*
X177783327Y-107029302D01*
X177604699Y-106850673D01*
X177371310Y-106754000D01*
X177130750Y-106754000D01*
X176972000Y-106912750D01*
X176718000Y-106912750D01*
X176559250Y-106754000D01*
X176318690Y-106754000D01*
X176085301Y-106850673D01*
X175906673Y-107029302D01*
X175891577Y-107065747D01*
X175809090Y-106937559D01*
X175596890Y-106792569D01*
X175345000Y-106741560D01*
X174545000Y-106741560D01*
X174309683Y-106785838D01*
X174093559Y-106924910D01*
X173971192Y-107104000D01*
X172201417Y-107104000D01*
X172191787Y-107094353D01*
X172019594Y-107022852D01*
X172350723Y-106691724D01*
X172510051Y-106453273D01*
X172531411Y-106345890D01*
X172566000Y-106172000D01*
X172566000Y-104013000D01*
X172510051Y-103731728D01*
X172465133Y-103664503D01*
X172350724Y-103493277D01*
X172039440Y-103181993D01*
X172039440Y-102694000D01*
X171995162Y-102458683D01*
X171856090Y-102242559D01*
X171677000Y-102120192D01*
X171677000Y-100330000D01*
X171621051Y-100048728D01*
X171583356Y-99992314D01*
X171461723Y-99810276D01*
X168959723Y-97308277D01*
X168721272Y-97148949D01*
X168710106Y-97146728D01*
X168497440Y-97104426D01*
X168497440Y-96918000D01*
X168453162Y-96682683D01*
X168426340Y-96641000D01*
X168463002Y-96641000D01*
X168463002Y-96482252D01*
X168621750Y-96641000D01*
X169062309Y-96641000D01*
X169295698Y-96544327D01*
X169474327Y-96365699D01*
X169571000Y-96132310D01*
X169571000Y-95916750D01*
X169412250Y-95758000D01*
X168463000Y-95758000D01*
X168463000Y-95778000D01*
X168209000Y-95778000D01*
X168209000Y-95758000D01*
X168189000Y-95758000D01*
X168189000Y-95504000D01*
X168209000Y-95504000D01*
X168209000Y-94779750D01*
X168463000Y-94779750D01*
X168463000Y-95504000D01*
X169412250Y-95504000D01*
X169571000Y-95345250D01*
X169571000Y-95129690D01*
X169474327Y-94896301D01*
X169295698Y-94717673D01*
X169062309Y-94621000D01*
X168621750Y-94621000D01*
X168463000Y-94779750D01*
X168209000Y-94779750D01*
X168050250Y-94621000D01*
X167609691Y-94621000D01*
X167376302Y-94717673D01*
X167374932Y-94719043D01*
X167287890Y-94659569D01*
X167036000Y-94608560D01*
X165836000Y-94608560D01*
X165600683Y-94652838D01*
X165518785Y-94705538D01*
X165068523Y-94255277D01*
X164830072Y-94095949D01*
X164548800Y-94040000D01*
X162156440Y-94040000D01*
X162156440Y-93775000D01*
X162112162Y-93539683D01*
X161973090Y-93323559D01*
X161760890Y-93178569D01*
X161509000Y-93127560D01*
X160309000Y-93127560D01*
X160073683Y-93171838D01*
X159857559Y-93310910D01*
X159712569Y-93523110D01*
X159661560Y-93775000D01*
X159661560Y-95028114D01*
X159616440Y-94982994D01*
X159616440Y-93775000D01*
X159572162Y-93539683D01*
X159433090Y-93323559D01*
X159220890Y-93178569D01*
X158969000Y-93127560D01*
X157769000Y-93127560D01*
X157533683Y-93171838D01*
X157503800Y-93191067D01*
X157503800Y-90094140D01*
X157537500Y-90094140D01*
X157772817Y-90049862D01*
X157988941Y-89910790D01*
X158133931Y-89698590D01*
X158184940Y-89446700D01*
X158184940Y-88246700D01*
X158140662Y-88011383D01*
X158074171Y-87908054D01*
X158075827Y-87906398D01*
X158172500Y-87673009D01*
X158172500Y-87232450D01*
X158013750Y-87073700D01*
X157289500Y-87073700D01*
X157289500Y-87093700D01*
X157035500Y-87093700D01*
X157035500Y-87073700D01*
X155829000Y-87073700D01*
X155829000Y-87093700D01*
X155575000Y-87093700D01*
X155575000Y-87073700D01*
X155555000Y-87073700D01*
X155555000Y-86819700D01*
X155575000Y-86819700D01*
X155575000Y-85870450D01*
X155829000Y-85870450D01*
X155829000Y-86819700D01*
X157035500Y-86819700D01*
X157035500Y-85870450D01*
X157289500Y-85870450D01*
X157289500Y-86819700D01*
X158013750Y-86819700D01*
X158172500Y-86660950D01*
X158172500Y-86220391D01*
X158075827Y-85987002D01*
X157897199Y-85808373D01*
X157663810Y-85711700D01*
X157448250Y-85711700D01*
X157289500Y-85870450D01*
X157035500Y-85870450D01*
X156876750Y-85711700D01*
X156661190Y-85711700D01*
X156432250Y-85806530D01*
X156203310Y-85711700D01*
X155987750Y-85711700D01*
X155829000Y-85870450D01*
X155575000Y-85870450D01*
X155416250Y-85711700D01*
X155200690Y-85711700D01*
X154967301Y-85808373D01*
X154836000Y-85939675D01*
X154836000Y-82648074D01*
X154910850Y-82467815D01*
X154911149Y-82125686D01*
X154780497Y-81809486D01*
X154538787Y-81567353D01*
X154222815Y-81436150D01*
X153880686Y-81435851D01*
X153566400Y-81565712D01*
X153566400Y-81158881D01*
X153666250Y-80918415D01*
X153666549Y-80576286D01*
X153563595Y-80327118D01*
X155313333Y-80327118D01*
X155459177Y-80680086D01*
X155728993Y-80950374D01*
X156081706Y-81096833D01*
X156123211Y-81096869D01*
X157457000Y-82430658D01*
X157457000Y-84420426D01*
X157382150Y-84600685D01*
X157381851Y-84942814D01*
X157512503Y-85259014D01*
X157754213Y-85501147D01*
X158070185Y-85632350D01*
X158412314Y-85632649D01*
X158728514Y-85501997D01*
X158970647Y-85260287D01*
X159101850Y-84944315D01*
X159102149Y-84602186D01*
X159027000Y-84420313D01*
X159027000Y-82105500D01*
X158967245Y-81805094D01*
X158797079Y-81550421D01*
X157233632Y-79986974D01*
X157233667Y-79946882D01*
X157087823Y-79593914D01*
X156818007Y-79323626D01*
X156465294Y-79177167D01*
X156083382Y-79176833D01*
X155730414Y-79322677D01*
X155460126Y-79592493D01*
X155313667Y-79945206D01*
X155313333Y-80327118D01*
X153563595Y-80327118D01*
X153535897Y-80260086D01*
X153294187Y-80017953D01*
X152978215Y-79886750D01*
X152779000Y-79886576D01*
X152779000Y-78546802D01*
X155312874Y-76012928D01*
X155553514Y-75913497D01*
X155795647Y-75671787D01*
X155926850Y-75355815D01*
X155927149Y-75013686D01*
X155796497Y-74697486D01*
X155554787Y-74455353D01*
X155238815Y-74324150D01*
X154896686Y-74323851D01*
X154580486Y-74454503D01*
X154338353Y-74696213D01*
X154237781Y-74938417D01*
X151481599Y-77694599D01*
X151316852Y-77941161D01*
X151259000Y-78232000D01*
X151259000Y-95570086D01*
X151049000Y-95527560D01*
X150149000Y-95527560D01*
X149913683Y-95571838D01*
X149697559Y-95710910D01*
X149552569Y-95923110D01*
X149501560Y-96175000D01*
X149501560Y-98375000D01*
X149545838Y-98610317D01*
X149684910Y-98826441D01*
X149897110Y-98971431D01*
X150149000Y-99022440D01*
X151049000Y-99022440D01*
X151259000Y-98982926D01*
X151259000Y-100570086D01*
X151049000Y-100527560D01*
X150149000Y-100527560D01*
X149913683Y-100571838D01*
X149697559Y-100710910D01*
X149552569Y-100923110D01*
X149501560Y-101175000D01*
X149501560Y-103375000D01*
X149545838Y-103610317D01*
X149684910Y-103826441D01*
X149897110Y-103971431D01*
X150149000Y-104022440D01*
X151049000Y-104022440D01*
X151259000Y-103982926D01*
X151259000Y-107442000D01*
X151316852Y-107732839D01*
X151481599Y-107979401D01*
X151523245Y-108021047D01*
X151413150Y-108286185D01*
X151412851Y-108628314D01*
X151453093Y-108725706D01*
X151446559Y-108729910D01*
X151301569Y-108942110D01*
X151250560Y-109194000D01*
X151250560Y-110394000D01*
X151294838Y-110629317D01*
X151361329Y-110732646D01*
X151359673Y-110734302D01*
X151263000Y-110967691D01*
X151263000Y-111408250D01*
X151421750Y-111567000D01*
X152146000Y-111567000D01*
X152146000Y-111547000D01*
X152400000Y-111547000D01*
X152400000Y-111567000D01*
X153124250Y-111567000D01*
X153267457Y-111423793D01*
X153493105Y-111517490D01*
X153835234Y-111517789D01*
X153929110Y-111479000D01*
X153966982Y-111479000D01*
X154041910Y-111595441D01*
X154254110Y-111740431D01*
X154506000Y-111791440D01*
X155406000Y-111791440D01*
X155641317Y-111747162D01*
X155857441Y-111608090D01*
X155944064Y-111481314D01*
X156029750Y-111567000D01*
X156829000Y-111567000D01*
X156829000Y-111547000D01*
X157083000Y-111547000D01*
X157083000Y-111567000D01*
X157103000Y-111567000D01*
X157103000Y-111821000D01*
X157083000Y-111821000D01*
X157083000Y-111841000D01*
X156829000Y-111841000D01*
X156829000Y-111821000D01*
X156029750Y-111821000D01*
X155871000Y-111979750D01*
X155871000Y-112220310D01*
X155967673Y-112453699D01*
X156146302Y-112632327D01*
X156379691Y-112729000D01*
X156592921Y-112729000D01*
X154759360Y-114562560D01*
X154549000Y-114562560D01*
X154408914Y-114588919D01*
X154375310Y-114575000D01*
X154209750Y-114575000D01*
X154051000Y-114733750D01*
X154051000Y-114814051D01*
X153952569Y-114958110D01*
X153924824Y-115095120D01*
X153902162Y-114974683D01*
X153797000Y-114811257D01*
X153797000Y-114733750D01*
X153638250Y-114575000D01*
X153472690Y-114575000D01*
X153435829Y-114590268D01*
X153299000Y-114562560D01*
X152649000Y-114562560D01*
X152413683Y-114606838D01*
X152197559Y-114745910D01*
X152052569Y-114958110D01*
X152043074Y-115005000D01*
X151060192Y-115005000D01*
X150953090Y-114838559D01*
X150740890Y-114693569D01*
X150489000Y-114642560D01*
X149739000Y-114642560D01*
X149632650Y-114662571D01*
X146949830Y-111979750D01*
X151263000Y-111979750D01*
X151263000Y-112420309D01*
X151359673Y-112653698D01*
X151538301Y-112832327D01*
X151771690Y-112929000D01*
X151987250Y-112929000D01*
X152146000Y-112770250D01*
X152146000Y-111821000D01*
X152400000Y-111821000D01*
X152400000Y-112770250D01*
X152558750Y-112929000D01*
X152774310Y-112929000D01*
X153007699Y-112832327D01*
X153186327Y-112653698D01*
X153283000Y-112420309D01*
X153283000Y-111979750D01*
X153124250Y-111821000D01*
X152400000Y-111821000D01*
X152146000Y-111821000D01*
X151421750Y-111821000D01*
X151263000Y-111979750D01*
X146949830Y-111979750D01*
X145534000Y-110563920D01*
X145534000Y-106553000D01*
X145447603Y-106118654D01*
X145201566Y-105750434D01*
X144833346Y-105504397D01*
X144399000Y-105418000D01*
X143964654Y-105504397D01*
X143596434Y-105750434D01*
X143350397Y-106118654D01*
X143264000Y-106553000D01*
X143264000Y-123190000D01*
X143350397Y-123624346D01*
X143544770Y-123915245D01*
X143583272Y-123972867D01*
X143556204Y-123954781D01*
X142118080Y-123668720D01*
X140679956Y-123954781D01*
X139460773Y-124769413D01*
X138646141Y-125988596D01*
X138360080Y-127426720D01*
X138646141Y-128864844D01*
X139460773Y-130084027D01*
X140679956Y-130898659D01*
X142118080Y-131184720D01*
X143556204Y-130898659D01*
X143761110Y-130761745D01*
X154111861Y-130761745D01*
X154185995Y-131007864D01*
X154723223Y-131200965D01*
X155293454Y-131173778D01*
X155694005Y-131007864D01*
X155768139Y-130761745D01*
X154940000Y-129933605D01*
X154111861Y-130761745D01*
X143761110Y-130761745D01*
X144775387Y-130084027D01*
X145140749Y-129537223D01*
X153493035Y-129537223D01*
X153520222Y-130107454D01*
X153686136Y-130508005D01*
X153932255Y-130582139D01*
X154760395Y-129754000D01*
X155119605Y-129754000D01*
X155947745Y-130582139D01*
X156193864Y-130508005D01*
X156386965Y-129970777D01*
X156359778Y-129400546D01*
X156193864Y-128999995D01*
X155947745Y-128925861D01*
X155119605Y-129754000D01*
X154760395Y-129754000D01*
X153932255Y-128925861D01*
X153686136Y-128999995D01*
X153493035Y-129537223D01*
X145140749Y-129537223D01*
X145590019Y-128864844D01*
X145876080Y-127426720D01*
X145590019Y-125988596D01*
X145585096Y-125981228D01*
X147660434Y-128056566D01*
X148028654Y-128302603D01*
X148463000Y-128389000D01*
X153600982Y-128389000D01*
X153675910Y-128505441D01*
X153888110Y-128650431D01*
X154126201Y-128698646D01*
X154111861Y-128746255D01*
X154940000Y-129574395D01*
X155768139Y-128746255D01*
X155753855Y-128698833D01*
X155975317Y-128657162D01*
X156191441Y-128518090D01*
X156336431Y-128305890D01*
X156387440Y-128054000D01*
X156387440Y-126454000D01*
X156343162Y-126218683D01*
X156204090Y-126002559D01*
X156075000Y-125914356D01*
X156075000Y-123406132D01*
X156525000Y-122956132D01*
X156525000Y-126287309D01*
X156534813Y-126311000D01*
X156525000Y-126334691D01*
X156525000Y-131137309D01*
X156621384Y-131370000D01*
X137870000Y-131370000D01*
X137870000Y-75048500D01*
X138373060Y-75048500D01*
X138373060Y-78748500D01*
X138417338Y-78983817D01*
X138556410Y-79199941D01*
X138768610Y-79344931D01*
X139020500Y-79395940D01*
X149020500Y-79395940D01*
X149255817Y-79351662D01*
X149471941Y-79212590D01*
X149616931Y-79000390D01*
X149667940Y-78748500D01*
X149667940Y-78711065D01*
X149763614Y-78711149D01*
X150079814Y-78580497D01*
X150321947Y-78338787D01*
X150453150Y-78022815D01*
X150453449Y-77680686D01*
X150328300Y-77377804D01*
X150328300Y-77291846D01*
X151733498Y-75886649D01*
X151897985Y-75954950D01*
X152240114Y-75955249D01*
X152556314Y-75824597D01*
X152798447Y-75582887D01*
X152929650Y-75266915D01*
X152929949Y-74924786D01*
X152799297Y-74608586D01*
X152557587Y-74366453D01*
X152241615Y-74235250D01*
X151899486Y-74234951D01*
X151596604Y-74360100D01*
X151485600Y-74360100D01*
X151217143Y-74413500D01*
X151204328Y-74416049D01*
X150965876Y-74575377D01*
X149667940Y-75873314D01*
X149667940Y-75230640D01*
X151983334Y-72915245D01*
X152103443Y-72865617D01*
X152366692Y-72602827D01*
X152509338Y-72259299D01*
X152509662Y-71887333D01*
X152367617Y-71543557D01*
X152104827Y-71280308D01*
X151761299Y-71137662D01*
X151389333Y-71137338D01*
X151045557Y-71279383D01*
X150782308Y-71542173D01*
X150731934Y-71663487D01*
X147994360Y-74401060D01*
X139020500Y-74401060D01*
X138785183Y-74445338D01*
X138569059Y-74584410D01*
X138424069Y-74796610D01*
X138373060Y-75048500D01*
X137870000Y-75048500D01*
X137870000Y-72197085D01*
X139787960Y-72197085D01*
X139998369Y-72706315D01*
X140387636Y-73096261D01*
X140896498Y-73307559D01*
X141447485Y-73308040D01*
X141956715Y-73097631D01*
X142346661Y-72708364D01*
X142557959Y-72199502D01*
X142558440Y-71648515D01*
X142348031Y-71139285D01*
X141958764Y-70749339D01*
X141449902Y-70538041D01*
X140898915Y-70537560D01*
X140389685Y-70747969D01*
X139999739Y-71137236D01*
X139788441Y-71646098D01*
X139787960Y-72197085D01*
X137870000Y-72197085D01*
X137870000Y-68397085D01*
X139787960Y-68397085D01*
X139998369Y-68906315D01*
X140387636Y-69296261D01*
X140896498Y-69507559D01*
X141447485Y-69508040D01*
X141956715Y-69297631D01*
X142346661Y-68908364D01*
X142557959Y-68399502D01*
X142558440Y-67848515D01*
X142348031Y-67339285D01*
X141958764Y-66949339D01*
X141449902Y-66738041D01*
X140898915Y-66737560D01*
X140389685Y-66947969D01*
X139999739Y-67337236D01*
X139788441Y-67846098D01*
X139787960Y-68397085D01*
X137870000Y-68397085D01*
X137870000Y-61670000D01*
X151221146Y-61670000D01*
X151205626Y-61685493D01*
G36*
X187651000Y-121896310D02*
X187660813Y-121920000D01*
X187651000Y-121943690D01*
X187651000Y-122552133D01*
X187609024Y-122510084D01*
X187127718Y-122310228D01*
X186771000Y-122309917D01*
X186771000Y-122205750D01*
X186612250Y-122047000D01*
X183963000Y-122047000D01*
X183963000Y-122067000D01*
X183709000Y-122067000D01*
X183709000Y-122047000D01*
X183689000Y-122047000D01*
X183689000Y-121793000D01*
X183709000Y-121793000D01*
X183709000Y-121773000D01*
X183963000Y-121773000D01*
X183963000Y-121793000D01*
X186612250Y-121793000D01*
X186771000Y-121634250D01*
X186771000Y-121400518D01*
X187187845Y-121317603D01*
X187556066Y-121071566D01*
X187651000Y-120929487D01*
X187651000Y-121896310D01*
X187651000Y-121896310D01*
G37*
X187651000Y-121896310D02*
X187660813Y-121920000D01*
X187651000Y-121943690D01*
X187651000Y-122552133D01*
X187609024Y-122510084D01*
X187127718Y-122310228D01*
X186771000Y-122309917D01*
X186771000Y-122205750D01*
X186612250Y-122047000D01*
X183963000Y-122047000D01*
X183963000Y-122067000D01*
X183709000Y-122067000D01*
X183709000Y-122047000D01*
X183689000Y-122047000D01*
X183689000Y-121793000D01*
X183709000Y-121793000D01*
X183709000Y-121773000D01*
X183963000Y-121773000D01*
X183963000Y-121793000D01*
X186612250Y-121793000D01*
X186771000Y-121634250D01*
X186771000Y-121400518D01*
X187187845Y-121317603D01*
X187556066Y-121071566D01*
X187651000Y-120929487D01*
X187651000Y-121896310D01*
G36*
X147192998Y-114726077D02*
X147192998Y-114813748D01*
X147034250Y-114655000D01*
X146818690Y-114655000D01*
X146585301Y-114751673D01*
X146406673Y-114930302D01*
X146310000Y-115163691D01*
X146310000Y-115604250D01*
X146468750Y-115763000D01*
X147193000Y-115763000D01*
X147193000Y-115743000D01*
X147447000Y-115743000D01*
X147447000Y-115763000D01*
X148171250Y-115763000D01*
X148200585Y-115733665D01*
X148502447Y-116035526D01*
X148559897Y-116324346D01*
X148805934Y-116692566D01*
X149159789Y-116929005D01*
X149104000Y-117063691D01*
X149104000Y-117457554D01*
X148916723Y-117270277D01*
X148678272Y-117110949D01*
X148397000Y-117055000D01*
X148317038Y-117055000D01*
X148298162Y-116954683D01*
X148231671Y-116851354D01*
X148233327Y-116849698D01*
X148330000Y-116616309D01*
X148330000Y-116175750D01*
X148171250Y-116017000D01*
X147447000Y-116017000D01*
X147447000Y-116037000D01*
X147193000Y-116037000D01*
X147193000Y-116017000D01*
X146468750Y-116017000D01*
X146310000Y-116175750D01*
X146310000Y-116616309D01*
X146406673Y-116849698D01*
X146408043Y-116851068D01*
X146348569Y-116938110D01*
X146297560Y-117190000D01*
X146297560Y-118390000D01*
X146341838Y-118625317D01*
X146480910Y-118841441D01*
X146693110Y-118986431D01*
X146945000Y-119037440D01*
X147695000Y-119037440D01*
X147930317Y-118993162D01*
X148146441Y-118854090D01*
X148258151Y-118690597D01*
X149045711Y-119478157D01*
X148559308Y-119964560D01*
X147790000Y-119964560D01*
X147554683Y-120008838D01*
X147338559Y-120147910D01*
X147193569Y-120360110D01*
X147142560Y-120612000D01*
X147142560Y-122212000D01*
X147186838Y-122447317D01*
X147325910Y-122663441D01*
X147538110Y-122808431D01*
X147776201Y-122856646D01*
X147761861Y-122904255D01*
X148590000Y-123732395D01*
X149418139Y-122904255D01*
X149403855Y-122856833D01*
X149625317Y-122815162D01*
X149841441Y-122676090D01*
X149986431Y-122463890D01*
X150037440Y-122212000D01*
X150037440Y-121696692D01*
X150544382Y-121189750D01*
X151739000Y-121189750D01*
X151739000Y-121405310D01*
X151835673Y-121638699D01*
X152014302Y-121817327D01*
X152247691Y-121914000D01*
X152688250Y-121914000D01*
X152847000Y-121755250D01*
X152847000Y-121031000D01*
X151897750Y-121031000D01*
X151739000Y-121189750D01*
X150544382Y-121189750D01*
X151331442Y-120402690D01*
X151739000Y-120402690D01*
X151739000Y-120618250D01*
X151897750Y-120777000D01*
X152847000Y-120777000D01*
X152847000Y-120052750D01*
X152688250Y-119894000D01*
X152247691Y-119894000D01*
X152014302Y-119990673D01*
X151835673Y-120169301D01*
X151739000Y-120402690D01*
X151331442Y-120402690D01*
X152622133Y-119111999D01*
X152649000Y-119117440D01*
X153139000Y-119117440D01*
X153139000Y-120014750D01*
X153101000Y-120052750D01*
X153101000Y-120777000D01*
X153121000Y-120777000D01*
X153121000Y-121031000D01*
X153101000Y-121031000D01*
X153101000Y-121755250D01*
X153139000Y-121793250D01*
X153139000Y-122741283D01*
X153129397Y-122755655D01*
X153043000Y-123190000D01*
X153129397Y-123624345D01*
X153375434Y-123992566D01*
X153805000Y-124422133D01*
X153805000Y-125914982D01*
X153688559Y-125989910D01*
X153600356Y-126119000D01*
X148933132Y-126119000D01*
X148060800Y-125246668D01*
X148373223Y-125358965D01*
X148943454Y-125331778D01*
X149344005Y-125165864D01*
X149418139Y-124919745D01*
X148590000Y-124091605D01*
X148575858Y-124105748D01*
X148396252Y-123926142D01*
X148410395Y-123912000D01*
X148769605Y-123912000D01*
X149597745Y-124740139D01*
X149843864Y-124666005D01*
X150036965Y-124128777D01*
X150009778Y-123558546D01*
X149843864Y-123157995D01*
X149597745Y-123083861D01*
X148769605Y-123912000D01*
X148410395Y-123912000D01*
X147582255Y-123083861D01*
X147336136Y-123157995D01*
X147143035Y-123695223D01*
X147170222Y-124265454D01*
X147234312Y-124420180D01*
X145534000Y-122719868D01*
X145534000Y-113067080D01*
X147192998Y-114726077D01*
X147192998Y-114726077D01*
G37*
X147192998Y-114726077D02*
X147192998Y-114813748D01*
X147034250Y-114655000D01*
X146818690Y-114655000D01*
X146585301Y-114751673D01*
X146406673Y-114930302D01*
X146310000Y-115163691D01*
X146310000Y-115604250D01*
X146468750Y-115763000D01*
X147193000Y-115763000D01*
X147193000Y-115743000D01*
X147447000Y-115743000D01*
X147447000Y-115763000D01*
X148171250Y-115763000D01*
X148200585Y-115733665D01*
X148502447Y-116035526D01*
X148559897Y-116324346D01*
X148805934Y-116692566D01*
X149159789Y-116929005D01*
X149104000Y-117063691D01*
X149104000Y-117457554D01*
X148916723Y-117270277D01*
X148678272Y-117110949D01*
X148397000Y-117055000D01*
X148317038Y-117055000D01*
X148298162Y-116954683D01*
X148231671Y-116851354D01*
X148233327Y-116849698D01*
X148330000Y-116616309D01*
X148330000Y-116175750D01*
X148171250Y-116017000D01*
X147447000Y-116017000D01*
X147447000Y-116037000D01*
X147193000Y-116037000D01*
X147193000Y-116017000D01*
X146468750Y-116017000D01*
X146310000Y-116175750D01*
X146310000Y-116616309D01*
X146406673Y-116849698D01*
X146408043Y-116851068D01*
X146348569Y-116938110D01*
X146297560Y-117190000D01*
X146297560Y-118390000D01*
X146341838Y-118625317D01*
X146480910Y-118841441D01*
X146693110Y-118986431D01*
X146945000Y-119037440D01*
X147695000Y-119037440D01*
X147930317Y-118993162D01*
X148146441Y-118854090D01*
X148258151Y-118690597D01*
X149045711Y-119478157D01*
X148559308Y-119964560D01*
X147790000Y-119964560D01*
X147554683Y-120008838D01*
X147338559Y-120147910D01*
X147193569Y-120360110D01*
X147142560Y-120612000D01*
X147142560Y-122212000D01*
X147186838Y-122447317D01*
X147325910Y-122663441D01*
X147538110Y-122808431D01*
X147776201Y-122856646D01*
X147761861Y-122904255D01*
X148590000Y-123732395D01*
X149418139Y-122904255D01*
X149403855Y-122856833D01*
X149625317Y-122815162D01*
X149841441Y-122676090D01*
X149986431Y-122463890D01*
X150037440Y-122212000D01*
X150037440Y-121696692D01*
X150544382Y-121189750D01*
X151739000Y-121189750D01*
X151739000Y-121405310D01*
X151835673Y-121638699D01*
X152014302Y-121817327D01*
X152247691Y-121914000D01*
X152688250Y-121914000D01*
X152847000Y-121755250D01*
X152847000Y-121031000D01*
X151897750Y-121031000D01*
X151739000Y-121189750D01*
X150544382Y-121189750D01*
X151331442Y-120402690D01*
X151739000Y-120402690D01*
X151739000Y-120618250D01*
X151897750Y-120777000D01*
X152847000Y-120777000D01*
X152847000Y-120052750D01*
X152688250Y-119894000D01*
X152247691Y-119894000D01*
X152014302Y-119990673D01*
X151835673Y-120169301D01*
X151739000Y-120402690D01*
X151331442Y-120402690D01*
X152622133Y-119111999D01*
X152649000Y-119117440D01*
X153139000Y-119117440D01*
X153139000Y-120014750D01*
X153101000Y-120052750D01*
X153101000Y-120777000D01*
X153121000Y-120777000D01*
X153121000Y-121031000D01*
X153101000Y-121031000D01*
X153101000Y-121755250D01*
X153139000Y-121793250D01*
X153139000Y-122741283D01*
X153129397Y-122755655D01*
X153043000Y-123190000D01*
X153129397Y-123624345D01*
X153375434Y-123992566D01*
X153805000Y-124422133D01*
X153805000Y-125914982D01*
X153688559Y-125989910D01*
X153600356Y-126119000D01*
X148933132Y-126119000D01*
X148060800Y-125246668D01*
X148373223Y-125358965D01*
X148943454Y-125331778D01*
X149344005Y-125165864D01*
X149418139Y-124919745D01*
X148590000Y-124091605D01*
X148575858Y-124105748D01*
X148396252Y-123926142D01*
X148410395Y-123912000D01*
X148769605Y-123912000D01*
X149597745Y-124740139D01*
X149843864Y-124666005D01*
X150036965Y-124128777D01*
X150009778Y-123558546D01*
X149843864Y-123157995D01*
X149597745Y-123083861D01*
X148769605Y-123912000D01*
X148410395Y-123912000D01*
X147582255Y-123083861D01*
X147336136Y-123157995D01*
X147143035Y-123695223D01*
X147170222Y-124265454D01*
X147234312Y-124420180D01*
X145534000Y-122719868D01*
X145534000Y-113067080D01*
X147192998Y-114726077D01*
G36*
X170974503Y-108309514D02*
X171216213Y-108551647D01*
X171532185Y-108682850D01*
X171874314Y-108683149D01*
X172138473Y-108574000D01*
X173973808Y-108574000D01*
X174080910Y-108740441D01*
X174293110Y-108885431D01*
X174545000Y-108936440D01*
X175035681Y-108936440D01*
X174898569Y-109137110D01*
X174847560Y-109389000D01*
X174847560Y-110289000D01*
X174891838Y-110524317D01*
X175030910Y-110740441D01*
X175160000Y-110828644D01*
X175160000Y-113911553D01*
X173181994Y-115889560D01*
X172524000Y-115889560D01*
X172288683Y-115933838D01*
X172072559Y-116072910D01*
X171927569Y-116285110D01*
X171876560Y-116537000D01*
X171876560Y-117737000D01*
X171920838Y-117972317D01*
X172059910Y-118188441D01*
X172129711Y-118236134D01*
X172072559Y-118272910D01*
X171927569Y-118485110D01*
X171903898Y-118602000D01*
X171456440Y-118602000D01*
X171456440Y-118587000D01*
X171412162Y-118351683D01*
X171345671Y-118248354D01*
X171347327Y-118246698D01*
X171444000Y-118013309D01*
X171444000Y-117572750D01*
X171285250Y-117414000D01*
X170561000Y-117414000D01*
X170561000Y-117434000D01*
X170307000Y-117434000D01*
X170307000Y-117414000D01*
X169582750Y-117414000D01*
X169424000Y-117572750D01*
X169424000Y-118013309D01*
X169520673Y-118246698D01*
X169522043Y-118248068D01*
X169462569Y-118335110D01*
X169450863Y-118392918D01*
X169374686Y-118392851D01*
X169058486Y-118523503D01*
X168816353Y-118765213D01*
X168685150Y-119081185D01*
X168684851Y-119423314D01*
X168730586Y-119534000D01*
X167858487Y-119534000D01*
X167557815Y-119409150D01*
X167215686Y-119408851D01*
X167157440Y-119432918D01*
X167157440Y-116560691D01*
X169424000Y-116560691D01*
X169424000Y-117001250D01*
X169582750Y-117160000D01*
X170307000Y-117160000D01*
X170307000Y-116210750D01*
X170561000Y-116210750D01*
X170561000Y-117160000D01*
X171285250Y-117160000D01*
X171444000Y-117001250D01*
X171444000Y-116560691D01*
X171347327Y-116327302D01*
X171168699Y-116148673D01*
X170935310Y-116052000D01*
X170719750Y-116052000D01*
X170561000Y-116210750D01*
X170307000Y-116210750D01*
X170148250Y-116052000D01*
X169932690Y-116052000D01*
X169699301Y-116148673D01*
X169520673Y-116327302D01*
X169424000Y-116560691D01*
X167157440Y-116560691D01*
X167157440Y-114861000D01*
X167113162Y-114625683D01*
X166974090Y-114409559D01*
X166761890Y-114264569D01*
X166510000Y-114213560D01*
X165410000Y-114213560D01*
X165174683Y-114257838D01*
X165111522Y-114298481D01*
X165061890Y-114264569D01*
X164810000Y-114213560D01*
X163710000Y-114213560D01*
X163474683Y-114257838D01*
X163411433Y-114298538D01*
X163236310Y-114226000D01*
X162845750Y-114226000D01*
X162687000Y-114384750D01*
X162687000Y-117034000D01*
X162707000Y-117034000D01*
X162707000Y-117288000D01*
X162687000Y-117288000D01*
X162687000Y-117308000D01*
X162433000Y-117308000D01*
X162433000Y-117288000D01*
X162413000Y-117288000D01*
X162413000Y-117034000D01*
X162433000Y-117034000D01*
X162433000Y-114384750D01*
X162274250Y-114226000D01*
X161883690Y-114226000D01*
X161710459Y-114297755D01*
X161661890Y-114264569D01*
X161410000Y-114213560D01*
X160310000Y-114213560D01*
X160074683Y-114257838D01*
X160011522Y-114298481D01*
X159961890Y-114264569D01*
X159710000Y-114213560D01*
X158610000Y-114213560D01*
X158374683Y-114257838D01*
X158158559Y-114396910D01*
X158013569Y-114609110D01*
X157962560Y-114861000D01*
X157962560Y-119461000D01*
X158006838Y-119696317D01*
X158053608Y-119769000D01*
X156972000Y-119769000D01*
X156537654Y-119855397D01*
X156177567Y-120096000D01*
X156169434Y-120101434D01*
X156038017Y-120232851D01*
X155938090Y-120077559D01*
X155725890Y-119932569D01*
X155659000Y-119919023D01*
X155659000Y-118921563D01*
X155795431Y-118721890D01*
X155846440Y-118470000D01*
X155846440Y-117410000D01*
X155802162Y-117174683D01*
X155663090Y-116958559D01*
X155487768Y-116838767D01*
X155650441Y-116734090D01*
X155795431Y-116521890D01*
X155846440Y-116270000D01*
X155846440Y-115978640D01*
X158613787Y-113211292D01*
X158613790Y-113211290D01*
X158753705Y-113001891D01*
X158810110Y-113040431D01*
X159062000Y-113091440D01*
X159962000Y-113091440D01*
X160197317Y-113047162D01*
X160413441Y-112908090D01*
X160558431Y-112695890D01*
X160575023Y-112613955D01*
X160577910Y-112618441D01*
X160790110Y-112763431D01*
X161042000Y-112814440D01*
X161792000Y-112814440D01*
X162027317Y-112770162D01*
X162243441Y-112631090D01*
X162388431Y-112418890D01*
X162439440Y-112167000D01*
X162439440Y-111431362D01*
X162805874Y-111064928D01*
X163046514Y-110965497D01*
X163288647Y-110723787D01*
X163419850Y-110407815D01*
X163420149Y-110065686D01*
X163380216Y-109969040D01*
X163427514Y-109949497D01*
X163669647Y-109707787D01*
X163777935Y-109447000D01*
X169291000Y-109447000D01*
X169572272Y-109391051D01*
X169810723Y-109231723D01*
X170903872Y-108138575D01*
X170974503Y-108309514D01*
X170974503Y-108309514D01*
G37*
X170974503Y-108309514D02*
X171216213Y-108551647D01*
X171532185Y-108682850D01*
X171874314Y-108683149D01*
X172138473Y-108574000D01*
X173973808Y-108574000D01*
X174080910Y-108740441D01*
X174293110Y-108885431D01*
X174545000Y-108936440D01*
X175035681Y-108936440D01*
X174898569Y-109137110D01*
X174847560Y-109389000D01*
X174847560Y-110289000D01*
X174891838Y-110524317D01*
X175030910Y-110740441D01*
X175160000Y-110828644D01*
X175160000Y-113911553D01*
X173181994Y-115889560D01*
X172524000Y-115889560D01*
X172288683Y-115933838D01*
X172072559Y-116072910D01*
X171927569Y-116285110D01*
X171876560Y-116537000D01*
X171876560Y-117737000D01*
X171920838Y-117972317D01*
X172059910Y-118188441D01*
X172129711Y-118236134D01*
X172072559Y-118272910D01*
X171927569Y-118485110D01*
X171903898Y-118602000D01*
X171456440Y-118602000D01*
X171456440Y-118587000D01*
X171412162Y-118351683D01*
X171345671Y-118248354D01*
X171347327Y-118246698D01*
X171444000Y-118013309D01*
X171444000Y-117572750D01*
X171285250Y-117414000D01*
X170561000Y-117414000D01*
X170561000Y-117434000D01*
X170307000Y-117434000D01*
X170307000Y-117414000D01*
X169582750Y-117414000D01*
X169424000Y-117572750D01*
X169424000Y-118013309D01*
X169520673Y-118246698D01*
X169522043Y-118248068D01*
X169462569Y-118335110D01*
X169450863Y-118392918D01*
X169374686Y-118392851D01*
X169058486Y-118523503D01*
X168816353Y-118765213D01*
X168685150Y-119081185D01*
X168684851Y-119423314D01*
X168730586Y-119534000D01*
X167858487Y-119534000D01*
X167557815Y-119409150D01*
X167215686Y-119408851D01*
X167157440Y-119432918D01*
X167157440Y-116560691D01*
X169424000Y-116560691D01*
X169424000Y-117001250D01*
X169582750Y-117160000D01*
X170307000Y-117160000D01*
X170307000Y-116210750D01*
X170561000Y-116210750D01*
X170561000Y-117160000D01*
X171285250Y-117160000D01*
X171444000Y-117001250D01*
X171444000Y-116560691D01*
X171347327Y-116327302D01*
X171168699Y-116148673D01*
X170935310Y-116052000D01*
X170719750Y-116052000D01*
X170561000Y-116210750D01*
X170307000Y-116210750D01*
X170148250Y-116052000D01*
X169932690Y-116052000D01*
X169699301Y-116148673D01*
X169520673Y-116327302D01*
X169424000Y-116560691D01*
X167157440Y-116560691D01*
X167157440Y-114861000D01*
X167113162Y-114625683D01*
X166974090Y-114409559D01*
X166761890Y-114264569D01*
X166510000Y-114213560D01*
X165410000Y-114213560D01*
X165174683Y-114257838D01*
X165111522Y-114298481D01*
X165061890Y-114264569D01*
X164810000Y-114213560D01*
X163710000Y-114213560D01*
X163474683Y-114257838D01*
X163411433Y-114298538D01*
X163236310Y-114226000D01*
X162845750Y-114226000D01*
X162687000Y-114384750D01*
X162687000Y-117034000D01*
X162707000Y-117034000D01*
X162707000Y-117288000D01*
X162687000Y-117288000D01*
X162687000Y-117308000D01*
X162433000Y-117308000D01*
X162433000Y-117288000D01*
X162413000Y-117288000D01*
X162413000Y-117034000D01*
X162433000Y-117034000D01*
X162433000Y-114384750D01*
X162274250Y-114226000D01*
X161883690Y-114226000D01*
X161710459Y-114297755D01*
X161661890Y-114264569D01*
X161410000Y-114213560D01*
X160310000Y-114213560D01*
X160074683Y-114257838D01*
X160011522Y-114298481D01*
X159961890Y-114264569D01*
X159710000Y-114213560D01*
X158610000Y-114213560D01*
X158374683Y-114257838D01*
X158158559Y-114396910D01*
X158013569Y-114609110D01*
X157962560Y-114861000D01*
X157962560Y-119461000D01*
X158006838Y-119696317D01*
X158053608Y-119769000D01*
X156972000Y-119769000D01*
X156537654Y-119855397D01*
X156177567Y-120096000D01*
X156169434Y-120101434D01*
X156038017Y-120232851D01*
X155938090Y-120077559D01*
X155725890Y-119932569D01*
X155659000Y-119919023D01*
X155659000Y-118921563D01*
X155795431Y-118721890D01*
X155846440Y-118470000D01*
X155846440Y-117410000D01*
X155802162Y-117174683D01*
X155663090Y-116958559D01*
X155487768Y-116838767D01*
X155650441Y-116734090D01*
X155795431Y-116521890D01*
X155846440Y-116270000D01*
X155846440Y-115978640D01*
X158613787Y-113211292D01*
X158613790Y-113211290D01*
X158753705Y-113001891D01*
X158810110Y-113040431D01*
X159062000Y-113091440D01*
X159962000Y-113091440D01*
X160197317Y-113047162D01*
X160413441Y-112908090D01*
X160558431Y-112695890D01*
X160575023Y-112613955D01*
X160577910Y-112618441D01*
X160790110Y-112763431D01*
X161042000Y-112814440D01*
X161792000Y-112814440D01*
X162027317Y-112770162D01*
X162243441Y-112631090D01*
X162388431Y-112418890D01*
X162439440Y-112167000D01*
X162439440Y-111431362D01*
X162805874Y-111064928D01*
X163046514Y-110965497D01*
X163288647Y-110723787D01*
X163419850Y-110407815D01*
X163420149Y-110065686D01*
X163380216Y-109969040D01*
X163427514Y-109949497D01*
X163669647Y-109707787D01*
X163777935Y-109447000D01*
X169291000Y-109447000D01*
X169572272Y-109391051D01*
X169810723Y-109231723D01*
X170903872Y-108138575D01*
X170974503Y-108309514D01*
G36*
X150241000Y-117663000D02*
X150261000Y-117663000D01*
X150261000Y-117917000D01*
X150241000Y-117917000D01*
X150241000Y-117937000D01*
X149987000Y-117937000D01*
X149987000Y-117917000D01*
X149967000Y-117917000D01*
X149967000Y-117663000D01*
X149987000Y-117663000D01*
X149987000Y-117643000D01*
X150241000Y-117643000D01*
X150241000Y-117663000D01*
X150241000Y-117663000D01*
G37*
X150241000Y-117663000D02*
X150261000Y-117663000D01*
X150261000Y-117917000D01*
X150241000Y-117917000D01*
X150241000Y-117937000D01*
X149987000Y-117937000D01*
X149987000Y-117917000D01*
X149967000Y-117917000D01*
X149967000Y-117663000D01*
X149987000Y-117663000D01*
X149987000Y-117643000D01*
X150241000Y-117643000D01*
X150241000Y-117663000D01*
G36*
X152307203Y-116805000D02*
X152189000Y-116805000D01*
X151754654Y-116891397D01*
X151386433Y-117137434D01*
X151124000Y-117399867D01*
X151124000Y-117063691D01*
X151027327Y-116830302D01*
X151025957Y-116828932D01*
X151062808Y-116775000D01*
X152263296Y-116775000D01*
X152307203Y-116805000D01*
X152307203Y-116805000D01*
G37*
X152307203Y-116805000D02*
X152189000Y-116805000D01*
X151754654Y-116891397D01*
X151386433Y-117137434D01*
X151124000Y-117399867D01*
X151124000Y-117063691D01*
X151027327Y-116830302D01*
X151025957Y-116828932D01*
X151062808Y-116775000D01*
X152263296Y-116775000D01*
X152307203Y-116805000D01*
G36*
X155909569Y-109142110D02*
X155858560Y-109394000D01*
X155858560Y-109884681D01*
X155657890Y-109747569D01*
X155406000Y-109696560D01*
X154506000Y-109696560D01*
X154270683Y-109740838D01*
X154054559Y-109879910D01*
X154050126Y-109886398D01*
X153836735Y-109797790D01*
X153494606Y-109797491D01*
X153295440Y-109879785D01*
X153295440Y-109194000D01*
X153252162Y-108964000D01*
X156031266Y-108964000D01*
X155909569Y-109142110D01*
X155909569Y-109142110D01*
G37*
X155909569Y-109142110D02*
X155858560Y-109394000D01*
X155858560Y-109884681D01*
X155657890Y-109747569D01*
X155406000Y-109696560D01*
X154506000Y-109696560D01*
X154270683Y-109740838D01*
X154054559Y-109879910D01*
X154050126Y-109886398D01*
X153836735Y-109797790D01*
X153494606Y-109797491D01*
X153295440Y-109879785D01*
X153295440Y-109194000D01*
X153252162Y-108964000D01*
X156031266Y-108964000D01*
X155909569Y-109142110D01*
G36*
X161725251Y-70858514D02*
X161855903Y-71174714D01*
X162097613Y-71416847D01*
X162413585Y-71548050D01*
X162422564Y-71548058D01*
X162478203Y-71682714D01*
X162719913Y-71924847D01*
X163035885Y-72056050D01*
X163378014Y-72056349D01*
X163680896Y-71931200D01*
X163868100Y-71931200D01*
X164149372Y-71875251D01*
X164387823Y-71715923D01*
X164769447Y-71334300D01*
X169535853Y-71334300D01*
X167422628Y-73447526D01*
X167121736Y-73571853D01*
X166879603Y-73813563D01*
X166748400Y-74129535D01*
X166748152Y-74413500D01*
X164306250Y-74413500D01*
X164147500Y-74572250D01*
X164147500Y-76771500D01*
X169496750Y-76771500D01*
X169655500Y-76612750D01*
X169655500Y-74922190D01*
X169558827Y-74688801D01*
X169380198Y-74510173D01*
X169146809Y-74413500D01*
X168535546Y-74413500D01*
X171005809Y-71943238D01*
X171263414Y-71836797D01*
X171468612Y-71631958D01*
X171701838Y-71865184D01*
X171674686Y-71876403D01*
X171432553Y-72118113D01*
X171301350Y-72434085D01*
X171301051Y-72776214D01*
X171431703Y-73092414D01*
X171673413Y-73334547D01*
X171715279Y-73351931D01*
X171807200Y-73574396D01*
X171807200Y-75819353D01*
X169655500Y-77971053D01*
X169655500Y-77184250D01*
X169496750Y-77025500D01*
X164147500Y-77025500D01*
X164147500Y-77045500D01*
X163893500Y-77045500D01*
X163893500Y-77025500D01*
X163873500Y-77025500D01*
X163873500Y-76771500D01*
X163893500Y-76771500D01*
X163893500Y-74572250D01*
X163734750Y-74413500D01*
X159027000Y-74413500D01*
X159027000Y-73477158D01*
X161725321Y-70778837D01*
X161725251Y-70858514D01*
X161725251Y-70858514D01*
G37*
X161725251Y-70858514D02*
X161855903Y-71174714D01*
X162097613Y-71416847D01*
X162413585Y-71548050D01*
X162422564Y-71548058D01*
X162478203Y-71682714D01*
X162719913Y-71924847D01*
X163035885Y-72056050D01*
X163378014Y-72056349D01*
X163680896Y-71931200D01*
X163868100Y-71931200D01*
X164149372Y-71875251D01*
X164387823Y-71715923D01*
X164769447Y-71334300D01*
X169535853Y-71334300D01*
X167422628Y-73447526D01*
X167121736Y-73571853D01*
X166879603Y-73813563D01*
X166748400Y-74129535D01*
X166748152Y-74413500D01*
X164306250Y-74413500D01*
X164147500Y-74572250D01*
X164147500Y-76771500D01*
X169496750Y-76771500D01*
X169655500Y-76612750D01*
X169655500Y-74922190D01*
X169558827Y-74688801D01*
X169380198Y-74510173D01*
X169146809Y-74413500D01*
X168535546Y-74413500D01*
X171005809Y-71943238D01*
X171263414Y-71836797D01*
X171468612Y-71631958D01*
X171701838Y-71865184D01*
X171674686Y-71876403D01*
X171432553Y-72118113D01*
X171301350Y-72434085D01*
X171301051Y-72776214D01*
X171431703Y-73092414D01*
X171673413Y-73334547D01*
X171715279Y-73351931D01*
X171807200Y-73574396D01*
X171807200Y-75819353D01*
X169655500Y-77971053D01*
X169655500Y-77184250D01*
X169496750Y-77025500D01*
X164147500Y-77025500D01*
X164147500Y-77045500D01*
X163893500Y-77045500D01*
X163893500Y-77025500D01*
X163873500Y-77025500D01*
X163873500Y-76771500D01*
X163893500Y-76771500D01*
X163893500Y-74572250D01*
X163734750Y-74413500D01*
X159027000Y-74413500D01*
X159027000Y-73477158D01*
X161725321Y-70778837D01*
X161725251Y-70858514D01*
G36*
X176627276Y-72100259D02*
X176609950Y-72141985D01*
X176609910Y-72187563D01*
X176584800Y-72313800D01*
X176609690Y-72438932D01*
X176609651Y-72484114D01*
X176627057Y-72526240D01*
X176652167Y-72652475D01*
X176723051Y-72758561D01*
X176740303Y-72800314D01*
X176772500Y-72832568D01*
X176844010Y-72939590D01*
X176950096Y-73010474D01*
X176982013Y-73042447D01*
X177024106Y-73059925D01*
X177131125Y-73131433D01*
X177256259Y-73156324D01*
X177297985Y-73173650D01*
X177343563Y-73173690D01*
X177469800Y-73198800D01*
X177857786Y-73198800D01*
X177731753Y-73324613D01*
X177670352Y-73472483D01*
X177641615Y-73460550D01*
X177299486Y-73460251D01*
X176983286Y-73590903D01*
X176963755Y-73610400D01*
X175922392Y-73610400D01*
X174998541Y-72686549D01*
X175137747Y-72547587D01*
X175235593Y-72311949D01*
X175280213Y-72356647D01*
X175596185Y-72487850D01*
X175938314Y-72488149D01*
X176254514Y-72357497D01*
X176449402Y-72162950D01*
X176498646Y-72130046D01*
X176650290Y-71978402D01*
X176651515Y-71978402D01*
X176627276Y-72100259D01*
X176627276Y-72100259D01*
G37*
X176627276Y-72100259D02*
X176609950Y-72141985D01*
X176609910Y-72187563D01*
X176584800Y-72313800D01*
X176609690Y-72438932D01*
X176609651Y-72484114D01*
X176627057Y-72526240D01*
X176652167Y-72652475D01*
X176723051Y-72758561D01*
X176740303Y-72800314D01*
X176772500Y-72832568D01*
X176844010Y-72939590D01*
X176950096Y-73010474D01*
X176982013Y-73042447D01*
X177024106Y-73059925D01*
X177131125Y-73131433D01*
X177256259Y-73156324D01*
X177297985Y-73173650D01*
X177343563Y-73173690D01*
X177469800Y-73198800D01*
X177857786Y-73198800D01*
X177731753Y-73324613D01*
X177670352Y-73472483D01*
X177641615Y-73460550D01*
X177299486Y-73460251D01*
X176983286Y-73590903D01*
X176963755Y-73610400D01*
X175922392Y-73610400D01*
X174998541Y-72686549D01*
X175137747Y-72547587D01*
X175235593Y-72311949D01*
X175280213Y-72356647D01*
X175596185Y-72487850D01*
X175938314Y-72488149D01*
X176254514Y-72357497D01*
X176449402Y-72162950D01*
X176498646Y-72130046D01*
X176650290Y-71978402D01*
X176651515Y-71978402D01*
X176627276Y-72100259D01*
M02*
