G04 #@! TF.FileFunction,Soldermask,Top*
%FSLAX46Y46*%
G04 Gerber Fmt 4.6, Leading zero omitted, Abs format (unit mm)*
G04 Created by KiCad (PCBNEW 4.0.5) date 04/12/18 12:11:43*
%MOMM*%
%LPD*%
G01*
G04 APERTURE LIST*
%ADD10C,0.100000*%
%ADD11O,1.100000X2.900000*%
%ADD12O,2.900000X1.100000*%
%ADD13R,1.500000X1.500000*%
%ADD14R,1.600000X1.600000*%
%ADD15R,3.900000X3.900000*%
%ADD16R,1.200000X1.300000*%
%ADD17R,2.000000X2.000000*%
%ADD18C,2.000000*%
%ADD19R,1.250000X0.700000*%
%ADD20R,0.700000X1.250000*%
%ADD21R,2.100000X2.100000*%
%ADD22O,2.100000X2.100000*%
%ADD23R,1.150000X1.600000*%
%ADD24R,1.600000X1.150000*%
%ADD25R,1.600000X1.300000*%
%ADD26R,1.300000X1.600000*%
%ADD27C,3.000000*%
%ADD28O,1.650000X1.350000*%
%ADD29O,1.400000X1.950000*%
%ADD30C,0.725000*%
%ADD31R,1.950000X1.000000*%
%ADD32C,1.900000*%
%ADD33R,0.820000X0.620000*%
%ADD34R,2.625000X1.450000*%
G04 APERTURE END LIST*
D10*
D11*
X149250400Y-112318800D03*
X150250400Y-112318800D03*
X151250400Y-112318800D03*
X152250400Y-112318800D03*
X153250400Y-112318800D03*
X154250400Y-112318800D03*
X155250400Y-112318800D03*
X156250400Y-112318800D03*
X157250400Y-112318800D03*
X158250400Y-112318800D03*
X159250400Y-112318800D03*
X160250400Y-112318800D03*
X161250400Y-112318800D03*
X162250400Y-112318800D03*
X163250400Y-112318800D03*
D12*
X165600400Y-109818800D03*
X165600400Y-108818800D03*
X165600400Y-107818800D03*
X165600400Y-106818800D03*
X165600400Y-105818800D03*
X165600400Y-104818800D03*
X165600400Y-103818800D03*
X165600400Y-102818800D03*
X165600400Y-101818800D03*
X165600400Y-100818800D03*
X165600400Y-99818800D03*
X165600400Y-98818800D03*
D11*
X163250400Y-96318800D03*
X162250400Y-96318800D03*
X161250400Y-96318800D03*
X160250400Y-96318800D03*
X159250400Y-96318800D03*
X158250400Y-96318800D03*
X157250400Y-96318800D03*
X156250400Y-96318800D03*
X155250400Y-96318800D03*
X154250400Y-96318800D03*
X153250400Y-96318800D03*
X152250400Y-96318800D03*
X151250400Y-96318800D03*
X150250400Y-96318800D03*
X149250400Y-96318800D03*
D12*
X146900400Y-98818800D03*
X146900400Y-99818800D03*
X146900400Y-100818800D03*
X146900400Y-101818800D03*
X146900400Y-102818800D03*
X146900400Y-103818800D03*
X146900400Y-104818800D03*
X146900400Y-105818800D03*
X146890400Y-106818800D03*
X146900400Y-107818800D03*
X146900400Y-108818800D03*
X146900400Y-109818800D03*
D13*
X151750400Y-104318800D03*
X151750400Y-106118800D03*
X151750400Y-102518800D03*
X155310400Y-107968800D03*
X153510400Y-107968800D03*
X157110400Y-107968800D03*
X158910400Y-107968800D03*
X160750400Y-104318800D03*
X153510400Y-100668800D03*
X155310400Y-100668800D03*
X157110400Y-100668800D03*
X158910400Y-100668800D03*
X160750400Y-102518800D03*
X160750400Y-106118800D03*
D14*
X161120000Y-123952000D03*
X158920000Y-123952000D03*
X149690000Y-115824000D03*
X147490000Y-115824000D03*
X141409600Y-95707200D03*
X139209600Y-95707200D03*
D15*
X183946800Y-102514400D03*
X189946800Y-102514400D03*
X186946800Y-97814400D03*
D14*
X170137000Y-84455000D03*
X167937000Y-84455000D03*
X170010000Y-88265000D03*
X167810000Y-88265000D03*
X170010000Y-86360000D03*
X167810000Y-86360000D03*
X176868000Y-99568000D03*
X174668000Y-99568000D03*
D16*
X174818000Y-103870000D03*
X176718000Y-103870000D03*
X175768000Y-101870000D03*
X139156400Y-101939600D03*
X141056400Y-101939600D03*
X140106400Y-99939600D03*
D17*
X154940000Y-127254000D03*
D18*
X154940000Y-129754000D03*
D17*
X171577000Y-121412000D03*
D18*
X171577000Y-123912000D03*
D19*
X151770800Y-64028000D03*
X151770800Y-64528000D03*
X151770800Y-65028000D03*
X151770800Y-65528000D03*
X151770800Y-66028000D03*
X151770800Y-66528000D03*
D20*
X152470800Y-67228000D03*
X152970800Y-67228000D03*
X153470800Y-67228000D03*
X153970800Y-67228000D03*
X154470800Y-67228000D03*
X154970800Y-67228000D03*
D19*
X155670800Y-66528000D03*
X155670800Y-66028000D03*
X155670800Y-65528000D03*
X155670800Y-65028000D03*
X155670800Y-64528000D03*
X155670800Y-64028000D03*
D20*
X154970800Y-63328000D03*
X154470800Y-63328000D03*
X153970800Y-63328000D03*
X153470800Y-63328000D03*
X152970800Y-63328000D03*
X152470800Y-63328000D03*
D17*
X148590000Y-121412000D03*
D18*
X148590000Y-123912000D03*
D21*
X164719000Y-63754000D03*
D22*
X167259000Y-63754000D03*
X169799000Y-63754000D03*
X172339000Y-63754000D03*
D21*
X187960000Y-85090000D03*
D22*
X187960000Y-87630000D03*
D10*
G36*
X157052758Y-70573476D02*
X157512377Y-70113857D01*
X158502326Y-71103806D01*
X158042707Y-71563425D01*
X157052758Y-70573476D01*
X157052758Y-70573476D01*
G37*
G36*
X156699204Y-70927029D02*
X157158823Y-70467410D01*
X158148772Y-71457359D01*
X157689153Y-71916978D01*
X156699204Y-70927029D01*
X156699204Y-70927029D01*
G37*
G36*
X156345651Y-71280583D02*
X156805270Y-70820964D01*
X157795219Y-71810913D01*
X157335600Y-72270532D01*
X156345651Y-71280583D01*
X156345651Y-71280583D01*
G37*
G36*
X155992098Y-71634136D02*
X156451717Y-71174517D01*
X157441666Y-72164466D01*
X156982047Y-72624085D01*
X155992098Y-71634136D01*
X155992098Y-71634136D01*
G37*
G36*
X155638544Y-71987689D02*
X156098163Y-71528070D01*
X157088112Y-72518019D01*
X156628493Y-72977638D01*
X155638544Y-71987689D01*
X155638544Y-71987689D01*
G37*
G36*
X155284991Y-72341243D02*
X155744610Y-71881624D01*
X156734559Y-72871573D01*
X156274940Y-73331192D01*
X155284991Y-72341243D01*
X155284991Y-72341243D01*
G37*
G36*
X154931437Y-72694796D02*
X155391056Y-72235177D01*
X156381005Y-73225126D01*
X155921386Y-73684745D01*
X154931437Y-72694796D01*
X154931437Y-72694796D01*
G37*
G36*
X154577884Y-73048350D02*
X155037503Y-72588731D01*
X156027452Y-73578680D01*
X155567833Y-74038299D01*
X154577884Y-73048350D01*
X154577884Y-73048350D01*
G37*
G36*
X154224331Y-73401903D02*
X154683950Y-72942284D01*
X155673899Y-73932233D01*
X155214280Y-74391852D01*
X154224331Y-73401903D01*
X154224331Y-73401903D01*
G37*
G36*
X153870777Y-73755456D02*
X154330396Y-73295837D01*
X155320345Y-74285786D01*
X154860726Y-74745405D01*
X153870777Y-73755456D01*
X153870777Y-73755456D01*
G37*
G36*
X153517224Y-74109010D02*
X153976843Y-73649391D01*
X154966792Y-74639340D01*
X154507173Y-75098959D01*
X153517224Y-74109010D01*
X153517224Y-74109010D01*
G37*
G36*
X153163670Y-74462563D02*
X153623289Y-74002944D01*
X154613238Y-74992893D01*
X154153619Y-75452512D01*
X153163670Y-74462563D01*
X153163670Y-74462563D01*
G37*
G36*
X152810117Y-74816117D02*
X153269736Y-74356498D01*
X154259685Y-75346447D01*
X153800066Y-75806066D01*
X152810117Y-74816117D01*
X152810117Y-74816117D01*
G37*
G36*
X152456564Y-75169670D02*
X152916183Y-74710051D01*
X153906132Y-75700000D01*
X153446513Y-76159619D01*
X152456564Y-75169670D01*
X152456564Y-75169670D01*
G37*
G36*
X152103010Y-75523223D02*
X152562629Y-75063604D01*
X153552578Y-76053553D01*
X153092959Y-76513172D01*
X152103010Y-75523223D01*
X152103010Y-75523223D01*
G37*
G36*
X151749457Y-75876777D02*
X152209076Y-75417158D01*
X153199025Y-76407107D01*
X152739406Y-76866726D01*
X151749457Y-75876777D01*
X151749457Y-75876777D01*
G37*
G36*
X152209076Y-79624442D02*
X151749457Y-79164823D01*
X152739406Y-78174874D01*
X153199025Y-78634493D01*
X152209076Y-79624442D01*
X152209076Y-79624442D01*
G37*
G36*
X152562629Y-79977996D02*
X152103010Y-79518377D01*
X153092959Y-78528428D01*
X153552578Y-78988047D01*
X152562629Y-79977996D01*
X152562629Y-79977996D01*
G37*
G36*
X152916183Y-80331549D02*
X152456564Y-79871930D01*
X153446513Y-78881981D01*
X153906132Y-79341600D01*
X152916183Y-80331549D01*
X152916183Y-80331549D01*
G37*
G36*
X153269736Y-80685102D02*
X152810117Y-80225483D01*
X153800066Y-79235534D01*
X154259685Y-79695153D01*
X153269736Y-80685102D01*
X153269736Y-80685102D01*
G37*
G36*
X153623289Y-81038656D02*
X153163670Y-80579037D01*
X154153619Y-79589088D01*
X154613238Y-80048707D01*
X153623289Y-81038656D01*
X153623289Y-81038656D01*
G37*
G36*
X153976843Y-81392209D02*
X153517224Y-80932590D01*
X154507173Y-79942641D01*
X154966792Y-80402260D01*
X153976843Y-81392209D01*
X153976843Y-81392209D01*
G37*
G36*
X154330396Y-81745763D02*
X153870777Y-81286144D01*
X154860726Y-80296195D01*
X155320345Y-80755814D01*
X154330396Y-81745763D01*
X154330396Y-81745763D01*
G37*
G36*
X154683950Y-82099316D02*
X154224331Y-81639697D01*
X155214280Y-80649748D01*
X155673899Y-81109367D01*
X154683950Y-82099316D01*
X154683950Y-82099316D01*
G37*
G36*
X155037503Y-82452869D02*
X154577884Y-81993250D01*
X155567833Y-81003301D01*
X156027452Y-81462920D01*
X155037503Y-82452869D01*
X155037503Y-82452869D01*
G37*
G36*
X155391056Y-82806423D02*
X154931437Y-82346804D01*
X155921386Y-81356855D01*
X156381005Y-81816474D01*
X155391056Y-82806423D01*
X155391056Y-82806423D01*
G37*
G36*
X155744610Y-83159976D02*
X155284991Y-82700357D01*
X156274940Y-81710408D01*
X156734559Y-82170027D01*
X155744610Y-83159976D01*
X155744610Y-83159976D01*
G37*
G36*
X156098163Y-83513530D02*
X155638544Y-83053911D01*
X156628493Y-82063962D01*
X157088112Y-82523581D01*
X156098163Y-83513530D01*
X156098163Y-83513530D01*
G37*
G36*
X156451717Y-83867083D02*
X155992098Y-83407464D01*
X156982047Y-82417515D01*
X157441666Y-82877134D01*
X156451717Y-83867083D01*
X156451717Y-83867083D01*
G37*
G36*
X156805270Y-84220636D02*
X156345651Y-83761017D01*
X157335600Y-82771068D01*
X157795219Y-83230687D01*
X156805270Y-84220636D01*
X156805270Y-84220636D01*
G37*
G36*
X157158823Y-84574190D02*
X156699204Y-84114571D01*
X157689153Y-83124622D01*
X158148772Y-83584241D01*
X157158823Y-84574190D01*
X157158823Y-84574190D01*
G37*
G36*
X157512377Y-84927743D02*
X157052758Y-84468124D01*
X158042707Y-83478175D01*
X158502326Y-83937794D01*
X157512377Y-84927743D01*
X157512377Y-84927743D01*
G37*
G36*
X159810474Y-83937794D02*
X160270093Y-83478175D01*
X161260042Y-84468124D01*
X160800423Y-84927743D01*
X159810474Y-83937794D01*
X159810474Y-83937794D01*
G37*
G36*
X160164028Y-83584241D02*
X160623647Y-83124622D01*
X161613596Y-84114571D01*
X161153977Y-84574190D01*
X160164028Y-83584241D01*
X160164028Y-83584241D01*
G37*
G36*
X160517581Y-83230687D02*
X160977200Y-82771068D01*
X161967149Y-83761017D01*
X161507530Y-84220636D01*
X160517581Y-83230687D01*
X160517581Y-83230687D01*
G37*
G36*
X160871134Y-82877134D02*
X161330753Y-82417515D01*
X162320702Y-83407464D01*
X161861083Y-83867083D01*
X160871134Y-82877134D01*
X160871134Y-82877134D01*
G37*
G36*
X161224688Y-82523581D02*
X161684307Y-82063962D01*
X162674256Y-83053911D01*
X162214637Y-83513530D01*
X161224688Y-82523581D01*
X161224688Y-82523581D01*
G37*
G36*
X161578241Y-82170027D02*
X162037860Y-81710408D01*
X163027809Y-82700357D01*
X162568190Y-83159976D01*
X161578241Y-82170027D01*
X161578241Y-82170027D01*
G37*
G36*
X161931795Y-81816474D02*
X162391414Y-81356855D01*
X163381363Y-82346804D01*
X162921744Y-82806423D01*
X161931795Y-81816474D01*
X161931795Y-81816474D01*
G37*
G36*
X162285348Y-81462920D02*
X162744967Y-81003301D01*
X163734916Y-81993250D01*
X163275297Y-82452869D01*
X162285348Y-81462920D01*
X162285348Y-81462920D01*
G37*
G36*
X162638901Y-81109367D02*
X163098520Y-80649748D01*
X164088469Y-81639697D01*
X163628850Y-82099316D01*
X162638901Y-81109367D01*
X162638901Y-81109367D01*
G37*
G36*
X162992455Y-80755814D02*
X163452074Y-80296195D01*
X164442023Y-81286144D01*
X163982404Y-81745763D01*
X162992455Y-80755814D01*
X162992455Y-80755814D01*
G37*
G36*
X163346008Y-80402260D02*
X163805627Y-79942641D01*
X164795576Y-80932590D01*
X164335957Y-81392209D01*
X163346008Y-80402260D01*
X163346008Y-80402260D01*
G37*
G36*
X163699562Y-80048707D02*
X164159181Y-79589088D01*
X165149130Y-80579037D01*
X164689511Y-81038656D01*
X163699562Y-80048707D01*
X163699562Y-80048707D01*
G37*
G36*
X164053115Y-79695153D02*
X164512734Y-79235534D01*
X165502683Y-80225483D01*
X165043064Y-80685102D01*
X164053115Y-79695153D01*
X164053115Y-79695153D01*
G37*
G36*
X164406668Y-79341600D02*
X164866287Y-78881981D01*
X165856236Y-79871930D01*
X165396617Y-80331549D01*
X164406668Y-79341600D01*
X164406668Y-79341600D01*
G37*
G36*
X164760222Y-78988047D02*
X165219841Y-78528428D01*
X166209790Y-79518377D01*
X165750171Y-79977996D01*
X164760222Y-78988047D01*
X164760222Y-78988047D01*
G37*
G36*
X165113775Y-78634493D02*
X165573394Y-78174874D01*
X166563343Y-79164823D01*
X166103724Y-79624442D01*
X165113775Y-78634493D01*
X165113775Y-78634493D01*
G37*
G36*
X165573394Y-76866726D02*
X165113775Y-76407107D01*
X166103724Y-75417158D01*
X166563343Y-75876777D01*
X165573394Y-76866726D01*
X165573394Y-76866726D01*
G37*
G36*
X165219841Y-76513172D02*
X164760222Y-76053553D01*
X165750171Y-75063604D01*
X166209790Y-75523223D01*
X165219841Y-76513172D01*
X165219841Y-76513172D01*
G37*
G36*
X164866287Y-76159619D02*
X164406668Y-75700000D01*
X165396617Y-74710051D01*
X165856236Y-75169670D01*
X164866287Y-76159619D01*
X164866287Y-76159619D01*
G37*
G36*
X164512734Y-75806066D02*
X164053115Y-75346447D01*
X165043064Y-74356498D01*
X165502683Y-74816117D01*
X164512734Y-75806066D01*
X164512734Y-75806066D01*
G37*
G36*
X164159181Y-75452512D02*
X163699562Y-74992893D01*
X164689511Y-74002944D01*
X165149130Y-74462563D01*
X164159181Y-75452512D01*
X164159181Y-75452512D01*
G37*
G36*
X163805627Y-75098959D02*
X163346008Y-74639340D01*
X164335957Y-73649391D01*
X164795576Y-74109010D01*
X163805627Y-75098959D01*
X163805627Y-75098959D01*
G37*
G36*
X163452074Y-74745405D02*
X162992455Y-74285786D01*
X163982404Y-73295837D01*
X164442023Y-73755456D01*
X163452074Y-74745405D01*
X163452074Y-74745405D01*
G37*
G36*
X163098520Y-74391852D02*
X162638901Y-73932233D01*
X163628850Y-72942284D01*
X164088469Y-73401903D01*
X163098520Y-74391852D01*
X163098520Y-74391852D01*
G37*
G36*
X162744967Y-74038299D02*
X162285348Y-73578680D01*
X163275297Y-72588731D01*
X163734916Y-73048350D01*
X162744967Y-74038299D01*
X162744967Y-74038299D01*
G37*
G36*
X162391414Y-73684745D02*
X161931795Y-73225126D01*
X162921744Y-72235177D01*
X163381363Y-72694796D01*
X162391414Y-73684745D01*
X162391414Y-73684745D01*
G37*
G36*
X162037860Y-73331192D02*
X161578241Y-72871573D01*
X162568190Y-71881624D01*
X163027809Y-72341243D01*
X162037860Y-73331192D01*
X162037860Y-73331192D01*
G37*
G36*
X161684307Y-72977638D02*
X161224688Y-72518019D01*
X162214637Y-71528070D01*
X162674256Y-71987689D01*
X161684307Y-72977638D01*
X161684307Y-72977638D01*
G37*
G36*
X161330753Y-72624085D02*
X160871134Y-72164466D01*
X161861083Y-71174517D01*
X162320702Y-71634136D01*
X161330753Y-72624085D01*
X161330753Y-72624085D01*
G37*
G36*
X160977200Y-72270532D02*
X160517581Y-71810913D01*
X161507530Y-70820964D01*
X161967149Y-71280583D01*
X160977200Y-72270532D01*
X160977200Y-72270532D01*
G37*
G36*
X160623647Y-71916978D02*
X160164028Y-71457359D01*
X161153977Y-70467410D01*
X161613596Y-70927029D01*
X160623647Y-71916978D01*
X160623647Y-71916978D01*
G37*
G36*
X160270093Y-71563425D02*
X159810474Y-71103806D01*
X160800423Y-70113857D01*
X161260042Y-70573476D01*
X160270093Y-71563425D01*
X160270093Y-71563425D01*
G37*
D21*
X182880000Y-63754000D03*
D22*
X180340000Y-63754000D03*
X177800000Y-63754000D03*
D23*
X196113400Y-77104200D03*
X196113400Y-79004200D03*
X194589400Y-77053400D03*
X194589400Y-78953400D03*
X193065400Y-77002600D03*
X193065400Y-78902600D03*
X190017400Y-77002600D03*
X190017400Y-78902600D03*
X191541400Y-77002600D03*
X191541400Y-78902600D03*
D24*
X158435000Y-64617600D03*
X160335000Y-64617600D03*
X160335000Y-66395600D03*
X158435000Y-66395600D03*
X147508000Y-67056000D03*
X145608000Y-67056000D03*
X160208000Y-63246000D03*
X158308000Y-63246000D03*
D23*
X157988000Y-91374000D03*
X157988000Y-89474000D03*
D24*
X172430400Y-82397600D03*
X174330400Y-82397600D03*
X174564000Y-94488000D03*
X176464000Y-94488000D03*
D17*
X184607200Y-111201200D03*
D18*
X187107200Y-111201200D03*
D17*
X171704000Y-129540000D03*
D18*
X171704000Y-127040000D03*
D24*
X195641000Y-85725000D03*
X193741000Y-85725000D03*
D23*
X160274000Y-127574000D03*
X160274000Y-129474000D03*
X179324000Y-82382400D03*
X179324000Y-80482400D03*
D24*
X147762000Y-70358000D03*
X145862000Y-70358000D03*
X147635000Y-75692000D03*
X145735000Y-75692000D03*
X174564000Y-92710000D03*
X176464000Y-92710000D03*
X147762000Y-68707000D03*
X145862000Y-68707000D03*
D25*
X150317200Y-71652400D03*
X150317200Y-68352400D03*
D26*
X189078600Y-123850400D03*
X192378600Y-123850400D03*
D21*
X177495200Y-118973600D03*
D22*
X177495200Y-116433600D03*
X177495200Y-113893600D03*
D27*
X178816000Y-125730000D03*
X178816000Y-128730000D03*
D28*
X191810000Y-68660000D03*
X196810000Y-68660000D03*
D29*
X190810000Y-65960000D03*
X197810000Y-65960000D03*
D25*
X145559600Y-64109600D03*
X147759600Y-64109600D03*
X145458000Y-65532000D03*
X147658000Y-65532000D03*
X141409600Y-97485200D03*
X139209600Y-97485200D03*
X191447600Y-121056400D03*
X189247600Y-121056400D03*
X189247600Y-119278400D03*
X191447600Y-119278400D03*
X172610960Y-97917000D03*
X170410960Y-97917000D03*
D26*
X156464000Y-91524000D03*
X156464000Y-89324000D03*
D25*
X163746000Y-128016000D03*
X165946000Y-128016000D03*
X165946000Y-129540000D03*
X163746000Y-129540000D03*
X158920000Y-122174000D03*
X161120000Y-122174000D03*
X172626200Y-99634040D03*
X170426200Y-99634040D03*
D26*
X151523700Y-89349400D03*
X151523700Y-91549400D03*
D25*
X147490000Y-117602000D03*
X149690000Y-117602000D03*
X176868000Y-97790000D03*
X174668000Y-97790000D03*
D26*
X193370200Y-64000200D03*
X193370200Y-66200200D03*
X183337200Y-87612400D03*
X183337200Y-85412400D03*
X154940000Y-89324000D03*
X154940000Y-91524000D03*
X153174700Y-89349400D03*
X153174700Y-91549400D03*
X194995800Y-64000200D03*
X194995800Y-66200200D03*
D25*
X176868000Y-105918000D03*
X174668000Y-105918000D03*
X141206400Y-103733600D03*
X139006400Y-103733600D03*
D30*
X176470000Y-74315000D03*
X176470000Y-73815000D03*
X176470000Y-73315000D03*
X176470000Y-72815000D03*
X176470000Y-71815000D03*
X176970000Y-73315000D03*
X176470000Y-70315000D03*
X176470000Y-69815000D03*
X176470000Y-69315000D03*
X176470000Y-68815000D03*
X176970000Y-74815000D03*
X176970000Y-74315000D03*
X176970000Y-73815000D03*
X176470000Y-71315000D03*
X176970000Y-72815000D03*
X176970000Y-72315000D03*
X176970000Y-71815000D03*
X176970000Y-71315000D03*
X176970000Y-70815000D03*
X176970000Y-70315000D03*
X176970000Y-69815000D03*
X176970000Y-69315000D03*
X176970000Y-68815000D03*
X177470000Y-68815000D03*
X177470000Y-69315000D03*
X177470000Y-69815000D03*
X177470000Y-70315000D03*
X177470000Y-70815000D03*
X177470000Y-71315000D03*
X177470000Y-71815000D03*
X177470000Y-72815000D03*
X177470000Y-73815000D03*
X177470000Y-74815000D03*
X177470000Y-75315000D03*
X177970000Y-75315000D03*
X177970000Y-74815000D03*
X177970000Y-74315000D03*
X177970000Y-73815000D03*
X179470000Y-74315000D03*
X181970000Y-73815000D03*
X181970000Y-73315000D03*
X181970000Y-72815000D03*
X182470000Y-73315000D03*
X182470000Y-73815000D03*
X182470000Y-74815000D03*
X182970000Y-74315000D03*
X182970000Y-73815000D03*
X182970000Y-73315000D03*
X182970000Y-72815000D03*
X182970000Y-72315000D03*
X182970000Y-70815000D03*
X178470000Y-73315000D03*
X178970000Y-73315000D03*
X179470000Y-73315000D03*
X179970000Y-73315000D03*
X180470000Y-73315000D03*
X180970000Y-73315000D03*
X180970000Y-72815000D03*
X180970000Y-72315000D03*
X180970000Y-71315000D03*
X180970000Y-70815000D03*
X180970000Y-71815000D03*
X180470000Y-70815000D03*
X179970000Y-70815000D03*
X179470000Y-70815000D03*
X178970000Y-70815000D03*
X178470000Y-70815000D03*
X178470000Y-71315000D03*
X178470000Y-71815000D03*
X178470000Y-72315000D03*
X178470000Y-72815000D03*
X176470000Y-70815000D03*
X178470000Y-75315000D03*
X178470000Y-74815000D03*
X178470000Y-74315000D03*
X178970000Y-75315000D03*
X178970000Y-74815000D03*
X178970000Y-74315000D03*
X179470000Y-75315000D03*
X179470000Y-74815000D03*
X179970000Y-75315000D03*
X179970000Y-74815000D03*
X179970000Y-74315000D03*
X180470000Y-75315000D03*
X180470000Y-74815000D03*
X180470000Y-74315000D03*
X180970000Y-75315000D03*
X180970000Y-74815000D03*
X180970000Y-74315000D03*
X181470000Y-75315000D03*
X181470000Y-74815000D03*
X181470000Y-74315000D03*
X181970000Y-75315000D03*
X181970000Y-74815000D03*
X181970000Y-74315000D03*
X182470000Y-75315000D03*
X182470000Y-74315000D03*
X182970000Y-75315000D03*
X182470000Y-72815000D03*
X182470000Y-72315000D03*
X181970000Y-72315000D03*
X181970000Y-71815000D03*
X182470000Y-71815000D03*
X182970000Y-71815000D03*
X182970000Y-71315000D03*
X182470000Y-71315000D03*
X181970000Y-71315000D03*
X181970000Y-70815000D03*
X182470000Y-70815000D03*
X182970000Y-70315000D03*
X182470000Y-70315000D03*
X181970000Y-70315000D03*
X181970000Y-69815000D03*
X182470000Y-69815000D03*
X182970000Y-69815000D03*
X182970000Y-69315000D03*
X182470000Y-69315000D03*
X181970000Y-69315000D03*
X181970000Y-68815000D03*
X182970000Y-68815000D03*
X182470000Y-68815000D03*
X181470000Y-68815000D03*
X180970000Y-68815000D03*
X180470000Y-68815000D03*
X179970000Y-68815000D03*
X179470000Y-68815000D03*
X178970000Y-68815000D03*
X178470000Y-68815000D03*
X177970000Y-68815000D03*
X177970000Y-69315000D03*
X178470000Y-69315000D03*
X178970000Y-69315000D03*
X179470000Y-69315000D03*
X179970000Y-69315000D03*
X180470000Y-69315000D03*
X180970000Y-69315000D03*
X181470000Y-69315000D03*
X181470000Y-69815000D03*
X180970000Y-69815000D03*
X180470000Y-69815000D03*
X179970000Y-69815000D03*
X179470000Y-69815000D03*
X178970000Y-69815000D03*
X178470000Y-69815000D03*
X177970000Y-69815000D03*
X176470000Y-75315000D03*
D31*
X174846000Y-84963000D03*
X174846000Y-86233000D03*
X174846000Y-87503000D03*
X174846000Y-88773000D03*
X180246000Y-88773000D03*
X180246000Y-87503000D03*
X180246000Y-86233000D03*
X180246000Y-84963000D03*
D32*
X141173200Y-68122800D03*
X141173200Y-71922800D03*
D24*
X147762000Y-71882000D03*
X145862000Y-71882000D03*
X147635000Y-77470000D03*
X145735000Y-77470000D03*
X145735000Y-78994000D03*
X147635000Y-78994000D03*
X174279600Y-80873600D03*
X172379600Y-80873600D03*
D33*
X156972000Y-115824000D03*
X156972000Y-116224000D03*
X156972000Y-116624000D03*
X157622000Y-115824000D03*
X157622000Y-116224000D03*
X157622000Y-116624000D03*
D34*
X171577000Y-113846000D03*
X171577000Y-110871000D03*
X169977000Y-112358500D03*
X162864800Y-92535400D03*
X162864800Y-89560400D03*
X161264800Y-91047900D03*
X141859000Y-88719000D03*
X141859000Y-91694000D03*
X143459000Y-90206500D03*
M02*
