M48
;DRILL file {KiCad 4.0.5} date 04/12/18 12:11:54
;FORMAT={-:-/ absolute / metric / decimal}
FMAT,2
METRIC,TZ
T1C0.150
T2C0.300
T3C0.400
T4C0.500
T5C0.550
T6C0.800
T7C1.000
T8C1.300
%
G90
G05
M71
T1
X143.764Y-89.281
X143.764Y-91.186
X144.399Y-89.281
X144.399Y-91.186
X144.463Y-99.822
X144.463Y-104.013
X145.034Y-89.281
X145.034Y-91.186
X145.542Y-91.44
X145.669Y-89.281
X146.05Y-91.948
X146.304Y-89.662
X146.558Y-92.456
X146.812Y-90.17
X147.066Y-92.964
X147.32Y-90.678
X147.574Y-93.472
X147.828Y-91.186
X148.082Y-93.98
X148.336Y-91.694
X148.59Y-94.488
X148.844Y-92.202
X149.098Y-71.247
X149.352Y-92.71
X149.593Y-77.851
X149.86Y-93.218
X150.368Y-93.726
X150.622Y-67.437
X151.575Y-116.967
X152.07Y-75.095
X152.273Y-108.458
X152.806Y-80.747
X153.099Y-114.3
X153.352Y-64.516
X153.416Y-94.107
X153.665Y-110.658
X153.797Y-78.295
X154.051Y-82.296
X154.178Y-66.421
X154.432Y-108.775
X154.686Y-104.902
X154.813Y-94.615
X155.067Y-75.184
X155.194Y-93.218
X156.273Y-116.205
X156.337Y-92.202
X156.591Y-87.732
X156.972Y-66.04
X157.988Y-110.49
X158.242Y-84.772
X158.369Y-92.837
X159.131Y-91.948
X159.258Y-120.015
X159.639Y-91.44
X159.766Y-90.932
X159.995Y-125.933
X160.338Y-82.867
X160.528Y-93.091
X160.782Y-108.077
X160.972Y-69.342
X161.036Y-92.583
X161.239Y-99.111
X161.29Y-84.836
X161.417Y-63.563
X161.62Y-98.527
X161.671Y-84.391
X161.925Y-70.231
X162.154Y-68.834
X162.154Y-81.394
X162.179Y-83.947
X162.56Y-110.236
X162.585Y-70.688
X162.687Y-116.776
X162.941Y-109.22
X163.106Y-80.124
X163.208Y-71.196
X163.436Y-83.147
X163.512Y-69.151
X163.805Y-70.18
X163.957Y-99.822
X163.957Y-100.584
X163.957Y-111.379
X163.982Y-98.679
X164.059Y-83.376
X164.084Y-69.025
X164.211Y-113.284
X164.44Y-81.89
X164.592Y-111.379
X164.643Y-81.293
X164.846Y-95.758
X164.846Y-113.284
X165.227Y-111.379
X165.481Y-113.284
X165.862Y-111.379
X165.989Y-121.031
X166.116Y-113.284
X166.243Y-96.901
X166.624Y-111.379
X166.878Y-113.284
X167.132Y-99.187
X167.386Y-111.379
X167.386Y-120.269
X167.608Y-74.301
X167.64Y-113.284
X167.975Y-99.609
X168.148Y-111.379
X168.402Y-113.284
X168.656Y-104.648
X168.783Y-108.204
X168.91Y-111.379
X169.037Y-106.172
X169.037Y-113.284
X169.545Y-119.253
X169.672Y-111.379
X169.672Y-113.284
X170.01Y-86.487
X170.01Y-88.138
X170.137Y-84.455
X170.49Y-100.935
X170.688Y-75.438
X170.688Y-104.394
X170.777Y-71.107
X171.704Y-107.823
X172.161Y-72.606
X172.542Y-73.101
X174.409Y-72.06
X175.768Y-71.628
X175.895Y-72.873
X176.454Y-74.816
X176.962Y-75.324
X177.47Y-72.314
X177.47Y-73.609
X177.47Y-74.32
X177.983Y-98.674
X178.46Y-73.812
X179.324Y-72.771
X180.353Y-73.812
X181.458Y-72.466
X181.47Y-73.088
X181.483Y-71.501
X183.896Y-75.248
X188.379Y-67.285
X190.5Y-86.716
X192.634Y-67.716
X193.751Y-67.31
X194.869Y-67.386
X195.834Y-84.582
T2
X144.399Y-106.553
X144.399Y-107.696
X148.082Y-96.075
X150.114Y-63.5
X152.019Y-62.23
X153.543Y-65.913
X153.67Y-68.58
X156.019Y-76.772
X156.083Y-69.342
X156.273Y-80.137
X157.226Y-67.183
X160.655Y-79.566
X160.909Y-118.364
X160.909Y-119.761
X161.671Y-66.675
X162.052Y-80.01
X167.64Y-80.073
X168.275Y-79.438
X182.118Y-88.646
X186.754Y-120.269
T3
X151.575Y-72.072
X182.88Y-82.042
X184.277Y-73.279
X188.531Y-76.898
X192.278Y-80.581
T6
X141.173Y-68.123
X141.173Y-71.923
X148.59Y-121.412
X148.59Y-123.912
X154.94Y-127.254
X154.94Y-129.754
X171.577Y-121.412
X171.577Y-123.912
X171.704Y-127.04
X171.704Y-129.54
X184.607Y-111.201
X187.107Y-111.201
T7
X164.719Y-63.754
X167.259Y-63.754
X169.799Y-63.754
X172.339Y-63.754
X177.495Y-113.894
X177.495Y-116.434
X177.495Y-118.974
X177.8Y-63.754
X180.34Y-63.754
X182.88Y-63.754
X186.866Y-123.62
X187.96Y-85.09
X187.96Y-87.63
X192.986Y-121.92
T8
X178.816Y-125.73
X178.816Y-128.73
T4
X190.81Y-65.635G85X190.81Y-66.285
G05
X197.81Y-65.635G85X197.81Y-66.285
G05
T5
X191.96Y-68.66G85X191.66Y-68.66
G05
X196.96Y-68.66G85X196.66Y-68.66
G05
T7
X183.947Y-103.514G85X183.947Y-101.514
G05
X187.947Y-97.814G85X185.947Y-97.814
G05
X189.947Y-103.514G85X189.947Y-101.514
G05
T0
M30
