G04 #@! TF.FileFunction,Legend,Top*
%FSLAX46Y46*%
G04 Gerber Fmt 4.6, Leading zero omitted, Abs format (unit mm)*
G04 Created by KiCad (PCBNEW 4.0.5) date 04/12/18 12:11:43*
%MOMM*%
%LPD*%
G01*
G04 APERTURE LIST*
%ADD10C,0.100000*%
%ADD11C,0.300000*%
%ADD12C,0.150000*%
%ADD13C,0.120000*%
G04 APERTURE END LIST*
D10*
D11*
X144446762Y-89270953D02*
X146446762Y-88987620D01*
X144446762Y-88204286D01*
X146446762Y-87920953D02*
X144446762Y-87670953D01*
X146446762Y-87159048D02*
X144446762Y-86909048D01*
X145875333Y-86554286D01*
X144446762Y-85842381D01*
X146446762Y-86092381D01*
X144637238Y-83961429D02*
X144542000Y-83873334D01*
X144446762Y-83709048D01*
X144446762Y-83328095D01*
X144542000Y-83187619D01*
X144637238Y-83123334D01*
X144827714Y-83070952D01*
X145018190Y-83094762D01*
X145303905Y-83206667D01*
X146446762Y-84263810D01*
X146446762Y-83273333D01*
X146256286Y-82563810D02*
X146351524Y-82499523D01*
X146446762Y-82587619D01*
X146351524Y-82651904D01*
X146256286Y-82563810D01*
X146446762Y-82587619D01*
X144446762Y-81728095D02*
X144446762Y-80737618D01*
X145208667Y-81366190D01*
X145208667Y-81137618D01*
X145303905Y-80997142D01*
X145399143Y-80932857D01*
X145589619Y-80880475D01*
X146065810Y-80939999D01*
X146256286Y-81040000D01*
X146351524Y-81128094D01*
X146446762Y-81292380D01*
X146446762Y-81749523D01*
X146351524Y-81889999D01*
X146256286Y-81954286D01*
X194182071Y-126733000D02*
X195682071Y-126316334D01*
X194182071Y-125899667D01*
X195610643Y-125006809D02*
X195682071Y-125125857D01*
X195682071Y-125363952D01*
X195610643Y-125483000D01*
X195467786Y-125542524D01*
X194896357Y-125542524D01*
X194753500Y-125483000D01*
X194682071Y-125363952D01*
X194682071Y-125125857D01*
X194753500Y-125006809D01*
X194896357Y-124947286D01*
X195039214Y-124947286D01*
X195182071Y-125542524D01*
X195682071Y-124411571D02*
X194182071Y-124411571D01*
X195682071Y-123875857D02*
X194896357Y-123875857D01*
X194753500Y-123935380D01*
X194682071Y-124054428D01*
X194682071Y-124233000D01*
X194753500Y-124352047D01*
X194824929Y-124411571D01*
X195682071Y-123280619D02*
X194682071Y-123280619D01*
X194182071Y-123280619D02*
X194253500Y-123340143D01*
X194324929Y-123280619D01*
X194253500Y-123221095D01*
X194182071Y-123280619D01*
X194324929Y-123280619D01*
X195610643Y-122149667D02*
X195682071Y-122268714D01*
X195682071Y-122506810D01*
X195610643Y-122625857D01*
X195539214Y-122685381D01*
X195396357Y-122744905D01*
X194967786Y-122744905D01*
X194824929Y-122685381D01*
X194753500Y-122625857D01*
X194682071Y-122506810D01*
X194682071Y-122268714D01*
X194753500Y-122149667D01*
X195682071Y-121435381D02*
X195610643Y-121554428D01*
X195467786Y-121613952D01*
X194182071Y-121613952D01*
X195610643Y-120482999D02*
X195682071Y-120602047D01*
X195682071Y-120840142D01*
X195610643Y-120959190D01*
X195467786Y-121018714D01*
X194896357Y-121018714D01*
X194753500Y-120959190D01*
X194682071Y-120840142D01*
X194682071Y-120602047D01*
X194753500Y-120482999D01*
X194896357Y-120423476D01*
X195039214Y-120423476D01*
X195182071Y-121018714D01*
X195682071Y-118935380D02*
X194182071Y-118935380D01*
X194682071Y-118340142D02*
X195682071Y-118340142D01*
X194824929Y-118340142D02*
X194753500Y-118280618D01*
X194682071Y-118161571D01*
X194682071Y-117982999D01*
X194753500Y-117863951D01*
X194896357Y-117804428D01*
X195682071Y-117804428D01*
X194682071Y-117387761D02*
X194682071Y-116911571D01*
X194182071Y-117209190D02*
X195467786Y-117209190D01*
X195610643Y-117149666D01*
X195682071Y-117030619D01*
X195682071Y-116911571D01*
X195610643Y-116018713D02*
X195682071Y-116137761D01*
X195682071Y-116375856D01*
X195610643Y-116494904D01*
X195467786Y-116554428D01*
X194896357Y-116554428D01*
X194753500Y-116494904D01*
X194682071Y-116375856D01*
X194682071Y-116137761D01*
X194753500Y-116018713D01*
X194896357Y-115959190D01*
X195039214Y-115959190D01*
X195182071Y-116554428D01*
X194682071Y-114887761D02*
X195896357Y-114887761D01*
X196039214Y-114947284D01*
X196110643Y-115006808D01*
X196182071Y-115125856D01*
X196182071Y-115304427D01*
X196110643Y-115423475D01*
X195610643Y-114887761D02*
X195682071Y-115006808D01*
X195682071Y-115244904D01*
X195610643Y-115363951D01*
X195539214Y-115423475D01*
X195396357Y-115482999D01*
X194967786Y-115482999D01*
X194824929Y-115423475D01*
X194753500Y-115363951D01*
X194682071Y-115244904D01*
X194682071Y-115006808D01*
X194753500Y-114887761D01*
X195682071Y-114292523D02*
X194682071Y-114292523D01*
X194967786Y-114292523D02*
X194824929Y-114232999D01*
X194753500Y-114173475D01*
X194682071Y-114054428D01*
X194682071Y-113935380D01*
X195682071Y-112982999D02*
X194896357Y-112982999D01*
X194753500Y-113042522D01*
X194682071Y-113161570D01*
X194682071Y-113399665D01*
X194753500Y-113518713D01*
X195610643Y-112982999D02*
X195682071Y-113102046D01*
X195682071Y-113399665D01*
X195610643Y-113518713D01*
X195467786Y-113578237D01*
X195324929Y-113578237D01*
X195182071Y-113518713D01*
X195110643Y-113399665D01*
X195110643Y-113102046D01*
X195039214Y-112982999D01*
X194682071Y-112566332D02*
X194682071Y-112090142D01*
X194182071Y-112387761D02*
X195467786Y-112387761D01*
X195610643Y-112328237D01*
X195682071Y-112209190D01*
X195682071Y-112090142D01*
X195682071Y-111673475D02*
X194682071Y-111673475D01*
X194182071Y-111673475D02*
X194253500Y-111732999D01*
X194324929Y-111673475D01*
X194253500Y-111613951D01*
X194182071Y-111673475D01*
X194324929Y-111673475D01*
X195682071Y-110899666D02*
X195610643Y-111018713D01*
X195539214Y-111078237D01*
X195396357Y-111137761D01*
X194967786Y-111137761D01*
X194824929Y-111078237D01*
X194753500Y-111018713D01*
X194682071Y-110899666D01*
X194682071Y-110721094D01*
X194753500Y-110602046D01*
X194824929Y-110542523D01*
X194967786Y-110482999D01*
X195396357Y-110482999D01*
X195539214Y-110542523D01*
X195610643Y-110602046D01*
X195682071Y-110721094D01*
X195682071Y-110899666D01*
X194682071Y-109947285D02*
X195682071Y-109947285D01*
X194824929Y-109947285D02*
X194753500Y-109887761D01*
X194682071Y-109768714D01*
X194682071Y-109590142D01*
X194753500Y-109471094D01*
X194896357Y-109411571D01*
X195682071Y-109411571D01*
X198232071Y-122923475D02*
X196732071Y-122923475D01*
X197803500Y-122506808D01*
X196732071Y-122090142D01*
X198232071Y-122090142D01*
X198232071Y-121316333D02*
X198160643Y-121435380D01*
X198089214Y-121494904D01*
X197946357Y-121554428D01*
X197517786Y-121554428D01*
X197374929Y-121494904D01*
X197303500Y-121435380D01*
X197232071Y-121316333D01*
X197232071Y-121137761D01*
X197303500Y-121018713D01*
X197374929Y-120959190D01*
X197517786Y-120899666D01*
X197946357Y-120899666D01*
X198089214Y-120959190D01*
X198160643Y-121018713D01*
X198232071Y-121137761D01*
X198232071Y-121316333D01*
X198232071Y-119828238D02*
X196732071Y-119828238D01*
X198160643Y-119828238D02*
X198232071Y-119947285D01*
X198232071Y-120185381D01*
X198160643Y-120304428D01*
X198089214Y-120363952D01*
X197946357Y-120423476D01*
X197517786Y-120423476D01*
X197374929Y-120363952D01*
X197303500Y-120304428D01*
X197232071Y-120185381D01*
X197232071Y-119947285D01*
X197303500Y-119828238D01*
X197232071Y-118697286D02*
X198232071Y-118697286D01*
X197232071Y-119233000D02*
X198017786Y-119233000D01*
X198160643Y-119173476D01*
X198232071Y-119054429D01*
X198232071Y-118875857D01*
X198160643Y-118756809D01*
X198089214Y-118697286D01*
X198232071Y-117923477D02*
X198160643Y-118042524D01*
X198017786Y-118102048D01*
X196732071Y-118102048D01*
X198160643Y-116971095D02*
X198232071Y-117090143D01*
X198232071Y-117328238D01*
X198160643Y-117447286D01*
X198017786Y-117506810D01*
X197446357Y-117506810D01*
X197303500Y-117447286D01*
X197232071Y-117328238D01*
X197232071Y-117090143D01*
X197303500Y-116971095D01*
X197446357Y-116911572D01*
X197589214Y-116911572D01*
X197732071Y-117506810D01*
X196874929Y-115483000D02*
X196803500Y-115423476D01*
X196732071Y-115304428D01*
X196732071Y-115006809D01*
X196803500Y-114887762D01*
X196874929Y-114828238D01*
X197017786Y-114768714D01*
X197160643Y-114768714D01*
X197374929Y-114828238D01*
X198232071Y-115542524D01*
X198232071Y-114768714D01*
X198089214Y-114233000D02*
X198160643Y-114173476D01*
X198232071Y-114233000D01*
X198160643Y-114292524D01*
X198089214Y-114233000D01*
X198232071Y-114233000D01*
X196732071Y-113756810D02*
X196732071Y-112983000D01*
X197303500Y-113399667D01*
X197303500Y-113221095D01*
X197374929Y-113102048D01*
X197446357Y-113042524D01*
X197589214Y-112983000D01*
X197946357Y-112983000D01*
X198089214Y-113042524D01*
X198160643Y-113102048D01*
X198232071Y-113221095D01*
X198232071Y-113578238D01*
X198160643Y-113697286D01*
X198089214Y-113756810D01*
X138746571Y-121653286D02*
X140246571Y-121153286D01*
X138746571Y-120653286D01*
X139460857Y-120153286D02*
X139460857Y-119653286D01*
X140246571Y-119439000D02*
X140246571Y-120153286D01*
X138746571Y-120153286D01*
X138746571Y-119439000D01*
X140103714Y-117939000D02*
X140175143Y-118010429D01*
X140246571Y-118224715D01*
X140246571Y-118367572D01*
X140175143Y-118581857D01*
X140032286Y-118724715D01*
X139889429Y-118796143D01*
X139603714Y-118867572D01*
X139389429Y-118867572D01*
X139103714Y-118796143D01*
X138960857Y-118724715D01*
X138818000Y-118581857D01*
X138746571Y-118367572D01*
X138746571Y-118224715D01*
X138818000Y-118010429D01*
X138889429Y-117939000D01*
X140246571Y-117296143D02*
X138746571Y-117296143D01*
X139818000Y-116796143D01*
X138746571Y-116296143D01*
X140246571Y-116296143D01*
X138746571Y-115296143D02*
X138746571Y-115010429D01*
X138818000Y-114867571D01*
X138960857Y-114724714D01*
X139246571Y-114653286D01*
X139746571Y-114653286D01*
X140032286Y-114724714D01*
X140175143Y-114867571D01*
X140246571Y-115010429D01*
X140246571Y-115296143D01*
X140175143Y-115439000D01*
X140032286Y-115581857D01*
X139746571Y-115653286D01*
X139246571Y-115653286D01*
X138960857Y-115581857D01*
X138818000Y-115439000D01*
X138746571Y-115296143D01*
X140103714Y-113153285D02*
X140175143Y-113224714D01*
X140246571Y-113439000D01*
X140246571Y-113581857D01*
X140175143Y-113796142D01*
X140032286Y-113939000D01*
X139889429Y-114010428D01*
X139603714Y-114081857D01*
X139389429Y-114081857D01*
X139103714Y-114010428D01*
X138960857Y-113939000D01*
X138818000Y-113796142D01*
X138746571Y-113581857D01*
X138746571Y-113439000D01*
X138818000Y-113224714D01*
X138889429Y-113153285D01*
X138746571Y-112224714D02*
X138746571Y-111939000D01*
X138818000Y-111796142D01*
X138960857Y-111653285D01*
X139246571Y-111581857D01*
X139746571Y-111581857D01*
X140032286Y-111653285D01*
X140175143Y-111796142D01*
X140246571Y-111939000D01*
X140246571Y-112224714D01*
X140175143Y-112367571D01*
X140032286Y-112510428D01*
X139746571Y-112581857D01*
X139246571Y-112581857D01*
X138960857Y-112510428D01*
X138818000Y-112367571D01*
X138746571Y-112224714D01*
X140246571Y-110938999D02*
X138746571Y-110938999D01*
X140246571Y-110081856D01*
X138746571Y-110081856D01*
X141296571Y-123296144D02*
X141296571Y-122439001D01*
X142796571Y-122867572D02*
X141296571Y-122867572D01*
X142010857Y-121939001D02*
X142010857Y-121439001D01*
X142796571Y-121224715D02*
X142796571Y-121939001D01*
X141296571Y-121939001D01*
X141296571Y-121224715D01*
X142653714Y-119724715D02*
X142725143Y-119796144D01*
X142796571Y-120010430D01*
X142796571Y-120153287D01*
X142725143Y-120367572D01*
X142582286Y-120510430D01*
X142439429Y-120581858D01*
X142153714Y-120653287D01*
X141939429Y-120653287D01*
X141653714Y-120581858D01*
X141510857Y-120510430D01*
X141368000Y-120367572D01*
X141296571Y-120153287D01*
X141296571Y-120010430D01*
X141368000Y-119796144D01*
X141439429Y-119724715D01*
X142796571Y-119081858D02*
X141296571Y-119081858D01*
X142010857Y-119081858D02*
X142010857Y-118224715D01*
X142796571Y-118224715D02*
X141296571Y-118224715D01*
X142796571Y-117510429D02*
X141296571Y-117510429D01*
X142796571Y-116653286D01*
X141296571Y-116653286D01*
X141296571Y-115653286D02*
X141296571Y-115367572D01*
X141368000Y-115224714D01*
X141510857Y-115081857D01*
X141796571Y-115010429D01*
X142296571Y-115010429D01*
X142582286Y-115081857D01*
X142725143Y-115224714D01*
X142796571Y-115367572D01*
X142796571Y-115653286D01*
X142725143Y-115796143D01*
X142582286Y-115939000D01*
X142296571Y-116010429D01*
X141796571Y-116010429D01*
X141510857Y-115939000D01*
X141368000Y-115796143D01*
X141296571Y-115653286D01*
X142796571Y-113653285D02*
X142796571Y-114367571D01*
X141296571Y-114367571D01*
X141296571Y-112867571D02*
X141296571Y-112581857D01*
X141368000Y-112438999D01*
X141510857Y-112296142D01*
X141796571Y-112224714D01*
X142296571Y-112224714D01*
X142582286Y-112296142D01*
X142725143Y-112438999D01*
X142796571Y-112581857D01*
X142796571Y-112867571D01*
X142725143Y-113010428D01*
X142582286Y-113153285D01*
X142296571Y-113224714D01*
X141796571Y-113224714D01*
X141510857Y-113153285D01*
X141368000Y-113010428D01*
X141296571Y-112867571D01*
X141368000Y-110796142D02*
X141296571Y-110938999D01*
X141296571Y-111153285D01*
X141368000Y-111367570D01*
X141510857Y-111510428D01*
X141653714Y-111581856D01*
X141939429Y-111653285D01*
X142153714Y-111653285D01*
X142439429Y-111581856D01*
X142582286Y-111510428D01*
X142725143Y-111367570D01*
X142796571Y-111153285D01*
X142796571Y-111010428D01*
X142725143Y-110796142D01*
X142653714Y-110724713D01*
X142153714Y-110724713D01*
X142153714Y-111010428D01*
X142796571Y-110081856D02*
X141296571Y-110081856D01*
X142010857Y-109367570D02*
X142010857Y-108867570D01*
X142796571Y-108653284D02*
X142796571Y-109367570D01*
X141296571Y-109367570D01*
X141296571Y-108653284D01*
X142725143Y-108081856D02*
X142796571Y-107867570D01*
X142796571Y-107510427D01*
X142725143Y-107367570D01*
X142653714Y-107296141D01*
X142510857Y-107224713D01*
X142368000Y-107224713D01*
X142225143Y-107296141D01*
X142153714Y-107367570D01*
X142082286Y-107510427D01*
X142010857Y-107796141D01*
X141939429Y-107938999D01*
X141868000Y-108010427D01*
X141725143Y-108081856D01*
X141582286Y-108081856D01*
X141439429Y-108010427D01*
X141368000Y-107938999D01*
X141296571Y-107796141D01*
X141296571Y-107438999D01*
X141368000Y-107224713D01*
D12*
X152850400Y-107418800D02*
X152950400Y-107418800D01*
X152250400Y-107318800D02*
X152250400Y-107418800D01*
X152250400Y-107418800D02*
X152850400Y-107418800D01*
X160250400Y-107318800D02*
X160250400Y-107418800D01*
X160250400Y-107418800D02*
X153050400Y-107418800D01*
X153050400Y-107418800D02*
X152950400Y-107418800D01*
X152250400Y-101218800D02*
X160250400Y-101218800D01*
X160250400Y-101218800D02*
X160250400Y-101418800D01*
X152250400Y-101318800D02*
X152250400Y-101218800D01*
X164650400Y-97318800D02*
X164650400Y-111318800D01*
X164650400Y-111318800D02*
X147950400Y-111318800D01*
X147950400Y-97318800D02*
X164650400Y-97318800D01*
X147950400Y-111218800D02*
X147950400Y-97318800D01*
X160250400Y-107318800D02*
X160250400Y-101318800D01*
X152250400Y-101318800D02*
X152250400Y-107318800D01*
D13*
X158220000Y-123252000D02*
X158220000Y-124652000D01*
X158220000Y-124652000D02*
X161020000Y-124652000D01*
X158220000Y-123252000D02*
X161020000Y-123252000D01*
X146790000Y-115124000D02*
X146790000Y-116524000D01*
X146790000Y-116524000D02*
X149590000Y-116524000D01*
X146790000Y-115124000D02*
X149590000Y-115124000D01*
X138509600Y-95007200D02*
X138509600Y-96407200D01*
X138509600Y-96407200D02*
X141309600Y-96407200D01*
X138509600Y-95007200D02*
X141309600Y-95007200D01*
X188946800Y-97914400D02*
X197746800Y-97914400D01*
X197746800Y-97914400D02*
X197746800Y-107114400D01*
X183046800Y-100614400D02*
X183046800Y-97914400D01*
X183046800Y-97914400D02*
X184946800Y-97914400D01*
X197746800Y-107114400D02*
X183046800Y-107114400D01*
X183046800Y-107114400D02*
X183046800Y-104514400D01*
X167237000Y-83755000D02*
X167237000Y-85155000D01*
X167237000Y-85155000D02*
X170037000Y-85155000D01*
X167237000Y-83755000D02*
X170037000Y-83755000D01*
X167110000Y-87565000D02*
X167110000Y-88965000D01*
X167110000Y-88965000D02*
X169910000Y-88965000D01*
X167110000Y-87565000D02*
X169910000Y-87565000D01*
X167110000Y-85660000D02*
X167110000Y-87060000D01*
X167110000Y-87060000D02*
X169910000Y-87060000D01*
X167110000Y-85660000D02*
X169910000Y-85660000D01*
X173968000Y-98868000D02*
X173968000Y-100268000D01*
X173968000Y-100268000D02*
X176768000Y-100268000D01*
X173968000Y-98868000D02*
X176768000Y-98868000D01*
X177348000Y-102110000D02*
X176418000Y-102110000D01*
X174188000Y-102110000D02*
X175118000Y-102110000D01*
X174188000Y-102110000D02*
X174188000Y-104270000D01*
X177348000Y-102110000D02*
X177348000Y-103570000D01*
X141686400Y-100179600D02*
X140756400Y-100179600D01*
X138526400Y-100179600D02*
X139456400Y-100179600D01*
X138526400Y-100179600D02*
X138526400Y-102339600D01*
X141686400Y-100179600D02*
X141686400Y-101639600D01*
X156119723Y-130809722D02*
G75*
G03X156120000Y-126198420I-1179723J2305722D01*
G01*
X153760277Y-130809722D02*
G75*
G02X153760000Y-126198420I1179723J2305722D01*
G01*
X153760277Y-130809722D02*
G75*
G03X156120000Y-130809580I1179723J2305722D01*
G01*
X157490000Y-128504000D02*
X152390000Y-128504000D01*
X157490000Y-128544000D02*
X152390000Y-128544000D01*
X157489000Y-128584000D02*
X152391000Y-128584000D01*
X157488000Y-128624000D02*
X152392000Y-128624000D01*
X157486000Y-128664000D02*
X152394000Y-128664000D01*
X157483000Y-128704000D02*
X152397000Y-128704000D01*
X157479000Y-128744000D02*
X152401000Y-128744000D01*
X157475000Y-128784000D02*
X155920000Y-128784000D01*
X153960000Y-128784000D02*
X152405000Y-128784000D01*
X157471000Y-128824000D02*
X155920000Y-128824000D01*
X153960000Y-128824000D02*
X152409000Y-128824000D01*
X157465000Y-128864000D02*
X155920000Y-128864000D01*
X153960000Y-128864000D02*
X152415000Y-128864000D01*
X157459000Y-128904000D02*
X155920000Y-128904000D01*
X153960000Y-128904000D02*
X152421000Y-128904000D01*
X157453000Y-128944000D02*
X155920000Y-128944000D01*
X153960000Y-128944000D02*
X152427000Y-128944000D01*
X157446000Y-128984000D02*
X155920000Y-128984000D01*
X153960000Y-128984000D02*
X152434000Y-128984000D01*
X157438000Y-129024000D02*
X155920000Y-129024000D01*
X153960000Y-129024000D02*
X152442000Y-129024000D01*
X157429000Y-129064000D02*
X155920000Y-129064000D01*
X153960000Y-129064000D02*
X152451000Y-129064000D01*
X157420000Y-129104000D02*
X155920000Y-129104000D01*
X153960000Y-129104000D02*
X152460000Y-129104000D01*
X157410000Y-129144000D02*
X155920000Y-129144000D01*
X153960000Y-129144000D02*
X152470000Y-129144000D01*
X157400000Y-129184000D02*
X155920000Y-129184000D01*
X153960000Y-129184000D02*
X152480000Y-129184000D01*
X157388000Y-129225000D02*
X155920000Y-129225000D01*
X153960000Y-129225000D02*
X152492000Y-129225000D01*
X157376000Y-129265000D02*
X155920000Y-129265000D01*
X153960000Y-129265000D02*
X152504000Y-129265000D01*
X157364000Y-129305000D02*
X155920000Y-129305000D01*
X153960000Y-129305000D02*
X152516000Y-129305000D01*
X157350000Y-129345000D02*
X155920000Y-129345000D01*
X153960000Y-129345000D02*
X152530000Y-129345000D01*
X157336000Y-129385000D02*
X155920000Y-129385000D01*
X153960000Y-129385000D02*
X152544000Y-129385000D01*
X157322000Y-129425000D02*
X155920000Y-129425000D01*
X153960000Y-129425000D02*
X152558000Y-129425000D01*
X157306000Y-129465000D02*
X155920000Y-129465000D01*
X153960000Y-129465000D02*
X152574000Y-129465000D01*
X157290000Y-129505000D02*
X155920000Y-129505000D01*
X153960000Y-129505000D02*
X152590000Y-129505000D01*
X157273000Y-129545000D02*
X155920000Y-129545000D01*
X153960000Y-129545000D02*
X152607000Y-129545000D01*
X157255000Y-129585000D02*
X155920000Y-129585000D01*
X153960000Y-129585000D02*
X152625000Y-129585000D01*
X157236000Y-129625000D02*
X155920000Y-129625000D01*
X153960000Y-129625000D02*
X152644000Y-129625000D01*
X157216000Y-129665000D02*
X155920000Y-129665000D01*
X153960000Y-129665000D02*
X152664000Y-129665000D01*
X157196000Y-129705000D02*
X155920000Y-129705000D01*
X153960000Y-129705000D02*
X152684000Y-129705000D01*
X157174000Y-129745000D02*
X155920000Y-129745000D01*
X153960000Y-129745000D02*
X152706000Y-129745000D01*
X157152000Y-129785000D02*
X155920000Y-129785000D01*
X153960000Y-129785000D02*
X152728000Y-129785000D01*
X157129000Y-129825000D02*
X155920000Y-129825000D01*
X153960000Y-129825000D02*
X152751000Y-129825000D01*
X157105000Y-129865000D02*
X155920000Y-129865000D01*
X153960000Y-129865000D02*
X152775000Y-129865000D01*
X157080000Y-129905000D02*
X155920000Y-129905000D01*
X153960000Y-129905000D02*
X152800000Y-129905000D01*
X157053000Y-129945000D02*
X155920000Y-129945000D01*
X153960000Y-129945000D02*
X152827000Y-129945000D01*
X157026000Y-129985000D02*
X155920000Y-129985000D01*
X153960000Y-129985000D02*
X152854000Y-129985000D01*
X156998000Y-130025000D02*
X155920000Y-130025000D01*
X153960000Y-130025000D02*
X152882000Y-130025000D01*
X156968000Y-130065000D02*
X155920000Y-130065000D01*
X153960000Y-130065000D02*
X152912000Y-130065000D01*
X156937000Y-130105000D02*
X155920000Y-130105000D01*
X153960000Y-130105000D02*
X152943000Y-130105000D01*
X156905000Y-130145000D02*
X155920000Y-130145000D01*
X153960000Y-130145000D02*
X152975000Y-130145000D01*
X156872000Y-130185000D02*
X155920000Y-130185000D01*
X153960000Y-130185000D02*
X153008000Y-130185000D01*
X156837000Y-130225000D02*
X155920000Y-130225000D01*
X153960000Y-130225000D02*
X153043000Y-130225000D01*
X156801000Y-130265000D02*
X155920000Y-130265000D01*
X153960000Y-130265000D02*
X153079000Y-130265000D01*
X156763000Y-130305000D02*
X155920000Y-130305000D01*
X153960000Y-130305000D02*
X153117000Y-130305000D01*
X156723000Y-130345000D02*
X155920000Y-130345000D01*
X153960000Y-130345000D02*
X153157000Y-130345000D01*
X156682000Y-130385000D02*
X155920000Y-130385000D01*
X153960000Y-130385000D02*
X153198000Y-130385000D01*
X156639000Y-130425000D02*
X155920000Y-130425000D01*
X153960000Y-130425000D02*
X153241000Y-130425000D01*
X156594000Y-130465000D02*
X155920000Y-130465000D01*
X153960000Y-130465000D02*
X153286000Y-130465000D01*
X156546000Y-130505000D02*
X155920000Y-130505000D01*
X153960000Y-130505000D02*
X153334000Y-130505000D01*
X156496000Y-130545000D02*
X155920000Y-130545000D01*
X153960000Y-130545000D02*
X153384000Y-130545000D01*
X156444000Y-130585000D02*
X155920000Y-130585000D01*
X153960000Y-130585000D02*
X153436000Y-130585000D01*
X156388000Y-130625000D02*
X155920000Y-130625000D01*
X153960000Y-130625000D02*
X153492000Y-130625000D01*
X156330000Y-130665000D02*
X155920000Y-130665000D01*
X153960000Y-130665000D02*
X153550000Y-130665000D01*
X156267000Y-130705000D02*
X155920000Y-130705000D01*
X153960000Y-130705000D02*
X153613000Y-130705000D01*
X156201000Y-130745000D02*
X153679000Y-130745000D01*
X156129000Y-130785000D02*
X153751000Y-130785000D01*
X156052000Y-130825000D02*
X153828000Y-130825000D01*
X155968000Y-130865000D02*
X153912000Y-130865000D01*
X155874000Y-130905000D02*
X154006000Y-130905000D01*
X155769000Y-130945000D02*
X154111000Y-130945000D01*
X155647000Y-130985000D02*
X154233000Y-130985000D01*
X155499000Y-131025000D02*
X154381000Y-131025000D01*
X155294000Y-131065000D02*
X154586000Y-131065000D01*
X154940000Y-125054000D02*
X154940000Y-126254000D01*
X155590000Y-125654000D02*
X154290000Y-125654000D01*
X172756723Y-124967722D02*
G75*
G03X172757000Y-120356420I-1179723J2305722D01*
G01*
X170397277Y-124967722D02*
G75*
G02X170397000Y-120356420I1179723J2305722D01*
G01*
X170397277Y-124967722D02*
G75*
G03X172757000Y-124967580I1179723J2305722D01*
G01*
X174127000Y-122662000D02*
X169027000Y-122662000D01*
X174127000Y-122702000D02*
X169027000Y-122702000D01*
X174126000Y-122742000D02*
X169028000Y-122742000D01*
X174125000Y-122782000D02*
X169029000Y-122782000D01*
X174123000Y-122822000D02*
X169031000Y-122822000D01*
X174120000Y-122862000D02*
X169034000Y-122862000D01*
X174116000Y-122902000D02*
X169038000Y-122902000D01*
X174112000Y-122942000D02*
X172557000Y-122942000D01*
X170597000Y-122942000D02*
X169042000Y-122942000D01*
X174108000Y-122982000D02*
X172557000Y-122982000D01*
X170597000Y-122982000D02*
X169046000Y-122982000D01*
X174102000Y-123022000D02*
X172557000Y-123022000D01*
X170597000Y-123022000D02*
X169052000Y-123022000D01*
X174096000Y-123062000D02*
X172557000Y-123062000D01*
X170597000Y-123062000D02*
X169058000Y-123062000D01*
X174090000Y-123102000D02*
X172557000Y-123102000D01*
X170597000Y-123102000D02*
X169064000Y-123102000D01*
X174083000Y-123142000D02*
X172557000Y-123142000D01*
X170597000Y-123142000D02*
X169071000Y-123142000D01*
X174075000Y-123182000D02*
X172557000Y-123182000D01*
X170597000Y-123182000D02*
X169079000Y-123182000D01*
X174066000Y-123222000D02*
X172557000Y-123222000D01*
X170597000Y-123222000D02*
X169088000Y-123222000D01*
X174057000Y-123262000D02*
X172557000Y-123262000D01*
X170597000Y-123262000D02*
X169097000Y-123262000D01*
X174047000Y-123302000D02*
X172557000Y-123302000D01*
X170597000Y-123302000D02*
X169107000Y-123302000D01*
X174037000Y-123342000D02*
X172557000Y-123342000D01*
X170597000Y-123342000D02*
X169117000Y-123342000D01*
X174025000Y-123383000D02*
X172557000Y-123383000D01*
X170597000Y-123383000D02*
X169129000Y-123383000D01*
X174013000Y-123423000D02*
X172557000Y-123423000D01*
X170597000Y-123423000D02*
X169141000Y-123423000D01*
X174001000Y-123463000D02*
X172557000Y-123463000D01*
X170597000Y-123463000D02*
X169153000Y-123463000D01*
X173987000Y-123503000D02*
X172557000Y-123503000D01*
X170597000Y-123503000D02*
X169167000Y-123503000D01*
X173973000Y-123543000D02*
X172557000Y-123543000D01*
X170597000Y-123543000D02*
X169181000Y-123543000D01*
X173959000Y-123583000D02*
X172557000Y-123583000D01*
X170597000Y-123583000D02*
X169195000Y-123583000D01*
X173943000Y-123623000D02*
X172557000Y-123623000D01*
X170597000Y-123623000D02*
X169211000Y-123623000D01*
X173927000Y-123663000D02*
X172557000Y-123663000D01*
X170597000Y-123663000D02*
X169227000Y-123663000D01*
X173910000Y-123703000D02*
X172557000Y-123703000D01*
X170597000Y-123703000D02*
X169244000Y-123703000D01*
X173892000Y-123743000D02*
X172557000Y-123743000D01*
X170597000Y-123743000D02*
X169262000Y-123743000D01*
X173873000Y-123783000D02*
X172557000Y-123783000D01*
X170597000Y-123783000D02*
X169281000Y-123783000D01*
X173853000Y-123823000D02*
X172557000Y-123823000D01*
X170597000Y-123823000D02*
X169301000Y-123823000D01*
X173833000Y-123863000D02*
X172557000Y-123863000D01*
X170597000Y-123863000D02*
X169321000Y-123863000D01*
X173811000Y-123903000D02*
X172557000Y-123903000D01*
X170597000Y-123903000D02*
X169343000Y-123903000D01*
X173789000Y-123943000D02*
X172557000Y-123943000D01*
X170597000Y-123943000D02*
X169365000Y-123943000D01*
X173766000Y-123983000D02*
X172557000Y-123983000D01*
X170597000Y-123983000D02*
X169388000Y-123983000D01*
X173742000Y-124023000D02*
X172557000Y-124023000D01*
X170597000Y-124023000D02*
X169412000Y-124023000D01*
X173717000Y-124063000D02*
X172557000Y-124063000D01*
X170597000Y-124063000D02*
X169437000Y-124063000D01*
X173690000Y-124103000D02*
X172557000Y-124103000D01*
X170597000Y-124103000D02*
X169464000Y-124103000D01*
X173663000Y-124143000D02*
X172557000Y-124143000D01*
X170597000Y-124143000D02*
X169491000Y-124143000D01*
X173635000Y-124183000D02*
X172557000Y-124183000D01*
X170597000Y-124183000D02*
X169519000Y-124183000D01*
X173605000Y-124223000D02*
X172557000Y-124223000D01*
X170597000Y-124223000D02*
X169549000Y-124223000D01*
X173574000Y-124263000D02*
X172557000Y-124263000D01*
X170597000Y-124263000D02*
X169580000Y-124263000D01*
X173542000Y-124303000D02*
X172557000Y-124303000D01*
X170597000Y-124303000D02*
X169612000Y-124303000D01*
X173509000Y-124343000D02*
X172557000Y-124343000D01*
X170597000Y-124343000D02*
X169645000Y-124343000D01*
X173474000Y-124383000D02*
X172557000Y-124383000D01*
X170597000Y-124383000D02*
X169680000Y-124383000D01*
X173438000Y-124423000D02*
X172557000Y-124423000D01*
X170597000Y-124423000D02*
X169716000Y-124423000D01*
X173400000Y-124463000D02*
X172557000Y-124463000D01*
X170597000Y-124463000D02*
X169754000Y-124463000D01*
X173360000Y-124503000D02*
X172557000Y-124503000D01*
X170597000Y-124503000D02*
X169794000Y-124503000D01*
X173319000Y-124543000D02*
X172557000Y-124543000D01*
X170597000Y-124543000D02*
X169835000Y-124543000D01*
X173276000Y-124583000D02*
X172557000Y-124583000D01*
X170597000Y-124583000D02*
X169878000Y-124583000D01*
X173231000Y-124623000D02*
X172557000Y-124623000D01*
X170597000Y-124623000D02*
X169923000Y-124623000D01*
X173183000Y-124663000D02*
X172557000Y-124663000D01*
X170597000Y-124663000D02*
X169971000Y-124663000D01*
X173133000Y-124703000D02*
X172557000Y-124703000D01*
X170597000Y-124703000D02*
X170021000Y-124703000D01*
X173081000Y-124743000D02*
X172557000Y-124743000D01*
X170597000Y-124743000D02*
X170073000Y-124743000D01*
X173025000Y-124783000D02*
X172557000Y-124783000D01*
X170597000Y-124783000D02*
X170129000Y-124783000D01*
X172967000Y-124823000D02*
X172557000Y-124823000D01*
X170597000Y-124823000D02*
X170187000Y-124823000D01*
X172904000Y-124863000D02*
X172557000Y-124863000D01*
X170597000Y-124863000D02*
X170250000Y-124863000D01*
X172838000Y-124903000D02*
X170316000Y-124903000D01*
X172766000Y-124943000D02*
X170388000Y-124943000D01*
X172689000Y-124983000D02*
X170465000Y-124983000D01*
X172605000Y-125023000D02*
X170549000Y-125023000D01*
X172511000Y-125063000D02*
X170643000Y-125063000D01*
X172406000Y-125103000D02*
X170748000Y-125103000D01*
X172284000Y-125143000D02*
X170870000Y-125143000D01*
X172136000Y-125183000D02*
X171018000Y-125183000D01*
X171931000Y-125223000D02*
X171223000Y-125223000D01*
X171577000Y-119212000D02*
X171577000Y-120412000D01*
X172227000Y-119812000D02*
X170927000Y-119812000D01*
D12*
X155870800Y-63128000D02*
X155870800Y-63653000D01*
X151570800Y-67428000D02*
X151570800Y-66903000D01*
X155870800Y-67428000D02*
X155870800Y-66903000D01*
X151570800Y-63128000D02*
X152095800Y-63128000D01*
X151570800Y-67428000D02*
X152095800Y-67428000D01*
X155870800Y-67428000D02*
X155345800Y-67428000D01*
X155870800Y-63128000D02*
X155345800Y-63128000D01*
D13*
X149769723Y-124967722D02*
G75*
G03X149770000Y-120356420I-1179723J2305722D01*
G01*
X147410277Y-124967722D02*
G75*
G02X147410000Y-120356420I1179723J2305722D01*
G01*
X147410277Y-124967722D02*
G75*
G03X149770000Y-124967580I1179723J2305722D01*
G01*
X151140000Y-122662000D02*
X146040000Y-122662000D01*
X151140000Y-122702000D02*
X146040000Y-122702000D01*
X151139000Y-122742000D02*
X146041000Y-122742000D01*
X151138000Y-122782000D02*
X146042000Y-122782000D01*
X151136000Y-122822000D02*
X146044000Y-122822000D01*
X151133000Y-122862000D02*
X146047000Y-122862000D01*
X151129000Y-122902000D02*
X146051000Y-122902000D01*
X151125000Y-122942000D02*
X149570000Y-122942000D01*
X147610000Y-122942000D02*
X146055000Y-122942000D01*
X151121000Y-122982000D02*
X149570000Y-122982000D01*
X147610000Y-122982000D02*
X146059000Y-122982000D01*
X151115000Y-123022000D02*
X149570000Y-123022000D01*
X147610000Y-123022000D02*
X146065000Y-123022000D01*
X151109000Y-123062000D02*
X149570000Y-123062000D01*
X147610000Y-123062000D02*
X146071000Y-123062000D01*
X151103000Y-123102000D02*
X149570000Y-123102000D01*
X147610000Y-123102000D02*
X146077000Y-123102000D01*
X151096000Y-123142000D02*
X149570000Y-123142000D01*
X147610000Y-123142000D02*
X146084000Y-123142000D01*
X151088000Y-123182000D02*
X149570000Y-123182000D01*
X147610000Y-123182000D02*
X146092000Y-123182000D01*
X151079000Y-123222000D02*
X149570000Y-123222000D01*
X147610000Y-123222000D02*
X146101000Y-123222000D01*
X151070000Y-123262000D02*
X149570000Y-123262000D01*
X147610000Y-123262000D02*
X146110000Y-123262000D01*
X151060000Y-123302000D02*
X149570000Y-123302000D01*
X147610000Y-123302000D02*
X146120000Y-123302000D01*
X151050000Y-123342000D02*
X149570000Y-123342000D01*
X147610000Y-123342000D02*
X146130000Y-123342000D01*
X151038000Y-123383000D02*
X149570000Y-123383000D01*
X147610000Y-123383000D02*
X146142000Y-123383000D01*
X151026000Y-123423000D02*
X149570000Y-123423000D01*
X147610000Y-123423000D02*
X146154000Y-123423000D01*
X151014000Y-123463000D02*
X149570000Y-123463000D01*
X147610000Y-123463000D02*
X146166000Y-123463000D01*
X151000000Y-123503000D02*
X149570000Y-123503000D01*
X147610000Y-123503000D02*
X146180000Y-123503000D01*
X150986000Y-123543000D02*
X149570000Y-123543000D01*
X147610000Y-123543000D02*
X146194000Y-123543000D01*
X150972000Y-123583000D02*
X149570000Y-123583000D01*
X147610000Y-123583000D02*
X146208000Y-123583000D01*
X150956000Y-123623000D02*
X149570000Y-123623000D01*
X147610000Y-123623000D02*
X146224000Y-123623000D01*
X150940000Y-123663000D02*
X149570000Y-123663000D01*
X147610000Y-123663000D02*
X146240000Y-123663000D01*
X150923000Y-123703000D02*
X149570000Y-123703000D01*
X147610000Y-123703000D02*
X146257000Y-123703000D01*
X150905000Y-123743000D02*
X149570000Y-123743000D01*
X147610000Y-123743000D02*
X146275000Y-123743000D01*
X150886000Y-123783000D02*
X149570000Y-123783000D01*
X147610000Y-123783000D02*
X146294000Y-123783000D01*
X150866000Y-123823000D02*
X149570000Y-123823000D01*
X147610000Y-123823000D02*
X146314000Y-123823000D01*
X150846000Y-123863000D02*
X149570000Y-123863000D01*
X147610000Y-123863000D02*
X146334000Y-123863000D01*
X150824000Y-123903000D02*
X149570000Y-123903000D01*
X147610000Y-123903000D02*
X146356000Y-123903000D01*
X150802000Y-123943000D02*
X149570000Y-123943000D01*
X147610000Y-123943000D02*
X146378000Y-123943000D01*
X150779000Y-123983000D02*
X149570000Y-123983000D01*
X147610000Y-123983000D02*
X146401000Y-123983000D01*
X150755000Y-124023000D02*
X149570000Y-124023000D01*
X147610000Y-124023000D02*
X146425000Y-124023000D01*
X150730000Y-124063000D02*
X149570000Y-124063000D01*
X147610000Y-124063000D02*
X146450000Y-124063000D01*
X150703000Y-124103000D02*
X149570000Y-124103000D01*
X147610000Y-124103000D02*
X146477000Y-124103000D01*
X150676000Y-124143000D02*
X149570000Y-124143000D01*
X147610000Y-124143000D02*
X146504000Y-124143000D01*
X150648000Y-124183000D02*
X149570000Y-124183000D01*
X147610000Y-124183000D02*
X146532000Y-124183000D01*
X150618000Y-124223000D02*
X149570000Y-124223000D01*
X147610000Y-124223000D02*
X146562000Y-124223000D01*
X150587000Y-124263000D02*
X149570000Y-124263000D01*
X147610000Y-124263000D02*
X146593000Y-124263000D01*
X150555000Y-124303000D02*
X149570000Y-124303000D01*
X147610000Y-124303000D02*
X146625000Y-124303000D01*
X150522000Y-124343000D02*
X149570000Y-124343000D01*
X147610000Y-124343000D02*
X146658000Y-124343000D01*
X150487000Y-124383000D02*
X149570000Y-124383000D01*
X147610000Y-124383000D02*
X146693000Y-124383000D01*
X150451000Y-124423000D02*
X149570000Y-124423000D01*
X147610000Y-124423000D02*
X146729000Y-124423000D01*
X150413000Y-124463000D02*
X149570000Y-124463000D01*
X147610000Y-124463000D02*
X146767000Y-124463000D01*
X150373000Y-124503000D02*
X149570000Y-124503000D01*
X147610000Y-124503000D02*
X146807000Y-124503000D01*
X150332000Y-124543000D02*
X149570000Y-124543000D01*
X147610000Y-124543000D02*
X146848000Y-124543000D01*
X150289000Y-124583000D02*
X149570000Y-124583000D01*
X147610000Y-124583000D02*
X146891000Y-124583000D01*
X150244000Y-124623000D02*
X149570000Y-124623000D01*
X147610000Y-124623000D02*
X146936000Y-124623000D01*
X150196000Y-124663000D02*
X149570000Y-124663000D01*
X147610000Y-124663000D02*
X146984000Y-124663000D01*
X150146000Y-124703000D02*
X149570000Y-124703000D01*
X147610000Y-124703000D02*
X147034000Y-124703000D01*
X150094000Y-124743000D02*
X149570000Y-124743000D01*
X147610000Y-124743000D02*
X147086000Y-124743000D01*
X150038000Y-124783000D02*
X149570000Y-124783000D01*
X147610000Y-124783000D02*
X147142000Y-124783000D01*
X149980000Y-124823000D02*
X149570000Y-124823000D01*
X147610000Y-124823000D02*
X147200000Y-124823000D01*
X149917000Y-124863000D02*
X149570000Y-124863000D01*
X147610000Y-124863000D02*
X147263000Y-124863000D01*
X149851000Y-124903000D02*
X147329000Y-124903000D01*
X149779000Y-124943000D02*
X147401000Y-124943000D01*
X149702000Y-124983000D02*
X147478000Y-124983000D01*
X149618000Y-125023000D02*
X147562000Y-125023000D01*
X149524000Y-125063000D02*
X147656000Y-125063000D01*
X149419000Y-125103000D02*
X147761000Y-125103000D01*
X149297000Y-125143000D02*
X147883000Y-125143000D01*
X149149000Y-125183000D02*
X148031000Y-125183000D01*
X148944000Y-125223000D02*
X148236000Y-125223000D01*
X148590000Y-119212000D02*
X148590000Y-120412000D01*
X149240000Y-119812000D02*
X147940000Y-119812000D01*
X173669000Y-65084000D02*
X173669000Y-62424000D01*
X165989000Y-65084000D02*
X173669000Y-65084000D01*
X165989000Y-62424000D02*
X173669000Y-62424000D01*
X165989000Y-65084000D02*
X165989000Y-62424000D01*
X164719000Y-65084000D02*
X163389000Y-65084000D01*
X163389000Y-65084000D02*
X163389000Y-63754000D01*
X186630000Y-88960000D02*
X189290000Y-88960000D01*
X186630000Y-86360000D02*
X186630000Y-88960000D01*
X189290000Y-86360000D02*
X189290000Y-88960000D01*
X186630000Y-86360000D02*
X189290000Y-86360000D01*
X186630000Y-85090000D02*
X186630000Y-83760000D01*
X186630000Y-83760000D02*
X187960000Y-83760000D01*
D12*
X159156400Y-70202245D02*
X158449293Y-70909352D01*
X166474955Y-77520800D02*
X165714815Y-78280940D01*
X159156400Y-84839355D02*
X159916540Y-84079215D01*
X151837845Y-77520800D02*
X152597985Y-76760660D01*
X159156400Y-70202245D02*
X159916540Y-70962385D01*
X151837845Y-77520800D02*
X152597985Y-78280940D01*
X159156400Y-84839355D02*
X158396260Y-84079215D01*
X166474955Y-77520800D02*
X165714815Y-76760660D01*
X158449293Y-70909352D02*
X157724509Y-70184567D01*
D13*
X176470000Y-62424000D02*
X176470000Y-65084000D01*
X181610000Y-62424000D02*
X176470000Y-62424000D01*
X181610000Y-65084000D02*
X176470000Y-65084000D01*
X181610000Y-62424000D02*
X181610000Y-65084000D01*
X182880000Y-62424000D02*
X184210000Y-62424000D01*
X184210000Y-62424000D02*
X184210000Y-63754000D01*
X196713400Y-77704200D02*
X196713400Y-78404200D01*
X195513400Y-78404200D02*
X195513400Y-77704200D01*
X195189400Y-77653400D02*
X195189400Y-78353400D01*
X193989400Y-78353400D02*
X193989400Y-77653400D01*
X193665400Y-77602600D02*
X193665400Y-78302600D01*
X192465400Y-78302600D02*
X192465400Y-77602600D01*
X190617400Y-77602600D02*
X190617400Y-78302600D01*
X189417400Y-78302600D02*
X189417400Y-77602600D01*
X192141400Y-77602600D02*
X192141400Y-78302600D01*
X190941400Y-78302600D02*
X190941400Y-77602600D01*
X159035000Y-64017600D02*
X159735000Y-64017600D01*
X159735000Y-65217600D02*
X159035000Y-65217600D01*
X159735000Y-66995600D02*
X159035000Y-66995600D01*
X159035000Y-65795600D02*
X159735000Y-65795600D01*
X146908000Y-67656000D02*
X146208000Y-67656000D01*
X146208000Y-66456000D02*
X146908000Y-66456000D01*
X159608000Y-63846000D02*
X158908000Y-63846000D01*
X158908000Y-62646000D02*
X159608000Y-62646000D01*
X157388000Y-90774000D02*
X157388000Y-90074000D01*
X158588000Y-90074000D02*
X158588000Y-90774000D01*
X173030400Y-81797600D02*
X173730400Y-81797600D01*
X173730400Y-82997600D02*
X173030400Y-82997600D01*
X175164000Y-93888000D02*
X175864000Y-93888000D01*
X175864000Y-95088000D02*
X175164000Y-95088000D01*
X188162922Y-110021477D02*
G75*
G03X183551620Y-110021200I-2305722J-1179723D01*
G01*
X188162922Y-112380923D02*
G75*
G02X183551620Y-112381200I-2305722J1179723D01*
G01*
X188162922Y-112380923D02*
G75*
G03X188162780Y-110021200I-2305722J1179723D01*
G01*
X185857200Y-108651200D02*
X185857200Y-113751200D01*
X185897200Y-108651200D02*
X185897200Y-113751200D01*
X185937200Y-108652200D02*
X185937200Y-113750200D01*
X185977200Y-108653200D02*
X185977200Y-113749200D01*
X186017200Y-108655200D02*
X186017200Y-113747200D01*
X186057200Y-108658200D02*
X186057200Y-113744200D01*
X186097200Y-108662200D02*
X186097200Y-113740200D01*
X186137200Y-108666200D02*
X186137200Y-110221200D01*
X186137200Y-112181200D02*
X186137200Y-113736200D01*
X186177200Y-108670200D02*
X186177200Y-110221200D01*
X186177200Y-112181200D02*
X186177200Y-113732200D01*
X186217200Y-108676200D02*
X186217200Y-110221200D01*
X186217200Y-112181200D02*
X186217200Y-113726200D01*
X186257200Y-108682200D02*
X186257200Y-110221200D01*
X186257200Y-112181200D02*
X186257200Y-113720200D01*
X186297200Y-108688200D02*
X186297200Y-110221200D01*
X186297200Y-112181200D02*
X186297200Y-113714200D01*
X186337200Y-108695200D02*
X186337200Y-110221200D01*
X186337200Y-112181200D02*
X186337200Y-113707200D01*
X186377200Y-108703200D02*
X186377200Y-110221200D01*
X186377200Y-112181200D02*
X186377200Y-113699200D01*
X186417200Y-108712200D02*
X186417200Y-110221200D01*
X186417200Y-112181200D02*
X186417200Y-113690200D01*
X186457200Y-108721200D02*
X186457200Y-110221200D01*
X186457200Y-112181200D02*
X186457200Y-113681200D01*
X186497200Y-108731200D02*
X186497200Y-110221200D01*
X186497200Y-112181200D02*
X186497200Y-113671200D01*
X186537200Y-108741200D02*
X186537200Y-110221200D01*
X186537200Y-112181200D02*
X186537200Y-113661200D01*
X186578200Y-108753200D02*
X186578200Y-110221200D01*
X186578200Y-112181200D02*
X186578200Y-113649200D01*
X186618200Y-108765200D02*
X186618200Y-110221200D01*
X186618200Y-112181200D02*
X186618200Y-113637200D01*
X186658200Y-108777200D02*
X186658200Y-110221200D01*
X186658200Y-112181200D02*
X186658200Y-113625200D01*
X186698200Y-108791200D02*
X186698200Y-110221200D01*
X186698200Y-112181200D02*
X186698200Y-113611200D01*
X186738200Y-108805200D02*
X186738200Y-110221200D01*
X186738200Y-112181200D02*
X186738200Y-113597200D01*
X186778200Y-108819200D02*
X186778200Y-110221200D01*
X186778200Y-112181200D02*
X186778200Y-113583200D01*
X186818200Y-108835200D02*
X186818200Y-110221200D01*
X186818200Y-112181200D02*
X186818200Y-113567200D01*
X186858200Y-108851200D02*
X186858200Y-110221200D01*
X186858200Y-112181200D02*
X186858200Y-113551200D01*
X186898200Y-108868200D02*
X186898200Y-110221200D01*
X186898200Y-112181200D02*
X186898200Y-113534200D01*
X186938200Y-108886200D02*
X186938200Y-110221200D01*
X186938200Y-112181200D02*
X186938200Y-113516200D01*
X186978200Y-108905200D02*
X186978200Y-110221200D01*
X186978200Y-112181200D02*
X186978200Y-113497200D01*
X187018200Y-108925200D02*
X187018200Y-110221200D01*
X187018200Y-112181200D02*
X187018200Y-113477200D01*
X187058200Y-108945200D02*
X187058200Y-110221200D01*
X187058200Y-112181200D02*
X187058200Y-113457200D01*
X187098200Y-108967200D02*
X187098200Y-110221200D01*
X187098200Y-112181200D02*
X187098200Y-113435200D01*
X187138200Y-108989200D02*
X187138200Y-110221200D01*
X187138200Y-112181200D02*
X187138200Y-113413200D01*
X187178200Y-109012200D02*
X187178200Y-110221200D01*
X187178200Y-112181200D02*
X187178200Y-113390200D01*
X187218200Y-109036200D02*
X187218200Y-110221200D01*
X187218200Y-112181200D02*
X187218200Y-113366200D01*
X187258200Y-109061200D02*
X187258200Y-110221200D01*
X187258200Y-112181200D02*
X187258200Y-113341200D01*
X187298200Y-109088200D02*
X187298200Y-110221200D01*
X187298200Y-112181200D02*
X187298200Y-113314200D01*
X187338200Y-109115200D02*
X187338200Y-110221200D01*
X187338200Y-112181200D02*
X187338200Y-113287200D01*
X187378200Y-109143200D02*
X187378200Y-110221200D01*
X187378200Y-112181200D02*
X187378200Y-113259200D01*
X187418200Y-109173200D02*
X187418200Y-110221200D01*
X187418200Y-112181200D02*
X187418200Y-113229200D01*
X187458200Y-109204200D02*
X187458200Y-110221200D01*
X187458200Y-112181200D02*
X187458200Y-113198200D01*
X187498200Y-109236200D02*
X187498200Y-110221200D01*
X187498200Y-112181200D02*
X187498200Y-113166200D01*
X187538200Y-109269200D02*
X187538200Y-110221200D01*
X187538200Y-112181200D02*
X187538200Y-113133200D01*
X187578200Y-109304200D02*
X187578200Y-110221200D01*
X187578200Y-112181200D02*
X187578200Y-113098200D01*
X187618200Y-109340200D02*
X187618200Y-110221200D01*
X187618200Y-112181200D02*
X187618200Y-113062200D01*
X187658200Y-109378200D02*
X187658200Y-110221200D01*
X187658200Y-112181200D02*
X187658200Y-113024200D01*
X187698200Y-109418200D02*
X187698200Y-110221200D01*
X187698200Y-112181200D02*
X187698200Y-112984200D01*
X187738200Y-109459200D02*
X187738200Y-110221200D01*
X187738200Y-112181200D02*
X187738200Y-112943200D01*
X187778200Y-109502200D02*
X187778200Y-110221200D01*
X187778200Y-112181200D02*
X187778200Y-112900200D01*
X187818200Y-109547200D02*
X187818200Y-110221200D01*
X187818200Y-112181200D02*
X187818200Y-112855200D01*
X187858200Y-109595200D02*
X187858200Y-110221200D01*
X187858200Y-112181200D02*
X187858200Y-112807200D01*
X187898200Y-109645200D02*
X187898200Y-110221200D01*
X187898200Y-112181200D02*
X187898200Y-112757200D01*
X187938200Y-109697200D02*
X187938200Y-110221200D01*
X187938200Y-112181200D02*
X187938200Y-112705200D01*
X187978200Y-109753200D02*
X187978200Y-110221200D01*
X187978200Y-112181200D02*
X187978200Y-112649200D01*
X188018200Y-109811200D02*
X188018200Y-110221200D01*
X188018200Y-112181200D02*
X188018200Y-112591200D01*
X188058200Y-109874200D02*
X188058200Y-110221200D01*
X188058200Y-112181200D02*
X188058200Y-112528200D01*
X188098200Y-109940200D02*
X188098200Y-112462200D01*
X188138200Y-110012200D02*
X188138200Y-112390200D01*
X188178200Y-110089200D02*
X188178200Y-112313200D01*
X188218200Y-110173200D02*
X188218200Y-112229200D01*
X188258200Y-110267200D02*
X188258200Y-112135200D01*
X188298200Y-110372200D02*
X188298200Y-112030200D01*
X188338200Y-110494200D02*
X188338200Y-111908200D01*
X188378200Y-110642200D02*
X188378200Y-111760200D01*
X188418200Y-110847200D02*
X188418200Y-111555200D01*
X182407200Y-111201200D02*
X183607200Y-111201200D01*
X183007200Y-110551200D02*
X183007200Y-111851200D01*
X170524277Y-125984278D02*
G75*
G03X170524000Y-130595580I1179723J-2305722D01*
G01*
X172883723Y-125984278D02*
G75*
G02X172884000Y-130595580I-1179723J-2305722D01*
G01*
X172883723Y-125984278D02*
G75*
G03X170524000Y-125984420I-1179723J-2305722D01*
G01*
X169154000Y-128290000D02*
X174254000Y-128290000D01*
X169154000Y-128250000D02*
X174254000Y-128250000D01*
X169155000Y-128210000D02*
X174253000Y-128210000D01*
X169156000Y-128170000D02*
X174252000Y-128170000D01*
X169158000Y-128130000D02*
X174250000Y-128130000D01*
X169161000Y-128090000D02*
X174247000Y-128090000D01*
X169165000Y-128050000D02*
X174243000Y-128050000D01*
X169169000Y-128010000D02*
X170724000Y-128010000D01*
X172684000Y-128010000D02*
X174239000Y-128010000D01*
X169173000Y-127970000D02*
X170724000Y-127970000D01*
X172684000Y-127970000D02*
X174235000Y-127970000D01*
X169179000Y-127930000D02*
X170724000Y-127930000D01*
X172684000Y-127930000D02*
X174229000Y-127930000D01*
X169185000Y-127890000D02*
X170724000Y-127890000D01*
X172684000Y-127890000D02*
X174223000Y-127890000D01*
X169191000Y-127850000D02*
X170724000Y-127850000D01*
X172684000Y-127850000D02*
X174217000Y-127850000D01*
X169198000Y-127810000D02*
X170724000Y-127810000D01*
X172684000Y-127810000D02*
X174210000Y-127810000D01*
X169206000Y-127770000D02*
X170724000Y-127770000D01*
X172684000Y-127770000D02*
X174202000Y-127770000D01*
X169215000Y-127730000D02*
X170724000Y-127730000D01*
X172684000Y-127730000D02*
X174193000Y-127730000D01*
X169224000Y-127690000D02*
X170724000Y-127690000D01*
X172684000Y-127690000D02*
X174184000Y-127690000D01*
X169234000Y-127650000D02*
X170724000Y-127650000D01*
X172684000Y-127650000D02*
X174174000Y-127650000D01*
X169244000Y-127610000D02*
X170724000Y-127610000D01*
X172684000Y-127610000D02*
X174164000Y-127610000D01*
X169256000Y-127569000D02*
X170724000Y-127569000D01*
X172684000Y-127569000D02*
X174152000Y-127569000D01*
X169268000Y-127529000D02*
X170724000Y-127529000D01*
X172684000Y-127529000D02*
X174140000Y-127529000D01*
X169280000Y-127489000D02*
X170724000Y-127489000D01*
X172684000Y-127489000D02*
X174128000Y-127489000D01*
X169294000Y-127449000D02*
X170724000Y-127449000D01*
X172684000Y-127449000D02*
X174114000Y-127449000D01*
X169308000Y-127409000D02*
X170724000Y-127409000D01*
X172684000Y-127409000D02*
X174100000Y-127409000D01*
X169322000Y-127369000D02*
X170724000Y-127369000D01*
X172684000Y-127369000D02*
X174086000Y-127369000D01*
X169338000Y-127329000D02*
X170724000Y-127329000D01*
X172684000Y-127329000D02*
X174070000Y-127329000D01*
X169354000Y-127289000D02*
X170724000Y-127289000D01*
X172684000Y-127289000D02*
X174054000Y-127289000D01*
X169371000Y-127249000D02*
X170724000Y-127249000D01*
X172684000Y-127249000D02*
X174037000Y-127249000D01*
X169389000Y-127209000D02*
X170724000Y-127209000D01*
X172684000Y-127209000D02*
X174019000Y-127209000D01*
X169408000Y-127169000D02*
X170724000Y-127169000D01*
X172684000Y-127169000D02*
X174000000Y-127169000D01*
X169428000Y-127129000D02*
X170724000Y-127129000D01*
X172684000Y-127129000D02*
X173980000Y-127129000D01*
X169448000Y-127089000D02*
X170724000Y-127089000D01*
X172684000Y-127089000D02*
X173960000Y-127089000D01*
X169470000Y-127049000D02*
X170724000Y-127049000D01*
X172684000Y-127049000D02*
X173938000Y-127049000D01*
X169492000Y-127009000D02*
X170724000Y-127009000D01*
X172684000Y-127009000D02*
X173916000Y-127009000D01*
X169515000Y-126969000D02*
X170724000Y-126969000D01*
X172684000Y-126969000D02*
X173893000Y-126969000D01*
X169539000Y-126929000D02*
X170724000Y-126929000D01*
X172684000Y-126929000D02*
X173869000Y-126929000D01*
X169564000Y-126889000D02*
X170724000Y-126889000D01*
X172684000Y-126889000D02*
X173844000Y-126889000D01*
X169591000Y-126849000D02*
X170724000Y-126849000D01*
X172684000Y-126849000D02*
X173817000Y-126849000D01*
X169618000Y-126809000D02*
X170724000Y-126809000D01*
X172684000Y-126809000D02*
X173790000Y-126809000D01*
X169646000Y-126769000D02*
X170724000Y-126769000D01*
X172684000Y-126769000D02*
X173762000Y-126769000D01*
X169676000Y-126729000D02*
X170724000Y-126729000D01*
X172684000Y-126729000D02*
X173732000Y-126729000D01*
X169707000Y-126689000D02*
X170724000Y-126689000D01*
X172684000Y-126689000D02*
X173701000Y-126689000D01*
X169739000Y-126649000D02*
X170724000Y-126649000D01*
X172684000Y-126649000D02*
X173669000Y-126649000D01*
X169772000Y-126609000D02*
X170724000Y-126609000D01*
X172684000Y-126609000D02*
X173636000Y-126609000D01*
X169807000Y-126569000D02*
X170724000Y-126569000D01*
X172684000Y-126569000D02*
X173601000Y-126569000D01*
X169843000Y-126529000D02*
X170724000Y-126529000D01*
X172684000Y-126529000D02*
X173565000Y-126529000D01*
X169881000Y-126489000D02*
X170724000Y-126489000D01*
X172684000Y-126489000D02*
X173527000Y-126489000D01*
X169921000Y-126449000D02*
X170724000Y-126449000D01*
X172684000Y-126449000D02*
X173487000Y-126449000D01*
X169962000Y-126409000D02*
X170724000Y-126409000D01*
X172684000Y-126409000D02*
X173446000Y-126409000D01*
X170005000Y-126369000D02*
X170724000Y-126369000D01*
X172684000Y-126369000D02*
X173403000Y-126369000D01*
X170050000Y-126329000D02*
X170724000Y-126329000D01*
X172684000Y-126329000D02*
X173358000Y-126329000D01*
X170098000Y-126289000D02*
X170724000Y-126289000D01*
X172684000Y-126289000D02*
X173310000Y-126289000D01*
X170148000Y-126249000D02*
X170724000Y-126249000D01*
X172684000Y-126249000D02*
X173260000Y-126249000D01*
X170200000Y-126209000D02*
X170724000Y-126209000D01*
X172684000Y-126209000D02*
X173208000Y-126209000D01*
X170256000Y-126169000D02*
X170724000Y-126169000D01*
X172684000Y-126169000D02*
X173152000Y-126169000D01*
X170314000Y-126129000D02*
X170724000Y-126129000D01*
X172684000Y-126129000D02*
X173094000Y-126129000D01*
X170377000Y-126089000D02*
X170724000Y-126089000D01*
X172684000Y-126089000D02*
X173031000Y-126089000D01*
X170443000Y-126049000D02*
X172965000Y-126049000D01*
X170515000Y-126009000D02*
X172893000Y-126009000D01*
X170592000Y-125969000D02*
X172816000Y-125969000D01*
X170676000Y-125929000D02*
X172732000Y-125929000D01*
X170770000Y-125889000D02*
X172638000Y-125889000D01*
X170875000Y-125849000D02*
X172533000Y-125849000D01*
X170997000Y-125809000D02*
X172411000Y-125809000D01*
X171145000Y-125769000D02*
X172263000Y-125769000D01*
X171350000Y-125729000D02*
X172058000Y-125729000D01*
X171704000Y-131740000D02*
X171704000Y-130540000D01*
X171054000Y-131140000D02*
X172354000Y-131140000D01*
X195041000Y-86325000D02*
X194341000Y-86325000D01*
X194341000Y-85125000D02*
X195041000Y-85125000D01*
X160874000Y-128174000D02*
X160874000Y-128874000D01*
X159674000Y-128874000D02*
X159674000Y-128174000D01*
X178724000Y-81782400D02*
X178724000Y-81082400D01*
X179924000Y-81082400D02*
X179924000Y-81782400D01*
X147162000Y-70958000D02*
X146462000Y-70958000D01*
X146462000Y-69758000D02*
X147162000Y-69758000D01*
X147035000Y-76292000D02*
X146335000Y-76292000D01*
X146335000Y-75092000D02*
X147035000Y-75092000D01*
X175164000Y-92110000D02*
X175864000Y-92110000D01*
X175864000Y-93310000D02*
X175164000Y-93310000D01*
X147162000Y-69307000D02*
X146462000Y-69307000D01*
X146462000Y-68107000D02*
X147162000Y-68107000D01*
X149317200Y-72252400D02*
X151317200Y-72252400D01*
X151317200Y-72252400D02*
X151317200Y-68352400D01*
X149317200Y-72252400D02*
X149317200Y-68352400D01*
X188478600Y-122850400D02*
X188478600Y-124850400D01*
X188478600Y-124850400D02*
X192378600Y-124850400D01*
X188478600Y-122850400D02*
X192378600Y-122850400D01*
X178825200Y-112563600D02*
X176165200Y-112563600D01*
X178825200Y-117703600D02*
X178825200Y-112563600D01*
X176165200Y-117703600D02*
X176165200Y-112563600D01*
X178825200Y-117703600D02*
X176165200Y-117703600D01*
X178825200Y-118973600D02*
X178825200Y-120303600D01*
X178825200Y-120303600D02*
X177495200Y-120303600D01*
X182406000Y-127230000D02*
G75*
G03X182406000Y-127230000I-3590000J0D01*
G01*
X147159600Y-64789600D02*
X146159600Y-64789600D01*
X146159600Y-63429600D02*
X147159600Y-63429600D01*
X147058000Y-66212000D02*
X146058000Y-66212000D01*
X146058000Y-64852000D02*
X147058000Y-64852000D01*
X139809600Y-96805200D02*
X140809600Y-96805200D01*
X140809600Y-98165200D02*
X139809600Y-98165200D01*
X189847600Y-120376400D02*
X190847600Y-120376400D01*
X190847600Y-121736400D02*
X189847600Y-121736400D01*
X190847600Y-119958400D02*
X189847600Y-119958400D01*
X189847600Y-118598400D02*
X190847600Y-118598400D01*
X171010960Y-97237000D02*
X172010960Y-97237000D01*
X172010960Y-98597000D02*
X171010960Y-98597000D01*
X157144000Y-89924000D02*
X157144000Y-90924000D01*
X155784000Y-90924000D02*
X155784000Y-89924000D01*
X165346000Y-128696000D02*
X164346000Y-128696000D01*
X164346000Y-127336000D02*
X165346000Y-127336000D01*
X164346000Y-128860000D02*
X165346000Y-128860000D01*
X165346000Y-130220000D02*
X164346000Y-130220000D01*
X160520000Y-122854000D02*
X159520000Y-122854000D01*
X159520000Y-121494000D02*
X160520000Y-121494000D01*
X171026200Y-98954040D02*
X172026200Y-98954040D01*
X172026200Y-100314040D02*
X171026200Y-100314040D01*
X150843700Y-90949400D02*
X150843700Y-89949400D01*
X152203700Y-89949400D02*
X152203700Y-90949400D01*
X149090000Y-118282000D02*
X148090000Y-118282000D01*
X148090000Y-116922000D02*
X149090000Y-116922000D01*
X175268000Y-97110000D02*
X176268000Y-97110000D01*
X176268000Y-98470000D02*
X175268000Y-98470000D01*
X192690200Y-65600200D02*
X192690200Y-64600200D01*
X194050200Y-64600200D02*
X194050200Y-65600200D01*
X184017200Y-86012400D02*
X184017200Y-87012400D01*
X182657200Y-87012400D02*
X182657200Y-86012400D01*
X154260000Y-90924000D02*
X154260000Y-89924000D01*
X155620000Y-89924000D02*
X155620000Y-90924000D01*
X152494700Y-90949400D02*
X152494700Y-89949400D01*
X153854700Y-89949400D02*
X153854700Y-90949400D01*
X194315800Y-65600200D02*
X194315800Y-64600200D01*
X195675800Y-64600200D02*
X195675800Y-65600200D01*
X175268000Y-105238000D02*
X176268000Y-105238000D01*
X176268000Y-106598000D02*
X175268000Y-106598000D01*
X139606400Y-103053600D02*
X140606400Y-103053600D01*
X140606400Y-104413600D02*
X139606400Y-104413600D01*
D12*
X175260000Y-77978000D02*
G75*
G03X173736000Y-76454000I-1524000J0D01*
G01*
X173736000Y-66294000D02*
X173736000Y-77978000D01*
X173736000Y-77978000D02*
X185928000Y-77978000D01*
X185928000Y-77978000D02*
X185928000Y-66294000D01*
X185928000Y-66294000D02*
X173736000Y-66294000D01*
X175471000Y-84293000D02*
X175471000Y-84343000D01*
X179621000Y-84293000D02*
X179621000Y-84438000D01*
X179621000Y-89443000D02*
X179621000Y-89298000D01*
X175471000Y-89443000D02*
X175471000Y-89298000D01*
X175471000Y-84293000D02*
X179621000Y-84293000D01*
X175471000Y-89443000D02*
X179621000Y-89443000D01*
X175471000Y-84343000D02*
X174071000Y-84343000D01*
D13*
X143023200Y-67672800D02*
X143023200Y-72372800D01*
X139323200Y-67672800D02*
X139323200Y-72372800D01*
X139323200Y-67672800D02*
G75*
G02X143023200Y-67672800I1850000J0D01*
G01*
X139323200Y-72372800D02*
G75*
G03X143023200Y-72372800I1850000J0D01*
G01*
X147162000Y-72482000D02*
X146462000Y-72482000D01*
X146462000Y-71282000D02*
X147162000Y-71282000D01*
X147035000Y-78070000D02*
X146335000Y-78070000D01*
X146335000Y-76870000D02*
X147035000Y-76870000D01*
X146335000Y-78394000D02*
X147035000Y-78394000D01*
X147035000Y-79594000D02*
X146335000Y-79594000D01*
X173679600Y-81473600D02*
X172979600Y-81473600D01*
X172979600Y-80273600D02*
X173679600Y-80273600D01*
D10*
X156718000Y-115697000D02*
X156718000Y-116776500D01*
X157861000Y-115697000D02*
X157861000Y-116776500D01*
X156718000Y-115697000D02*
X157861000Y-115697000D01*
X157861000Y-116776500D02*
X156718000Y-116776500D01*
D12*
X172720000Y-110236000D02*
X172720000Y-114554000D01*
X172720000Y-114554000D02*
X169418000Y-114554000D01*
X169418000Y-114554000D02*
X169418000Y-110109000D01*
X169418000Y-110109000D02*
X172720000Y-110109000D01*
X172720000Y-110109000D02*
X172720000Y-110363000D01*
X172720000Y-110363000D02*
X172720000Y-110490000D01*
X164007800Y-88925400D02*
X164007800Y-93243400D01*
X164007800Y-93243400D02*
X160705800Y-93243400D01*
X160705800Y-93243400D02*
X160705800Y-88798400D01*
X160705800Y-88798400D02*
X164007800Y-88798400D01*
X164007800Y-88798400D02*
X164007800Y-89052400D01*
X164007800Y-89052400D02*
X164007800Y-89179400D01*
X140716000Y-92329000D02*
X140716000Y-88011000D01*
X140716000Y-88011000D02*
X144018000Y-88011000D01*
X144018000Y-88011000D02*
X144018000Y-92456000D01*
X144018000Y-92456000D02*
X140716000Y-92456000D01*
X140716000Y-92456000D02*
X140716000Y-92202000D01*
X140716000Y-92202000D02*
X140716000Y-92075000D01*
X166923471Y-104684735D02*
X167732995Y-104684735D01*
X167828233Y-104637116D01*
X167875852Y-104589497D01*
X167923471Y-104494259D01*
X167923471Y-104303782D01*
X167875852Y-104208544D01*
X167828233Y-104160925D01*
X167732995Y-104113306D01*
X166923471Y-104113306D01*
X166923471Y-103732354D02*
X166923471Y-103065687D01*
X167923471Y-103494259D01*
X162387114Y-124632981D02*
X162387114Y-123632981D01*
X162625209Y-123632981D01*
X162768067Y-123680600D01*
X162863305Y-123775838D01*
X162910924Y-123871076D01*
X162958543Y-124061552D01*
X162958543Y-124204410D01*
X162910924Y-124394886D01*
X162863305Y-124490124D01*
X162768067Y-124585362D01*
X162625209Y-124632981D01*
X162387114Y-124632981D01*
X163910924Y-124632981D02*
X163339495Y-124632981D01*
X163625209Y-124632981D02*
X163625209Y-123632981D01*
X163529971Y-123775838D01*
X163434733Y-123871076D01*
X163339495Y-123918695D01*
X164863305Y-124632981D02*
X164291876Y-124632981D01*
X164577590Y-124632981D02*
X164577590Y-123632981D01*
X164482352Y-123775838D01*
X164387114Y-123871076D01*
X164291876Y-123918695D01*
X143819714Y-116301781D02*
X143819714Y-115301781D01*
X144057809Y-115301781D01*
X144200667Y-115349400D01*
X144295905Y-115444638D01*
X144343524Y-115539876D01*
X144391143Y-115730352D01*
X144391143Y-115873210D01*
X144343524Y-116063686D01*
X144295905Y-116158924D01*
X144200667Y-116254162D01*
X144057809Y-116301781D01*
X143819714Y-116301781D01*
X145343524Y-116301781D02*
X144772095Y-116301781D01*
X145057809Y-116301781D02*
X145057809Y-115301781D01*
X144962571Y-115444638D01*
X144867333Y-115539876D01*
X144772095Y-115587495D01*
X145676857Y-115301781D02*
X146295905Y-115301781D01*
X145962571Y-115682733D01*
X146105429Y-115682733D01*
X146200667Y-115730352D01*
X146248286Y-115777971D01*
X146295905Y-115873210D01*
X146295905Y-116111305D01*
X146248286Y-116206543D01*
X146200667Y-116254162D01*
X146105429Y-116301781D01*
X145819714Y-116301781D01*
X145724476Y-116254162D01*
X145676857Y-116206543D01*
X142365505Y-96159581D02*
X142365505Y-95159581D01*
X142603600Y-95159581D01*
X142746458Y-95207200D01*
X142841696Y-95302438D01*
X142889315Y-95397676D01*
X142936934Y-95588152D01*
X142936934Y-95731010D01*
X142889315Y-95921486D01*
X142841696Y-96016724D01*
X142746458Y-96111962D01*
X142603600Y-96159581D01*
X142365505Y-96159581D01*
X143317886Y-95254819D02*
X143365505Y-95207200D01*
X143460743Y-95159581D01*
X143698839Y-95159581D01*
X143794077Y-95207200D01*
X143841696Y-95254819D01*
X143889315Y-95350057D01*
X143889315Y-95445295D01*
X143841696Y-95588152D01*
X143270267Y-96159581D01*
X143889315Y-96159581D01*
X181784667Y-98606361D02*
X181784667Y-99320647D01*
X181737047Y-99463504D01*
X181641809Y-99558742D01*
X181498952Y-99606361D01*
X181403714Y-99606361D01*
X182784667Y-99606361D02*
X182213238Y-99606361D01*
X182498952Y-99606361D02*
X182498952Y-98606361D01*
X182403714Y-98749218D01*
X182308476Y-98844456D01*
X182213238Y-98892075D01*
X163961914Y-85085181D02*
X163961914Y-84085181D01*
X164200009Y-84085181D01*
X164342867Y-84132800D01*
X164438105Y-84228038D01*
X164485724Y-84323276D01*
X164533343Y-84513752D01*
X164533343Y-84656610D01*
X164485724Y-84847086D01*
X164438105Y-84942324D01*
X164342867Y-85037562D01*
X164200009Y-85085181D01*
X163961914Y-85085181D01*
X165485724Y-85085181D02*
X164914295Y-85085181D01*
X165200009Y-85085181D02*
X165200009Y-84085181D01*
X165104771Y-84228038D01*
X165009533Y-84323276D01*
X164914295Y-84370895D01*
X165866676Y-84180419D02*
X165914295Y-84132800D01*
X166009533Y-84085181D01*
X166247629Y-84085181D01*
X166342867Y-84132800D01*
X166390486Y-84180419D01*
X166438105Y-84275657D01*
X166438105Y-84370895D01*
X166390486Y-84513752D01*
X165819057Y-85085181D01*
X166438105Y-85085181D01*
X164088914Y-88514181D02*
X164088914Y-87514181D01*
X164327009Y-87514181D01*
X164469867Y-87561800D01*
X164565105Y-87657038D01*
X164612724Y-87752276D01*
X164660343Y-87942752D01*
X164660343Y-88085610D01*
X164612724Y-88276086D01*
X164565105Y-88371324D01*
X164469867Y-88466562D01*
X164327009Y-88514181D01*
X164088914Y-88514181D01*
X165612724Y-88514181D02*
X165041295Y-88514181D01*
X165327009Y-88514181D02*
X165327009Y-87514181D01*
X165231771Y-87657038D01*
X165136533Y-87752276D01*
X165041295Y-87799895D01*
X166469867Y-87847514D02*
X166469867Y-88514181D01*
X166231771Y-87466562D02*
X165993676Y-88180848D01*
X166612724Y-88180848D01*
X164139714Y-86761581D02*
X164139714Y-85761581D01*
X164377809Y-85761581D01*
X164520667Y-85809200D01*
X164615905Y-85904438D01*
X164663524Y-85999676D01*
X164711143Y-86190152D01*
X164711143Y-86333010D01*
X164663524Y-86523486D01*
X164615905Y-86618724D01*
X164520667Y-86713962D01*
X164377809Y-86761581D01*
X164139714Y-86761581D01*
X165663524Y-86761581D02*
X165092095Y-86761581D01*
X165377809Y-86761581D02*
X165377809Y-85761581D01*
X165282571Y-85904438D01*
X165187333Y-85999676D01*
X165092095Y-86047295D01*
X166568286Y-85761581D02*
X166092095Y-85761581D01*
X166044476Y-86237771D01*
X166092095Y-86190152D01*
X166187333Y-86142533D01*
X166425429Y-86142533D01*
X166520667Y-86190152D01*
X166568286Y-86237771D01*
X166615905Y-86333010D01*
X166615905Y-86571105D01*
X166568286Y-86666343D01*
X166520667Y-86713962D01*
X166425429Y-86761581D01*
X166187333Y-86761581D01*
X166092095Y-86713962D01*
X166044476Y-86666343D01*
X178135114Y-100248981D02*
X178135114Y-99248981D01*
X178373209Y-99248981D01*
X178516067Y-99296600D01*
X178611305Y-99391838D01*
X178658924Y-99487076D01*
X178706543Y-99677552D01*
X178706543Y-99820410D01*
X178658924Y-100010886D01*
X178611305Y-100106124D01*
X178516067Y-100201362D01*
X178373209Y-100248981D01*
X178135114Y-100248981D01*
X179658924Y-100248981D02*
X179087495Y-100248981D01*
X179373209Y-100248981D02*
X179373209Y-99248981D01*
X179277971Y-99391838D01*
X179182733Y-99487076D01*
X179087495Y-99534695D01*
X180516067Y-99248981D02*
X180325590Y-99248981D01*
X180230352Y-99296600D01*
X180182733Y-99344219D01*
X180087495Y-99487076D01*
X180039876Y-99677552D01*
X180039876Y-100058505D01*
X180087495Y-100153743D01*
X180135114Y-100201362D01*
X180230352Y-100248981D01*
X180420829Y-100248981D01*
X180516067Y-100201362D01*
X180563686Y-100153743D01*
X180611305Y-100058505D01*
X180611305Y-99820410D01*
X180563686Y-99725171D01*
X180516067Y-99677552D01*
X180420829Y-99629933D01*
X180230352Y-99629933D01*
X180135114Y-99677552D01*
X180087495Y-99725171D01*
X180039876Y-99820410D01*
X178542962Y-103620819D02*
X178447724Y-103573200D01*
X178352486Y-103477962D01*
X178209629Y-103335105D01*
X178114390Y-103287486D01*
X178019152Y-103287486D01*
X178066771Y-103525581D02*
X177971533Y-103477962D01*
X177876295Y-103382724D01*
X177828676Y-103192248D01*
X177828676Y-102858914D01*
X177876295Y-102668438D01*
X177971533Y-102573200D01*
X178066771Y-102525581D01*
X178257248Y-102525581D01*
X178352486Y-102573200D01*
X178447724Y-102668438D01*
X178495343Y-102858914D01*
X178495343Y-103192248D01*
X178447724Y-103382724D01*
X178352486Y-103477962D01*
X178257248Y-103525581D01*
X178066771Y-103525581D01*
X178828676Y-102525581D02*
X179447724Y-102525581D01*
X179114390Y-102906533D01*
X179257248Y-102906533D01*
X179352486Y-102954152D01*
X179400105Y-103001771D01*
X179447724Y-103097010D01*
X179447724Y-103335105D01*
X179400105Y-103430343D01*
X179352486Y-103477962D01*
X179257248Y-103525581D01*
X178971533Y-103525581D01*
X178876295Y-103477962D01*
X178828676Y-103430343D01*
X143293079Y-101395518D02*
X143245460Y-101490756D01*
X143150222Y-101585994D01*
X143007365Y-101728851D01*
X142959746Y-101824090D01*
X142959746Y-101919328D01*
X143197841Y-101871709D02*
X143150222Y-101966947D01*
X143054984Y-102062185D01*
X142864508Y-102109804D01*
X142531174Y-102109804D01*
X142340698Y-102062185D01*
X142245460Y-101966947D01*
X142197841Y-101871709D01*
X142197841Y-101681232D01*
X142245460Y-101585994D01*
X142340698Y-101490756D01*
X142531174Y-101443137D01*
X142864508Y-101443137D01*
X143054984Y-101490756D01*
X143150222Y-101585994D01*
X143197841Y-101681232D01*
X143197841Y-101871709D01*
X142531174Y-100585994D02*
X143197841Y-100585994D01*
X142150222Y-100824090D02*
X142864508Y-101062185D01*
X142864508Y-100443137D01*
X153255743Y-124613943D02*
X153208124Y-124661562D01*
X153065267Y-124709181D01*
X152970029Y-124709181D01*
X152827171Y-124661562D01*
X152731933Y-124566324D01*
X152684314Y-124471086D01*
X152636695Y-124280610D01*
X152636695Y-124137752D01*
X152684314Y-123947276D01*
X152731933Y-123852038D01*
X152827171Y-123756800D01*
X152970029Y-123709181D01*
X153065267Y-123709181D01*
X153208124Y-123756800D01*
X153255743Y-123804419D01*
X153636695Y-123804419D02*
X153684314Y-123756800D01*
X153779552Y-123709181D01*
X154017648Y-123709181D01*
X154112886Y-123756800D01*
X154160505Y-123804419D01*
X154208124Y-123899657D01*
X154208124Y-123994895D01*
X154160505Y-124137752D01*
X153589076Y-124709181D01*
X154208124Y-124709181D01*
X154541457Y-123709181D02*
X155160505Y-123709181D01*
X154827171Y-124090133D01*
X154970029Y-124090133D01*
X155065267Y-124137752D01*
X155112886Y-124185371D01*
X155160505Y-124280610D01*
X155160505Y-124518705D01*
X155112886Y-124613943D01*
X155065267Y-124661562D01*
X154970029Y-124709181D01*
X154684314Y-124709181D01*
X154589076Y-124661562D01*
X154541457Y-124613943D01*
X167692343Y-122969257D02*
X167739962Y-123016876D01*
X167787581Y-123159733D01*
X167787581Y-123254971D01*
X167739962Y-123397829D01*
X167644724Y-123493067D01*
X167549486Y-123540686D01*
X167359010Y-123588305D01*
X167216152Y-123588305D01*
X167025676Y-123540686D01*
X166930438Y-123493067D01*
X166835200Y-123397829D01*
X166787581Y-123254971D01*
X166787581Y-123159733D01*
X166835200Y-123016876D01*
X166882819Y-122969257D01*
X167787581Y-122016876D02*
X167787581Y-122588305D01*
X167787581Y-122302591D02*
X166787581Y-122302591D01*
X166930438Y-122397829D01*
X167025676Y-122493067D01*
X167073295Y-122588305D01*
X166882819Y-121635924D02*
X166835200Y-121588305D01*
X166787581Y-121493067D01*
X166787581Y-121254971D01*
X166835200Y-121159733D01*
X166882819Y-121112114D01*
X166978057Y-121064495D01*
X167073295Y-121064495D01*
X167216152Y-121112114D01*
X167787581Y-121683543D01*
X167787581Y-121064495D01*
X154584495Y-68768981D02*
X154584495Y-69578505D01*
X154632114Y-69673743D01*
X154679733Y-69721362D01*
X154774971Y-69768981D01*
X154965448Y-69768981D01*
X155060686Y-69721362D01*
X155108305Y-69673743D01*
X155155924Y-69578505D01*
X155155924Y-68768981D01*
X155584495Y-68864219D02*
X155632114Y-68816600D01*
X155727352Y-68768981D01*
X155965448Y-68768981D01*
X156060686Y-68816600D01*
X156108305Y-68864219D01*
X156155924Y-68959457D01*
X156155924Y-69054695D01*
X156108305Y-69197552D01*
X155536876Y-69768981D01*
X156155924Y-69768981D01*
X147439143Y-127255543D02*
X147391524Y-127303162D01*
X147248667Y-127350781D01*
X147153429Y-127350781D01*
X147010571Y-127303162D01*
X146915333Y-127207924D01*
X146867714Y-127112686D01*
X146820095Y-126922210D01*
X146820095Y-126779352D01*
X146867714Y-126588876D01*
X146915333Y-126493638D01*
X147010571Y-126398400D01*
X147153429Y-126350781D01*
X147248667Y-126350781D01*
X147391524Y-126398400D01*
X147439143Y-126446019D01*
X147820095Y-126446019D02*
X147867714Y-126398400D01*
X147962952Y-126350781D01*
X148201048Y-126350781D01*
X148296286Y-126398400D01*
X148343905Y-126446019D01*
X148391524Y-126541257D01*
X148391524Y-126636495D01*
X148343905Y-126779352D01*
X147772476Y-127350781D01*
X148391524Y-127350781D01*
X148962952Y-126779352D02*
X148867714Y-126731733D01*
X148820095Y-126684114D01*
X148772476Y-126588876D01*
X148772476Y-126541257D01*
X148820095Y-126446019D01*
X148867714Y-126398400D01*
X148962952Y-126350781D01*
X149153429Y-126350781D01*
X149248667Y-126398400D01*
X149296286Y-126446019D01*
X149343905Y-126541257D01*
X149343905Y-126588876D01*
X149296286Y-126684114D01*
X149248667Y-126731733D01*
X149153429Y-126779352D01*
X148962952Y-126779352D01*
X148867714Y-126826971D01*
X148820095Y-126874590D01*
X148772476Y-126969829D01*
X148772476Y-127160305D01*
X148820095Y-127255543D01*
X148867714Y-127303162D01*
X148962952Y-127350781D01*
X149153429Y-127350781D01*
X149248667Y-127303162D01*
X149296286Y-127255543D01*
X149343905Y-127160305D01*
X149343905Y-126969829D01*
X149296286Y-126874590D01*
X149248667Y-126826971D01*
X149153429Y-126779352D01*
X169516467Y-66025781D02*
X169516467Y-66740067D01*
X169468847Y-66882924D01*
X169373609Y-66978162D01*
X169230752Y-67025781D01*
X169135514Y-67025781D01*
X170468848Y-66025781D02*
X169992657Y-66025781D01*
X169945038Y-66501971D01*
X169992657Y-66454352D01*
X170087895Y-66406733D01*
X170325991Y-66406733D01*
X170421229Y-66454352D01*
X170468848Y-66501971D01*
X170516467Y-66597210D01*
X170516467Y-66835305D01*
X170468848Y-66930543D01*
X170421229Y-66978162D01*
X170325991Y-67025781D01*
X170087895Y-67025781D01*
X169992657Y-66978162D01*
X169945038Y-66930543D01*
X187626667Y-82212381D02*
X187626667Y-82926667D01*
X187579047Y-83069524D01*
X187483809Y-83164762D01*
X187340952Y-83212381D01*
X187245714Y-83212381D01*
X188007619Y-82212381D02*
X188674286Y-82212381D01*
X188245714Y-83212381D01*
X165685077Y-71210027D02*
X165112657Y-71782447D01*
X165078985Y-71883462D01*
X165078985Y-71950805D01*
X165112657Y-72051820D01*
X165247345Y-72186508D01*
X165348360Y-72220180D01*
X165415703Y-72220180D01*
X165516718Y-72186508D01*
X166089138Y-71614088D01*
X166089138Y-73028302D02*
X165685077Y-72624240D01*
X165887107Y-72826271D02*
X166594214Y-72119164D01*
X166425855Y-72152836D01*
X166291169Y-72152836D01*
X166190153Y-72119164D01*
X185608981Y-64290533D02*
X186323267Y-64290533D01*
X186466124Y-64338153D01*
X186561362Y-64433391D01*
X186608981Y-64576248D01*
X186608981Y-64671486D01*
X186037552Y-63671486D02*
X185989933Y-63766724D01*
X185942314Y-63814343D01*
X185847076Y-63861962D01*
X185799457Y-63861962D01*
X185704219Y-63814343D01*
X185656600Y-63766724D01*
X185608981Y-63671486D01*
X185608981Y-63481009D01*
X185656600Y-63385771D01*
X185704219Y-63338152D01*
X185799457Y-63290533D01*
X185847076Y-63290533D01*
X185942314Y-63338152D01*
X185989933Y-63385771D01*
X186037552Y-63481009D01*
X186037552Y-63671486D01*
X186085171Y-63766724D01*
X186132790Y-63814343D01*
X186228029Y-63861962D01*
X186418505Y-63861962D01*
X186513743Y-63814343D01*
X186561362Y-63766724D01*
X186608981Y-63671486D01*
X186608981Y-63481009D01*
X186561362Y-63385771D01*
X186513743Y-63338152D01*
X186418505Y-63290533D01*
X186228029Y-63290533D01*
X186132790Y-63338152D01*
X186085171Y-63385771D01*
X186037552Y-63481009D01*
X196216543Y-74741066D02*
X196264162Y-74788685D01*
X196311781Y-74931542D01*
X196311781Y-75026780D01*
X196264162Y-75169638D01*
X196168924Y-75264876D01*
X196073686Y-75312495D01*
X195883210Y-75360114D01*
X195740352Y-75360114D01*
X195549876Y-75312495D01*
X195454638Y-75264876D01*
X195359400Y-75169638D01*
X195311781Y-75026780D01*
X195311781Y-74931542D01*
X195359400Y-74788685D01*
X195407019Y-74741066D01*
X196311781Y-73788685D02*
X196311781Y-74360114D01*
X196311781Y-74074400D02*
X195311781Y-74074400D01*
X195454638Y-74169638D01*
X195549876Y-74264876D01*
X195597495Y-74360114D01*
X194717943Y-74766466D02*
X194765562Y-74814085D01*
X194813181Y-74956942D01*
X194813181Y-75052180D01*
X194765562Y-75195038D01*
X194670324Y-75290276D01*
X194575086Y-75337895D01*
X194384610Y-75385514D01*
X194241752Y-75385514D01*
X194051276Y-75337895D01*
X193956038Y-75290276D01*
X193860800Y-75195038D01*
X193813181Y-75052180D01*
X193813181Y-74956942D01*
X193860800Y-74814085D01*
X193908419Y-74766466D01*
X193908419Y-74385514D02*
X193860800Y-74337895D01*
X193813181Y-74242657D01*
X193813181Y-74004561D01*
X193860800Y-73909323D01*
X193908419Y-73861704D01*
X194003657Y-73814085D01*
X194098895Y-73814085D01*
X194241752Y-73861704D01*
X194813181Y-74433133D01*
X194813181Y-73814085D01*
X193346343Y-74817266D02*
X193393962Y-74864885D01*
X193441581Y-75007742D01*
X193441581Y-75102980D01*
X193393962Y-75245838D01*
X193298724Y-75341076D01*
X193203486Y-75388695D01*
X193013010Y-75436314D01*
X192870152Y-75436314D01*
X192679676Y-75388695D01*
X192584438Y-75341076D01*
X192489200Y-75245838D01*
X192441581Y-75102980D01*
X192441581Y-75007742D01*
X192489200Y-74864885D01*
X192536819Y-74817266D01*
X192441581Y-74483933D02*
X192441581Y-73864885D01*
X192822533Y-74198219D01*
X192822533Y-74055361D01*
X192870152Y-73960123D01*
X192917771Y-73912504D01*
X193013010Y-73864885D01*
X193251105Y-73864885D01*
X193346343Y-73912504D01*
X193393962Y-73960123D01*
X193441581Y-74055361D01*
X193441581Y-74341076D01*
X193393962Y-74436314D01*
X193346343Y-74483933D01*
X190349143Y-74817266D02*
X190396762Y-74864885D01*
X190444381Y-75007742D01*
X190444381Y-75102980D01*
X190396762Y-75245838D01*
X190301524Y-75341076D01*
X190206286Y-75388695D01*
X190015810Y-75436314D01*
X189872952Y-75436314D01*
X189682476Y-75388695D01*
X189587238Y-75341076D01*
X189492000Y-75245838D01*
X189444381Y-75102980D01*
X189444381Y-75007742D01*
X189492000Y-74864885D01*
X189539619Y-74817266D01*
X189777714Y-73960123D02*
X190444381Y-73960123D01*
X189396762Y-74198219D02*
X190111048Y-74436314D01*
X190111048Y-73817266D01*
X191847743Y-74842666D02*
X191895362Y-74890285D01*
X191942981Y-75033142D01*
X191942981Y-75128380D01*
X191895362Y-75271238D01*
X191800124Y-75366476D01*
X191704886Y-75414095D01*
X191514410Y-75461714D01*
X191371552Y-75461714D01*
X191181076Y-75414095D01*
X191085838Y-75366476D01*
X190990600Y-75271238D01*
X190942981Y-75128380D01*
X190942981Y-75033142D01*
X190990600Y-74890285D01*
X191038219Y-74842666D01*
X190942981Y-73937904D02*
X190942981Y-74414095D01*
X191419171Y-74461714D01*
X191371552Y-74414095D01*
X191323933Y-74318857D01*
X191323933Y-74080761D01*
X191371552Y-73985523D01*
X191419171Y-73937904D01*
X191514410Y-73890285D01*
X191752505Y-73890285D01*
X191847743Y-73937904D01*
X191895362Y-73985523D01*
X191942981Y-74080761D01*
X191942981Y-74318857D01*
X191895362Y-74414095D01*
X191847743Y-74461714D01*
X159167534Y-62282343D02*
X159119915Y-62329962D01*
X158977058Y-62377581D01*
X158881820Y-62377581D01*
X158738962Y-62329962D01*
X158643724Y-62234724D01*
X158596105Y-62139486D01*
X158548486Y-61949010D01*
X158548486Y-61806152D01*
X158596105Y-61615676D01*
X158643724Y-61520438D01*
X158738962Y-61425200D01*
X158881820Y-61377581D01*
X158977058Y-61377581D01*
X159119915Y-61425200D01*
X159167534Y-61472819D01*
X160024677Y-61377581D02*
X159834200Y-61377581D01*
X159738962Y-61425200D01*
X159691343Y-61472819D01*
X159596105Y-61615676D01*
X159548486Y-61806152D01*
X159548486Y-62187105D01*
X159596105Y-62282343D01*
X159643724Y-62329962D01*
X159738962Y-62377581D01*
X159929439Y-62377581D01*
X160024677Y-62329962D01*
X160072296Y-62282343D01*
X160119915Y-62187105D01*
X160119915Y-61949010D01*
X160072296Y-61853771D01*
X160024677Y-61806152D01*
X159929439Y-61758533D01*
X159738962Y-61758533D01*
X159643724Y-61806152D01*
X159596105Y-61853771D01*
X159548486Y-61949010D01*
X159218334Y-68002743D02*
X159170715Y-68050362D01*
X159027858Y-68097981D01*
X158932620Y-68097981D01*
X158789762Y-68050362D01*
X158694524Y-67955124D01*
X158646905Y-67859886D01*
X158599286Y-67669410D01*
X158599286Y-67526552D01*
X158646905Y-67336076D01*
X158694524Y-67240838D01*
X158789762Y-67145600D01*
X158932620Y-67097981D01*
X159027858Y-67097981D01*
X159170715Y-67145600D01*
X159218334Y-67193219D01*
X159551667Y-67097981D02*
X160218334Y-67097981D01*
X159789762Y-68097981D01*
X149388534Y-67311543D02*
X149340915Y-67359162D01*
X149198058Y-67406781D01*
X149102820Y-67406781D01*
X148959962Y-67359162D01*
X148864724Y-67263924D01*
X148817105Y-67168686D01*
X148769486Y-66978210D01*
X148769486Y-66835352D01*
X148817105Y-66644876D01*
X148864724Y-66549638D01*
X148959962Y-66454400D01*
X149102820Y-66406781D01*
X149198058Y-66406781D01*
X149340915Y-66454400D01*
X149388534Y-66502019D01*
X149959962Y-66835352D02*
X149864724Y-66787733D01*
X149817105Y-66740114D01*
X149769486Y-66644876D01*
X149769486Y-66597257D01*
X149817105Y-66502019D01*
X149864724Y-66454400D01*
X149959962Y-66406781D01*
X150150439Y-66406781D01*
X150245677Y-66454400D01*
X150293296Y-66502019D01*
X150340915Y-66597257D01*
X150340915Y-66644876D01*
X150293296Y-66740114D01*
X150245677Y-66787733D01*
X150150439Y-66835352D01*
X149959962Y-66835352D01*
X149864724Y-66882971D01*
X149817105Y-66930590D01*
X149769486Y-67025829D01*
X149769486Y-67216305D01*
X149817105Y-67311543D01*
X149864724Y-67359162D01*
X149959962Y-67406781D01*
X150150439Y-67406781D01*
X150245677Y-67359162D01*
X150293296Y-67311543D01*
X150340915Y-67216305D01*
X150340915Y-67025829D01*
X150293296Y-66930590D01*
X150245677Y-66882971D01*
X150150439Y-66835352D01*
X161910734Y-65304943D02*
X161863115Y-65352562D01*
X161720258Y-65400181D01*
X161625020Y-65400181D01*
X161482162Y-65352562D01*
X161386924Y-65257324D01*
X161339305Y-65162086D01*
X161291686Y-64971610D01*
X161291686Y-64828752D01*
X161339305Y-64638276D01*
X161386924Y-64543038D01*
X161482162Y-64447800D01*
X161625020Y-64400181D01*
X161720258Y-64400181D01*
X161863115Y-64447800D01*
X161910734Y-64495419D01*
X162386924Y-65400181D02*
X162577400Y-65400181D01*
X162672639Y-65352562D01*
X162720258Y-65304943D01*
X162815496Y-65162086D01*
X162863115Y-64971610D01*
X162863115Y-64590657D01*
X162815496Y-64495419D01*
X162767877Y-64447800D01*
X162672639Y-64400181D01*
X162482162Y-64400181D01*
X162386924Y-64447800D01*
X162339305Y-64495419D01*
X162291686Y-64590657D01*
X162291686Y-64828752D01*
X162339305Y-64923990D01*
X162386924Y-64971610D01*
X162482162Y-65019229D01*
X162672639Y-65019229D01*
X162767877Y-64971610D01*
X162815496Y-64923990D01*
X162863115Y-64828752D01*
X159996143Y-89390457D02*
X160043762Y-89438076D01*
X160091381Y-89580933D01*
X160091381Y-89676171D01*
X160043762Y-89819029D01*
X159948524Y-89914267D01*
X159853286Y-89961886D01*
X159662810Y-90009505D01*
X159519952Y-90009505D01*
X159329476Y-89961886D01*
X159234238Y-89914267D01*
X159139000Y-89819029D01*
X159091381Y-89676171D01*
X159091381Y-89580933D01*
X159139000Y-89438076D01*
X159186619Y-89390457D01*
X160091381Y-88438076D02*
X160091381Y-89009505D01*
X160091381Y-88723791D02*
X159091381Y-88723791D01*
X159234238Y-88819029D01*
X159329476Y-88914267D01*
X159377095Y-89009505D01*
X159091381Y-87819029D02*
X159091381Y-87723790D01*
X159139000Y-87628552D01*
X159186619Y-87580933D01*
X159281857Y-87533314D01*
X159472333Y-87485695D01*
X159710429Y-87485695D01*
X159900905Y-87533314D01*
X159996143Y-87580933D01*
X160043762Y-87628552D01*
X160091381Y-87723790D01*
X160091381Y-87819029D01*
X160043762Y-87914267D01*
X159996143Y-87961886D01*
X159900905Y-88009505D01*
X159710429Y-88057124D01*
X159472333Y-88057124D01*
X159281857Y-88009505D01*
X159186619Y-87961886D01*
X159139000Y-87914267D01*
X159091381Y-87819029D01*
X169283143Y-81078343D02*
X169235524Y-81125962D01*
X169092667Y-81173581D01*
X168997429Y-81173581D01*
X168854571Y-81125962D01*
X168759333Y-81030724D01*
X168711714Y-80935486D01*
X168664095Y-80745010D01*
X168664095Y-80602152D01*
X168711714Y-80411676D01*
X168759333Y-80316438D01*
X168854571Y-80221200D01*
X168997429Y-80173581D01*
X169092667Y-80173581D01*
X169235524Y-80221200D01*
X169283143Y-80268819D01*
X170235524Y-81173581D02*
X169664095Y-81173581D01*
X169949809Y-81173581D02*
X169949809Y-80173581D01*
X169854571Y-80316438D01*
X169759333Y-80411676D01*
X169664095Y-80459295D01*
X171187905Y-81173581D02*
X170616476Y-81173581D01*
X170902190Y-81173581D02*
X170902190Y-80173581D01*
X170806952Y-80316438D01*
X170711714Y-80411676D01*
X170616476Y-80459295D01*
X178223943Y-94718143D02*
X178176324Y-94765762D01*
X178033467Y-94813381D01*
X177938229Y-94813381D01*
X177795371Y-94765762D01*
X177700133Y-94670524D01*
X177652514Y-94575286D01*
X177604895Y-94384810D01*
X177604895Y-94241952D01*
X177652514Y-94051476D01*
X177700133Y-93956238D01*
X177795371Y-93861000D01*
X177938229Y-93813381D01*
X178033467Y-93813381D01*
X178176324Y-93861000D01*
X178223943Y-93908619D01*
X179176324Y-94813381D02*
X178604895Y-94813381D01*
X178890609Y-94813381D02*
X178890609Y-93813381D01*
X178795371Y-93956238D01*
X178700133Y-94051476D01*
X178604895Y-94099095D01*
X180033467Y-93813381D02*
X179842990Y-93813381D01*
X179747752Y-93861000D01*
X179700133Y-93908619D01*
X179604895Y-94051476D01*
X179557276Y-94241952D01*
X179557276Y-94622905D01*
X179604895Y-94718143D01*
X179652514Y-94765762D01*
X179747752Y-94813381D01*
X179938229Y-94813381D01*
X180033467Y-94765762D01*
X180081086Y-94718143D01*
X180128705Y-94622905D01*
X180128705Y-94384810D01*
X180081086Y-94289571D01*
X180033467Y-94241952D01*
X179938229Y-94194333D01*
X179747752Y-94194333D01*
X179652514Y-94241952D01*
X179604895Y-94289571D01*
X179557276Y-94384810D01*
X190060343Y-111278943D02*
X190012724Y-111326562D01*
X189869867Y-111374181D01*
X189774629Y-111374181D01*
X189631771Y-111326562D01*
X189536533Y-111231324D01*
X189488914Y-111136086D01*
X189441295Y-110945610D01*
X189441295Y-110802752D01*
X189488914Y-110612276D01*
X189536533Y-110517038D01*
X189631771Y-110421800D01*
X189774629Y-110374181D01*
X189869867Y-110374181D01*
X190012724Y-110421800D01*
X190060343Y-110469419D01*
X191012724Y-111374181D02*
X190441295Y-111374181D01*
X190727009Y-111374181D02*
X190727009Y-110374181D01*
X190631771Y-110517038D01*
X190536533Y-110612276D01*
X190441295Y-110659895D01*
X191346057Y-110374181D02*
X192012724Y-110374181D01*
X191584152Y-111374181D01*
X167997143Y-127109457D02*
X168044762Y-127157076D01*
X168092381Y-127299933D01*
X168092381Y-127395171D01*
X168044762Y-127538029D01*
X167949524Y-127633267D01*
X167854286Y-127680886D01*
X167663810Y-127728505D01*
X167520952Y-127728505D01*
X167330476Y-127680886D01*
X167235238Y-127633267D01*
X167140000Y-127538029D01*
X167092381Y-127395171D01*
X167092381Y-127299933D01*
X167140000Y-127157076D01*
X167187619Y-127109457D01*
X168092381Y-126157076D02*
X168092381Y-126728505D01*
X168092381Y-126442791D02*
X167092381Y-126442791D01*
X167235238Y-126538029D01*
X167330476Y-126633267D01*
X167378095Y-126728505D01*
X168092381Y-125680886D02*
X168092381Y-125490410D01*
X168044762Y-125395171D01*
X167997143Y-125347552D01*
X167854286Y-125252314D01*
X167663810Y-125204695D01*
X167282857Y-125204695D01*
X167187619Y-125252314D01*
X167140000Y-125299933D01*
X167092381Y-125395171D01*
X167092381Y-125585648D01*
X167140000Y-125680886D01*
X167187619Y-125728505D01*
X167282857Y-125776124D01*
X167520952Y-125776124D01*
X167616190Y-125728505D01*
X167663810Y-125680886D01*
X167711429Y-125585648D01*
X167711429Y-125395171D01*
X167663810Y-125299933D01*
X167616190Y-125252314D01*
X167520952Y-125204695D01*
X194048143Y-87332143D02*
X194000524Y-87379762D01*
X193857667Y-87427381D01*
X193762429Y-87427381D01*
X193619571Y-87379762D01*
X193524333Y-87284524D01*
X193476714Y-87189286D01*
X193429095Y-86998810D01*
X193429095Y-86855952D01*
X193476714Y-86665476D01*
X193524333Y-86570238D01*
X193619571Y-86475000D01*
X193762429Y-86427381D01*
X193857667Y-86427381D01*
X194000524Y-86475000D01*
X194048143Y-86522619D01*
X194429095Y-86522619D02*
X194476714Y-86475000D01*
X194571952Y-86427381D01*
X194810048Y-86427381D01*
X194905286Y-86475000D01*
X194952905Y-86522619D01*
X195000524Y-86617857D01*
X195000524Y-86713095D01*
X194952905Y-86855952D01*
X194381476Y-87427381D01*
X195000524Y-87427381D01*
X195952905Y-87427381D02*
X195381476Y-87427381D01*
X195667190Y-87427381D02*
X195667190Y-86427381D01*
X195571952Y-86570238D01*
X195476714Y-86665476D01*
X195381476Y-86713095D01*
X161881143Y-129166857D02*
X161928762Y-129214476D01*
X161976381Y-129357333D01*
X161976381Y-129452571D01*
X161928762Y-129595429D01*
X161833524Y-129690667D01*
X161738286Y-129738286D01*
X161547810Y-129785905D01*
X161404952Y-129785905D01*
X161214476Y-129738286D01*
X161119238Y-129690667D01*
X161024000Y-129595429D01*
X160976381Y-129452571D01*
X160976381Y-129357333D01*
X161024000Y-129214476D01*
X161071619Y-129166857D01*
X161071619Y-128785905D02*
X161024000Y-128738286D01*
X160976381Y-128643048D01*
X160976381Y-128404952D01*
X161024000Y-128309714D01*
X161071619Y-128262095D01*
X161166857Y-128214476D01*
X161262095Y-128214476D01*
X161404952Y-128262095D01*
X161976381Y-128833524D01*
X161976381Y-128214476D01*
X161309714Y-127357333D02*
X161976381Y-127357333D01*
X160928762Y-127595429D02*
X161643048Y-127833524D01*
X161643048Y-127214476D01*
X178431143Y-82075257D02*
X178478762Y-82122876D01*
X178526381Y-82265733D01*
X178526381Y-82360971D01*
X178478762Y-82503829D01*
X178383524Y-82599067D01*
X178288286Y-82646686D01*
X178097810Y-82694305D01*
X177954952Y-82694305D01*
X177764476Y-82646686D01*
X177669238Y-82599067D01*
X177574000Y-82503829D01*
X177526381Y-82360971D01*
X177526381Y-82265733D01*
X177574000Y-82122876D01*
X177621619Y-82075257D01*
X177526381Y-81741924D02*
X177526381Y-81122876D01*
X177907333Y-81456210D01*
X177907333Y-81313352D01*
X177954952Y-81218114D01*
X178002571Y-81170495D01*
X178097810Y-81122876D01*
X178335905Y-81122876D01*
X178431143Y-81170495D01*
X178478762Y-81218114D01*
X178526381Y-81313352D01*
X178526381Y-81599067D01*
X178478762Y-81694305D01*
X178431143Y-81741924D01*
X177859714Y-80265733D02*
X178526381Y-80265733D01*
X177478762Y-80503829D02*
X178193048Y-80741924D01*
X178193048Y-80122876D01*
X152239743Y-70638943D02*
X152192124Y-70686562D01*
X152049267Y-70734181D01*
X151954029Y-70734181D01*
X151811171Y-70686562D01*
X151715933Y-70591324D01*
X151668314Y-70496086D01*
X151620695Y-70305610D01*
X151620695Y-70162752D01*
X151668314Y-69972276D01*
X151715933Y-69877038D01*
X151811171Y-69781800D01*
X151954029Y-69734181D01*
X152049267Y-69734181D01*
X152192124Y-69781800D01*
X152239743Y-69829419D01*
X153096886Y-70067514D02*
X153096886Y-70734181D01*
X152858790Y-69686562D02*
X152620695Y-70400848D01*
X153239743Y-70400848D01*
X153573076Y-69829419D02*
X153620695Y-69781800D01*
X153715933Y-69734181D01*
X153954029Y-69734181D01*
X154049267Y-69781800D01*
X154096886Y-69829419D01*
X154144505Y-69924657D01*
X154144505Y-70019895D01*
X154096886Y-70162752D01*
X153525457Y-70734181D01*
X154144505Y-70734181D01*
X142054343Y-75972943D02*
X142006724Y-76020562D01*
X141863867Y-76068181D01*
X141768629Y-76068181D01*
X141625771Y-76020562D01*
X141530533Y-75925324D01*
X141482914Y-75830086D01*
X141435295Y-75639610D01*
X141435295Y-75496752D01*
X141482914Y-75306276D01*
X141530533Y-75211038D01*
X141625771Y-75115800D01*
X141768629Y-75068181D01*
X141863867Y-75068181D01*
X142006724Y-75115800D01*
X142054343Y-75163419D01*
X142911486Y-75401514D02*
X142911486Y-76068181D01*
X142673390Y-75020562D02*
X142435295Y-75734848D01*
X143054343Y-75734848D01*
X143340057Y-75068181D02*
X143959105Y-75068181D01*
X143625771Y-75449133D01*
X143768629Y-75449133D01*
X143863867Y-75496752D01*
X143911486Y-75544371D01*
X143959105Y-75639610D01*
X143959105Y-75877705D01*
X143911486Y-75972943D01*
X143863867Y-76020562D01*
X143768629Y-76068181D01*
X143482914Y-76068181D01*
X143387676Y-76020562D01*
X143340057Y-75972943D01*
X178274743Y-92990943D02*
X178227124Y-93038562D01*
X178084267Y-93086181D01*
X177989029Y-93086181D01*
X177846171Y-93038562D01*
X177750933Y-92943324D01*
X177703314Y-92848086D01*
X177655695Y-92657610D01*
X177655695Y-92514752D01*
X177703314Y-92324276D01*
X177750933Y-92229038D01*
X177846171Y-92133800D01*
X177989029Y-92086181D01*
X178084267Y-92086181D01*
X178227124Y-92133800D01*
X178274743Y-92181419D01*
X179179505Y-92086181D02*
X178703314Y-92086181D01*
X178655695Y-92562371D01*
X178703314Y-92514752D01*
X178798552Y-92467133D01*
X179036648Y-92467133D01*
X179131886Y-92514752D01*
X179179505Y-92562371D01*
X179227124Y-92657610D01*
X179227124Y-92895705D01*
X179179505Y-92990943D01*
X179131886Y-93038562D01*
X179036648Y-93086181D01*
X178798552Y-93086181D01*
X178703314Y-93038562D01*
X178655695Y-92990943D01*
X179846171Y-92086181D02*
X179941410Y-92086181D01*
X180036648Y-92133800D01*
X180084267Y-92181419D01*
X180131886Y-92276657D01*
X180179505Y-92467133D01*
X180179505Y-92705229D01*
X180131886Y-92895705D01*
X180084267Y-92990943D01*
X180036648Y-93038562D01*
X179941410Y-93086181D01*
X179846171Y-93086181D01*
X179750933Y-93038562D01*
X179703314Y-92990943D01*
X179655695Y-92895705D01*
X179608076Y-92705229D01*
X179608076Y-92467133D01*
X179655695Y-92276657D01*
X179703314Y-92181419D01*
X179750933Y-92133800D01*
X179846171Y-92086181D01*
X144600562Y-69618076D02*
X144648181Y-69713314D01*
X144648181Y-69903791D01*
X144600562Y-69999029D01*
X144552943Y-70046648D01*
X144457705Y-70094267D01*
X144171990Y-70094267D01*
X144076752Y-70046648D01*
X144029133Y-69999029D01*
X143981514Y-69903791D01*
X143981514Y-69713314D01*
X144029133Y-69618076D01*
X144648181Y-69141886D02*
X144648181Y-68951410D01*
X144600562Y-68856171D01*
X144552943Y-68808552D01*
X144410086Y-68713314D01*
X144219610Y-68665695D01*
X143838657Y-68665695D01*
X143743419Y-68713314D01*
X143695800Y-68760933D01*
X143648181Y-68856171D01*
X143648181Y-69046648D01*
X143695800Y-69141886D01*
X143743419Y-69189505D01*
X143838657Y-69237124D01*
X144076752Y-69237124D01*
X144171990Y-69189505D01*
X144219610Y-69141886D01*
X144267229Y-69046648D01*
X144267229Y-68856171D01*
X144219610Y-68760933D01*
X144171990Y-68713314D01*
X144076752Y-68665695D01*
X144648181Y-68189505D02*
X144648181Y-67999029D01*
X144600562Y-67903790D01*
X144552943Y-67856171D01*
X144410086Y-67760933D01*
X144219610Y-67713314D01*
X143838657Y-67713314D01*
X143743419Y-67760933D01*
X143695800Y-67808552D01*
X143648181Y-67903790D01*
X143648181Y-68094267D01*
X143695800Y-68189505D01*
X143743419Y-68237124D01*
X143838657Y-68284743D01*
X144076752Y-68284743D01*
X144171990Y-68237124D01*
X144219610Y-68189505D01*
X144267229Y-68094267D01*
X144267229Y-67903790D01*
X144219610Y-67808552D01*
X144171990Y-67760933D01*
X144076752Y-67713314D01*
X144648181Y-67237124D02*
X144648181Y-67046648D01*
X144600562Y-66951409D01*
X144552943Y-66903790D01*
X144410086Y-66808552D01*
X144219610Y-66760933D01*
X143838657Y-66760933D01*
X143743419Y-66808552D01*
X143695800Y-66856171D01*
X143648181Y-66951409D01*
X143648181Y-67141886D01*
X143695800Y-67237124D01*
X143743419Y-67284743D01*
X143838657Y-67332362D01*
X144076752Y-67332362D01*
X144171990Y-67284743D01*
X144219610Y-67237124D01*
X144267229Y-67141886D01*
X144267229Y-66951409D01*
X144219610Y-66856171D01*
X144171990Y-66808552D01*
X144076752Y-66760933D01*
X150744181Y-74118695D02*
X149744181Y-74118695D01*
X149744181Y-73880600D01*
X149791800Y-73737742D01*
X149887038Y-73642504D01*
X149982276Y-73594885D01*
X150172752Y-73547266D01*
X150315610Y-73547266D01*
X150506086Y-73594885D01*
X150601324Y-73642504D01*
X150696562Y-73737742D01*
X150744181Y-73880600D01*
X150744181Y-74118695D01*
X150744181Y-72594885D02*
X150744181Y-73166314D01*
X150744181Y-72880600D02*
X149744181Y-72880600D01*
X149887038Y-72975838D01*
X149982276Y-73071076D01*
X150029895Y-73166314D01*
X189279305Y-126385581D02*
X189279305Y-125385581D01*
X189517400Y-125385581D01*
X189660258Y-125433200D01*
X189755496Y-125528438D01*
X189803115Y-125623676D01*
X189850734Y-125814152D01*
X189850734Y-125957010D01*
X189803115Y-126147486D01*
X189755496Y-126242724D01*
X189660258Y-126337962D01*
X189517400Y-126385581D01*
X189279305Y-126385581D01*
X190184067Y-125385581D02*
X190803115Y-125385581D01*
X190469781Y-125766533D01*
X190612639Y-125766533D01*
X190707877Y-125814152D01*
X190755496Y-125861771D01*
X190803115Y-125957010D01*
X190803115Y-126195105D01*
X190755496Y-126290343D01*
X190707877Y-126337962D01*
X190612639Y-126385581D01*
X190326924Y-126385581D01*
X190231686Y-126337962D01*
X190184067Y-126290343D01*
X173453467Y-116089181D02*
X173453467Y-116803467D01*
X173405847Y-116946324D01*
X173310609Y-117041562D01*
X173167752Y-117089181D01*
X173072514Y-117089181D01*
X173882038Y-116184419D02*
X173929657Y-116136800D01*
X174024895Y-116089181D01*
X174262991Y-116089181D01*
X174358229Y-116136800D01*
X174405848Y-116184419D01*
X174453467Y-116279657D01*
X174453467Y-116374895D01*
X174405848Y-116517752D01*
X173834419Y-117089181D01*
X174453467Y-117089181D01*
X186126381Y-127954066D02*
X186126381Y-128430257D01*
X185126381Y-128430257D01*
X186126381Y-127096923D02*
X186126381Y-127668352D01*
X186126381Y-127382638D02*
X185126381Y-127382638D01*
X185269238Y-127477876D01*
X185364476Y-127573114D01*
X185412095Y-127668352D01*
X143648134Y-64460381D02*
X143314800Y-63984190D01*
X143076705Y-64460381D02*
X143076705Y-63460381D01*
X143457658Y-63460381D01*
X143552896Y-63508000D01*
X143600515Y-63555619D01*
X143648134Y-63650857D01*
X143648134Y-63793714D01*
X143600515Y-63888952D01*
X143552896Y-63936571D01*
X143457658Y-63984190D01*
X143076705Y-63984190D01*
X144600515Y-64460381D02*
X144029086Y-64460381D01*
X144314800Y-64460381D02*
X144314800Y-63460381D01*
X144219562Y-63603238D01*
X144124324Y-63698476D01*
X144029086Y-63746095D01*
X143444934Y-65781181D02*
X143111600Y-65304990D01*
X142873505Y-65781181D02*
X142873505Y-64781181D01*
X143254458Y-64781181D01*
X143349696Y-64828800D01*
X143397315Y-64876419D01*
X143444934Y-64971657D01*
X143444934Y-65114514D01*
X143397315Y-65209752D01*
X143349696Y-65257371D01*
X143254458Y-65304990D01*
X142873505Y-65304990D01*
X143825886Y-64876419D02*
X143873505Y-64828800D01*
X143968743Y-64781181D01*
X144206839Y-64781181D01*
X144302077Y-64828800D01*
X144349696Y-64876419D01*
X144397315Y-64971657D01*
X144397315Y-65066895D01*
X144349696Y-65209752D01*
X143778267Y-65781181D01*
X144397315Y-65781181D01*
X143165534Y-97886781D02*
X142832200Y-97410590D01*
X142594105Y-97886781D02*
X142594105Y-96886781D01*
X142975058Y-96886781D01*
X143070296Y-96934400D01*
X143117915Y-96982019D01*
X143165534Y-97077257D01*
X143165534Y-97220114D01*
X143117915Y-97315352D01*
X143070296Y-97362971D01*
X142975058Y-97410590D01*
X142594105Y-97410590D01*
X144022677Y-96886781D02*
X143832200Y-96886781D01*
X143736962Y-96934400D01*
X143689343Y-96982019D01*
X143594105Y-97124876D01*
X143546486Y-97315352D01*
X143546486Y-97696305D01*
X143594105Y-97791543D01*
X143641724Y-97839162D01*
X143736962Y-97886781D01*
X143927439Y-97886781D01*
X144022677Y-97839162D01*
X144070296Y-97791543D01*
X144117915Y-97696305D01*
X144117915Y-97458210D01*
X144070296Y-97362971D01*
X144022677Y-97315352D01*
X143927439Y-97267733D01*
X143736962Y-97267733D01*
X143641724Y-97315352D01*
X143594105Y-97362971D01*
X143546486Y-97458210D01*
X187107534Y-121686581D02*
X186774200Y-121210390D01*
X186536105Y-121686581D02*
X186536105Y-120686581D01*
X186917058Y-120686581D01*
X187012296Y-120734200D01*
X187059915Y-120781819D01*
X187107534Y-120877057D01*
X187107534Y-121019914D01*
X187059915Y-121115152D01*
X187012296Y-121162771D01*
X186917058Y-121210390D01*
X186536105Y-121210390D01*
X187440867Y-120686581D02*
X188107534Y-120686581D01*
X187678962Y-121686581D01*
X190180934Y-118280781D02*
X189847600Y-117804590D01*
X189609505Y-118280781D02*
X189609505Y-117280781D01*
X189990458Y-117280781D01*
X190085696Y-117328400D01*
X190133315Y-117376019D01*
X190180934Y-117471257D01*
X190180934Y-117614114D01*
X190133315Y-117709352D01*
X190085696Y-117756971D01*
X189990458Y-117804590D01*
X189609505Y-117804590D01*
X190752362Y-117709352D02*
X190657124Y-117661733D01*
X190609505Y-117614114D01*
X190561886Y-117518876D01*
X190561886Y-117471257D01*
X190609505Y-117376019D01*
X190657124Y-117328400D01*
X190752362Y-117280781D01*
X190942839Y-117280781D01*
X191038077Y-117328400D01*
X191085696Y-117376019D01*
X191133315Y-117471257D01*
X191133315Y-117518876D01*
X191085696Y-117614114D01*
X191038077Y-117661733D01*
X190942839Y-117709352D01*
X190752362Y-117709352D01*
X190657124Y-117756971D01*
X190609505Y-117804590D01*
X190561886Y-117899829D01*
X190561886Y-118090305D01*
X190609505Y-118185543D01*
X190657124Y-118233162D01*
X190752362Y-118280781D01*
X190942839Y-118280781D01*
X191038077Y-118233162D01*
X191085696Y-118185543D01*
X191133315Y-118090305D01*
X191133315Y-117899829D01*
X191085696Y-117804590D01*
X191038077Y-117756971D01*
X190942839Y-117709352D01*
X171080134Y-96896181D02*
X170746800Y-96419990D01*
X170508705Y-96896181D02*
X170508705Y-95896181D01*
X170889658Y-95896181D01*
X170984896Y-95943800D01*
X171032515Y-95991419D01*
X171080134Y-96086657D01*
X171080134Y-96229514D01*
X171032515Y-96324752D01*
X170984896Y-96372371D01*
X170889658Y-96419990D01*
X170508705Y-96419990D01*
X171556324Y-96896181D02*
X171746800Y-96896181D01*
X171842039Y-96848562D01*
X171889658Y-96800943D01*
X171984896Y-96658086D01*
X172032515Y-96467610D01*
X172032515Y-96086657D01*
X171984896Y-95991419D01*
X171937277Y-95943800D01*
X171842039Y-95896181D01*
X171651562Y-95896181D01*
X171556324Y-95943800D01*
X171508705Y-95991419D01*
X171461086Y-96086657D01*
X171461086Y-96324752D01*
X171508705Y-96419990D01*
X171556324Y-96467610D01*
X171651562Y-96515229D01*
X171842039Y-96515229D01*
X171937277Y-96467610D01*
X171984896Y-96419990D01*
X172032515Y-96324752D01*
X156916381Y-87409257D02*
X156440190Y-87742591D01*
X156916381Y-87980686D02*
X155916381Y-87980686D01*
X155916381Y-87599733D01*
X155964000Y-87504495D01*
X156011619Y-87456876D01*
X156106857Y-87409257D01*
X156249714Y-87409257D01*
X156344952Y-87456876D01*
X156392571Y-87504495D01*
X156440190Y-87599733D01*
X156440190Y-87980686D01*
X156916381Y-86456876D02*
X156916381Y-87028305D01*
X156916381Y-86742591D02*
X155916381Y-86742591D01*
X156059238Y-86837829D01*
X156154476Y-86933067D01*
X156202095Y-87028305D01*
X155916381Y-85837829D02*
X155916381Y-85742590D01*
X155964000Y-85647352D01*
X156011619Y-85599733D01*
X156106857Y-85552114D01*
X156297333Y-85504495D01*
X156535429Y-85504495D01*
X156725905Y-85552114D01*
X156821143Y-85599733D01*
X156868762Y-85647352D01*
X156916381Y-85742590D01*
X156916381Y-85837829D01*
X156868762Y-85933067D01*
X156821143Y-85980686D01*
X156725905Y-86028305D01*
X156535429Y-86075924D01*
X156297333Y-86075924D01*
X156106857Y-86028305D01*
X156011619Y-85980686D01*
X155964000Y-85933067D01*
X155916381Y-85837829D01*
X164203143Y-127018381D02*
X163869809Y-126542190D01*
X163631714Y-127018381D02*
X163631714Y-126018381D01*
X164012667Y-126018381D01*
X164107905Y-126066000D01*
X164155524Y-126113619D01*
X164203143Y-126208857D01*
X164203143Y-126351714D01*
X164155524Y-126446952D01*
X164107905Y-126494571D01*
X164012667Y-126542190D01*
X163631714Y-126542190D01*
X165155524Y-127018381D02*
X164584095Y-127018381D01*
X164869809Y-127018381D02*
X164869809Y-126018381D01*
X164774571Y-126161238D01*
X164679333Y-126256476D01*
X164584095Y-126304095D01*
X166107905Y-127018381D02*
X165536476Y-127018381D01*
X165822190Y-127018381D02*
X165822190Y-126018381D01*
X165726952Y-126161238D01*
X165631714Y-126256476D01*
X165536476Y-126304095D01*
X164203143Y-131442381D02*
X163869809Y-130966190D01*
X163631714Y-131442381D02*
X163631714Y-130442381D01*
X164012667Y-130442381D01*
X164107905Y-130490000D01*
X164155524Y-130537619D01*
X164203143Y-130632857D01*
X164203143Y-130775714D01*
X164155524Y-130870952D01*
X164107905Y-130918571D01*
X164012667Y-130966190D01*
X163631714Y-130966190D01*
X165155524Y-131442381D02*
X164584095Y-131442381D01*
X164869809Y-131442381D02*
X164869809Y-130442381D01*
X164774571Y-130585238D01*
X164679333Y-130680476D01*
X164584095Y-130728095D01*
X165536476Y-130537619D02*
X165584095Y-130490000D01*
X165679333Y-130442381D01*
X165917429Y-130442381D01*
X166012667Y-130490000D01*
X166060286Y-130537619D01*
X166107905Y-130632857D01*
X166107905Y-130728095D01*
X166060286Y-130870952D01*
X165488857Y-131442381D01*
X166107905Y-131442381D01*
X162933143Y-122600981D02*
X162599809Y-122124790D01*
X162361714Y-122600981D02*
X162361714Y-121600981D01*
X162742667Y-121600981D01*
X162837905Y-121648600D01*
X162885524Y-121696219D01*
X162933143Y-121791457D01*
X162933143Y-121934314D01*
X162885524Y-122029552D01*
X162837905Y-122077171D01*
X162742667Y-122124790D01*
X162361714Y-122124790D01*
X163885524Y-122600981D02*
X163314095Y-122600981D01*
X163599809Y-122600981D02*
X163599809Y-121600981D01*
X163504571Y-121743838D01*
X163409333Y-121839076D01*
X163314095Y-121886695D01*
X164218857Y-121600981D02*
X164837905Y-121600981D01*
X164504571Y-121981933D01*
X164647429Y-121981933D01*
X164742667Y-122029552D01*
X164790286Y-122077171D01*
X164837905Y-122172410D01*
X164837905Y-122410505D01*
X164790286Y-122505743D01*
X164742667Y-122553362D01*
X164647429Y-122600981D01*
X164361714Y-122600981D01*
X164266476Y-122553362D01*
X164218857Y-122505743D01*
X170883343Y-101536421D02*
X170550009Y-101060230D01*
X170311914Y-101536421D02*
X170311914Y-100536421D01*
X170692867Y-100536421D01*
X170788105Y-100584040D01*
X170835724Y-100631659D01*
X170883343Y-100726897D01*
X170883343Y-100869754D01*
X170835724Y-100964992D01*
X170788105Y-101012611D01*
X170692867Y-101060230D01*
X170311914Y-101060230D01*
X171835724Y-101536421D02*
X171264295Y-101536421D01*
X171550009Y-101536421D02*
X171550009Y-100536421D01*
X171454771Y-100679278D01*
X171359533Y-100774516D01*
X171264295Y-100822135D01*
X172692867Y-100869754D02*
X172692867Y-101536421D01*
X172454771Y-100488802D02*
X172216676Y-101203088D01*
X172835724Y-101203088D01*
X152090381Y-87307657D02*
X151614190Y-87640991D01*
X152090381Y-87879086D02*
X151090381Y-87879086D01*
X151090381Y-87498133D01*
X151138000Y-87402895D01*
X151185619Y-87355276D01*
X151280857Y-87307657D01*
X151423714Y-87307657D01*
X151518952Y-87355276D01*
X151566571Y-87402895D01*
X151614190Y-87498133D01*
X151614190Y-87879086D01*
X151185619Y-86926705D02*
X151138000Y-86879086D01*
X151090381Y-86783848D01*
X151090381Y-86545752D01*
X151138000Y-86450514D01*
X151185619Y-86402895D01*
X151280857Y-86355276D01*
X151376095Y-86355276D01*
X151518952Y-86402895D01*
X152090381Y-86974324D01*
X152090381Y-86355276D01*
X151090381Y-85736229D02*
X151090381Y-85640990D01*
X151138000Y-85545752D01*
X151185619Y-85498133D01*
X151280857Y-85450514D01*
X151471333Y-85402895D01*
X151709429Y-85402895D01*
X151899905Y-85450514D01*
X151995143Y-85498133D01*
X152042762Y-85545752D01*
X152090381Y-85640990D01*
X152090381Y-85736229D01*
X152042762Y-85831467D01*
X151995143Y-85879086D01*
X151899905Y-85926705D01*
X151709429Y-85974324D01*
X151471333Y-85974324D01*
X151280857Y-85926705D01*
X151185619Y-85879086D01*
X151138000Y-85831467D01*
X151090381Y-85736229D01*
X144492743Y-118003581D02*
X144159409Y-117527390D01*
X143921314Y-118003581D02*
X143921314Y-117003581D01*
X144302267Y-117003581D01*
X144397505Y-117051200D01*
X144445124Y-117098819D01*
X144492743Y-117194057D01*
X144492743Y-117336914D01*
X144445124Y-117432152D01*
X144397505Y-117479771D01*
X144302267Y-117527390D01*
X143921314Y-117527390D01*
X144826076Y-117003581D02*
X145445124Y-117003581D01*
X145111790Y-117384533D01*
X145254648Y-117384533D01*
X145349886Y-117432152D01*
X145397505Y-117479771D01*
X145445124Y-117575010D01*
X145445124Y-117813105D01*
X145397505Y-117908343D01*
X145349886Y-117955962D01*
X145254648Y-118003581D01*
X144968933Y-118003581D01*
X144873695Y-117955962D01*
X144826076Y-117908343D01*
X146064171Y-117003581D02*
X146159410Y-117003581D01*
X146254648Y-117051200D01*
X146302267Y-117098819D01*
X146349886Y-117194057D01*
X146397505Y-117384533D01*
X146397505Y-117622629D01*
X146349886Y-117813105D01*
X146302267Y-117908343D01*
X146254648Y-117955962D01*
X146159410Y-118003581D01*
X146064171Y-118003581D01*
X145968933Y-117955962D01*
X145921314Y-117908343D01*
X145873695Y-117813105D01*
X145826076Y-117622629D01*
X145826076Y-117384533D01*
X145873695Y-117194057D01*
X145921314Y-117098819D01*
X145968933Y-117051200D01*
X146064171Y-117003581D01*
X178706543Y-98445581D02*
X178373209Y-97969390D01*
X178135114Y-98445581D02*
X178135114Y-97445581D01*
X178516067Y-97445581D01*
X178611305Y-97493200D01*
X178658924Y-97540819D01*
X178706543Y-97636057D01*
X178706543Y-97778914D01*
X178658924Y-97874152D01*
X178611305Y-97921771D01*
X178516067Y-97969390D01*
X178135114Y-97969390D01*
X179039876Y-97445581D02*
X179658924Y-97445581D01*
X179325590Y-97826533D01*
X179468448Y-97826533D01*
X179563686Y-97874152D01*
X179611305Y-97921771D01*
X179658924Y-98017010D01*
X179658924Y-98255105D01*
X179611305Y-98350343D01*
X179563686Y-98397962D01*
X179468448Y-98445581D01*
X179182733Y-98445581D01*
X179087495Y-98397962D01*
X179039876Y-98350343D01*
X180516067Y-97778914D02*
X180516067Y-98445581D01*
X180277971Y-97397962D02*
X180039876Y-98112248D01*
X180658924Y-98112248D01*
X191254143Y-62885581D02*
X190920809Y-62409390D01*
X190682714Y-62885581D02*
X190682714Y-61885581D01*
X191063667Y-61885581D01*
X191158905Y-61933200D01*
X191206524Y-61980819D01*
X191254143Y-62076057D01*
X191254143Y-62218914D01*
X191206524Y-62314152D01*
X191158905Y-62361771D01*
X191063667Y-62409390D01*
X190682714Y-62409390D01*
X191587476Y-61885581D02*
X192206524Y-61885581D01*
X191873190Y-62266533D01*
X192016048Y-62266533D01*
X192111286Y-62314152D01*
X192158905Y-62361771D01*
X192206524Y-62457010D01*
X192206524Y-62695105D01*
X192158905Y-62790343D01*
X192111286Y-62837962D01*
X192016048Y-62885581D01*
X191730333Y-62885581D01*
X191635095Y-62837962D01*
X191587476Y-62790343D01*
X193111286Y-61885581D02*
X192635095Y-61885581D01*
X192587476Y-62361771D01*
X192635095Y-62314152D01*
X192730333Y-62266533D01*
X192968429Y-62266533D01*
X193063667Y-62314152D01*
X193111286Y-62361771D01*
X193158905Y-62457010D01*
X193158905Y-62695105D01*
X193111286Y-62790343D01*
X193063667Y-62837962D01*
X192968429Y-62885581D01*
X192730333Y-62885581D01*
X192635095Y-62837962D01*
X192587476Y-62790343D01*
X183865781Y-90711257D02*
X183389590Y-91044591D01*
X183865781Y-91282686D02*
X182865781Y-91282686D01*
X182865781Y-90901733D01*
X182913400Y-90806495D01*
X182961019Y-90758876D01*
X183056257Y-90711257D01*
X183199114Y-90711257D01*
X183294352Y-90758876D01*
X183341971Y-90806495D01*
X183389590Y-90901733D01*
X183389590Y-91282686D01*
X182865781Y-90377924D02*
X182865781Y-89758876D01*
X183246733Y-90092210D01*
X183246733Y-89949352D01*
X183294352Y-89854114D01*
X183341971Y-89806495D01*
X183437210Y-89758876D01*
X183675305Y-89758876D01*
X183770543Y-89806495D01*
X183818162Y-89854114D01*
X183865781Y-89949352D01*
X183865781Y-90235067D01*
X183818162Y-90330305D01*
X183770543Y-90377924D01*
X182865781Y-88901733D02*
X182865781Y-89092210D01*
X182913400Y-89187448D01*
X182961019Y-89235067D01*
X183103876Y-89330305D01*
X183294352Y-89377924D01*
X183675305Y-89377924D01*
X183770543Y-89330305D01*
X183818162Y-89282686D01*
X183865781Y-89187448D01*
X183865781Y-88996971D01*
X183818162Y-88901733D01*
X183770543Y-88854114D01*
X183675305Y-88806495D01*
X183437210Y-88806495D01*
X183341971Y-88854114D01*
X183294352Y-88901733D01*
X183246733Y-88996971D01*
X183246733Y-89187448D01*
X183294352Y-89282686D01*
X183341971Y-89330305D01*
X183437210Y-89377924D01*
X155341581Y-87333057D02*
X154865390Y-87666391D01*
X155341581Y-87904486D02*
X154341581Y-87904486D01*
X154341581Y-87523533D01*
X154389200Y-87428295D01*
X154436819Y-87380676D01*
X154532057Y-87333057D01*
X154674914Y-87333057D01*
X154770152Y-87380676D01*
X154817771Y-87428295D01*
X154865390Y-87523533D01*
X154865390Y-87904486D01*
X154341581Y-86999724D02*
X154341581Y-86380676D01*
X154722533Y-86714010D01*
X154722533Y-86571152D01*
X154770152Y-86475914D01*
X154817771Y-86428295D01*
X154913010Y-86380676D01*
X155151105Y-86380676D01*
X155246343Y-86428295D01*
X155293962Y-86475914D01*
X155341581Y-86571152D01*
X155341581Y-86856867D01*
X155293962Y-86952105D01*
X155246343Y-86999724D01*
X154770152Y-85809248D02*
X154722533Y-85904486D01*
X154674914Y-85952105D01*
X154579676Y-85999724D01*
X154532057Y-85999724D01*
X154436819Y-85952105D01*
X154389200Y-85904486D01*
X154341581Y-85809248D01*
X154341581Y-85618771D01*
X154389200Y-85523533D01*
X154436819Y-85475914D01*
X154532057Y-85428295D01*
X154579676Y-85428295D01*
X154674914Y-85475914D01*
X154722533Y-85523533D01*
X154770152Y-85618771D01*
X154770152Y-85809248D01*
X154817771Y-85904486D01*
X154865390Y-85952105D01*
X154960629Y-85999724D01*
X155151105Y-85999724D01*
X155246343Y-85952105D01*
X155293962Y-85904486D01*
X155341581Y-85809248D01*
X155341581Y-85618771D01*
X155293962Y-85523533D01*
X155246343Y-85475914D01*
X155151105Y-85428295D01*
X154960629Y-85428295D01*
X154865390Y-85475914D01*
X154817771Y-85523533D01*
X154770152Y-85618771D01*
X153614381Y-87333057D02*
X153138190Y-87666391D01*
X153614381Y-87904486D02*
X152614381Y-87904486D01*
X152614381Y-87523533D01*
X152662000Y-87428295D01*
X152709619Y-87380676D01*
X152804857Y-87333057D01*
X152947714Y-87333057D01*
X153042952Y-87380676D01*
X153090571Y-87428295D01*
X153138190Y-87523533D01*
X153138190Y-87904486D01*
X152614381Y-86999724D02*
X152614381Y-86380676D01*
X152995333Y-86714010D01*
X152995333Y-86571152D01*
X153042952Y-86475914D01*
X153090571Y-86428295D01*
X153185810Y-86380676D01*
X153423905Y-86380676D01*
X153519143Y-86428295D01*
X153566762Y-86475914D01*
X153614381Y-86571152D01*
X153614381Y-86856867D01*
X153566762Y-86952105D01*
X153519143Y-86999724D01*
X153614381Y-85904486D02*
X153614381Y-85714010D01*
X153566762Y-85618771D01*
X153519143Y-85571152D01*
X153376286Y-85475914D01*
X153185810Y-85428295D01*
X152804857Y-85428295D01*
X152709619Y-85475914D01*
X152662000Y-85523533D01*
X152614381Y-85618771D01*
X152614381Y-85809248D01*
X152662000Y-85904486D01*
X152709619Y-85952105D01*
X152804857Y-85999724D01*
X153042952Y-85999724D01*
X153138190Y-85952105D01*
X153185810Y-85904486D01*
X153233429Y-85809248D01*
X153233429Y-85618771D01*
X153185810Y-85523533D01*
X153138190Y-85475914D01*
X153042952Y-85428295D01*
X195343543Y-62809381D02*
X195010209Y-62333190D01*
X194772114Y-62809381D02*
X194772114Y-61809381D01*
X195153067Y-61809381D01*
X195248305Y-61857000D01*
X195295924Y-61904619D01*
X195343543Y-61999857D01*
X195343543Y-62142714D01*
X195295924Y-62237952D01*
X195248305Y-62285571D01*
X195153067Y-62333190D01*
X194772114Y-62333190D01*
X196200686Y-62142714D02*
X196200686Y-62809381D01*
X195962590Y-61761762D02*
X195724495Y-62476048D01*
X196343543Y-62476048D01*
X196914971Y-61809381D02*
X197010210Y-61809381D01*
X197105448Y-61857000D01*
X197153067Y-61904619D01*
X197200686Y-61999857D01*
X197248305Y-62190333D01*
X197248305Y-62428429D01*
X197200686Y-62618905D01*
X197153067Y-62714143D01*
X197105448Y-62761762D01*
X197010210Y-62809381D01*
X196914971Y-62809381D01*
X196819733Y-62761762D01*
X196772114Y-62714143D01*
X196724495Y-62618905D01*
X196676876Y-62428429D01*
X196676876Y-62190333D01*
X196724495Y-61999857D01*
X196772114Y-61904619D01*
X196819733Y-61857000D01*
X196914971Y-61809381D01*
X175125143Y-107820381D02*
X174791809Y-107344190D01*
X174553714Y-107820381D02*
X174553714Y-106820381D01*
X174934667Y-106820381D01*
X175029905Y-106868000D01*
X175077524Y-106915619D01*
X175125143Y-107010857D01*
X175125143Y-107153714D01*
X175077524Y-107248952D01*
X175029905Y-107296571D01*
X174934667Y-107344190D01*
X174553714Y-107344190D01*
X175982286Y-107153714D02*
X175982286Y-107820381D01*
X175744190Y-106772762D02*
X175506095Y-107487048D01*
X176125143Y-107487048D01*
X176410857Y-106820381D02*
X177029905Y-106820381D01*
X176696571Y-107201333D01*
X176839429Y-107201333D01*
X176934667Y-107248952D01*
X176982286Y-107296571D01*
X177029905Y-107391810D01*
X177029905Y-107629905D01*
X176982286Y-107725143D01*
X176934667Y-107772762D01*
X176839429Y-107820381D01*
X176553714Y-107820381D01*
X176458476Y-107772762D01*
X176410857Y-107725143D01*
X139463543Y-105635981D02*
X139130209Y-105159790D01*
X138892114Y-105635981D02*
X138892114Y-104635981D01*
X139273067Y-104635981D01*
X139368305Y-104683600D01*
X139415924Y-104731219D01*
X139463543Y-104826457D01*
X139463543Y-104969314D01*
X139415924Y-105064552D01*
X139368305Y-105112171D01*
X139273067Y-105159790D01*
X138892114Y-105159790D01*
X140320686Y-104969314D02*
X140320686Y-105635981D01*
X140082590Y-104588362D02*
X139844495Y-105302648D01*
X140463543Y-105302648D01*
X141273067Y-104969314D02*
X141273067Y-105635981D01*
X141034971Y-104588362D02*
X140796876Y-105302648D01*
X141415924Y-105302648D01*
X172172381Y-72866095D02*
X172981905Y-72866095D01*
X173077143Y-72818476D01*
X173124762Y-72770857D01*
X173172381Y-72675619D01*
X173172381Y-72485142D01*
X173124762Y-72389904D01*
X173077143Y-72342285D01*
X172981905Y-72294666D01*
X172172381Y-72294666D01*
X173172381Y-71294666D02*
X173172381Y-71866095D01*
X173172381Y-71580381D02*
X172172381Y-71580381D01*
X172315238Y-71675619D01*
X172410476Y-71770857D01*
X172458095Y-71866095D01*
X172172381Y-70675619D02*
X172172381Y-70580380D01*
X172220000Y-70485142D01*
X172267619Y-70437523D01*
X172362857Y-70389904D01*
X172553333Y-70342285D01*
X172791429Y-70342285D01*
X172981905Y-70389904D01*
X173077143Y-70437523D01*
X173124762Y-70485142D01*
X173172381Y-70580380D01*
X173172381Y-70675619D01*
X173124762Y-70770857D01*
X173077143Y-70818476D01*
X172981905Y-70866095D01*
X172791429Y-70913714D01*
X172553333Y-70913714D01*
X172362857Y-70866095D01*
X172267619Y-70818476D01*
X172220000Y-70770857D01*
X172172381Y-70675619D01*
X177349305Y-90206581D02*
X177349305Y-91016105D01*
X177396924Y-91111343D01*
X177444543Y-91158962D01*
X177539781Y-91206581D01*
X177730258Y-91206581D01*
X177825496Y-91158962D01*
X177873115Y-91111343D01*
X177920734Y-91016105D01*
X177920734Y-90206581D01*
X178920734Y-91206581D02*
X178349305Y-91206581D01*
X178635019Y-91206581D02*
X178635019Y-90206581D01*
X178539781Y-90349438D01*
X178444543Y-90444676D01*
X178349305Y-90492295D01*
X179873115Y-91206581D02*
X179301686Y-91206581D01*
X179587400Y-91206581D02*
X179587400Y-90206581D01*
X179492162Y-90349438D01*
X179396924Y-90444676D01*
X179301686Y-90492295D01*
X141174790Y-64001591D02*
X141650981Y-64001591D01*
X140650981Y-64334924D02*
X141174790Y-64001591D01*
X140650981Y-63668257D01*
X141650981Y-62811114D02*
X141650981Y-63382543D01*
X141650981Y-63096829D02*
X140650981Y-63096829D01*
X140793838Y-63192067D01*
X140889076Y-63287305D01*
X140936695Y-63382543D01*
X146194543Y-73839343D02*
X146146924Y-73886962D01*
X146004067Y-73934581D01*
X145908829Y-73934581D01*
X145765971Y-73886962D01*
X145670733Y-73791724D01*
X145623114Y-73696486D01*
X145575495Y-73506010D01*
X145575495Y-73363152D01*
X145623114Y-73172676D01*
X145670733Y-73077438D01*
X145765971Y-72982200D01*
X145908829Y-72934581D01*
X146004067Y-72934581D01*
X146146924Y-72982200D01*
X146194543Y-73029819D01*
X146527876Y-72934581D02*
X147146924Y-72934581D01*
X146813590Y-73315533D01*
X146956448Y-73315533D01*
X147051686Y-73363152D01*
X147099305Y-73410771D01*
X147146924Y-73506010D01*
X147146924Y-73744105D01*
X147099305Y-73839343D01*
X147051686Y-73886962D01*
X146956448Y-73934581D01*
X146670733Y-73934581D01*
X146575495Y-73886962D01*
X146527876Y-73839343D01*
X148051686Y-72934581D02*
X147575495Y-72934581D01*
X147527876Y-73410771D01*
X147575495Y-73363152D01*
X147670733Y-73315533D01*
X147908829Y-73315533D01*
X148004067Y-73363152D01*
X148051686Y-73410771D01*
X148099305Y-73506010D01*
X148099305Y-73744105D01*
X148051686Y-73839343D01*
X148004067Y-73886962D01*
X147908829Y-73934581D01*
X147670733Y-73934581D01*
X147575495Y-73886962D01*
X147527876Y-73839343D01*
X142130543Y-77674743D02*
X142082924Y-77722362D01*
X141940067Y-77769981D01*
X141844829Y-77769981D01*
X141701971Y-77722362D01*
X141606733Y-77627124D01*
X141559114Y-77531886D01*
X141511495Y-77341410D01*
X141511495Y-77198552D01*
X141559114Y-77008076D01*
X141606733Y-76912838D01*
X141701971Y-76817600D01*
X141844829Y-76769981D01*
X141940067Y-76769981D01*
X142082924Y-76817600D01*
X142130543Y-76865219D01*
X142463876Y-76769981D02*
X143082924Y-76769981D01*
X142749590Y-77150933D01*
X142892448Y-77150933D01*
X142987686Y-77198552D01*
X143035305Y-77246171D01*
X143082924Y-77341410D01*
X143082924Y-77579505D01*
X143035305Y-77674743D01*
X142987686Y-77722362D01*
X142892448Y-77769981D01*
X142606733Y-77769981D01*
X142511495Y-77722362D01*
X142463876Y-77674743D01*
X143654352Y-77198552D02*
X143559114Y-77150933D01*
X143511495Y-77103314D01*
X143463876Y-77008076D01*
X143463876Y-76960457D01*
X143511495Y-76865219D01*
X143559114Y-76817600D01*
X143654352Y-76769981D01*
X143844829Y-76769981D01*
X143940067Y-76817600D01*
X143987686Y-76865219D01*
X144035305Y-76960457D01*
X144035305Y-77008076D01*
X143987686Y-77103314D01*
X143940067Y-77150933D01*
X143844829Y-77198552D01*
X143654352Y-77198552D01*
X143559114Y-77246171D01*
X143511495Y-77293790D01*
X143463876Y-77389029D01*
X143463876Y-77579505D01*
X143511495Y-77674743D01*
X143559114Y-77722362D01*
X143654352Y-77769981D01*
X143844829Y-77769981D01*
X143940067Y-77722362D01*
X143987686Y-77674743D01*
X144035305Y-77579505D01*
X144035305Y-77389029D01*
X143987686Y-77293790D01*
X143940067Y-77246171D01*
X143844829Y-77198552D01*
X142155943Y-79427343D02*
X142108324Y-79474962D01*
X141965467Y-79522581D01*
X141870229Y-79522581D01*
X141727371Y-79474962D01*
X141632133Y-79379724D01*
X141584514Y-79284486D01*
X141536895Y-79094010D01*
X141536895Y-78951152D01*
X141584514Y-78760676D01*
X141632133Y-78665438D01*
X141727371Y-78570200D01*
X141870229Y-78522581D01*
X141965467Y-78522581D01*
X142108324Y-78570200D01*
X142155943Y-78617819D01*
X142489276Y-78522581D02*
X143108324Y-78522581D01*
X142774990Y-78903533D01*
X142917848Y-78903533D01*
X143013086Y-78951152D01*
X143060705Y-78998771D01*
X143108324Y-79094010D01*
X143108324Y-79332105D01*
X143060705Y-79427343D01*
X143013086Y-79474962D01*
X142917848Y-79522581D01*
X142632133Y-79522581D01*
X142536895Y-79474962D01*
X142489276Y-79427343D01*
X143584514Y-79522581D02*
X143774990Y-79522581D01*
X143870229Y-79474962D01*
X143917848Y-79427343D01*
X144013086Y-79284486D01*
X144060705Y-79094010D01*
X144060705Y-78713057D01*
X144013086Y-78617819D01*
X143965467Y-78570200D01*
X143870229Y-78522581D01*
X143679752Y-78522581D01*
X143584514Y-78570200D01*
X143536895Y-78617819D01*
X143489276Y-78713057D01*
X143489276Y-78951152D01*
X143536895Y-79046390D01*
X143584514Y-79094010D01*
X143679752Y-79141629D01*
X143870229Y-79141629D01*
X143965467Y-79094010D01*
X144013086Y-79046390D01*
X144060705Y-78951152D01*
X169333943Y-82627743D02*
X169286324Y-82675362D01*
X169143467Y-82722981D01*
X169048229Y-82722981D01*
X168905371Y-82675362D01*
X168810133Y-82580124D01*
X168762514Y-82484886D01*
X168714895Y-82294410D01*
X168714895Y-82151552D01*
X168762514Y-81961076D01*
X168810133Y-81865838D01*
X168905371Y-81770600D01*
X169048229Y-81722981D01*
X169143467Y-81722981D01*
X169286324Y-81770600D01*
X169333943Y-81818219D01*
X170191086Y-82056314D02*
X170191086Y-82722981D01*
X169952990Y-81675362D02*
X169714895Y-82389648D01*
X170333943Y-82389648D01*
X170905371Y-81722981D02*
X171000610Y-81722981D01*
X171095848Y-81770600D01*
X171143467Y-81818219D01*
X171191086Y-81913457D01*
X171238705Y-82103933D01*
X171238705Y-82342029D01*
X171191086Y-82532505D01*
X171143467Y-82627743D01*
X171095848Y-82675362D01*
X171000610Y-82722981D01*
X170905371Y-82722981D01*
X170810133Y-82675362D01*
X170762514Y-82627743D01*
X170714895Y-82532505D01*
X170667276Y-82342029D01*
X170667276Y-82103933D01*
X170714895Y-81913457D01*
X170762514Y-81818219D01*
X170810133Y-81770600D01*
X170905371Y-81722981D01*
X155987905Y-117359181D02*
X155987905Y-118168705D01*
X156035524Y-118263943D01*
X156083143Y-118311562D01*
X156178381Y-118359181D01*
X156368858Y-118359181D01*
X156464096Y-118311562D01*
X156511715Y-118263943D01*
X156559334Y-118168705D01*
X156559334Y-117359181D01*
X157559334Y-118359181D02*
X156987905Y-118359181D01*
X157273619Y-118359181D02*
X157273619Y-117359181D01*
X157178381Y-117502038D01*
X157083143Y-117597276D01*
X156987905Y-117644895D01*
X157892667Y-117359181D02*
X158511715Y-117359181D01*
X158178381Y-117740133D01*
X158321239Y-117740133D01*
X158416477Y-117787752D01*
X158464096Y-117835371D01*
X158511715Y-117930610D01*
X158511715Y-118168705D01*
X158464096Y-118263943D01*
X158416477Y-118311562D01*
X158321239Y-118359181D01*
X158035524Y-118359181D01*
X157940286Y-118311562D01*
X157892667Y-118263943D01*
X173585333Y-113044267D02*
X174061524Y-113044267D01*
X173490095Y-113329981D02*
X173823428Y-112329981D01*
X174156762Y-113329981D01*
X174490095Y-112806171D02*
X174823429Y-112806171D01*
X174966286Y-113329981D02*
X174490095Y-113329981D01*
X174490095Y-112329981D01*
X174966286Y-112329981D01*
X175918667Y-113329981D02*
X175347238Y-113329981D01*
X175632952Y-113329981D02*
X175632952Y-112329981D01*
X175537714Y-112472838D01*
X175442476Y-112568076D01*
X175347238Y-112615695D01*
X165520667Y-92200267D02*
X165520667Y-91724076D01*
X165806381Y-92295505D02*
X164806381Y-91962172D01*
X165806381Y-91628838D01*
X165282571Y-91295505D02*
X165282571Y-90962171D01*
X165806381Y-90819314D02*
X165806381Y-91295505D01*
X164806381Y-91295505D01*
X164806381Y-90819314D01*
X164901619Y-90438362D02*
X164854000Y-90390743D01*
X164806381Y-90295505D01*
X164806381Y-90057409D01*
X164854000Y-89962171D01*
X164901619Y-89914552D01*
X164996857Y-89866933D01*
X165092095Y-89866933D01*
X165234952Y-89914552D01*
X165806381Y-90485981D01*
X165806381Y-89866933D01*
X140997133Y-87161667D02*
X141473324Y-87161667D01*
X140901895Y-87447381D02*
X141235228Y-86447381D01*
X141568562Y-87447381D01*
X141901895Y-86923571D02*
X142235229Y-86923571D01*
X142378086Y-87447381D02*
X141901895Y-87447381D01*
X141901895Y-86447381D01*
X142378086Y-86447381D01*
X142711419Y-86447381D02*
X143330467Y-86447381D01*
X142997133Y-86828333D01*
X143139991Y-86828333D01*
X143235229Y-86875952D01*
X143282848Y-86923571D01*
X143330467Y-87018810D01*
X143330467Y-87256905D01*
X143282848Y-87352143D01*
X143235229Y-87399762D01*
X143139991Y-87447381D01*
X142854276Y-87447381D01*
X142759038Y-87399762D01*
X142711419Y-87352143D01*
M02*
