G04 #@! TF.FileFunction,Soldermask,Bot*
%FSLAX46Y46*%
G04 Gerber Fmt 4.6, Leading zero omitted, Abs format (unit mm)*
G04 Created by KiCad (PCBNEW 4.0.5) date 04/12/18 12:11:43*
%MOMM*%
%LPD*%
G01*
G04 APERTURE LIST*
%ADD10C,0.100000*%
%ADD11R,1.600000X2.400000*%
%ADD12R,1.300000X2.600000*%
%ADD13R,3.900000X3.900000*%
%ADD14R,1.200000X1.300000*%
%ADD15R,1.300000X1.200000*%
%ADD16R,1.500000X5.000000*%
%ADD17R,11.200000X9.800000*%
%ADD18R,2.000000X2.000000*%
%ADD19C,2.000000*%
%ADD20R,1.050000X1.460000*%
%ADD21R,2.100000X2.100000*%
%ADD22O,2.100000X2.100000*%
%ADD23R,4.200000X2.400000*%
%ADD24R,1.900000X2.400000*%
%ADD25R,5.000000X1.500000*%
%ADD26R,9.800000X11.200000*%
%ADD27R,1.150000X1.600000*%
%ADD28R,1.600000X1.150000*%
%ADD29C,3.000000*%
%ADD30R,0.800000X1.750000*%
%ADD31O,1.650000X1.350000*%
%ADD32O,1.400000X1.950000*%
%ADD33R,1.600000X1.300000*%
%ADD34R,1.300000X1.600000*%
%ADD35R,1.600000X2.600000*%
%ADD36R,6.200000X6.800000*%
%ADD37C,1.900000*%
%ADD38R,10.400000X4.100000*%
%ADD39R,0.820000X0.620000*%
G04 APERTURE END LIST*
D10*
D11*
X160909000Y-104775000D03*
X158369000Y-104775000D03*
X155829000Y-104775000D03*
X155829000Y-94775000D03*
X158369000Y-94775000D03*
X160909000Y-94775000D03*
D12*
X163099000Y-102275000D03*
X163099000Y-97275000D03*
X150599000Y-102275000D03*
X150599000Y-97275000D03*
D13*
X183946800Y-102514400D03*
X189946800Y-102514400D03*
X186946800Y-97814400D03*
D14*
X174945000Y-107839000D03*
X176845000Y-107839000D03*
X175895000Y-109839000D03*
D15*
X156956000Y-109794000D03*
X156956000Y-111694000D03*
X154956000Y-110744000D03*
D16*
X159160000Y-117161000D03*
X160860000Y-117161000D03*
X162560000Y-117161000D03*
X164260000Y-117161000D03*
X165960000Y-117161000D03*
D17*
X162560000Y-126311000D03*
D18*
X154940000Y-127254000D03*
D19*
X154940000Y-129754000D03*
D18*
X171577000Y-121412000D03*
D19*
X171577000Y-123912000D03*
D18*
X148590000Y-121412000D03*
D19*
X148590000Y-123912000D03*
D20*
X152974000Y-115740000D03*
X153924000Y-115740000D03*
X154874000Y-115740000D03*
X154874000Y-117940000D03*
X152974000Y-117940000D03*
D21*
X164719000Y-63754000D03*
D22*
X167259000Y-63754000D03*
X169799000Y-63754000D03*
X172339000Y-63754000D03*
D23*
X186690000Y-74523200D03*
D24*
X186690000Y-80823200D03*
X184390000Y-80823200D03*
X188990000Y-80823200D03*
D21*
X187960000Y-85090000D03*
D22*
X187960000Y-87630000D03*
D25*
X183836000Y-125320000D03*
X183836000Y-123620000D03*
X183836000Y-121920000D03*
X183836000Y-120220000D03*
X183836000Y-118520000D03*
D26*
X192986000Y-121920000D03*
D23*
X194564000Y-74523200D03*
D24*
X194564000Y-80823200D03*
X192264000Y-80823200D03*
X196864000Y-80823200D03*
D21*
X182880000Y-63754000D03*
D22*
X180340000Y-63754000D03*
X177800000Y-63754000D03*
D27*
X170434000Y-119187000D03*
X170434000Y-117287000D03*
X152273000Y-109794000D03*
X152273000Y-111694000D03*
X155702000Y-88846700D03*
X155702000Y-86946700D03*
D18*
X184607200Y-111201200D03*
D19*
X187107200Y-111201200D03*
D27*
X157162500Y-88846700D03*
X157162500Y-86946700D03*
D18*
X171704000Y-129540000D03*
D19*
X171704000Y-127040000D03*
D28*
X166436000Y-95631000D03*
X168336000Y-95631000D03*
X195514000Y-71628000D03*
X193614000Y-71628000D03*
D27*
X150114000Y-115890000D03*
X150114000Y-117790000D03*
X161417000Y-109667000D03*
X161417000Y-111567000D03*
D28*
X154874000Y-120904000D03*
X152974000Y-120904000D03*
D27*
X147320000Y-117790000D03*
X147320000Y-115890000D03*
D21*
X177495200Y-118973600D03*
D22*
X177495200Y-116433600D03*
X177495200Y-113893600D03*
D29*
X178816000Y-125730000D03*
X178816000Y-128730000D03*
D30*
X193010000Y-68660000D03*
X193660000Y-68660000D03*
X194310000Y-68660000D03*
X194960000Y-68660000D03*
X195610000Y-68660000D03*
D31*
X191810000Y-68660000D03*
X196810000Y-68660000D03*
D32*
X190810000Y-65960000D03*
X197810000Y-65960000D03*
D33*
X168994000Y-103886000D03*
X166794000Y-103886000D03*
X168994000Y-105537000D03*
X166794000Y-105537000D03*
D34*
X170942000Y-105494000D03*
X170942000Y-103294000D03*
D33*
X170010000Y-84582000D03*
X167810000Y-84582000D03*
X167810000Y-88138000D03*
X170010000Y-88138000D03*
X170010000Y-86487000D03*
X167810000Y-86487000D03*
D34*
X172974000Y-119337000D03*
X172974000Y-117137000D03*
D33*
X168867000Y-107315000D03*
X166667000Y-107315000D03*
D34*
X159512000Y-109644000D03*
X159512000Y-111844000D03*
D35*
X192030000Y-84700000D03*
X196590000Y-84700000D03*
D36*
X194310000Y-91000000D03*
D37*
X141173200Y-68122800D03*
X141173200Y-71922800D03*
D38*
X164020500Y-76898500D03*
X144020500Y-76898500D03*
D39*
X167640000Y-97028000D03*
X167640000Y-97428000D03*
X167640000Y-97828000D03*
X166990000Y-97028000D03*
X166990000Y-97428000D03*
X166990000Y-97828000D03*
M02*
